<svg width="250" height="71" viewBox="0 0 250 71" fill="none" xmlns="http://www.w3.org/2000/svg">
<g filter="url(#filter0_d)">
<rect x="4" width="242" height="63" fill="white"/>
</g>
<path d="M46.8398 32.7539H44.0391V39H40.5234V21.9375H46.8633C48.8789 21.9375 50.4336 22.3867 51.5273 23.2852C52.6211 24.1836 53.168 25.4531 53.168 27.0938C53.168 28.2578 52.9141 29.2305 52.4062 30.0117C51.9062 30.7852 51.1445 31.4023 50.1211 31.8633L53.8125 38.8359V39H50.0391L46.8398 32.7539ZM44.0391 29.9062H46.875C47.7578 29.9062 48.4414 29.6836 48.9258 29.2383C49.4102 28.7852 49.6523 28.1641 49.6523 27.375C49.6523 26.5703 49.4219 25.9375 48.9609 25.4766C48.5078 25.0156 47.8086 24.7852 46.8633 24.7852H44.0391V29.9062ZM62.5448 39.2344C60.6855 39.2344 59.1698 38.6641 57.998 37.5234C56.8339 36.3828 56.2519 34.8633 56.2519 32.9648V32.6367C56.2519 31.3633 56.498 30.2266 56.9902 29.2266C57.4823 28.2188 58.1777 27.4453 59.0761 26.9062C59.9823 26.3594 61.0136 26.0859 62.1698 26.0859C63.9042 26.0859 65.2675 26.6328 66.2597 27.7266C67.2597 28.8203 67.7597 30.3711 67.7597 32.3789V33.7617H59.6855C59.7948 34.5898 60.123 35.2539 60.6698 35.7539C61.2245 36.2539 61.9237 36.5039 62.7675 36.5039C64.0722 36.5039 65.0917 36.0312 65.8261 35.0859L67.4902 36.9492C66.9823 37.668 66.2948 38.2305 65.4277 38.6367C64.5605 39.0352 63.5995 39.2344 62.5448 39.2344ZM62.1581 28.8281C61.4862 28.8281 60.9394 29.0547 60.5175 29.5078C60.1034 29.9609 59.8378 30.6094 59.7206 31.4531H64.4316V31.1836C64.4159 30.4336 64.2128 29.8555 63.8222 29.4492C63.4316 29.0352 62.8769 28.8281 62.1581 28.8281ZM77.6405 35.4961C77.6405 35.082 77.4334 34.7578 77.0194 34.5234C76.6131 34.2812 75.9569 34.0664 75.0506 33.8789C72.035 33.2461 70.5272 31.9648 70.5272 30.0352C70.5272 28.9102 70.992 27.9727 71.9217 27.2227C72.8592 26.4648 74.0819 26.0859 75.5897 26.0859C77.1991 26.0859 78.4842 26.4648 79.4452 27.2227C80.4139 27.9805 80.8983 28.9648 80.8983 30.1758H77.5116C77.5116 29.6914 77.3553 29.293 77.0428 28.9805C76.7303 28.6602 76.242 28.5 75.578 28.5C75.0077 28.5 74.5662 28.6289 74.2537 28.8867C73.9412 29.1445 73.785 29.4727 73.785 29.8711C73.785 30.2461 73.9608 30.5508 74.3123 30.7852C74.6717 31.0117 75.2733 31.2109 76.117 31.3828C76.9608 31.5469 77.6717 31.7344 78.2498 31.9453C80.0389 32.6016 80.9334 33.7383 80.9334 35.3555C80.9334 36.5117 80.4373 37.4492 79.4452 38.168C78.453 38.8789 77.1717 39.2344 75.6014 39.2344C74.5389 39.2344 73.5936 39.0469 72.7655 38.6719C71.9452 38.2891 71.3006 37.7695 70.8319 37.1133C70.3631 36.4492 70.1287 35.7344 70.1287 34.9688H73.3397C73.3709 35.5703 73.5936 36.0312 74.0077 36.3516C74.4217 36.6719 74.9764 36.832 75.6717 36.832C76.3202 36.832 76.8084 36.7109 77.1366 36.4688C77.4725 36.2188 77.6405 35.8945 77.6405 35.4961ZM90.0408 39.2344C88.1814 39.2344 86.6658 38.6641 85.4939 37.5234C84.3298 36.3828 83.7478 34.8633 83.7478 32.9648V32.6367C83.7478 31.3633 83.9939 30.2266 84.4861 29.2266C84.9783 28.2188 85.6736 27.4453 86.572 26.9062C87.4783 26.3594 88.5095 26.0859 89.6658 26.0859C91.4002 26.0859 92.7634 26.6328 93.7556 27.7266C94.7556 28.8203 95.2556 30.3711 95.2556 32.3789V33.7617H87.1814C87.2908 34.5898 87.6189 35.2539 88.1658 35.7539C88.7205 36.2539 89.4197 36.5039 90.2634 36.5039C91.5681 36.5039 92.5877 36.0312 93.322 35.0859L94.9861 36.9492C94.4783 37.668 93.7908 38.2305 92.9236 38.6367C92.0564 39.0352 91.0955 39.2344 90.0408 39.2344ZM89.6541 28.8281C88.9822 28.8281 88.4353 29.0547 88.0134 29.5078C87.5994 29.9609 87.3338 30.6094 87.2166 31.4531H91.9275V31.1836C91.9119 30.4336 91.7088 29.8555 91.3181 29.4492C90.9275 29.0352 90.3728 28.8281 89.6541 28.8281ZM105.617 39C105.461 38.6953 105.347 38.3164 105.277 37.8633C104.457 38.7773 103.39 39.2344 102.078 39.2344C100.836 39.2344 99.8044 38.875 98.9841 38.1562C98.1716 37.4375 97.7653 36.5312 97.7653 35.4375C97.7653 34.0938 98.2614 33.0625 99.2536 32.3438C100.254 31.625 101.695 31.2617 103.578 31.2539H105.136V30.5273C105.136 29.9414 104.984 29.4727 104.679 29.1211C104.382 28.7695 103.91 28.5938 103.261 28.5938C102.691 28.5938 102.242 28.7305 101.914 29.0039C101.593 29.2773 101.433 29.6523 101.433 30.1289H98.0466C98.0466 29.3945 98.2731 28.7148 98.7262 28.0898C99.1794 27.4648 99.82 26.9766 100.648 26.625C101.476 26.2656 102.406 26.0859 103.437 26.0859C105 26.0859 106.238 26.4805 107.152 27.2695C108.074 28.0508 108.535 29.1523 108.535 30.5742V36.0703C108.543 37.2734 108.711 38.1836 109.039 38.8008V39H105.617ZM102.816 36.6445C103.316 36.6445 103.777 36.5352 104.199 36.3164C104.621 36.0898 104.933 35.7891 105.136 35.4141V33.2344H103.871C102.175 33.2344 101.273 33.8203 101.164 34.9922L101.152 35.1914C101.152 35.6133 101.3 35.9609 101.597 36.2344C101.894 36.5078 102.3 36.6445 102.816 36.6445ZM119.341 29.4961C118.88 29.4336 118.474 29.4023 118.123 29.4023C116.841 29.4023 116.002 29.8359 115.603 30.7031V39H112.216V26.3203H115.416L115.509 27.832C116.189 26.668 117.13 26.0859 118.334 26.0859C118.709 26.0859 119.06 26.1367 119.388 26.2383L119.341 29.4961ZM127.101 36.5039C127.726 36.5039 128.234 36.332 128.625 35.9883C129.015 35.6445 129.218 35.1875 129.234 34.6172H132.41C132.402 35.4766 132.168 36.2656 131.707 36.9844C131.246 37.6953 130.613 38.25 129.808 38.6484C129.011 39.0391 128.128 39.2344 127.16 39.2344C125.347 39.2344 123.918 38.6602 122.871 37.5117C121.824 36.3555 121.3 34.7617 121.3 32.7305V32.5078C121.3 30.5547 121.82 28.9961 122.859 27.832C123.898 26.668 125.324 26.0859 127.136 26.0859C128.722 26.0859 129.992 26.5391 130.945 27.4453C131.906 28.3438 132.394 29.543 132.41 31.043H129.234C129.218 30.3867 129.015 29.8555 128.625 29.4492C128.234 29.0352 127.718 28.8281 127.078 28.8281C126.289 28.8281 125.691 29.1172 125.285 29.6953C124.886 30.2656 124.687 31.1953 124.687 32.4844V32.8359C124.687 34.1406 124.886 35.0781 125.285 35.6484C125.683 36.2188 126.289 36.5039 127.101 36.5039ZM138.728 27.7031C139.626 26.625 140.755 26.0859 142.115 26.0859C144.865 26.0859 146.259 27.6836 146.298 30.8789V39H142.912V30.9727C142.912 30.2461 142.755 29.7109 142.443 29.3672C142.13 29.0156 141.611 28.8398 140.884 28.8398C139.892 28.8398 139.173 29.2227 138.728 29.9883V39H135.341V21H138.728V27.7031ZM170.712 36.8438C170.079 37.6016 169.185 38.1914 168.029 38.6133C166.872 39.0273 165.591 39.2344 164.185 39.2344C162.708 39.2344 161.411 38.9141 160.294 38.2734C159.185 37.625 158.325 36.6875 157.716 35.4609C157.115 34.2344 156.806 32.793 156.79 31.1367V29.9766C156.79 28.2734 157.075 26.8008 157.646 25.5586C158.224 24.3086 159.052 23.3555 160.13 22.6992C161.216 22.0352 162.486 21.7031 163.939 21.7031C165.962 21.7031 167.544 22.1875 168.685 23.1562C169.825 24.1172 170.501 25.5195 170.712 27.3633H167.29C167.134 26.3867 166.786 25.6719 166.247 25.2188C165.716 24.7656 164.982 24.5391 164.044 24.5391C162.849 24.5391 161.939 24.9883 161.314 25.8867C160.689 26.7852 160.372 28.1211 160.365 29.8945V30.9844C160.365 32.7734 160.704 34.125 161.384 35.0391C162.064 35.9531 163.06 36.4102 164.372 36.4102C165.693 36.4102 166.634 36.1289 167.197 35.5664V32.625H163.997V30.0352H170.712V36.8438ZM173.902 32.543C173.902 31.2852 174.144 30.1641 174.628 29.1797C175.113 28.1953 175.808 27.4336 176.714 26.8945C177.628 26.3555 178.687 26.0859 179.89 26.0859C181.601 26.0859 182.995 26.6094 184.073 27.6562C185.159 28.7031 185.765 30.125 185.89 31.9219L185.913 32.7891C185.913 34.7344 185.37 36.2969 184.284 37.4766C183.198 38.6484 181.741 39.2344 179.913 39.2344C178.085 39.2344 176.624 38.6484 175.53 37.4766C174.445 36.3047 173.902 34.7109 173.902 32.6953V32.543ZM177.288 32.7891C177.288 33.9922 177.515 34.9141 177.968 35.5547C178.421 36.1875 179.07 36.5039 179.913 36.5039C180.734 36.5039 181.374 36.1914 181.835 35.5664C182.296 34.9336 182.527 33.9258 182.527 32.543C182.527 31.3633 182.296 30.4492 181.835 29.8008C181.374 29.1523 180.726 28.8281 179.89 28.8281C179.062 28.8281 178.421 29.1523 177.968 29.8008C177.515 30.4414 177.288 31.4375 177.288 32.7891ZM196.427 39C196.271 38.6953 196.157 38.3164 196.087 37.8633C195.267 38.7773 194.2 39.2344 192.888 39.2344C191.646 39.2344 190.614 38.875 189.794 38.1562C188.982 37.4375 188.575 36.5312 188.575 35.4375C188.575 34.0938 189.071 33.0625 190.064 32.3438C191.064 31.625 192.505 31.2617 194.388 31.2539H195.946V30.5273C195.946 29.9414 195.794 29.4727 195.489 29.1211C195.193 28.7695 194.72 28.5938 194.071 28.5938C193.501 28.5938 193.052 28.7305 192.724 29.0039C192.403 29.2773 192.243 29.6523 192.243 30.1289H188.857C188.857 29.3945 189.083 28.7148 189.536 28.0898C189.989 27.4648 190.63 26.9766 191.458 26.625C192.286 26.2656 193.216 26.0859 194.247 26.0859C195.81 26.0859 197.048 26.4805 197.962 27.2695C198.884 28.0508 199.345 29.1523 199.345 30.5742V36.0703C199.353 37.2734 199.521 38.1836 199.849 38.8008V39H196.427ZM193.626 36.6445C194.126 36.6445 194.587 36.5352 195.009 36.3164C195.431 36.0898 195.743 35.7891 195.946 35.4141V33.2344H194.681C192.985 33.2344 192.083 33.8203 191.974 34.9922L191.962 35.1914C191.962 35.6133 192.11 35.9609 192.407 36.2344C192.704 36.5078 193.11 36.6445 193.626 36.6445ZM206.601 39H203.202V21H206.601V39ZM217.349 35.4961C217.349 35.082 217.142 34.7578 216.727 34.5234C216.321 34.2812 215.665 34.0664 214.759 33.8789C211.743 33.2461 210.235 31.9648 210.235 30.0352C210.235 28.9102 210.7 27.9727 211.63 27.2227C212.567 26.4648 213.79 26.0859 215.298 26.0859C216.907 26.0859 218.192 26.4648 219.153 27.2227C220.122 27.9805 220.606 28.9648 220.606 30.1758H217.22C217.22 29.6914 217.063 29.293 216.751 28.9805C216.438 28.6602 215.95 28.5 215.286 28.5C214.716 28.5 214.274 28.6289 213.962 28.8867C213.649 29.1445 213.493 29.4727 213.493 29.8711C213.493 30.2461 213.669 30.5508 214.02 30.7852C214.38 31.0117 214.981 31.2109 215.825 31.3828C216.669 31.5469 217.38 31.7344 217.958 31.9453C219.747 32.6016 220.642 33.7383 220.642 35.3555C220.642 36.5117 220.145 37.4492 219.153 38.168C218.161 38.8789 216.88 39.2344 215.31 39.2344C214.247 39.2344 213.302 39.0469 212.474 38.6719C211.653 38.2891 211.009 37.7695 210.54 37.1133C210.071 36.4492 209.837 35.7344 209.837 34.9688H213.048C213.079 35.5703 213.302 36.0312 213.716 36.3516C214.13 36.6719 214.685 36.832 215.38 36.832C216.028 36.832 216.517 36.7109 216.845 36.4688C217.181 36.2188 217.349 35.8945 217.349 35.4961ZM224.077 37.3359C224.077 36.7969 224.257 36.3594 224.616 36.0234C224.983 35.6875 225.44 35.5195 225.987 35.5195C226.542 35.5195 226.999 35.6875 227.358 36.0234C227.725 36.3594 227.909 36.7969 227.909 37.3359C227.909 37.8672 227.729 38.3008 227.37 38.6367C227.011 38.9648 226.55 39.1289 225.987 39.1289C225.432 39.1289 224.975 38.9648 224.616 38.6367C224.257 38.3008 224.077 37.8672 224.077 37.3359ZM224.077 27.7383C224.077 27.1992 224.257 26.7617 224.616 26.4258C224.983 26.0898 225.44 25.9219 225.987 25.9219C226.542 25.9219 226.999 26.0898 227.358 26.4258C227.725 26.7617 227.909 27.1992 227.909 27.7383C227.909 28.2695 227.729 28.7031 227.37 29.0391C227.011 29.3672 226.55 29.5312 225.987 29.5312C225.432 29.5312 224.975 29.3672 224.616 29.0391C224.257 28.7031 224.077 28.2695 224.077 27.7383Z" fill="#A090CB"/>
<rect x="4" width="10" height="63" fill="#E9E2FD"/>
<defs>
<filter id="filter0_d" x="0" y="0" width="250" height="71" filterUnits="userSpaceOnUse" color-interpolation-filters="sRGB">
<feFlood flood-opacity="0" result="BackgroundImageFix"/>
<feColorMatrix in="SourceAlpha" type="matrix" values="0 0 0 0 0 0 0 0 0 0 0 0 0 0 0 0 0 0 127 0"/>
<feOffset dy="4"/>
<feGaussianBlur stdDeviation="2"/>
<feColorMatrix type="matrix" values="0 0 0 0 0 0 0 0 0 0 0 0 0 0 0 0 0 0 0.25 0"/>
<feBlend mode="normal" in2="BackgroundImageFix" result="effect1_dropShadow"/>
<feBlend mode="normal" in="SourceGraphic" in2="effect1_dropShadow" result="shape"/>
</filter>
</defs>
</svg>
