<svg width="113" height="40" viewBox="0 0 113 40" fill="none" xmlns="http://www.w3.org/2000/svg">
<path d="M9.29688 17.0703H4.16016L3.18359 20H0.0683594L5.36133 5.78125H8.07617L13.3984 20H10.2832L9.29688 17.0703ZM4.95117 14.6973H8.50586L6.71875 9.375L4.95117 14.6973ZM16.2266 20V5.78125H21.207C22.9323 5.78125 24.2409 6.11328 25.1328 6.77734C26.0247 7.4349 26.4707 8.40169 26.4707 9.67773C26.4707 10.3743 26.2917 10.9896 25.9336 11.5234C25.5755 12.0508 25.0775 12.4382 24.4395 12.6855C25.1686 12.8678 25.7415 13.2357 26.1582 13.7891C26.5814 14.3424 26.793 15.0195 26.793 15.8203C26.793 17.1875 26.3568 18.2227 25.4844 18.9258C24.612 19.6289 23.3685 19.987 21.7539 20H16.2266ZM19.1562 13.8086V17.6465H21.666C22.3561 17.6465 22.8932 17.4837 23.2773 17.1582C23.668 16.8262 23.8633 16.3704 23.8633 15.791C23.8633 14.4889 23.1895 13.8281 21.8418 13.8086H19.1562ZM19.1562 11.7383H21.3242C22.8021 11.7122 23.541 11.123 23.541 9.9707C23.541 9.32617 23.3522 8.86393 22.9746 8.58398C22.6035 8.29753 22.0143 8.1543 21.207 8.1543H19.1562V11.7383ZM42.1797 13.2129C42.1797 14.6126 41.9323 15.8398 41.4375 16.8945C40.9427 17.9492 40.2331 18.763 39.3086 19.3359C38.3906 19.9089 37.3359 20.1953 36.1445 20.1953C34.9661 20.1953 33.9147 19.9121 32.9902 19.3457C32.0658 18.7793 31.3496 17.972 30.8418 16.9238C30.334 15.8691 30.0768 14.6582 30.0703 13.291V12.5879C30.0703 11.1882 30.321 9.95768 30.8223 8.89648C31.3301 7.82878 32.043 7.01172 32.9609 6.44531C33.8854 5.8724 34.9401 5.58594 36.125 5.58594C37.3099 5.58594 38.3613 5.8724 39.2793 6.44531C40.2038 7.01172 40.9167 7.82878 41.418 8.89648C41.9258 9.95768 42.1797 11.1849 42.1797 12.5781V13.2129ZM39.2109 12.5684C39.2109 11.0775 38.944 9.94466 38.4102 9.16992C37.8763 8.39518 37.1146 8.00781 36.125 8.00781C35.1419 8.00781 34.3835 8.39193 33.8496 9.16016C33.3158 9.92188 33.0456 11.0417 33.0391 12.5195V13.2129C33.0391 14.6647 33.306 15.791 33.8398 16.5918C34.3737 17.3926 35.1419 17.793 36.1445 17.793C37.1276 17.793 37.8828 17.4089 38.4102 16.6406C38.9375 15.8659 39.2044 14.7396 39.2109 13.2617V12.5684ZM56.5703 5.78125V15.1465C56.5703 16.7025 56.082 17.9329 55.1055 18.8379C54.1354 19.7428 52.8073 20.1953 51.1211 20.1953C49.4609 20.1953 48.1426 19.7559 47.166 18.877C46.1895 17.998 45.6914 16.7904 45.6719 15.2539V5.78125H48.6016V15.166C48.6016 16.097 48.8229 16.7773 49.2656 17.207C49.7148 17.6302 50.3333 17.8418 51.1211 17.8418C52.7682 17.8418 53.6048 16.9759 53.6309 15.2441V5.78125H56.5703ZM71.1758 8.1543H66.8203V20H63.8906V8.1543H59.5938V5.78125H71.1758V8.1543ZM84.0781 5.78125L87.7305 16.0938L91.3633 5.78125H95.2109V20H92.2715V16.1133L92.5645 9.4043L88.7266 20H86.7148L82.8867 9.41406L83.1797 16.1133V20H80.25V5.78125H84.0781ZM107.824 13.8379H102.199V17.6465H108.801V20H99.2695V5.78125H108.781V8.1543H102.199V11.543H107.824V13.8379Z" fill="#6A824E"/>
<rect y="34" width="109" height="6" fill="#6A824E"/>
</svg>
