<svg width="801" height="422" viewBox="0 0 801 422" fill="none" xmlns="http://www.w3.org/2000/svg">
<path d="M622.832 318.434V329H617.891V300.562H628.77C631.947 300.562 634.466 301.389 636.328 303.043C638.203 304.697 639.141 306.884 639.141 309.605C639.141 312.392 638.223 314.56 636.387 316.109C634.564 317.659 632.005 318.434 628.711 318.434H622.832ZM622.832 314.469H628.77C630.527 314.469 631.868 314.059 632.793 313.238C633.717 312.405 634.18 311.207 634.18 309.645C634.18 308.108 633.711 306.884 632.773 305.973C631.836 305.048 630.547 304.573 628.906 304.547H622.832V314.469ZM655.882 312.203C655.257 312.099 654.612 312.047 653.948 312.047C651.774 312.047 650.309 312.88 649.554 314.547V329H644.808V307.867H649.339L649.456 310.23C650.602 308.395 652.191 307.477 654.222 307.477C654.899 307.477 655.459 307.568 655.902 307.75L655.882 312.203ZM659.088 318.238C659.088 316.168 659.498 314.306 660.319 312.652C661.139 310.986 662.291 309.71 663.776 308.824C665.26 307.926 666.966 307.477 668.893 307.477C671.745 307.477 674.056 308.395 675.827 310.23C677.61 312.066 678.574 314.501 678.717 317.535L678.737 318.648C678.737 320.732 678.333 322.594 677.526 324.234C676.732 325.875 675.586 327.145 674.088 328.043C672.604 328.941 670.885 329.391 668.932 329.391C665.95 329.391 663.561 328.401 661.764 326.422C659.98 324.43 659.088 321.78 659.088 318.473V318.238ZM663.834 318.648C663.834 320.823 664.284 322.529 665.182 323.766C666.08 324.99 667.33 325.602 668.932 325.602C670.534 325.602 671.777 324.977 672.662 323.727C673.561 322.477 674.01 320.647 674.01 318.238C674.01 316.103 673.548 314.41 672.623 313.16C671.712 311.91 670.468 311.285 668.893 311.285C667.343 311.285 666.113 311.904 665.202 313.141C664.29 314.365 663.834 316.201 663.834 318.648ZM683.662 318.277C683.662 315.022 684.417 312.411 685.927 310.445C687.438 308.466 689.463 307.477 692.002 307.477C694.241 307.477 696.051 308.258 697.431 309.82V299H702.177V329H697.88L697.646 326.812C696.227 328.531 694.332 329.391 691.963 329.391C689.489 329.391 687.483 328.395 685.947 326.402C684.423 324.41 683.662 321.702 683.662 318.277ZM688.408 318.688C688.408 320.836 688.818 322.516 689.638 323.727C690.472 324.924 691.65 325.523 693.173 325.523C695.114 325.523 696.533 324.658 697.431 322.926V313.902C696.559 312.21 695.153 311.363 693.213 311.363C691.676 311.363 690.491 311.975 689.658 313.199C688.824 314.41 688.408 316.24 688.408 318.688ZM721.731 326.93C720.338 328.57 718.359 329.391 715.794 329.391C713.502 329.391 711.764 328.72 710.579 327.379C709.407 326.038 708.821 324.098 708.821 321.559V307.867H713.567V321.5C713.567 324.182 714.68 325.523 716.907 325.523C719.212 325.523 720.768 324.697 721.575 323.043V307.867H726.321V329H721.848L721.731 326.93ZM741.637 325.602C742.822 325.602 743.805 325.257 744.586 324.566C745.367 323.876 745.784 323.023 745.836 322.008H750.309C750.257 323.323 749.846 324.553 749.078 325.699C748.31 326.832 747.268 327.73 745.953 328.395C744.638 329.059 743.219 329.391 741.695 329.391C738.74 329.391 736.396 328.434 734.664 326.52C732.932 324.605 732.066 321.962 732.066 318.59V318.102C732.066 314.885 732.926 312.314 734.645 310.387C736.363 308.447 738.707 307.477 741.676 307.477C744.189 307.477 746.233 308.212 747.809 309.684C749.397 311.142 750.23 313.062 750.309 315.445H745.836C745.784 314.234 745.367 313.238 744.586 312.457C743.818 311.676 742.835 311.285 741.637 311.285C740.1 311.285 738.915 311.845 738.082 312.965C737.249 314.072 736.826 315.758 736.812 318.023V318.785C736.812 321.077 737.223 322.789 738.043 323.922C738.876 325.042 740.074 325.602 741.637 325.602ZM761.64 302.73V307.867H765.37V311.383H761.64V323.18C761.64 323.987 761.796 324.573 762.109 324.938C762.434 325.289 763.007 325.465 763.827 325.465C764.374 325.465 764.928 325.4 765.488 325.27V328.941C764.407 329.241 763.365 329.391 762.363 329.391C758.717 329.391 756.894 327.379 756.894 323.355V311.383H753.417V307.867H756.894V302.73H761.64ZM617.891 373V344.562H626.289C628.802 344.562 631.029 345.122 632.969 346.242C634.922 347.362 636.432 348.951 637.5 351.008C638.568 353.065 639.102 355.422 639.102 358.078V359.504C639.102 362.199 638.561 364.569 637.48 366.613C636.413 368.658 634.883 370.233 632.891 371.34C630.911 372.447 628.639 373 626.074 373H617.891ZM622.832 348.547V369.055H626.055C628.646 369.055 630.632 368.247 632.012 366.633C633.405 365.005 634.115 362.674 634.141 359.641V358.059C634.141 354.973 633.47 352.616 632.129 350.988C630.788 349.361 628.841 348.547 626.289 348.547H622.832ZM654.671 373.391C651.663 373.391 649.222 372.447 647.347 370.559C645.485 368.658 644.554 366.132 644.554 362.98V362.395C644.554 360.285 644.958 358.404 645.765 356.75C646.585 355.083 647.731 353.788 649.202 352.863C650.674 351.939 652.314 351.477 654.124 351.477C657.002 351.477 659.222 352.395 660.784 354.23C662.36 356.066 663.148 358.664 663.148 362.023V363.938H649.339C649.482 365.682 650.062 367.062 651.077 368.078C652.106 369.094 653.395 369.602 654.945 369.602C657.119 369.602 658.89 368.723 660.257 366.965L662.816 369.406C661.969 370.669 660.836 371.652 659.417 372.355C658.011 373.046 656.429 373.391 654.671 373.391ZM654.105 355.285C652.803 355.285 651.748 355.741 650.941 356.652C650.146 357.564 649.639 358.833 649.417 360.461H658.46V360.109C658.356 358.521 657.933 357.323 657.191 356.516C656.448 355.695 655.42 355.285 654.105 355.285ZM680.495 367.258C680.495 366.411 680.143 365.767 679.44 365.324C678.75 364.882 677.597 364.491 675.983 364.152C674.368 363.814 673.021 363.384 671.94 362.863C669.57 361.717 668.385 360.057 668.385 357.883C668.385 356.06 669.153 354.536 670.69 353.312C672.226 352.089 674.179 351.477 676.549 351.477C679.075 351.477 681.113 352.102 682.662 353.352C684.225 354.602 685.006 356.223 685.006 358.215H680.26C680.26 357.303 679.922 356.548 679.245 355.949C678.567 355.337 677.669 355.031 676.549 355.031C675.508 355.031 674.655 355.272 673.991 355.754C673.34 356.236 673.014 356.88 673.014 357.688C673.014 358.417 673.32 358.983 673.932 359.387C674.544 359.79 675.781 360.201 677.643 360.617C679.505 361.021 680.963 361.509 682.018 362.082C683.086 362.642 683.873 363.319 684.381 364.113C684.902 364.908 685.162 365.871 685.162 367.004C685.162 368.905 684.375 370.448 682.799 371.633C681.224 372.805 679.16 373.391 676.608 373.391C674.876 373.391 673.333 373.078 671.979 372.453C670.625 371.828 669.57 370.969 668.815 369.875C668.06 368.781 667.682 367.603 667.682 366.34H672.291C672.357 367.46 672.78 368.326 673.561 368.938C674.342 369.536 675.377 369.836 676.666 369.836C677.916 369.836 678.867 369.602 679.518 369.133C680.169 368.651 680.495 368.026 680.495 367.258ZM696.162 373H691.416V351.867H696.162V373ZM691.123 346.379C691.123 345.65 691.351 345.044 691.806 344.562C692.275 344.081 692.939 343.84 693.798 343.84C694.658 343.84 695.322 344.081 695.791 344.562C696.259 345.044 696.494 345.65 696.494 346.379C696.494 347.095 696.259 347.694 695.791 348.176C695.322 348.645 694.658 348.879 693.798 348.879C692.939 348.879 692.275 348.645 691.806 348.176C691.351 347.694 691.123 347.095 691.123 346.379ZM702.317 362.277C702.317 358.996 703.085 356.379 704.622 354.426C706.171 352.46 708.222 351.477 710.774 351.477C713.183 351.477 715.078 352.316 716.458 353.996L716.673 351.867H720.95V372.355C720.95 375.129 720.084 377.316 718.352 378.918C716.634 380.52 714.309 381.32 711.38 381.32C709.83 381.32 708.313 380.995 706.829 380.344C705.358 379.706 704.238 378.866 703.47 377.824L705.716 374.973C707.174 376.704 708.971 377.57 711.106 377.57C712.682 377.57 713.925 377.141 714.837 376.281C715.748 375.435 716.204 374.185 716.204 372.531V371.105C714.837 372.629 713.014 373.391 710.735 373.391C708.261 373.391 706.236 372.408 704.661 370.441C703.098 368.475 702.317 365.754 702.317 362.277ZM707.044 362.688C707.044 364.81 707.473 366.483 708.333 367.707C709.205 368.918 710.41 369.523 711.946 369.523C713.86 369.523 715.279 368.703 716.204 367.062V357.766C715.305 356.164 713.899 355.363 711.985 355.363C710.423 355.363 709.205 355.982 708.333 357.219C707.473 358.456 707.044 360.279 707.044 362.688ZM732.047 351.867L732.184 354.309C733.746 352.421 735.797 351.477 738.336 351.477C742.737 351.477 744.977 353.996 745.055 359.035V373H740.309V359.309C740.309 357.967 740.016 356.978 739.43 356.34C738.857 355.689 737.913 355.363 736.598 355.363C734.684 355.363 733.258 356.229 732.32 357.961V373H727.574V351.867H732.047ZM761.015 373.391C758.007 373.391 755.566 372.447 753.691 370.559C751.829 368.658 750.898 366.132 750.898 362.98V362.395C750.898 360.285 751.301 358.404 752.109 356.75C752.929 355.083 754.075 353.788 755.546 352.863C757.017 351.939 758.658 351.477 760.468 351.477C763.346 351.477 765.566 352.395 767.128 354.23C768.704 356.066 769.491 358.664 769.491 362.023V363.938H755.683C755.826 365.682 756.405 367.062 757.421 368.078C758.45 369.094 759.739 369.602 761.288 369.602C763.463 369.602 765.234 368.723 766.601 366.965L769.159 369.406C768.313 370.669 767.18 371.652 765.761 372.355C764.355 373.046 762.773 373.391 761.015 373.391ZM760.448 355.285C759.146 355.285 758.092 355.741 757.284 356.652C756.49 357.564 755.982 358.833 755.761 360.461H764.804V360.109C764.7 358.521 764.277 357.323 763.534 356.516C762.792 355.695 761.764 355.285 760.448 355.285ZM786.057 356.203C785.432 356.099 784.788 356.047 784.123 356.047C781.949 356.047 780.484 356.88 779.729 358.547V373H774.983V351.867H779.514L779.631 354.23C780.777 352.395 782.366 351.477 784.397 351.477C785.074 351.477 785.634 351.568 786.077 351.75L786.057 356.203Z" fill="black"/>
<path d="M364.056 373H332.195V204.25H364.056V373ZM477.254 360.915C469.417 370.437 458.578 375.197 444.735 375.197C431.991 375.197 422.25 371.535 415.511 364.211C408.846 356.887 405.44 346.157 405.294 332.021V254.128H437.044V330.922C437.044 343.3 442.684 349.489 453.963 349.489C464.73 349.489 472.127 345.754 476.156 338.283V254.128H508.016V373H478.133L477.254 360.915ZM549.364 357.399C549.364 352.346 551.049 348.244 554.418 345.095C557.86 341.945 562.145 340.371 567.272 340.371C572.472 340.371 576.757 341.945 580.126 345.095C583.568 348.244 585.29 352.346 585.29 357.399C585.29 362.38 583.605 366.445 580.236 369.594C576.867 372.67 572.545 374.208 567.272 374.208C562.072 374.208 557.787 372.67 554.418 369.594C551.049 366.445 549.364 362.38 549.364 357.399Z" fill="black"/>
<path d="M364.056 373V374H365.056V373H364.056ZM332.195 373H331.195V374H332.195V373ZM332.195 204.25V203.25H331.195V204.25H332.195ZM364.056 204.25H365.056V203.25H364.056V204.25ZM364.056 372H332.195V374H364.056V372ZM333.195 373V204.25H331.195V373H333.195ZM332.195 205.25H364.056V203.25H332.195V205.25ZM363.056 204.25V373H365.056V204.25H363.056ZM477.254 360.915L478.252 360.842L478.07 358.35L476.482 360.28L477.254 360.915ZM415.511 364.211L414.772 364.884L414.775 364.888L415.511 364.211ZM405.294 332.021H404.294L404.294 332.031L405.294 332.021ZM405.294 254.128V253.128H404.294V254.128H405.294ZM437.044 254.128H438.044V253.128H437.044V254.128ZM476.156 338.283L477.036 338.758L477.156 338.536V338.283H476.156ZM476.156 254.128V253.128H475.156V254.128H476.156ZM508.016 254.128H509.016V253.128H508.016V254.128ZM508.016 373V374H509.016V373H508.016ZM478.133 373L477.136 373.073L477.203 374H478.133V373ZM476.482 360.28C468.86 369.54 458.32 374.197 444.735 374.197V376.197C458.835 376.197 469.975 371.333 478.026 361.551L476.482 360.28ZM444.735 374.197C432.187 374.197 422.746 370.598 416.247 363.534L414.775 364.888C421.753 372.472 431.794 376.197 444.735 376.197V374.197ZM416.251 363.538C409.81 356.46 406.439 346.005 406.294 332.011L404.294 332.031C404.442 346.309 407.883 357.314 414.772 364.884L416.251 363.538ZM406.294 332.021V254.128H404.294V332.021H406.294ZM405.294 255.128H437.044V253.128H405.294V255.128ZM436.044 254.128V330.922H438.044V254.128H436.044ZM436.044 330.922C436.044 337.244 437.483 342.171 440.535 345.521C443.604 348.889 448.144 350.489 453.963 350.489V348.489C448.503 348.489 444.584 346.995 442.013 344.174C439.426 341.335 438.044 336.979 438.044 330.922H436.044ZM453.963 350.489C464.982 350.489 472.784 346.643 477.036 338.758L475.276 337.809C471.471 344.865 464.478 348.489 453.963 348.489V350.489ZM477.156 338.283V254.128H475.156V338.283H477.156ZM476.156 255.128H508.016V253.128H476.156V255.128ZM507.016 254.128V373H509.016V254.128H507.016ZM508.016 372H478.133V374H508.016V372ZM479.131 372.927L478.252 360.842L476.257 360.988L477.136 373.073L479.131 372.927ZM554.418 345.095L553.743 344.357L553.735 344.364L554.418 345.095ZM580.126 345.095L579.443 345.825L579.451 345.833L580.126 345.095ZM580.236 369.594L580.91 370.333L580.919 370.325L580.236 369.594ZM554.418 369.594L553.735 370.325L553.744 370.333L554.418 369.594ZM550.364 357.399C550.364 352.593 551.955 348.766 555.101 345.825L553.735 344.364C550.143 347.722 548.364 352.098 548.364 357.399H550.364ZM555.093 345.833C558.332 342.869 562.368 341.371 567.272 341.371V339.371C561.922 339.371 557.389 341.022 553.743 344.357L555.093 345.833ZM567.272 341.371C572.254 341.371 576.283 342.871 579.443 345.825L580.809 344.364C577.23 341.019 572.691 339.371 567.272 339.371V341.371ZM579.451 345.833C582.668 348.776 584.29 352.6 584.29 357.399H586.29C586.29 352.091 584.469 347.713 580.801 344.357L579.451 345.833ZM584.29 357.399C584.29 362.128 582.702 365.92 579.553 368.864L580.919 370.325C584.508 366.97 586.29 362.632 586.29 357.399H584.29ZM579.562 368.856C576.405 371.738 572.337 373.208 567.272 373.208V375.208C572.753 375.208 577.328 373.603 580.91 370.333L579.562 368.856ZM567.272 373.208C562.284 373.208 558.251 371.74 555.092 368.856L553.744 370.333C557.323 373.601 561.86 375.208 567.272 375.208V373.208ZM555.101 368.864C551.951 365.92 550.364 362.128 550.364 357.399H548.364C548.364 362.632 550.146 366.97 553.735 370.325L555.101 368.864Z" fill="black"/>
<path d="M102.014 171C100.386 167.826 99.2061 163.879 98.4736 159.159C89.9287 168.681 78.8203 173.441 65.1484 173.441C52.209 173.441 41.4668 169.698 32.9219 162.211C24.4583 154.724 20.2266 145.284 20.2266 133.891C20.2266 119.893 25.3942 109.151 35.7295 101.664C46.1462 94.1771 61.1608 90.3929 80.7734 90.3115H97.0088V82.7432C97.0088 76.6396 95.4219 71.7568 92.248 68.0947C89.1556 64.4326 84.2321 62.6016 77.4775 62.6016C71.5368 62.6016 66.8574 64.0257 63.4395 66.874C60.1029 69.7223 58.4346 73.6286 58.4346 78.5928H23.1562C23.1562 70.943 25.5163 63.863 30.2363 57.3525C34.9564 50.8421 41.6296 45.7559 50.2559 42.0938C58.8822 38.3503 68.5664 36.4785 79.3086 36.4785C95.5846 36.4785 108.483 40.5882 118.005 48.8076C127.608 56.9456 132.409 68.4202 132.409 83.2314V140.482C132.491 153.015 134.24 162.496 137.658 168.925V171H102.014ZM72.8389 146.464C78.0472 146.464 82.8486 145.325 87.2432 143.046C91.6377 140.686 94.8929 137.553 97.0088 133.646V110.941H83.8252C66.1657 110.941 56.7663 117.045 55.627 129.252L55.5049 131.327C55.5049 135.722 57.0511 139.343 60.1436 142.191C63.236 145.04 67.4678 146.464 72.8389 146.464ZM210.09 38.9199L211.188 53.6904C220.547 42.2158 233.202 36.4785 249.152 36.4785C266.161 36.4785 277.839 43.1924 284.187 56.6201C293.464 43.1924 306.688 36.4785 323.859 36.4785C338.182 36.4785 348.843 40.6696 355.842 49.0518C362.84 57.3525 366.34 69.8851 366.34 86.6494V171H330.939V86.7715C330.939 79.2845 329.475 73.832 326.545 70.4141C323.615 66.9147 318.448 65.165 311.042 65.165C300.463 65.165 293.138 70.2106 289.069 80.3018L289.191 171H253.913V86.8936C253.913 79.2438 252.408 73.71 249.396 70.292C246.385 66.874 241.258 65.165 234.016 65.165C224.006 65.165 216.763 69.3154 212.287 77.6162V171H177.009V38.9199H210.09ZM460.378 121.073L484.792 38.9199H522.634L469.533 191.508L466.604 198.466C458.71 215.718 445.689 224.345 427.541 224.345C422.414 224.345 417.206 223.572 411.916 222.025V195.292L417.287 195.414C423.96 195.414 428.924 194.397 432.18 192.362C435.516 190.328 438.12 186.951 439.992 182.23L444.143 171.366L397.878 38.9199H435.842L460.378 121.073Z" fill="black"/>
</svg>
