<svg width="754" height="561" viewBox="0 0 754 561" fill="none" xmlns="http://www.w3.org/2000/svg">
<path d="M347.545 473.401C347.334 475.206 346.666 476.6 345.541 477.585C344.424 478.561 342.936 479.05 341.076 479.05C339.061 479.05 337.443 478.327 336.225 476.882C335.014 475.436 334.408 473.503 334.408 471.081V469.44C334.408 467.854 334.689 466.46 335.252 465.257C335.822 464.053 336.627 463.132 337.666 462.491C338.705 461.843 339.908 461.518 341.275 461.518C343.088 461.518 344.541 462.026 345.635 463.042C346.729 464.05 347.365 465.448 347.545 467.237H345.283C345.088 465.878 344.662 464.893 344.006 464.284C343.357 463.675 342.447 463.37 341.275 463.37C339.838 463.37 338.709 463.901 337.889 464.964C337.076 466.026 336.67 467.538 336.67 469.499V471.151C336.67 473.003 337.057 474.475 337.83 475.569C338.604 476.663 339.686 477.21 341.076 477.21C342.326 477.21 343.283 476.928 343.947 476.366C344.619 475.796 345.064 474.807 345.283 473.401H347.545ZM359.555 477.561C358.711 478.553 357.473 479.05 355.84 479.05C354.489 479.05 353.458 478.659 352.747 477.878C352.044 477.089 351.688 475.925 351.68 474.385V466.135H353.848V474.327C353.848 476.249 354.629 477.21 356.192 477.21C357.848 477.21 358.95 476.593 359.497 475.358V466.135H361.665V478.815H359.602L359.555 477.561ZM372.538 468.081C372.21 468.026 371.855 467.999 371.472 467.999C370.05 467.999 369.085 468.604 368.577 469.815V478.815H366.409V466.135H368.519L368.554 467.6C369.265 466.468 370.273 465.901 371.577 465.901C371.999 465.901 372.319 465.956 372.538 466.065V468.081ZM382.111 468.081C381.783 468.026 381.427 467.999 381.045 467.999C379.623 467.999 378.658 468.604 378.15 469.815V478.815H375.982V466.135H378.091L378.127 467.6C378.838 466.468 379.845 465.901 381.15 465.901C381.572 465.901 381.892 465.956 382.111 466.065V468.081ZM390.582 479.05C388.864 479.05 387.465 478.487 386.387 477.362C385.309 476.229 384.77 474.718 384.77 472.827V472.428C384.77 471.171 385.008 470.05 385.485 469.065C385.969 468.073 386.641 467.3 387.5 466.745C388.367 466.182 389.305 465.901 390.313 465.901C391.961 465.901 393.242 466.444 394.156 467.53C395.071 468.616 395.528 470.171 395.528 472.194V473.096H386.938C386.969 474.346 387.332 475.358 388.028 476.132C388.731 476.897 389.621 477.28 390.699 477.28C391.465 477.28 392.114 477.124 392.645 476.811C393.176 476.499 393.641 476.085 394.039 475.569L395.364 476.6C394.301 478.233 392.707 479.05 390.582 479.05ZM390.313 467.682C389.438 467.682 388.703 468.003 388.11 468.643C387.516 469.276 387.149 470.167 387.008 471.315H393.36V471.151C393.297 470.05 393 469.198 392.469 468.596C391.938 467.987 391.219 467.682 390.313 467.682ZM401.538 466.135L401.608 467.729C402.577 466.51 403.843 465.901 405.405 465.901C408.085 465.901 409.436 467.413 409.46 470.436V478.815H407.292V470.425C407.284 469.51 407.073 468.835 406.659 468.397C406.253 467.96 405.616 467.741 404.749 467.741C404.046 467.741 403.429 467.928 402.897 468.303C402.366 468.678 401.952 469.171 401.655 469.78V478.815H399.487V466.135H401.538ZM417.111 463.065V466.135H419.478V467.811H417.111V475.675C417.111 476.182 417.216 476.565 417.427 476.823C417.638 477.073 417.997 477.198 418.505 477.198C418.755 477.198 419.099 477.151 419.536 477.057V478.815C418.966 478.971 418.411 479.05 417.872 479.05C416.904 479.05 416.173 478.757 415.681 478.171C415.189 477.585 414.943 476.753 414.943 475.675V467.811H412.634V466.135H414.943V463.065H417.111ZM425.816 478.815H423.648V460.815H425.816V478.815ZM434.885 475.639L437.838 466.135H440.159L435.061 480.772C434.272 482.882 433.018 483.936 431.299 483.936L430.889 483.901L430.081 483.749V481.991L430.666 482.038C431.401 482.038 431.971 481.889 432.377 481.593C432.791 481.296 433.131 480.753 433.397 479.964L433.877 478.675L429.354 466.135H431.721L434.885 475.639ZM458.32 475.452C458.32 474.866 458.097 474.413 457.652 474.093C457.214 473.764 456.445 473.483 455.343 473.249C454.25 473.014 453.379 472.733 452.73 472.405C452.089 472.077 451.613 471.686 451.3 471.233C450.996 470.78 450.843 470.241 450.843 469.616C450.843 468.577 451.281 467.698 452.156 466.979C453.039 466.26 454.164 465.901 455.531 465.901C456.968 465.901 458.132 466.272 459.023 467.014C459.921 467.757 460.371 468.706 460.371 469.862H458.191C458.191 469.268 457.937 468.757 457.429 468.327C456.929 467.897 456.296 467.682 455.531 467.682C454.742 467.682 454.125 467.854 453.679 468.198C453.234 468.542 453.011 468.991 453.011 469.546C453.011 470.069 453.218 470.464 453.632 470.729C454.046 470.995 454.793 471.249 455.871 471.491C456.957 471.733 457.836 472.022 458.507 472.358C459.179 472.694 459.675 473.1 459.996 473.577C460.324 474.046 460.488 474.62 460.488 475.3C460.488 476.432 460.035 477.343 459.129 478.03C458.222 478.71 457.046 479.05 455.601 479.05C454.586 479.05 453.687 478.87 452.906 478.51C452.125 478.151 451.511 477.651 451.066 477.01C450.629 476.362 450.41 475.663 450.41 474.913H452.578C452.617 475.639 452.906 476.218 453.445 476.647C453.992 477.069 454.711 477.28 455.601 477.28C456.421 477.28 457.078 477.116 457.57 476.788C458.07 476.452 458.32 476.007 458.32 475.452ZM467.694 463.065V466.135H470.061V467.811H467.694V475.675C467.694 476.182 467.799 476.565 468.01 476.823C468.221 477.073 468.58 477.198 469.088 477.198C469.338 477.198 469.682 477.151 470.119 477.057V478.815C469.549 478.971 468.994 479.05 468.455 479.05C467.486 479.05 466.756 478.757 466.264 478.171C465.772 477.585 465.526 476.753 465.526 475.675V467.811H463.217V466.135H465.526V463.065H467.694ZM481.872 477.561C481.028 478.553 479.79 479.05 478.157 479.05C476.805 479.05 475.774 478.659 475.063 477.878C474.36 477.089 474.005 475.925 473.997 474.385V466.135H476.165V474.327C476.165 476.249 476.946 477.21 478.509 477.21C480.165 477.21 481.266 476.593 481.813 475.358V466.135H483.981V478.815H481.919L481.872 477.561ZM488.199 472.37C488.199 470.425 488.659 468.862 489.581 467.682C490.503 466.495 491.71 465.901 493.202 465.901C494.687 465.901 495.863 466.409 496.73 467.425V460.815H498.898V478.815H496.906L496.8 477.456C495.933 478.518 494.726 479.05 493.179 479.05C491.71 479.05 490.511 478.448 489.581 477.245C488.659 476.042 488.199 474.471 488.199 472.534V472.37ZM490.366 472.616C490.366 474.053 490.663 475.178 491.257 475.991C491.851 476.803 492.671 477.21 493.718 477.21C495.093 477.21 496.097 476.593 496.73 475.358V469.534C496.081 468.339 495.085 467.741 493.741 467.741C492.679 467.741 491.851 468.151 491.257 468.971C490.663 469.792 490.366 471.007 490.366 472.616ZM507.861 475.639L510.814 466.135H513.135L508.037 480.772C507.248 482.882 505.994 483.936 504.275 483.936L503.865 483.901L503.056 483.749V481.991L503.642 482.038C504.377 482.038 504.947 481.889 505.353 481.593C505.767 481.296 506.107 480.753 506.373 479.964L506.853 478.675L502.33 466.135H504.697L507.861 475.639ZM518.875 478.815H516.707V466.135H518.875V478.815ZM516.532 462.772C516.532 462.421 516.637 462.124 516.848 461.882C517.067 461.639 517.387 461.518 517.809 461.518C518.231 461.518 518.551 461.639 518.77 461.882C518.989 462.124 519.098 462.421 519.098 462.772C519.098 463.124 518.989 463.417 518.77 463.651C518.551 463.885 518.231 464.003 517.809 464.003C517.387 464.003 517.067 463.885 516.848 463.651C516.637 463.417 516.532 463.124 516.532 462.772ZM525.847 466.135L525.917 467.729C526.886 466.51 528.151 465.901 529.714 465.901C532.394 465.901 533.745 467.413 533.769 470.436V478.815H531.601V470.425C531.593 469.51 531.382 468.835 530.968 468.397C530.561 467.96 529.925 467.741 529.058 467.741C528.354 467.741 527.737 467.928 527.206 468.303C526.675 468.678 526.261 469.171 525.964 469.78V478.815H523.796V466.135H525.847ZM537.962 472.37C537.962 470.393 538.419 468.823 539.334 467.659C540.248 466.487 541.459 465.901 542.966 465.901C544.513 465.901 545.72 466.448 546.587 467.542L546.693 466.135H548.673V478.51C548.673 480.151 548.185 481.444 547.209 482.389C546.24 483.335 544.935 483.807 543.294 483.807C542.38 483.807 541.486 483.612 540.611 483.221C539.736 482.831 539.068 482.296 538.607 481.616L539.732 480.315C540.662 481.464 541.798 482.038 543.142 482.038C544.197 482.038 545.017 481.741 545.603 481.147C546.197 480.553 546.494 479.718 546.494 478.639V477.55C545.626 478.55 544.443 479.05 542.943 479.05C541.459 479.05 540.255 478.452 539.334 477.257C538.419 476.061 537.962 474.432 537.962 472.37ZM540.142 472.616C540.142 474.046 540.435 475.171 541.021 475.991C541.607 476.803 542.427 477.21 543.482 477.21C544.849 477.21 545.853 476.589 546.494 475.346V469.557C545.83 468.346 544.834 467.741 543.505 467.741C542.451 467.741 541.626 468.151 541.033 468.971C540.439 469.792 540.142 471.007 540.142 472.616ZM564.034 461.753L569.612 475.675L575.19 461.753H578.108V478.815H575.858V472.171L576.069 464.999L570.467 478.815H568.745L563.155 465.034L563.378 472.171V478.815H561.128V461.753H564.034ZM591.009 478.815C590.884 478.565 590.782 478.12 590.704 477.479C589.696 478.526 588.493 479.05 587.095 479.05C585.845 479.05 584.818 478.698 584.013 477.995C583.216 477.284 582.818 476.385 582.818 475.3C582.818 473.979 583.318 472.956 584.318 472.229C585.325 471.495 586.739 471.128 588.56 471.128H590.669V470.132C590.669 469.374 590.443 468.772 589.989 468.327C589.536 467.874 588.868 467.647 587.986 467.647C587.212 467.647 586.564 467.843 586.04 468.233C585.517 468.624 585.255 469.096 585.255 469.651H583.075C583.075 469.018 583.298 468.409 583.743 467.823C584.196 467.229 584.806 466.76 585.571 466.417C586.345 466.073 587.193 465.901 588.114 465.901C589.575 465.901 590.72 466.268 591.548 467.003C592.376 467.729 592.806 468.733 592.837 470.014V475.85C592.837 477.014 592.986 477.94 593.282 478.628V478.815H591.009ZM587.411 477.163C588.091 477.163 588.736 476.987 589.345 476.635C589.954 476.284 590.396 475.827 590.669 475.264V472.663H588.97C586.314 472.663 584.986 473.44 584.986 474.995C584.986 475.675 585.212 476.206 585.665 476.589C586.118 476.971 586.7 477.163 587.411 477.163ZM605.058 475.452C605.058 474.866 604.836 474.413 604.39 474.093C603.953 473.764 603.183 473.483 602.082 473.249C600.988 473.014 600.117 472.733 599.469 472.405C598.828 472.077 598.351 471.686 598.039 471.233C597.734 470.78 597.582 470.241 597.582 469.616C597.582 468.577 598.019 467.698 598.894 466.979C599.777 466.26 600.902 465.901 602.269 465.901C603.707 465.901 604.871 466.272 605.761 467.014C606.66 467.757 607.109 468.706 607.109 469.862H604.929C604.929 469.268 604.676 468.757 604.168 468.327C603.668 467.897 603.035 467.682 602.269 467.682C601.48 467.682 600.863 467.854 600.418 468.198C599.972 468.542 599.75 468.991 599.75 469.546C599.75 470.069 599.957 470.464 600.371 470.729C600.785 470.995 601.531 471.249 602.609 471.491C603.695 471.733 604.574 472.022 605.246 472.358C605.918 472.694 606.414 473.1 606.734 473.577C607.062 474.046 607.226 474.62 607.226 475.3C607.226 476.432 606.773 477.343 605.867 478.03C604.961 478.71 603.785 479.05 602.34 479.05C601.324 479.05 600.426 478.87 599.644 478.51C598.863 478.151 598.25 477.651 597.804 477.01C597.367 476.362 597.148 475.663 597.148 474.913H599.316C599.355 475.639 599.644 476.218 600.183 476.647C600.73 477.069 601.449 477.28 602.34 477.28C603.16 477.28 603.816 477.116 604.308 476.788C604.808 476.452 605.058 476.007 605.058 475.452ZM614.432 463.065V466.135H616.799V467.811H614.432V475.675C614.432 476.182 614.537 476.565 614.748 476.823C614.959 477.073 615.319 477.198 615.826 477.198C616.076 477.198 616.42 477.151 616.858 477.057V478.815C616.287 478.971 615.733 479.05 615.194 479.05C614.225 479.05 613.494 478.757 613.002 478.171C612.51 477.585 612.264 476.753 612.264 475.675V467.811H609.955V466.135H612.264V463.065H614.432ZM626.044 479.05C624.325 479.05 622.927 478.487 621.849 477.362C620.77 476.229 620.231 474.718 620.231 472.827V472.428C620.231 471.171 620.47 470.05 620.946 469.065C621.431 468.073 622.102 467.3 622.962 466.745C623.829 466.182 624.766 465.901 625.774 465.901C627.423 465.901 628.704 466.444 629.618 467.53C630.532 468.616 630.989 470.171 630.989 472.194V473.096H622.399C622.431 474.346 622.794 475.358 623.489 476.132C624.192 476.897 625.083 477.28 626.161 477.28C626.927 477.28 627.575 477.124 628.106 476.811C628.638 476.499 629.102 476.085 629.501 475.569L630.825 476.6C629.763 478.233 628.169 479.05 626.044 479.05ZM625.774 467.682C624.899 467.682 624.165 468.003 623.571 468.643C622.977 469.276 622.61 470.167 622.47 471.315H628.821V471.151C628.759 470.05 628.462 469.198 627.931 468.596C627.399 467.987 626.681 467.682 625.774 467.682ZM641.078 468.081C640.749 468.026 640.394 467.999 640.011 467.999C638.589 467.999 637.624 468.604 637.117 469.815V478.815H634.949V466.135H637.058L637.093 467.6C637.804 466.468 638.812 465.901 640.117 465.901C640.539 465.901 640.859 465.956 641.078 466.065V468.081ZM651.34 472.358C651.34 471.116 651.583 469.999 652.067 469.007C652.559 468.014 653.239 467.249 654.106 466.71C654.981 466.171 655.977 465.901 657.094 465.901C658.821 465.901 660.215 466.499 661.278 467.694C662.348 468.889 662.883 470.479 662.883 472.464V472.616C662.883 473.85 662.645 474.96 662.169 475.944C661.7 476.921 661.024 477.682 660.141 478.229C659.266 478.776 658.258 479.05 657.118 479.05C655.399 479.05 654.004 478.452 652.934 477.257C651.872 476.061 651.34 474.479 651.34 472.51V472.358ZM653.52 472.616C653.52 474.022 653.844 475.151 654.493 476.003C655.149 476.854 656.024 477.28 657.118 477.28C658.219 477.28 659.094 476.85 659.743 475.991C660.391 475.124 660.715 473.913 660.715 472.358C660.715 470.968 660.383 469.843 659.719 468.983C659.063 468.116 658.188 467.682 657.094 467.682C656.024 467.682 655.161 468.108 654.504 468.96C653.848 469.811 653.52 471.03 653.52 472.616ZM668.109 478.815V467.811H666.105V466.135H668.109V464.835C668.109 463.475 668.472 462.425 669.198 461.682C669.925 460.94 670.952 460.569 672.28 460.569C672.78 460.569 673.276 460.635 673.769 460.768L673.651 462.526C673.284 462.456 672.894 462.421 672.48 462.421C671.776 462.421 671.234 462.628 670.851 463.042C670.468 463.448 670.276 464.034 670.276 464.8V466.135H672.984V467.811H670.276V478.815H668.109ZM348.107 512.815H345.846V504.928H337.244V512.815H334.994V495.753H337.244V503.089H345.846V495.753H348.107V512.815ZM361.032 511.561C360.188 512.553 358.95 513.05 357.317 513.05C355.965 513.05 354.934 512.659 354.223 511.878C353.52 511.089 353.165 509.925 353.157 508.385V500.135H355.325V508.327C355.325 510.249 356.106 511.21 357.669 511.21C359.325 511.21 360.426 510.593 360.973 509.358V500.135H363.141V512.815H361.079L361.032 511.561ZM369.925 500.135L369.984 501.542C370.913 500.448 372.167 499.901 373.745 499.901C375.519 499.901 376.726 500.581 377.366 501.94C377.788 501.331 378.335 500.839 379.007 500.464C379.687 500.089 380.487 499.901 381.409 499.901C384.191 499.901 385.605 501.374 385.651 504.319V512.815H383.484V504.448C383.484 503.542 383.276 502.866 382.862 502.421C382.448 501.968 381.753 501.741 380.776 501.741C379.972 501.741 379.304 501.983 378.773 502.468C378.241 502.944 377.933 503.589 377.847 504.401V512.815H375.667V504.507C375.667 502.663 374.765 501.741 372.96 501.741C371.538 501.741 370.566 502.346 370.042 503.557V512.815H367.874V500.135H369.925ZM398.201 512.815C398.076 512.565 397.974 512.12 397.896 511.479C396.888 512.526 395.685 513.05 394.287 513.05C393.037 513.05 392.009 512.698 391.205 511.995C390.408 511.284 390.009 510.385 390.009 509.3C390.009 507.979 390.509 506.956 391.509 506.229C392.517 505.495 393.931 505.128 395.752 505.128H397.861V504.132C397.861 503.374 397.634 502.772 397.181 502.327C396.728 501.874 396.06 501.647 395.177 501.647C394.404 501.647 393.756 501.843 393.232 502.233C392.709 502.624 392.447 503.096 392.447 503.651H390.267C390.267 503.018 390.49 502.409 390.935 501.823C391.388 501.229 391.998 500.76 392.763 500.417C393.537 500.073 394.384 499.901 395.306 499.901C396.767 499.901 397.912 500.268 398.74 501.003C399.568 501.729 399.998 502.733 400.029 504.014V509.85C400.029 511.014 400.177 511.94 400.474 512.628V512.815H398.201ZM394.603 511.163C395.283 511.163 395.927 510.987 396.537 510.635C397.146 510.284 397.588 509.827 397.861 509.264V506.663H396.162C393.506 506.663 392.177 507.44 392.177 508.995C392.177 509.675 392.404 510.206 392.857 510.589C393.31 510.971 393.892 511.163 394.603 511.163ZM406.918 500.135L406.989 501.729C407.957 500.51 409.223 499.901 410.785 499.901C413.465 499.901 414.817 501.413 414.84 504.436V512.815H412.672V504.425C412.664 503.51 412.453 502.835 412.039 502.397C411.633 501.96 410.996 501.741 410.129 501.741C409.426 501.741 408.809 501.928 408.278 502.303C407.746 502.678 407.332 503.171 407.035 503.78V512.815H404.867V500.135H406.918ZM424.061 506.452H418.343V504.682H424.061V506.452ZM440.513 507.401C440.302 509.206 439.634 510.6 438.509 511.585C437.392 512.561 435.904 513.05 434.044 513.05C432.029 513.05 430.411 512.327 429.193 510.882C427.982 509.436 427.376 507.503 427.376 505.081V503.44C427.376 501.854 427.658 500.46 428.22 499.257C428.79 498.053 429.595 497.132 430.634 496.491C431.673 495.843 432.876 495.518 434.244 495.518C436.056 495.518 437.509 496.026 438.603 497.042C439.697 498.05 440.333 499.448 440.513 501.237H438.251C438.056 499.878 437.63 498.893 436.974 498.284C436.326 497.675 435.415 497.37 434.244 497.37C432.806 497.37 431.677 497.901 430.857 498.964C430.044 500.026 429.638 501.538 429.638 503.499V505.151C429.638 507.003 430.025 508.475 430.798 509.569C431.572 510.663 432.654 511.21 434.044 511.21C435.294 511.21 436.251 510.928 436.915 510.366C437.587 509.796 438.033 508.807 438.251 507.401H440.513ZM444.121 506.358C444.121 505.116 444.363 503.999 444.848 503.007C445.34 502.014 446.019 501.249 446.887 500.71C447.762 500.171 448.758 499.901 449.875 499.901C451.601 499.901 452.996 500.499 454.059 501.694C455.129 502.889 455.664 504.479 455.664 506.464V506.616C455.664 507.85 455.426 508.96 454.949 509.944C454.48 510.921 453.805 511.682 452.922 512.229C452.047 512.776 451.039 513.05 449.898 513.05C448.18 513.05 446.785 512.452 445.715 511.257C444.652 510.061 444.121 508.479 444.121 506.51V506.358ZM446.301 506.616C446.301 508.022 446.625 509.151 447.273 510.003C447.93 510.854 448.805 511.28 449.898 511.28C451 511.28 451.875 510.85 452.523 509.991C453.172 509.124 453.496 507.913 453.496 506.358C453.496 504.968 453.164 503.843 452.5 502.983C451.844 502.116 450.969 501.682 449.875 501.682C448.805 501.682 447.941 502.108 447.285 502.96C446.629 503.811 446.301 505.03 446.301 506.616ZM461.862 500.135L461.92 501.542C462.85 500.448 464.104 499.901 465.682 499.901C467.456 499.901 468.663 500.581 469.303 501.94C469.725 501.331 470.272 500.839 470.944 500.464C471.624 500.089 472.424 499.901 473.346 499.901C476.127 499.901 477.541 501.374 477.588 504.319V512.815H475.42V504.448C475.42 503.542 475.213 502.866 474.799 502.421C474.385 501.968 473.69 501.741 472.713 501.741C471.909 501.741 471.241 501.983 470.709 502.468C470.178 502.944 469.87 503.589 469.784 504.401V512.815H467.604V504.507C467.604 502.663 466.702 501.741 464.897 501.741C463.475 501.741 462.502 502.346 461.979 503.557V512.815H459.811V500.135H461.862ZM493.021 506.616C493.021 508.546 492.579 510.1 491.696 511.28C490.814 512.46 489.618 513.05 488.11 513.05C486.571 513.05 485.36 512.561 484.478 511.585V517.69H482.31V500.135H484.29L484.396 501.542C485.278 500.448 486.505 499.901 488.075 499.901C489.599 499.901 490.802 500.475 491.685 501.624C492.575 502.772 493.021 504.37 493.021 506.417V506.616ZM490.853 506.37C490.853 504.94 490.548 503.811 489.939 502.983C489.329 502.155 488.493 501.741 487.431 501.741C486.118 501.741 485.134 502.323 484.478 503.487V509.546C485.126 510.702 486.118 511.28 487.454 511.28C488.493 511.28 489.317 510.87 489.927 510.05C490.544 509.221 490.853 507.995 490.853 506.37ZM505.054 511.561C504.211 512.553 502.972 513.05 501.339 513.05C499.988 513.05 498.957 512.659 498.246 511.878C497.543 511.089 497.187 509.925 497.179 508.385V500.135H499.347V508.327C499.347 510.249 500.129 511.21 501.691 511.21C503.347 511.21 504.449 510.593 504.996 509.358V500.135H507.164V512.815H505.101L505.054 511.561ZM514.85 497.065V500.135H517.217V501.811H514.85V509.675C514.85 510.182 514.955 510.565 515.166 510.823C515.377 511.073 515.736 511.198 516.244 511.198C516.494 511.198 516.838 511.151 517.276 511.057V512.815C516.705 512.971 516.151 513.05 515.611 513.05C514.643 513.05 513.912 512.757 513.42 512.171C512.928 511.585 512.682 510.753 512.682 509.675V501.811H510.373V500.135H512.682V497.065H514.85ZM526.462 513.05C524.743 513.05 523.344 512.487 522.266 511.362C521.188 510.229 520.649 508.718 520.649 506.827V506.428C520.649 505.171 520.887 504.05 521.364 503.065C521.848 502.073 522.52 501.3 523.38 500.745C524.247 500.182 525.184 499.901 526.192 499.901C527.841 499.901 529.122 500.444 530.036 501.53C530.95 502.616 531.407 504.171 531.407 506.194V507.096H522.817C522.848 508.346 523.212 509.358 523.907 510.132C524.61 510.897 525.501 511.28 526.579 511.28C527.344 511.28 527.993 511.124 528.524 510.811C529.055 510.499 529.52 510.085 529.919 509.569L531.243 510.6C530.18 512.233 528.587 513.05 526.462 513.05ZM526.192 501.682C525.317 501.682 524.583 502.003 523.989 502.643C523.395 503.276 523.028 504.167 522.887 505.315H529.239V505.151C529.176 504.05 528.88 503.198 528.348 502.596C527.817 501.987 527.098 501.682 526.192 501.682ZM541.495 502.081C541.167 502.026 540.812 501.999 540.429 501.999C539.007 501.999 538.042 502.604 537.534 503.815V512.815H535.366V500.135H537.476L537.511 501.6C538.222 500.468 539.23 499.901 540.534 499.901C540.956 499.901 541.277 499.956 541.495 500.065V502.081ZM555.086 512.815H552.836V495.753H555.086V512.815ZM562.362 500.135L562.433 501.729C563.401 500.51 564.667 499.901 566.229 499.901C568.909 499.901 570.261 501.413 570.284 504.436V512.815H568.116V504.425C568.108 503.51 567.897 502.835 567.483 502.397C567.077 501.96 566.44 501.741 565.573 501.741C564.87 501.741 564.253 501.928 563.722 502.303C563.19 502.678 562.776 503.171 562.479 503.78V512.815H560.311V500.135H562.362ZM577.935 497.065V500.135H580.302V501.811H577.935V509.675C577.935 510.182 578.041 510.565 578.251 510.823C578.462 511.073 578.822 511.198 579.33 511.198C579.58 511.198 579.923 511.151 580.361 511.057V512.815C579.791 512.971 579.236 513.05 578.697 513.05C577.728 513.05 576.998 512.757 576.505 512.171C576.013 511.585 575.767 510.753 575.767 509.675V501.811H573.459V500.135H575.767V497.065H577.935ZM589.547 513.05C587.828 513.05 586.43 512.487 585.352 511.362C584.274 510.229 583.734 508.718 583.734 506.827V506.428C583.734 505.171 583.973 504.05 584.449 503.065C584.934 502.073 585.606 501.3 586.465 500.745C587.332 500.182 588.27 499.901 589.277 499.901C590.926 499.901 592.207 500.444 593.121 501.53C594.035 502.616 594.492 504.171 594.492 506.194V507.096H585.902C585.934 508.346 586.297 509.358 586.992 510.132C587.695 510.897 588.586 511.28 589.664 511.28C590.43 511.28 591.078 511.124 591.609 510.811C592.141 510.499 592.606 510.085 593.004 509.569L594.328 510.6C593.266 512.233 591.672 513.05 589.547 513.05ZM589.277 501.682C588.402 501.682 587.668 502.003 587.074 502.643C586.481 503.276 586.113 504.167 585.973 505.315H592.324V505.151C592.262 504.05 591.965 503.198 591.434 502.596C590.902 501.987 590.184 501.682 589.277 501.682ZM604.581 502.081C604.253 502.026 603.897 501.999 603.514 501.999C602.092 501.999 601.128 502.604 600.62 503.815V512.815H598.452V500.135H600.561L600.596 501.6C601.307 500.468 602.315 499.901 603.62 499.901C604.042 499.901 604.362 499.956 604.581 500.065V502.081ZM615.384 512.815C615.259 512.565 615.157 512.12 615.079 511.479C614.071 512.526 612.868 513.05 611.47 513.05C610.22 513.05 609.193 512.698 608.388 511.995C607.591 511.284 607.193 510.385 607.193 509.3C607.193 507.979 607.693 506.956 608.693 506.229C609.7 505.495 611.114 505.128 612.935 505.128H615.044V504.132C615.044 503.374 614.818 502.772 614.364 502.327C613.911 501.874 613.243 501.647 612.361 501.647C611.587 501.647 610.939 501.843 610.415 502.233C609.892 502.624 609.63 503.096 609.63 503.651H607.45C607.45 503.018 607.673 502.409 608.118 501.823C608.571 501.229 609.181 500.76 609.946 500.417C610.72 500.073 611.568 499.901 612.489 499.901C613.95 499.901 615.095 500.268 615.923 501.003C616.751 501.729 617.181 502.733 617.212 504.014V509.85C617.212 511.014 617.361 511.94 617.657 512.628V512.815H615.384ZM611.786 511.163C612.466 511.163 613.111 510.987 613.72 510.635C614.329 510.284 614.771 509.827 615.044 509.264V506.663H613.345C610.689 506.663 609.361 507.44 609.361 508.995C609.361 509.675 609.587 510.206 610.04 510.589C610.493 510.971 611.075 511.163 611.786 511.163ZM627.136 511.28C627.91 511.28 628.586 511.046 629.164 510.577C629.742 510.108 630.062 509.522 630.125 508.819H632.176C632.136 509.546 631.886 510.237 631.426 510.893C630.965 511.55 630.347 512.073 629.574 512.464C628.808 512.854 627.996 513.05 627.136 513.05C625.41 513.05 624.035 512.475 623.011 511.327C621.996 510.171 621.488 508.593 621.488 506.593V506.229C621.488 504.995 621.715 503.897 622.168 502.936C622.621 501.975 623.269 501.229 624.113 500.698C624.965 500.167 625.969 499.901 627.125 499.901C628.547 499.901 629.726 500.327 630.664 501.178C631.609 502.03 632.113 503.135 632.176 504.495H630.125C630.062 503.675 629.75 503.003 629.187 502.479C628.633 501.948 627.945 501.682 627.125 501.682C626.023 501.682 625.168 502.081 624.558 502.878C623.957 503.667 623.656 504.811 623.656 506.311V506.721C623.656 508.182 623.957 509.307 624.558 510.096C625.16 510.885 626.019 511.28 627.136 511.28ZM638.994 497.065V500.135H641.362V501.811H638.994V509.675C638.994 510.182 639.1 510.565 639.311 510.823C639.522 511.073 639.881 511.198 640.389 511.198C640.639 511.198 640.983 511.151 641.42 511.057V512.815C640.85 512.971 640.295 513.05 639.756 513.05C638.787 513.05 638.057 512.757 637.565 512.171C637.073 511.585 636.826 510.753 636.826 509.675V501.811H634.518V500.135H636.826V497.065H638.994ZM647.7 512.815H645.532V500.135H647.7V512.815ZM645.356 496.772C645.356 496.421 645.462 496.124 645.673 495.882C645.891 495.639 646.212 495.518 646.634 495.518C647.056 495.518 647.376 495.639 647.595 495.882C647.813 496.124 647.923 496.421 647.923 496.772C647.923 497.124 647.813 497.417 647.595 497.651C647.376 497.885 647.056 498.003 646.634 498.003C646.212 498.003 645.891 497.885 645.673 497.651C645.462 497.417 645.356 497.124 645.356 496.772ZM652.046 506.358C652.046 505.116 652.289 503.999 652.773 503.007C653.265 502.014 653.945 501.249 654.812 500.71C655.687 500.171 656.683 499.901 657.8 499.901C659.527 499.901 660.921 500.499 661.984 501.694C663.054 502.889 663.589 504.479 663.589 506.464V506.616C663.589 507.85 663.351 508.96 662.874 509.944C662.406 510.921 661.73 511.682 660.847 512.229C659.972 512.776 658.964 513.05 657.824 513.05C656.105 513.05 654.71 512.452 653.64 511.257C652.578 510.061 652.046 508.479 652.046 506.51V506.358ZM654.226 506.616C654.226 508.022 654.55 509.151 655.199 510.003C655.855 510.854 656.73 511.28 657.824 511.28C658.925 511.28 659.8 510.85 660.449 509.991C661.097 509.124 661.421 507.913 661.421 506.358C661.421 504.968 661.089 503.843 660.425 502.983C659.769 502.116 658.894 501.682 657.8 501.682C656.73 501.682 655.867 502.108 655.21 502.96C654.554 503.811 654.226 505.03 654.226 506.616ZM669.799 500.135L669.869 501.729C670.838 500.51 672.104 499.901 673.666 499.901C676.346 499.901 677.697 501.413 677.721 504.436V512.815H675.553V504.425C675.545 503.51 675.334 502.835 674.92 502.397C674.514 501.96 673.877 501.741 673.01 501.741C672.307 501.741 671.689 501.928 671.158 502.303C670.627 502.678 670.213 503.171 669.916 503.78V512.815H667.748V500.135H669.799ZM697.651 512.815C697.526 512.565 697.425 512.12 697.347 511.479C696.339 512.526 695.136 513.05 693.737 513.05C692.487 513.05 691.46 512.698 690.655 511.995C689.859 511.284 689.46 510.385 689.46 509.3C689.46 507.979 689.96 506.956 690.96 506.229C691.968 505.495 693.382 505.128 695.202 505.128H697.312V504.132C697.312 503.374 697.085 502.772 696.632 502.327C696.179 501.874 695.511 501.647 694.628 501.647C693.855 501.647 693.206 501.843 692.683 502.233C692.159 502.624 691.898 503.096 691.898 503.651H689.718C689.718 503.018 689.941 502.409 690.386 501.823C690.839 501.229 691.448 500.76 692.214 500.417C692.987 500.073 693.835 499.901 694.757 499.901C696.218 499.901 697.362 500.268 698.191 501.003C699.019 501.729 699.448 502.733 699.48 504.014V509.85C699.48 511.014 699.628 511.94 699.925 512.628V512.815H697.651ZM694.054 511.163C694.734 511.163 695.378 510.987 695.987 510.635C696.597 510.284 697.038 509.827 697.312 509.264V506.663H695.612C692.956 506.663 691.628 507.44 691.628 508.995C691.628 509.675 691.855 510.206 692.308 510.589C692.761 510.971 693.343 511.163 694.054 511.163ZM707.259 497.065V500.135H709.627V501.811H707.259V509.675C707.259 510.182 707.365 510.565 707.576 510.823C707.787 511.073 708.146 511.198 708.654 511.198C708.904 511.198 709.248 511.151 709.685 511.057V512.815C709.115 512.971 708.56 513.05 708.021 513.05C707.052 513.05 706.322 512.757 705.83 512.171C705.338 511.585 705.091 510.753 705.091 509.675V501.811H702.783V500.135H705.091V497.065H707.259ZM347.545 541.401C347.334 543.206 346.666 544.6 345.541 545.585C344.424 546.561 342.936 547.05 341.076 547.05C339.061 547.05 337.443 546.327 336.225 544.882C335.014 543.436 334.408 541.503 334.408 539.081V537.44C334.408 535.854 334.689 534.46 335.252 533.257C335.822 532.053 336.627 531.132 337.666 530.491C338.705 529.843 339.908 529.518 341.275 529.518C343.088 529.518 344.541 530.026 345.635 531.042C346.729 532.05 347.365 533.448 347.545 535.237H345.283C345.088 533.878 344.662 532.893 344.006 532.284C343.357 531.675 342.447 531.37 341.275 531.37C339.838 531.37 338.709 531.901 337.889 532.964C337.076 534.026 336.67 535.538 336.67 537.499V539.151C336.67 541.003 337.057 542.475 337.83 543.569C338.604 544.663 339.686 545.21 341.076 545.21C342.326 545.21 343.283 544.928 343.947 544.366C344.619 543.796 345.064 542.807 345.283 541.401H347.545ZM359.555 546.815C359.43 546.565 359.329 546.12 359.251 545.479C358.243 546.526 357.04 547.05 355.641 547.05C354.391 547.05 353.364 546.698 352.559 545.995C351.762 545.284 351.364 544.385 351.364 543.3C351.364 541.979 351.864 540.956 352.864 540.229C353.872 539.495 355.286 539.128 357.106 539.128H359.215V538.132C359.215 537.374 358.989 536.772 358.536 536.327C358.083 535.874 357.415 535.647 356.532 535.647C355.758 535.647 355.11 535.843 354.586 536.233C354.063 536.624 353.801 537.096 353.801 537.651H351.622C351.622 537.018 351.844 536.409 352.29 535.823C352.743 535.229 353.352 534.76 354.118 534.417C354.891 534.073 355.739 533.901 356.661 533.901C358.122 533.901 359.266 534.268 360.094 535.003C360.922 535.729 361.352 536.733 361.383 538.014V543.85C361.383 545.014 361.532 545.94 361.829 546.628V546.815H359.555ZM355.958 545.163C356.637 545.163 357.282 544.987 357.891 544.635C358.501 544.284 358.942 543.827 359.215 543.264V540.663H357.516C354.86 540.663 353.532 541.44 353.532 542.995C353.532 543.675 353.758 544.206 354.211 544.589C354.665 544.971 355.247 545.163 355.958 545.163ZM372.351 536.081C372.023 536.026 371.667 535.999 371.284 535.999C369.862 535.999 368.898 536.604 368.39 537.815V546.815H366.222V534.135H368.331L368.366 535.6C369.077 534.468 370.085 533.901 371.39 533.901C371.812 533.901 372.132 533.956 372.351 534.065V536.081ZM377.845 534.135L377.916 535.729C378.884 534.51 380.15 533.901 381.713 533.901C384.392 533.901 385.744 535.413 385.767 538.436V546.815H383.599V538.425C383.591 537.51 383.381 536.835 382.966 536.397C382.56 535.96 381.924 535.741 381.056 535.741C380.353 535.741 379.736 535.928 379.205 536.303C378.674 536.678 378.259 537.171 377.963 537.78V546.815H375.795V534.135H377.845ZM395.739 547.05C394.02 547.05 392.621 546.487 391.543 545.362C390.465 544.229 389.926 542.718 389.926 540.827V540.428C389.926 539.171 390.164 538.05 390.641 537.065C391.125 536.073 391.797 535.3 392.656 534.745C393.524 534.182 394.461 533.901 395.469 533.901C397.117 533.901 398.399 534.444 399.313 535.53C400.227 536.616 400.684 538.171 400.684 540.194V541.096H392.094C392.125 542.346 392.489 543.358 393.184 544.132C393.887 544.897 394.778 545.28 395.856 545.28C396.621 545.28 397.27 545.124 397.801 544.811C398.332 544.499 398.797 544.085 399.196 543.569L400.52 544.6C399.457 546.233 397.864 547.05 395.739 547.05ZM395.469 535.682C394.594 535.682 393.86 536.003 393.266 536.643C392.672 537.276 392.305 538.167 392.164 539.315H398.516V539.151C398.453 538.05 398.156 537.198 397.625 536.596C397.094 535.987 396.375 535.682 395.469 535.682ZM404.128 540.37C404.128 538.393 404.585 536.823 405.499 535.659C406.413 534.487 407.624 533.901 409.132 533.901C410.679 533.901 411.886 534.448 412.753 535.542L412.858 534.135H414.839V546.51C414.839 548.151 414.35 549.444 413.374 550.389C412.405 551.335 411.1 551.807 409.46 551.807C408.546 551.807 407.651 551.612 406.776 551.221C405.901 550.831 405.233 550.296 404.772 549.616L405.897 548.315C406.827 549.464 407.964 550.038 409.307 550.038C410.362 550.038 411.182 549.741 411.768 549.147C412.362 548.553 412.659 547.718 412.659 546.639V545.55C411.792 546.55 410.608 547.05 409.108 547.05C407.624 547.05 406.421 546.452 405.499 545.257C404.585 544.061 404.128 542.432 404.128 540.37ZM406.307 540.616C406.307 542.046 406.6 543.171 407.186 543.991C407.772 544.803 408.593 545.21 409.647 545.21C411.014 545.21 412.018 544.589 412.659 543.346V537.557C411.995 536.346 410.999 535.741 409.671 535.741C408.616 535.741 407.792 536.151 407.198 536.971C406.604 537.792 406.307 539.007 406.307 540.616ZM421.915 546.815H419.747V534.135H421.915V546.815ZM419.572 530.772C419.572 530.421 419.677 530.124 419.888 529.882C420.107 529.639 420.427 529.518 420.849 529.518C421.271 529.518 421.591 529.639 421.81 529.882C422.029 530.124 422.138 530.421 422.138 530.772C422.138 531.124 422.029 531.417 421.81 531.651C421.591 531.885 421.271 532.003 420.849 532.003C420.427 532.003 420.107 531.885 419.888 531.651C419.677 531.417 419.572 531.124 419.572 530.772ZM432.098 547.05C430.379 547.05 428.98 546.487 427.902 545.362C426.824 544.229 426.285 542.718 426.285 540.827V540.428C426.285 539.171 426.523 538.05 427 537.065C427.484 536.073 428.156 535.3 429.016 534.745C429.883 534.182 430.82 533.901 431.828 533.901C433.476 533.901 434.758 534.444 435.672 535.53C436.586 536.616 437.043 538.171 437.043 540.194V541.096H428.453C428.484 542.346 428.848 543.358 429.543 544.132C430.246 544.897 431.137 545.28 432.215 545.28C432.98 545.28 433.629 545.124 434.16 544.811C434.691 544.499 435.156 544.085 435.555 543.569L436.879 544.6C435.816 546.233 434.223 547.05 432.098 547.05ZM431.828 535.682C430.953 535.682 430.219 536.003 429.625 536.643C429.031 537.276 428.664 538.167 428.523 539.315H434.875V539.151C434.812 538.05 434.516 537.198 433.984 536.596C433.453 535.987 432.734 535.682 431.828 535.682ZM451.642 529.753L457.22 543.675L462.798 529.753H465.716V546.815H463.466V540.171L463.677 532.999L458.075 546.815H456.353L450.763 533.034L450.985 540.171V546.815H448.735V529.753H451.642ZM476.05 547.05C474.332 547.05 472.933 546.487 471.855 545.362C470.777 544.229 470.238 542.718 470.238 540.827V540.428C470.238 539.171 470.476 538.05 470.953 537.065C471.437 536.073 472.109 535.3 472.968 534.745C473.836 534.182 474.773 533.901 475.781 533.901C477.429 533.901 478.711 534.444 479.625 535.53C480.539 536.616 480.996 538.171 480.996 540.194V541.096H472.406C472.437 542.346 472.8 543.358 473.496 544.132C474.199 544.897 475.089 545.28 476.168 545.28C476.933 545.28 477.582 545.124 478.113 544.811C478.644 544.499 479.109 544.085 479.507 543.569L480.832 544.6C479.769 546.233 478.175 547.05 476.05 547.05ZM475.781 535.682C474.906 535.682 474.171 536.003 473.578 536.643C472.984 537.276 472.617 538.167 472.476 539.315H478.828V539.151C478.765 538.05 478.468 537.198 477.937 536.596C477.406 535.987 476.687 535.682 475.781 535.682ZM487.311 546.815H485.143V528.815H487.311V546.815ZM494.587 546.815H492.419V528.815H494.587V546.815ZM498.933 540.358C498.933 539.116 499.175 537.999 499.659 537.007C500.152 536.014 500.831 535.249 501.699 534.71C502.574 534.171 503.57 533.901 504.687 533.901C506.413 533.901 507.808 534.499 508.87 535.694C509.941 536.889 510.476 538.479 510.476 540.464V540.616C510.476 541.85 510.238 542.96 509.761 543.944C509.292 544.921 508.616 545.682 507.734 546.229C506.859 546.776 505.851 547.05 504.71 547.05C502.991 547.05 501.597 546.452 500.527 545.257C499.464 544.061 498.933 542.479 498.933 540.51V540.358ZM501.113 540.616C501.113 542.022 501.437 543.151 502.085 544.003C502.741 544.854 503.616 545.28 504.71 545.28C505.812 545.28 506.687 544.85 507.335 543.991C507.984 543.124 508.308 541.913 508.308 540.358C508.308 538.968 507.976 537.843 507.312 536.983C506.656 536.116 505.781 535.682 504.687 535.682C503.616 535.682 502.753 536.108 502.097 536.96C501.441 537.811 501.113 539.03 501.113 540.616ZM516.685 534.135L516.756 535.729C517.724 534.51 518.99 533.901 520.553 533.901C523.232 533.901 524.584 535.413 524.607 538.436V546.815H522.439V538.425C522.431 537.51 522.221 536.835 521.806 536.397C521.4 535.96 520.764 535.741 519.896 535.741C519.193 535.741 518.576 535.928 518.045 536.303C517.514 536.678 517.099 537.171 516.803 537.78V546.815H514.635V534.135H516.685ZM549.061 529.753V541.354C549.054 542.964 548.546 544.28 547.538 545.303C546.538 546.327 545.179 546.901 543.46 547.026L542.862 547.05C540.995 547.05 539.507 546.546 538.397 545.538C537.288 544.53 536.726 543.143 536.71 541.378V529.753H538.936V541.307C538.936 542.542 539.276 543.503 539.956 544.19C540.636 544.87 541.604 545.21 542.862 545.21C544.136 545.21 545.108 544.87 545.78 544.19C546.46 543.51 546.8 542.553 546.8 541.319V529.753H549.061ZM555.763 534.135L555.834 535.729C556.802 534.51 558.068 533.901 559.63 533.901C562.31 533.901 563.662 535.413 563.685 538.436V546.815H561.517V538.425C561.509 537.51 561.298 536.835 560.884 536.397C560.478 535.96 559.841 535.741 558.974 535.741C558.271 535.741 557.654 535.928 557.123 536.303C556.591 536.678 556.177 537.171 555.88 537.78V546.815H553.712V534.135H555.763ZM570.75 546.815H568.582V534.135H570.75V546.815ZM568.406 530.772C568.406 530.421 568.512 530.124 568.723 529.882C568.941 529.639 569.262 529.518 569.684 529.518C570.106 529.518 570.426 529.639 570.645 529.882C570.863 530.124 570.973 530.421 570.973 530.772C570.973 531.124 570.863 531.417 570.645 531.651C570.426 531.885 570.106 532.003 569.684 532.003C569.262 532.003 568.941 531.885 568.723 531.651C568.512 531.417 568.406 531.124 568.406 530.772ZM579.854 543.874L582.995 534.135H585.21L580.663 546.815H579.01L574.417 534.135H576.631L579.854 543.874ZM593.833 547.05C592.114 547.05 590.716 546.487 589.638 545.362C588.56 544.229 588.021 542.718 588.021 540.827V540.428C588.021 539.171 588.259 538.05 588.736 537.065C589.22 536.073 589.892 535.3 590.751 534.745C591.618 534.182 592.556 533.901 593.564 533.901C595.212 533.901 596.493 534.444 597.407 535.53C598.321 536.616 598.779 538.171 598.779 540.194V541.096H590.189C590.22 542.346 590.583 543.358 591.279 544.132C591.982 544.897 592.872 545.28 593.95 545.28C594.716 545.28 595.364 545.124 595.896 544.811C596.427 544.499 596.892 544.085 597.29 543.569L598.614 544.6C597.552 546.233 595.958 547.05 593.833 547.05ZM593.564 535.682C592.689 535.682 591.954 536.003 591.361 536.643C590.767 537.276 590.4 538.167 590.259 539.315H596.611V539.151C596.548 538.05 596.251 537.198 595.72 536.596C595.189 535.987 594.47 535.682 593.564 535.682ZM608.867 536.081C608.539 536.026 608.183 535.999 607.801 535.999C606.379 535.999 605.414 536.604 604.906 537.815V546.815H602.738V534.135H604.847L604.883 535.6C605.594 534.468 606.601 533.901 607.906 533.901C608.328 533.901 608.648 533.956 608.867 534.065V536.081ZM619.694 543.452C619.694 542.866 619.471 542.413 619.026 542.093C618.588 541.764 617.819 541.483 616.717 541.249C615.623 541.014 614.752 540.733 614.104 540.405C613.463 540.077 612.987 539.686 612.674 539.233C612.369 538.78 612.217 538.241 612.217 537.616C612.217 536.577 612.655 535.698 613.53 534.979C614.412 534.26 615.537 533.901 616.905 533.901C618.342 533.901 619.506 534.272 620.397 535.014C621.295 535.757 621.744 536.706 621.744 537.862H619.565C619.565 537.268 619.311 536.757 618.803 536.327C618.303 535.897 617.67 535.682 616.905 535.682C616.116 535.682 615.498 535.854 615.053 536.198C614.608 536.542 614.385 536.991 614.385 537.546C614.385 538.069 614.592 538.464 615.006 538.729C615.42 538.995 616.166 539.249 617.244 539.491C618.33 539.733 619.209 540.022 619.881 540.358C620.553 540.694 621.049 541.1 621.369 541.577C621.698 542.046 621.862 542.62 621.862 543.3C621.862 544.432 621.409 545.343 620.502 546.03C619.596 546.71 618.42 547.05 616.975 547.05C615.959 547.05 615.061 546.87 614.28 546.51C613.498 546.151 612.885 545.651 612.44 545.01C612.002 544.362 611.784 543.663 611.784 542.913H613.951C613.991 543.639 614.28 544.218 614.819 544.647C615.366 545.069 616.084 545.28 616.975 545.28C617.795 545.28 618.451 545.116 618.944 544.788C619.444 544.452 619.694 544.007 619.694 543.452ZM628.481 546.815H626.313V534.135H628.481V546.815ZM626.138 530.772C626.138 530.421 626.243 530.124 626.454 529.882C626.673 529.639 626.993 529.518 627.415 529.518C627.837 529.518 628.157 529.639 628.376 529.882C628.595 530.124 628.704 530.421 628.704 530.772C628.704 531.124 628.595 531.417 628.376 531.651C628.157 531.885 627.837 532.003 627.415 532.003C626.993 532.003 626.673 531.885 626.454 531.651C626.243 531.417 626.138 531.124 626.138 530.772ZM636.343 531.065V534.135H638.71V535.811H636.343V543.675C636.343 544.182 636.449 544.565 636.66 544.823C636.871 545.073 637.23 545.198 637.738 545.198C637.988 545.198 638.331 545.151 638.769 545.057V546.815C638.199 546.971 637.644 547.05 637.105 547.05C636.136 547.05 635.406 546.757 634.914 546.171C634.421 545.585 634.175 544.753 634.175 543.675V535.811H631.867V534.135H634.175V531.065H636.343ZM646.842 543.639L649.795 534.135H652.115L647.018 548.772C646.229 550.882 644.975 551.936 643.256 551.936L642.846 551.901L642.037 551.749V549.991L642.623 550.038C643.357 550.038 643.928 549.889 644.334 549.593C644.748 549.296 645.088 548.753 645.354 547.964L645.834 546.675L641.311 534.135H643.678L646.842 543.639ZM654.282 545.678C654.282 545.303 654.391 544.991 654.61 544.741C654.836 544.491 655.172 544.366 655.618 544.366C656.063 544.366 656.399 544.491 656.626 544.741C656.86 544.991 656.977 545.303 656.977 545.678C656.977 546.038 656.86 546.339 656.626 546.581C656.399 546.823 656.063 546.944 655.618 546.944C655.172 546.944 654.836 546.823 654.61 546.581C654.391 546.339 654.282 546.038 654.282 545.678Z" fill="#4A4A4A"/>
<rect x="392.514" y="425.315" width="5" height="57" transform="rotate(90 392.514 425.315)" stroke="black" stroke-width="5"/>
<path d="M552.629 368.233C552.629 366.288 553.09 364.725 554.012 363.546C554.934 362.358 556.141 361.764 557.633 361.764C559.117 361.764 560.293 362.272 561.16 363.288V356.678H563.328V374.678H561.336L561.23 373.319C560.363 374.382 559.156 374.913 557.609 374.913C556.141 374.913 554.941 374.311 554.012 373.108C553.09 371.905 552.629 370.335 552.629 368.397V368.233ZM554.797 368.479C554.797 369.917 555.094 371.042 555.688 371.854C556.281 372.667 557.102 373.073 558.148 373.073C559.523 373.073 560.527 372.456 561.16 371.221V365.397C560.512 364.202 559.516 363.604 558.172 363.604C557.109 363.604 556.281 364.014 555.688 364.835C555.094 365.655 554.797 366.87 554.797 368.479ZM573.045 374.913C571.326 374.913 569.928 374.35 568.85 373.225C567.771 372.092 567.232 370.581 567.232 368.69V368.292C567.232 367.034 567.471 365.913 567.947 364.928C568.432 363.936 569.103 363.163 569.963 362.608C570.83 362.046 571.767 361.764 572.775 361.764C574.424 361.764 575.705 362.307 576.619 363.393C577.533 364.479 577.99 366.034 577.99 368.057V368.96H569.4C569.432 370.21 569.795 371.221 570.49 371.995C571.193 372.76 572.084 373.143 573.162 373.143C573.928 373.143 574.576 372.987 575.107 372.675C575.639 372.362 576.103 371.948 576.502 371.432L577.826 372.464C576.764 374.096 575.17 374.913 573.045 374.913ZM572.775 363.546C571.9 363.546 571.166 363.866 570.572 364.507C569.978 365.139 569.611 366.03 569.471 367.178H575.822V367.014C575.76 365.913 575.463 365.061 574.932 364.46C574.4 363.85 573.682 363.546 572.775 363.546ZM588.972 371.315C588.972 370.729 588.75 370.276 588.305 369.956C587.867 369.628 587.097 369.346 585.996 369.112C584.902 368.878 584.031 368.596 583.383 368.268C582.742 367.94 582.265 367.55 581.953 367.096C581.648 366.643 581.496 366.104 581.496 365.479C581.496 364.44 581.933 363.561 582.808 362.842C583.691 362.124 584.816 361.764 586.183 361.764C587.621 361.764 588.785 362.135 589.676 362.878C590.574 363.62 591.023 364.569 591.023 365.725H588.844C588.844 365.132 588.59 364.62 588.082 364.19C587.582 363.76 586.949 363.546 586.183 363.546C585.394 363.546 584.777 363.717 584.332 364.061C583.887 364.405 583.664 364.854 583.664 365.409C583.664 365.932 583.871 366.327 584.285 366.592C584.699 366.858 585.445 367.112 586.523 367.354C587.609 367.596 588.488 367.885 589.16 368.221C589.832 368.557 590.328 368.964 590.648 369.44C590.976 369.909 591.14 370.483 591.14 371.163C591.14 372.296 590.687 373.206 589.781 373.893C588.875 374.573 587.699 374.913 586.254 374.913C585.238 374.913 584.34 374.733 583.558 374.374C582.777 374.014 582.164 373.514 581.719 372.874C581.281 372.225 581.062 371.526 581.062 370.776H583.23C583.269 371.503 583.558 372.081 584.097 372.51C584.644 372.932 585.363 373.143 586.254 373.143C587.074 373.143 587.73 372.979 588.222 372.651C588.722 372.315 588.972 371.87 588.972 371.315ZM597.4 374.678H595.232V361.999H597.4V374.678ZM595.056 358.635C595.056 358.284 595.162 357.987 595.373 357.745C595.592 357.503 595.912 357.382 596.334 357.382C596.756 357.382 597.076 357.503 597.295 357.745C597.513 357.987 597.623 358.284 597.623 358.635C597.623 358.987 597.513 359.28 597.295 359.514C597.076 359.749 596.756 359.866 596.334 359.866C595.912 359.866 595.592 359.749 595.373 359.514C595.162 359.28 595.056 358.987 595.056 358.635ZM601.445 368.233C601.445 366.257 601.902 364.686 602.816 363.522C603.73 362.35 604.941 361.764 606.449 361.764C607.996 361.764 609.203 362.311 610.07 363.405L610.175 361.999H612.156V374.374C612.156 376.014 611.668 377.307 610.691 378.253C609.722 379.198 608.418 379.671 606.777 379.671C605.863 379.671 604.968 379.475 604.093 379.085C603.218 378.694 602.55 378.159 602.09 377.479L603.215 376.178C604.144 377.327 605.281 377.901 606.625 377.901C607.679 377.901 608.5 377.604 609.086 377.01C609.679 376.417 609.976 375.581 609.976 374.503V373.413C609.109 374.413 607.925 374.913 606.425 374.913C604.941 374.913 603.738 374.315 602.816 373.12C601.902 371.925 601.445 370.296 601.445 368.233ZM603.625 368.479C603.625 369.909 603.918 371.034 604.504 371.854C605.09 372.667 605.91 373.073 606.965 373.073C608.332 373.073 609.336 372.452 609.976 371.21V365.421C609.312 364.21 608.316 363.604 606.988 363.604C605.933 363.604 605.109 364.014 604.515 364.835C603.922 365.655 603.625 366.87 603.625 368.479ZM618.568 361.999L618.638 363.592C619.607 362.374 620.873 361.764 622.435 361.764C625.115 361.764 626.466 363.276 626.49 366.3V374.678H624.322V366.288C624.314 365.374 624.103 364.698 623.689 364.26C623.283 363.823 622.646 363.604 621.779 363.604C621.076 363.604 620.459 363.792 619.927 364.167C619.396 364.542 618.982 365.034 618.685 365.643V374.678H616.517V361.999H618.568ZM636.101 374.913C634.382 374.913 632.984 374.35 631.906 373.225C630.828 372.092 630.289 370.581 630.289 368.69V368.292C630.289 367.034 630.527 365.913 631.003 364.928C631.488 363.936 632.16 363.163 633.019 362.608C633.886 362.046 634.824 361.764 635.832 361.764C637.48 361.764 638.761 362.307 639.675 363.393C640.589 364.479 641.046 366.034 641.046 368.057V368.96H632.457C632.488 370.21 632.851 371.221 633.546 371.995C634.25 372.76 635.14 373.143 636.218 373.143C636.984 373.143 637.632 372.987 638.164 372.675C638.695 372.362 639.16 371.948 639.558 371.432L640.882 372.464C639.82 374.096 638.226 374.913 636.101 374.913ZM635.832 363.546C634.957 363.546 634.222 363.866 633.628 364.507C633.035 365.139 632.668 366.03 632.527 367.178H638.878V367.014C638.816 365.913 638.519 365.061 637.988 364.46C637.457 363.85 636.738 363.546 635.832 363.546ZM650.775 363.944C650.447 363.889 650.091 363.862 649.708 363.862C648.287 363.862 647.322 364.467 646.814 365.678V374.678H644.646V361.999H646.755L646.79 363.464C647.501 362.331 648.509 361.764 649.814 361.764C650.236 361.764 650.556 361.819 650.775 361.928V363.944Z" fill="black"/>
<path d="M567.409 335.9C567.409 338.342 566.853 340.3 565.739 341.774C564.636 343.239 563.142 343.971 561.257 343.971C559.655 343.971 558.361 343.415 557.375 342.301V349.772H553.142V327.829H557.067L557.214 329.382C558.239 328.151 559.577 327.536 561.228 327.536C563.181 327.536 564.699 328.259 565.783 329.704C566.867 331.149 567.409 333.141 567.409 335.68V335.9ZM563.176 335.592C563.176 334.118 562.912 332.98 562.385 332.179C561.867 331.379 561.11 330.978 560.114 330.978C558.786 330.978 557.873 331.486 557.375 332.502V338.991C557.893 340.036 558.815 340.558 560.144 340.558C562.165 340.558 563.176 338.903 563.176 335.592ZM582.102 331.799C581.526 331.72 581.018 331.681 580.579 331.681C578.977 331.681 577.927 332.223 577.429 333.307V343.678H573.196V327.829H577.195L577.312 329.718C578.162 328.263 579.338 327.536 580.842 327.536C581.311 327.536 581.751 327.599 582.161 327.726L582.102 331.799ZM586.116 335.607C586.116 334.035 586.419 332.634 587.025 331.403C587.63 330.173 588.499 329.22 589.632 328.547C590.775 327.873 592.098 327.536 593.602 327.536C595.74 327.536 597.484 328.19 598.831 329.499C600.189 330.807 600.946 332.585 601.102 334.831L601.131 335.915C601.131 338.346 600.452 340.3 599.095 341.774C597.737 343.239 595.916 343.971 593.631 343.971C591.346 343.971 589.52 343.239 588.153 341.774C586.795 340.309 586.116 338.317 586.116 335.798V335.607ZM590.35 335.915C590.35 337.419 590.633 338.571 591.199 339.372C591.766 340.163 592.576 340.558 593.631 340.558C594.656 340.558 595.457 340.168 596.033 339.386C596.61 338.595 596.898 337.336 596.898 335.607C596.898 334.133 596.61 332.99 596.033 332.179C595.457 331.369 594.647 330.964 593.602 330.964C592.567 330.964 591.766 331.369 591.199 332.179C590.633 332.98 590.35 334.225 590.35 335.915ZM606.229 335.636C606.229 333.166 606.781 331.198 607.885 329.733C608.998 328.268 610.516 327.536 612.44 327.536C613.983 327.536 615.258 328.112 616.263 329.264V321.178H620.512V343.678H616.688L616.483 341.994C615.429 343.312 614.071 343.971 612.411 343.971C610.546 343.971 609.047 343.239 607.914 341.774C606.791 340.3 606.229 338.254 606.229 335.636ZM610.463 335.944C610.463 337.428 610.721 338.566 611.239 339.357C611.757 340.148 612.509 340.544 613.495 340.544C614.804 340.544 615.726 339.992 616.263 338.888V332.634C615.736 331.53 614.823 330.978 613.524 330.978C611.483 330.978 610.463 332.634 610.463 335.944ZM636.435 342.067C635.39 343.337 633.945 343.971 632.099 343.971C630.4 343.971 629.101 343.483 628.203 342.507C627.314 341.53 626.86 340.099 626.84 338.215V327.829H631.074V338.068C631.074 339.718 631.826 340.544 633.329 340.544C634.765 340.544 635.751 340.046 636.288 339.05V327.829H640.537V343.678H636.552L636.435 342.067ZM653.472 340.558C654.253 340.558 654.888 340.343 655.376 339.914C655.864 339.484 656.118 338.913 656.138 338.2H660.107C660.098 339.274 659.805 340.26 659.229 341.159C658.652 342.048 657.861 342.741 656.855 343.239C655.859 343.727 654.756 343.971 653.545 343.971C651.279 343.971 649.492 343.254 648.184 341.818C646.875 340.373 646.221 338.381 646.221 335.842V335.563C646.221 333.122 646.87 331.174 648.169 329.718C649.468 328.263 651.25 327.536 653.516 327.536C655.498 327.536 657.085 328.102 658.276 329.235C659.478 330.358 660.088 331.857 660.107 333.732H656.138C656.118 332.912 655.864 332.248 655.376 331.74C654.888 331.222 654.243 330.964 653.442 330.964C652.456 330.964 651.709 331.325 651.201 332.048C650.703 332.76 650.454 333.923 650.454 335.534V335.973C650.454 337.604 650.703 338.776 651.201 339.489C651.699 340.202 652.456 340.558 653.472 340.558ZM670.743 323.932V327.829H673.453V330.934H670.743V338.844C670.743 339.43 670.855 339.85 671.08 340.104C671.304 340.358 671.734 340.485 672.369 340.485C672.838 340.485 673.253 340.451 673.614 340.383V343.591C672.784 343.844 671.929 343.971 671.05 343.971C668.082 343.971 666.568 342.472 666.509 339.474V330.934H664.195V327.829H666.509V323.932H670.743Z" fill="black"/>
<path d="M367.81 378.815H335.949V210.065H367.81V378.815ZM481.008 366.73C473.171 376.252 462.332 381.012 448.489 381.012C435.745 381.012 426.003 377.35 419.265 370.026C412.6 362.702 409.194 351.972 409.048 337.836V259.943H440.798V336.738C440.798 349.115 446.438 355.304 457.717 355.304C468.484 355.304 475.881 351.569 479.91 344.098V259.943H511.77V378.815H481.887L481.008 366.73Z" fill="black"/>
<path d="M367.81 378.815V379.815H368.81V378.815H367.81ZM335.949 378.815H334.949V379.815H335.949V378.815ZM335.949 210.065V209.065H334.949V210.065H335.949ZM367.81 210.065H368.81V209.065H367.81V210.065ZM367.81 377.815H335.949V379.815H367.81V377.815ZM336.949 378.815V210.065H334.949V378.815H336.949ZM335.949 211.065H367.81V209.065H335.949V211.065ZM366.81 210.065V378.815H368.81V210.065H366.81ZM481.008 366.73L482.006 366.658L481.824 364.165L480.236 366.095L481.008 366.73ZM419.265 370.026L418.526 370.699L418.529 370.703L419.265 370.026ZM409.048 337.836H408.048L408.048 337.847L409.048 337.836ZM409.048 259.943V258.943H408.048V259.943H409.048ZM440.798 259.943H441.798V258.943H440.798V259.943ZM479.91 344.098L480.79 344.573L480.91 344.351V344.098H479.91ZM479.91 259.943V258.943H478.91V259.943H479.91ZM511.77 259.943H512.77V258.943H511.77V259.943ZM511.77 378.815V379.815H512.77V378.815H511.77ZM481.887 378.815L480.89 378.888L480.957 379.815H481.887V378.815ZM480.236 366.095C472.614 375.355 462.074 380.012 448.489 380.012V382.012C462.589 382.012 473.729 377.148 481.78 367.366L480.236 366.095ZM448.489 380.012C435.941 380.012 426.5 376.413 420.001 369.349L418.529 370.703C425.507 378.287 435.548 382.012 448.489 382.012V380.012ZM420.005 369.353C413.563 362.275 410.193 351.82 410.048 337.826L408.048 337.847C408.196 352.124 411.637 363.129 418.526 370.699L420.005 369.353ZM410.048 337.836V259.943H408.048V337.836H410.048ZM409.048 260.943H440.798V258.943H409.048V260.943ZM439.798 259.943V336.738H441.798V259.943H439.798ZM439.798 336.738C439.798 343.059 441.236 347.986 444.289 351.336C447.358 354.704 451.898 356.304 457.717 356.304V354.304C452.257 354.304 448.338 352.811 445.767 349.989C443.18 347.15 441.798 342.794 441.798 336.738H439.798ZM457.717 356.304C468.736 356.304 476.538 352.458 480.79 344.573L479.029 343.624C475.225 350.68 468.232 354.304 457.717 354.304V356.304ZM480.91 344.098V259.943H478.91V344.098H480.91ZM479.91 260.943H511.77V258.943H479.91V260.943ZM510.77 259.943V378.815H512.77V259.943H510.77ZM511.77 377.815H481.887V379.815H511.77V377.815ZM482.885 378.743L482.006 366.658L480.011 366.803L480.89 378.888L482.885 378.743Z" fill="black"/>
<path d="M102.539 171.815C100.911 168.641 99.7314 164.694 98.999 159.974C90.4541 169.496 79.3457 174.257 65.6738 174.257C52.7344 174.257 41.9922 170.513 33.4473 163.026C24.9837 155.539 20.752 146.099 20.752 134.706C20.752 120.708 25.9196 109.966 36.2549 102.479C46.6715 94.9923 61.6862 91.2081 81.2988 91.1267H97.5342V83.5583C97.5342 77.4548 95.9473 72.572 92.7734 68.9099C89.681 65.2478 84.7575 63.4167 78.0029 63.4167C72.0622 63.4167 67.3828 64.8409 63.9648 67.6892C60.6283 70.5375 58.96 74.4438 58.96 79.408H23.6816C23.6816 71.7582 26.0417 64.6781 30.7617 58.1677C35.4818 51.6573 42.1549 46.571 50.7812 42.9089C59.4076 39.1654 69.0918 37.2937 79.834 37.2937C96.11 37.2937 109.009 41.4034 118.53 49.6228C128.133 57.7608 132.935 69.2354 132.935 84.0466V141.298C133.016 153.83 134.766 163.311 138.184 169.74V171.815H102.539ZM73.3643 147.279C78.5726 147.279 83.374 146.14 87.7686 143.861C92.1631 141.501 95.4183 138.368 97.5342 134.462V111.757H84.3506C66.6911 111.757 57.2917 117.86 56.1523 130.067L56.0303 132.142C56.0303 136.537 57.5765 140.158 60.6689 143.007C63.7614 145.855 67.9932 147.279 73.3643 147.279ZM210.615 39.7351L211.714 54.5056C221.073 43.031 233.727 37.2937 249.678 37.2937C266.686 37.2937 278.364 44.0076 284.712 57.4353C293.989 44.0076 307.214 37.2937 324.385 37.2937C338.708 37.2937 349.368 41.4848 356.367 49.8669C363.366 58.1677 366.865 70.7003 366.865 87.4646V171.815H331.465V87.5867C331.465 80.0997 330 74.6472 327.07 71.2292C324.141 67.7299 318.973 65.9802 311.567 65.9802C300.988 65.9802 293.664 71.0258 289.595 81.1169L289.717 171.815H254.438V87.7087C254.438 80.059 252.933 74.5251 249.922 71.1072C246.911 67.6892 241.784 65.9802 234.541 65.9802C224.531 65.9802 217.288 70.1306 212.812 78.4314V171.815H177.534V39.7351H210.615ZM460.903 121.888L485.317 39.7351H523.159L470.059 192.323L467.129 199.281C459.235 216.534 446.214 225.16 428.066 225.16C422.939 225.16 417.731 224.387 412.441 222.841V196.107L417.812 196.229C424.486 196.229 429.45 195.212 432.705 193.177C436.042 191.143 438.646 187.766 440.518 183.046L444.668 172.181L398.403 39.7351H436.367L460.903 121.888Z" fill="black"/>
</svg>
