<svg width="217" height="71" viewBox="0 0 217 71" fill="none" xmlns="http://www.w3.org/2000/svg">
<g filter="url(#filter0_d)">
<rect x="4" width="209" height="63" fill="white"/>
</g>
<path d="M40.5234 39V21.9375H45.7734C47.2734 21.9375 48.6133 22.2773 49.793 22.957C50.9805 23.6289 51.9062 24.5898 52.5703 25.8398C53.2344 27.082 53.5664 28.4961 53.5664 30.082V30.8672C53.5664 32.4531 53.2383 33.8633 52.582 35.0977C51.9336 36.332 51.0156 37.2891 49.8281 37.9688C48.6406 38.6484 47.3008 38.9922 45.8086 39H40.5234ZM44.0391 24.7852V36.1758H45.7383C47.1133 36.1758 48.1641 35.7266 48.8906 34.8281C49.6172 33.9297 49.9883 32.6445 50.0039 30.9727V30.0703C50.0039 28.3359 49.6445 27.0234 48.9258 26.1328C48.207 25.2344 47.1562 24.7852 45.7734 24.7852H44.0391ZM62.8261 39.2344C60.9667 39.2344 59.4511 38.6641 58.2792 37.5234C57.1152 36.3828 56.5331 34.8633 56.5331 32.9648V32.6367C56.5331 31.3633 56.7792 30.2266 57.2714 29.2266C57.7636 28.2188 58.4589 27.4453 59.3573 26.9062C60.2636 26.3594 61.2948 26.0859 62.4511 26.0859C64.1855 26.0859 65.5487 26.6328 66.5409 27.7266C67.5409 28.8203 68.0409 30.3711 68.0409 32.3789V33.7617H59.9667C60.0761 34.5898 60.4042 35.2539 60.9511 35.7539C61.5058 36.2539 62.205 36.5039 63.0487 36.5039C64.3534 36.5039 65.373 36.0312 66.1073 35.0859L67.7714 36.9492C67.2636 37.668 66.5761 38.2305 65.7089 38.6367C64.8417 39.0352 63.8808 39.2344 62.8261 39.2344ZM62.4394 28.8281C61.7675 28.8281 61.2206 29.0547 60.7987 29.5078C60.3847 29.9609 60.1191 30.6094 60.0019 31.4531H64.7128V31.1836C64.6972 30.4336 64.4941 29.8555 64.1034 29.4492C63.7128 29.0352 63.1581 28.8281 62.4394 28.8281ZM77.9217 35.4961C77.9217 35.082 77.7147 34.7578 77.3006 34.5234C76.8944 34.2812 76.2381 34.0664 75.3319 33.8789C72.3162 33.2461 70.8084 31.9648 70.8084 30.0352C70.8084 28.9102 71.2733 27.9727 72.203 27.2227C73.1405 26.4648 74.3631 26.0859 75.8709 26.0859C77.4803 26.0859 78.7655 26.4648 79.7264 27.2227C80.6952 27.9805 81.1795 28.9648 81.1795 30.1758H77.7928C77.7928 29.6914 77.6366 29.293 77.3241 28.9805C77.0116 28.6602 76.5233 28.5 75.8592 28.5C75.2889 28.5 74.8475 28.6289 74.535 28.8867C74.2225 29.1445 74.0662 29.4727 74.0662 29.8711C74.0662 30.2461 74.242 30.5508 74.5936 30.7852C74.953 31.0117 75.5545 31.2109 76.3983 31.3828C77.242 31.5469 77.953 31.7344 78.5311 31.9453C80.3202 32.6016 81.2147 33.7383 81.2147 35.3555C81.2147 36.5117 80.7186 37.4492 79.7264 38.168C78.7342 38.8789 77.453 39.2344 75.8827 39.2344C74.8202 39.2344 73.8748 39.0469 73.0467 38.6719C72.2264 38.2891 71.5819 37.7695 71.1131 37.1133C70.6444 36.4492 70.41 35.7344 70.41 34.9688H73.6209C73.6522 35.5703 73.8748 36.0312 74.2889 36.3516C74.703 36.6719 75.2577 36.832 75.953 36.832C76.6014 36.832 77.0897 36.7109 77.4178 36.4688C77.7537 36.2188 77.9217 35.8945 77.9217 35.4961ZM88.0603 39H84.6619V26.3203H88.0603V39ZM84.4627 23.0391C84.4627 22.5312 84.6306 22.1133 84.9666 21.7852C85.3103 21.457 85.7752 21.293 86.3611 21.293C86.9392 21.293 87.4002 21.457 87.7439 21.7852C88.0877 22.1133 88.2595 22.5312 88.2595 23.0391C88.2595 23.5547 88.0838 23.9766 87.7322 24.3047C87.3884 24.6328 86.9314 24.7969 86.3611 24.7969C85.7908 24.7969 85.3298 24.6328 84.9783 24.3047C84.6345 23.9766 84.4627 23.5547 84.4627 23.0391ZM91.4489 32.5664C91.4489 30.6211 91.9098 29.0547 92.8317 27.8672C93.7614 26.6797 95.0114 26.0859 96.5817 26.0859C97.9723 26.0859 99.0544 26.5625 99.8278 27.5156L99.9684 26.3203H103.039V38.5781C103.039 39.6875 102.785 40.6523 102.277 41.4727C101.777 42.293 101.07 42.918 100.156 43.3477C99.2419 43.7773 98.1716 43.9922 96.945 43.9922C96.0153 43.9922 95.1091 43.8047 94.2262 43.4297C93.3434 43.0625 92.6755 42.5859 92.2223 42L93.7223 39.9375C94.5661 40.8828 95.5895 41.3555 96.7927 41.3555C97.6911 41.3555 98.3903 41.1133 98.8903 40.6289C99.3903 40.1523 99.6403 39.4727 99.6403 38.5898V37.9102C98.8591 38.793 97.8317 39.2344 96.5583 39.2344C95.0348 39.2344 93.8005 38.6406 92.8552 37.4531C91.9177 36.2578 91.4489 34.6758 91.4489 32.707V32.5664ZM94.8356 32.8125C94.8356 33.9609 95.0661 34.8633 95.527 35.5195C95.988 36.168 96.6208 36.4922 97.4255 36.4922C98.4567 36.4922 99.195 36.1055 99.6403 35.332V30C99.1872 29.2266 98.4567 28.8398 97.4489 28.8398C96.6364 28.8398 95.9958 29.1719 95.527 29.8359C95.0661 30.5 94.8356 31.4922 94.8356 32.8125ZM109.849 26.3203L109.955 27.7852C110.861 26.6523 112.076 26.0859 113.599 26.0859C114.943 26.0859 115.943 26.4805 116.599 27.2695C117.255 28.0586 117.591 29.2383 117.607 30.8086V39H114.22V30.8906C114.22 30.1719 114.064 29.6523 113.752 29.332C113.439 29.0039 112.92 28.8398 112.193 28.8398C111.24 28.8398 110.525 29.2461 110.048 30.0586V39H106.662V26.3203H109.849ZM142.044 36.8438C141.412 37.6016 140.517 38.1914 139.361 38.6133C138.205 39.0273 136.923 39.2344 135.517 39.2344C134.04 39.2344 132.744 38.9141 131.626 38.2734C130.517 37.625 129.658 36.6875 129.048 35.4609C128.447 34.2344 128.138 32.793 128.122 31.1367V29.9766C128.122 28.2734 128.408 26.8008 128.978 25.5586C129.556 24.3086 130.384 23.3555 131.462 22.6992C132.548 22.0352 133.818 21.7031 135.271 21.7031C137.294 21.7031 138.876 22.1875 140.017 23.1562C141.158 24.1172 141.833 25.5195 142.044 27.3633H138.622C138.466 26.3867 138.119 25.6719 137.58 25.2188C137.048 24.7656 136.314 24.5391 135.376 24.5391C134.181 24.5391 133.271 24.9883 132.646 25.8867C132.021 26.7852 131.705 28.1211 131.697 29.8945V30.9844C131.697 32.7734 132.037 34.125 132.716 35.0391C133.396 35.9531 134.392 36.4102 135.705 36.4102C137.025 36.4102 137.966 36.1289 138.529 35.5664V32.625H135.33V30.0352H142.044V36.8438ZM145.234 32.543C145.234 31.2852 145.476 30.1641 145.96 29.1797C146.445 28.1953 147.14 27.4336 148.046 26.8945C148.96 26.3555 150.019 26.0859 151.222 26.0859C152.933 26.0859 154.327 26.6094 155.406 27.6562C156.492 28.7031 157.097 30.125 157.222 31.9219L157.245 32.7891C157.245 34.7344 156.702 36.2969 155.617 37.4766C154.531 38.6484 153.074 39.2344 151.245 39.2344C149.417 39.2344 147.956 38.6484 146.863 37.4766C145.777 36.3047 145.234 34.7109 145.234 32.6953V32.543ZM148.62 32.7891C148.62 33.9922 148.847 34.9141 149.3 35.5547C149.753 36.1875 150.402 36.5039 151.245 36.5039C152.066 36.5039 152.706 36.1914 153.167 35.5664C153.628 34.9336 153.859 33.9258 153.859 32.543C153.859 31.3633 153.628 30.4492 153.167 29.8008C152.706 29.1523 152.058 28.8281 151.222 28.8281C150.394 28.8281 149.753 29.1523 149.3 29.8008C148.847 30.4414 148.62 31.4375 148.62 32.7891ZM167.759 39C167.603 38.6953 167.49 38.3164 167.419 37.8633C166.599 38.7773 165.533 39.2344 164.22 39.2344C162.978 39.2344 161.947 38.875 161.126 38.1562C160.314 37.4375 159.908 36.5312 159.908 35.4375C159.908 34.0938 160.404 33.0625 161.396 32.3438C162.396 31.625 163.837 31.2617 165.72 31.2539H167.279V30.5273C167.279 29.9414 167.126 29.4727 166.822 29.1211C166.525 28.7695 166.052 28.5938 165.404 28.5938C164.833 28.5938 164.384 28.7305 164.056 29.0039C163.736 29.2773 163.575 29.6523 163.575 30.1289H160.189C160.189 29.3945 160.415 28.7148 160.868 28.0898C161.322 27.4648 161.962 26.9766 162.79 26.625C163.618 26.2656 164.548 26.0859 165.579 26.0859C167.142 26.0859 168.38 26.4805 169.294 27.2695C170.216 28.0508 170.677 29.1523 170.677 30.5742V36.0703C170.685 37.2734 170.853 38.1836 171.181 38.8008V39H167.759ZM164.958 36.6445C165.458 36.6445 165.919 36.5352 166.341 36.3164C166.763 36.0898 167.075 35.7891 167.279 35.4141V33.2344H166.013C164.318 33.2344 163.415 33.8203 163.306 34.9922L163.294 35.1914C163.294 35.6133 163.443 35.9609 163.74 36.2344C164.036 36.5078 164.443 36.6445 164.958 36.6445ZM177.933 39H174.534V21H177.933V39ZM188.681 35.4961C188.681 35.082 188.474 34.7578 188.06 34.5234C187.653 34.2812 186.997 34.0664 186.091 33.8789C183.075 33.2461 181.568 31.9648 181.568 30.0352C181.568 28.9102 182.032 27.9727 182.962 27.2227C183.9 26.4648 185.122 26.0859 186.63 26.0859C188.239 26.0859 189.525 26.4648 190.485 27.2227C191.454 27.9805 191.939 28.9648 191.939 30.1758H188.552C188.552 29.6914 188.396 29.293 188.083 28.9805C187.771 28.6602 187.282 28.5 186.618 28.5C186.048 28.5 185.607 28.6289 185.294 28.8867C184.982 29.1445 184.825 29.4727 184.825 29.8711C184.825 30.2461 185.001 30.5508 185.353 30.7852C185.712 31.0117 186.314 31.2109 187.157 31.3828C188.001 31.5469 188.712 31.7344 189.29 31.9453C191.079 32.6016 191.974 33.7383 191.974 35.3555C191.974 36.5117 191.478 37.4492 190.485 38.168C189.493 38.8789 188.212 39.2344 186.642 39.2344C185.579 39.2344 184.634 39.0469 183.806 38.6719C182.985 38.2891 182.341 37.7695 181.872 37.1133C181.403 36.4492 181.169 35.7344 181.169 34.9688H184.38C184.411 35.5703 184.634 36.0312 185.048 36.3516C185.462 36.6719 186.017 36.832 186.712 36.832C187.36 36.832 187.849 36.7109 188.177 36.4688C188.513 36.2188 188.681 35.8945 188.681 35.4961ZM195.409 37.3359C195.409 36.7969 195.589 36.3594 195.948 36.0234C196.315 35.6875 196.773 35.5195 197.319 35.5195C197.874 35.5195 198.331 35.6875 198.69 36.0234C199.058 36.3594 199.241 36.7969 199.241 37.3359C199.241 37.8672 199.062 38.3008 198.702 38.6367C198.343 38.9648 197.882 39.1289 197.319 39.1289C196.765 39.1289 196.308 38.9648 195.948 38.6367C195.589 38.3008 195.409 37.8672 195.409 37.3359ZM195.409 27.7383C195.409 27.1992 195.589 26.7617 195.948 26.4258C196.315 26.0898 196.773 25.9219 197.319 25.9219C197.874 25.9219 198.331 26.0898 198.69 26.4258C199.058 26.7617 199.241 27.1992 199.241 27.7383C199.241 28.2695 199.062 28.7031 198.702 29.0391C198.343 29.3672 197.882 29.5312 197.319 29.5312C196.765 29.5312 196.308 29.3672 195.948 29.0391C195.589 28.7031 195.409 28.2695 195.409 27.7383Z" fill="#A090CB"/>
<rect x="4" width="10" height="63" fill="#E9E2FD"/>
<defs>
<filter id="filter0_d" x="0" y="0" width="217" height="71" filterUnits="userSpaceOnUse" color-interpolation-filters="sRGB">
<feFlood flood-opacity="0" result="BackgroundImageFix"/>
<feColorMatrix in="SourceAlpha" type="matrix" values="0 0 0 0 0 0 0 0 0 0 0 0 0 0 0 0 0 0 127 0"/>
<feOffset dy="4"/>
<feGaussianBlur stdDeviation="2"/>
<feColorMatrix type="matrix" values="0 0 0 0 0 0 0 0 0 0 0 0 0 0 0 0 0 0 0.25 0"/>
<feBlend mode="normal" in2="BackgroundImageFix" result="effect1_dropShadow"/>
<feBlend mode="normal" in="SourceGraphic" in2="effect1_dropShadow" result="shape"/>
</filter>
</defs>
</svg>
