<svg width="500" height="453" viewBox="0 0 500 453" fill="none" xmlns="http://www.w3.org/2000/svg">
<rect x="1.2793" y="49.3318" width="497.378" height="403.006" fill="white" stroke="black"/>
<path d="M51.7119 42.5916C53.2744 42.5916 54.5439 42.1619 55.5205 41.3025C56.4971 40.4431 57.0049 39.3005 57.0439 37.8748H64.9834C64.9639 40.0232 64.3779 41.9958 63.2256 43.7927C62.0732 45.5701 60.4912 46.9568 58.4795 47.9529C56.4873 48.9294 54.2803 49.4177 51.8584 49.4177C47.3271 49.4177 43.7529 47.9822 41.1357 45.1111C38.5186 42.2205 37.21 38.2361 37.21 33.158V32.6013C37.21 27.7185 38.5088 23.822 41.1064 20.9119C43.7041 18.0017 47.2686 16.5466 51.7998 16.5466C55.7646 16.5466 58.9385 17.6794 61.3213 19.9451C63.7236 22.1912 64.9443 25.1892 64.9834 28.9392H57.0439C57.0049 27.2986 56.4971 25.9705 55.5205 24.9548C54.5439 23.9197 53.2549 23.4021 51.6533 23.4021C49.6807 23.4021 48.1865 24.1248 47.1709 25.5701C46.1748 26.9958 45.6768 29.3201 45.6768 32.5427V33.4216C45.6768 36.6833 46.1748 39.0271 47.1709 40.4529C48.167 41.8787 49.6807 42.5916 51.7119 42.5916ZM90.8865 48.8318C90.4959 48.0701 90.2127 47.1228 90.0369 45.99C87.9861 48.2751 85.3201 49.4177 82.0389 49.4177C78.9334 49.4177 76.3553 48.5193 74.3045 46.7224C72.2732 44.9255 71.2576 42.6599 71.2576 39.9255C71.2576 36.5662 72.4979 33.988 74.9783 32.1912C77.4783 30.3943 81.0818 29.4861 85.7889 29.4666H89.6854V27.6501C89.6854 26.1853 89.3045 25.0134 88.5428 24.1345C87.8006 23.2556 86.6189 22.8162 84.9979 22.8162C83.5721 22.8162 82.449 23.158 81.6287 23.8416C80.8279 24.5251 80.4275 25.4626 80.4275 26.6541H71.9607C71.9607 24.8181 72.5271 23.1189 73.66 21.5564C74.7928 19.9939 76.3943 18.7732 78.4646 17.8943C80.535 16.9958 82.8592 16.5466 85.4373 16.5466C89.3436 16.5466 92.4393 17.533 94.7244 19.5056C97.0291 21.4587 98.1814 24.2126 98.1814 27.7673V41.5076C98.201 44.5154 98.6209 46.7908 99.4412 48.3337V48.8318H90.8865ZM83.8846 42.9431C85.1346 42.9431 86.2869 42.6697 87.3416 42.1228C88.3963 41.5564 89.1775 40.8044 89.6854 39.8669V34.4177H86.5213C82.283 34.4177 80.0271 35.8826 79.7537 38.8123L79.7244 39.3103C79.7244 40.365 80.0955 41.2341 80.8377 41.9177C81.5799 42.6013 82.5955 42.9431 83.8846 42.9431ZM117.522 9.3396V17.1326H122.942V23.3435H117.522V39.1638C117.522 40.3357 117.747 41.1755 118.196 41.6833C118.645 42.1912 119.504 42.4451 120.774 42.4451C121.712 42.4451 122.542 42.3767 123.264 42.24V48.656C121.604 49.1638 119.895 49.4177 118.137 49.4177C112.2 49.4177 109.172 46.4197 109.055 40.4236V23.3435H104.426V17.1326H109.055V9.3396H117.522ZM146.824 33.9783H130.329V27.1521H146.824V33.9783ZM174.69 48.8318C174.299 48.0701 174.016 47.1228 173.84 45.99C171.789 48.2751 169.123 49.4177 165.842 49.4177C162.737 49.4177 160.158 48.5193 158.108 46.7224C156.076 44.9255 155.061 42.6599 155.061 39.9255C155.061 36.5662 156.301 33.988 158.781 32.1912C161.281 30.3943 164.885 29.4861 169.592 29.4666H173.488V27.6501C173.488 26.1853 173.108 25.0134 172.346 24.1345C171.604 23.2556 170.422 22.8162 168.801 22.8162C167.375 22.8162 166.252 23.158 165.432 23.8416C164.631 24.5251 164.231 25.4626 164.231 26.6541H155.764C155.764 24.8181 156.33 23.1189 157.463 21.5564C158.596 19.9939 160.197 18.7732 162.268 17.8943C164.338 16.9958 166.662 16.5466 169.24 16.5466C173.147 16.5466 176.242 17.533 178.528 19.5056C180.832 21.4587 181.985 24.2126 181.985 27.7673V41.5076C182.004 44.5154 182.424 46.7908 183.244 48.3337V48.8318H174.69ZM167.688 42.9431C168.938 42.9431 170.09 42.6697 171.145 42.1228C172.199 41.5564 172.981 40.8044 173.488 39.8669V34.4177H170.324C166.086 34.4177 163.83 35.8826 163.557 38.8123L163.528 39.3103C163.528 40.365 163.899 41.2341 164.641 41.9177C165.383 42.6013 166.399 42.9431 167.688 42.9431ZM207.653 33.9783H191.159V27.1521H207.653V33.9783ZM226.086 48.8318H217.59V3.83179H226.086V48.8318ZM234.469 32.6892C234.469 29.5447 235.075 26.7419 236.286 24.281C237.497 21.8201 239.235 19.9158 241.501 18.5681C243.786 17.2205 246.432 16.5466 249.44 16.5466C253.717 16.5466 257.204 17.8552 259.899 20.4724C262.614 23.0896 264.128 26.6443 264.44 31.1365L264.499 33.3044C264.499 38.1677 263.141 42.074 260.426 45.0232C257.712 47.9529 254.069 49.4177 249.499 49.4177C244.928 49.4177 241.276 47.9529 238.542 45.0232C235.827 42.0935 234.469 38.1091 234.469 33.0701V32.6892ZM242.936 33.3044C242.936 36.3123 243.503 38.6169 244.635 40.2185C245.768 41.8005 247.389 42.5916 249.499 42.5916C251.549 42.5916 253.151 41.8103 254.303 40.2478C255.456 38.6658 256.032 36.1462 256.032 32.6892C256.032 29.74 255.456 27.4548 254.303 25.8337C253.151 24.2126 251.53 23.4021 249.44 23.4021C247.37 23.4021 245.768 24.2126 244.635 25.8337C243.503 27.4353 242.936 29.9255 242.936 33.3044ZM271.183 32.7478C271.183 27.8845 272.335 23.9685 274.64 20.9998C276.964 18.031 280.089 16.5466 284.015 16.5466C287.492 16.5466 290.197 17.738 292.13 20.1208L292.482 17.1326H300.158V47.7771C300.158 50.5505 299.523 52.9626 298.253 55.0134C297.003 57.0642 295.236 58.6267 292.951 59.7009C290.665 60.7751 287.99 61.3123 284.923 61.3123C282.599 61.3123 280.333 60.8435 278.126 59.906C275.919 58.988 274.249 57.7966 273.117 56.3318L276.867 51.1755C278.976 53.5388 281.535 54.7205 284.542 54.7205C286.788 54.7205 288.537 54.115 289.787 52.9041C291.037 51.7126 291.662 50.0134 291.662 47.8064V46.1072C289.708 48.3142 287.14 49.4177 283.956 49.4177C280.148 49.4177 277.062 47.9333 274.699 44.9646C272.355 41.9763 271.183 38.0212 271.183 33.0994V32.7478ZM279.65 33.363C279.65 36.2341 280.226 38.49 281.378 40.1306C282.531 41.7517 284.113 42.5623 286.124 42.5623C288.703 42.5623 290.548 41.5955 291.662 39.6619V26.3318C290.529 24.3982 288.703 23.4314 286.183 23.4314C284.152 23.4314 282.55 24.2615 281.378 25.9216C280.226 27.5818 279.65 30.0623 279.65 33.363Z" fill="black"/>
<path d="M63.1348 107.604H60.9111L55.207 98.5249V107.604H52.9834V94.8071H55.207L60.9287 103.921V94.8071H63.1348V107.604ZM66.2362 102.761C66.2362 101.83 66.4208 100.992 66.79 100.248C67.1591 99.4976 67.6777 98.9233 68.3456 98.5249C69.0136 98.1206 69.7812 97.9185 70.6484 97.9185C71.9316 97.9185 72.9716 98.3315 73.7685 99.1577C74.5712 99.9839 75.0048 101.08 75.0693 102.445L75.078 102.946C75.078 103.883 74.8964 104.721 74.5331 105.459C74.1757 106.198 73.6601 106.769 72.9862 107.173C72.3183 107.578 71.5448 107.78 70.6659 107.78C69.3241 107.78 68.2489 107.334 67.4404 106.444C66.6376 105.547 66.2362 104.355 66.2362 102.867V102.761ZM68.372 102.946C68.372 103.924 68.5741 104.692 68.9784 105.249C69.3827 105.799 69.9452 106.075 70.6659 106.075C71.3866 106.075 71.9462 105.793 72.3446 105.231C72.7489 104.668 72.9511 103.845 72.9511 102.761C72.9511 101.8 72.7431 101.039 72.3271 100.476C71.9169 99.9136 71.3573 99.6323 70.6484 99.6323C69.9511 99.6323 69.3974 99.9106 68.9872 100.467C68.5771 101.018 68.372 101.844 68.372 102.946ZM81.1766 104.897L83.1893 98.0942H85.3954L82.0995 107.604H80.245L76.9227 98.0942H79.1375L81.1766 104.897ZM97.5221 103.025H92.9079V101.302H97.5221V103.025ZM106.133 107.604V94.8071H109.913C111.043 94.8071 112.045 95.0591 112.918 95.563C113.797 96.0669 114.477 96.7817 114.958 97.7075C115.438 98.6333 115.678 99.6938 115.678 100.889V101.531C115.678 102.744 115.435 103.81 114.949 104.73C114.468 105.65 113.78 106.359 112.883 106.857C111.993 107.355 110.97 107.604 109.816 107.604H106.133ZM108.357 96.6001V105.829H109.807C110.973 105.829 111.867 105.465 112.488 104.739C113.115 104.006 113.434 102.958 113.446 101.592V100.88C113.446 99.4917 113.144 98.4312 112.541 97.6987C111.937 96.9663 111.061 96.6001 109.913 96.6001H108.357ZM122.955 107.78C121.601 107.78 120.502 107.355 119.659 106.505C118.821 105.65 118.402 104.513 118.402 103.095V102.832C118.402 101.882 118.583 101.036 118.947 100.292C119.316 99.5415 119.831 98.9585 120.494 98.5425C121.156 98.1265 121.894 97.9185 122.708 97.9185C124.003 97.9185 125.002 98.3315 125.706 99.1577C126.414 99.9839 126.769 101.153 126.769 102.665V103.526H120.555C120.62 104.311 120.88 104.932 121.337 105.389C121.8 105.846 122.38 106.075 123.078 106.075C124.056 106.075 124.853 105.679 125.468 104.888L126.62 105.987C126.239 106.555 125.729 106.998 125.09 107.314C124.457 107.625 123.746 107.78 122.955 107.78ZM122.7 99.6323C122.114 99.6323 121.639 99.8374 121.276 100.248C120.918 100.658 120.69 101.229 120.59 101.961H124.66V101.803C124.613 101.088 124.422 100.549 124.088 100.186C123.754 99.8169 123.291 99.6323 122.7 99.6323ZM133.421 106.075C133.954 106.075 134.397 105.919 134.748 105.609C135.1 105.298 135.287 104.915 135.311 104.458H137.324C137.3 105.049 137.116 105.603 136.77 106.119C136.424 106.628 135.955 107.033 135.364 107.332C134.772 107.63 134.133 107.78 133.448 107.78C132.118 107.78 131.063 107.349 130.284 106.488C129.504 105.626 129.115 104.437 129.115 102.919V102.7C129.115 101.252 129.501 100.095 130.275 99.228C131.048 98.355 132.103 97.9185 133.439 97.9185C134.57 97.9185 135.49 98.2495 136.199 98.9116C136.913 99.5679 137.288 100.432 137.324 101.504H135.311C135.287 100.959 135.1 100.511 134.748 100.16C134.403 99.8081 133.96 99.6323 133.421 99.6323C132.73 99.6323 132.197 99.8843 131.822 100.388C131.447 100.886 131.256 101.645 131.25 102.665V103.007C131.25 104.039 131.435 104.809 131.804 105.319C132.179 105.823 132.718 106.075 133.421 106.075ZM154.047 107.604H145.443V106.136L149.705 101.487C150.321 100.801 150.757 100.23 151.015 99.7729C151.279 99.3101 151.41 98.8472 151.41 98.3843C151.41 97.7749 151.238 97.2827 150.892 96.9077C150.552 96.5327 150.092 96.3452 149.512 96.3452C148.821 96.3452 148.284 96.5562 147.904 96.978C147.523 97.3999 147.332 97.9771 147.332 98.7095H145.196C145.196 97.9302 145.372 97.23 145.724 96.6089C146.081 95.9819 146.588 95.4956 147.244 95.1499C147.906 94.8042 148.668 94.6313 149.529 94.6313C150.772 94.6313 151.75 94.9448 152.465 95.5718C153.186 96.1929 153.546 97.0542 153.546 98.1558C153.546 98.7944 153.364 99.4653 153.001 100.168C152.644 100.866 152.055 101.66 151.235 102.55L148.106 105.899H154.047V107.604ZM165.094 102.216C165.094 104.056 164.748 105.445 164.057 106.382C163.371 107.314 162.325 107.78 160.919 107.78C159.536 107.78 158.493 107.326 157.79 106.417C157.093 105.503 156.735 104.153 156.718 102.366V100.151C156.718 98.311 157.061 96.9312 157.746 96.0112C158.438 95.0913 159.489 94.6313 160.901 94.6313C162.302 94.6313 163.345 95.0796 164.03 95.9761C164.722 96.8726 165.076 98.2144 165.094 100.001V102.216ZM162.958 99.8257C162.958 98.6245 162.794 97.7456 162.466 97.189C162.138 96.6265 161.616 96.3452 160.901 96.3452C160.204 96.3452 159.692 96.6118 159.363 97.145C159.035 97.6724 158.862 98.4985 158.845 99.6235V102.524C158.845 103.719 159.012 104.61 159.346 105.196C159.68 105.782 160.204 106.075 160.919 106.075C161.605 106.075 162.111 105.805 162.44 105.266C162.768 104.721 162.941 103.872 162.958 102.717V99.8257ZM173.847 107.604H171.72V97.3296L168.582 98.4019V96.6001L173.574 94.7632H173.847V107.604ZM185.43 102.251C184.715 103.007 183.88 103.385 182.925 103.385C181.8 103.385 180.903 102.993 180.235 102.208C179.567 101.417 179.233 100.379 179.233 99.0962C179.233 98.2524 179.403 97.4878 179.743 96.8022C180.083 96.1167 180.566 95.5835 181.193 95.2026C181.82 94.8218 182.547 94.6313 183.373 94.6313C184.662 94.6313 185.685 95.1118 186.44 96.0728C187.196 97.0337 187.574 98.3198 187.574 99.9312V100.529C187.574 102.837 187.053 104.598 186.01 105.811C184.967 107.024 183.411 107.639 181.343 107.657H181.088V105.89H181.395C182.655 105.873 183.622 105.571 184.296 104.985C184.97 104.393 185.348 103.482 185.43 102.251ZM183.373 101.715C183.801 101.715 184.202 101.592 184.577 101.346C184.952 101.1 185.242 100.76 185.447 100.327V99.4917C185.447 98.5483 185.254 97.7896 184.867 97.2153C184.48 96.6411 183.979 96.354 183.364 96.354C182.749 96.354 182.257 96.6089 181.888 97.1187C181.524 97.6226 181.343 98.2612 181.343 99.0347C181.343 99.8374 181.527 100.485 181.896 100.977C182.266 101.469 182.758 101.715 183.373 101.715Z" fill="black"/>
<path d="M62.9131 181.086H61.2168V175.171H54.7656V181.086H53.0781V168.289H54.7656V173.791H61.2168V168.289H62.9131V181.086ZM66.3046 176.243C66.3046 175.311 66.4862 174.474 66.8495 173.729C67.2187 172.985 67.7284 172.411 68.3788 172.007C69.0351 171.602 69.7821 171.4 70.62 171.4C71.915 171.4 72.9609 171.849 73.7577 172.745C74.5605 173.641 74.9618 174.834 74.9618 176.322V176.436C74.9618 177.362 74.7831 178.194 74.4257 178.932C74.0741 179.665 73.5673 180.236 72.9052 180.646C72.2489 181.057 71.4931 181.262 70.6376 181.262C69.3486 181.262 68.3027 180.813 67.4999 179.917C66.703 179.02 66.3046 177.834 66.3046 176.357V176.243ZM67.9394 176.436C67.9394 177.491 68.1825 178.338 68.6689 178.976C69.1611 179.615 69.8173 179.934 70.6376 179.934C71.4638 179.934 72.12 179.612 72.6064 178.968C73.0927 178.317 73.3359 177.409 73.3359 176.243C73.3359 175.2 73.0868 174.356 72.5888 173.712C72.0966 173.061 71.4404 172.736 70.62 172.736C69.8173 172.736 69.1698 173.056 68.6777 173.694C68.1855 174.333 67.9394 175.247 67.9394 176.436ZM86.5008 178.845L88.3289 171.576H89.9549L87.1864 181.086H85.868L83.5565 173.879L81.3065 181.086H79.9881L77.2284 171.576H78.8455L80.7176 178.695L82.9325 171.576H84.242L86.5008 178.845ZM99.7702 171.576L99.8141 172.631C100.511 171.81 101.452 171.4 102.635 171.4C103.966 171.4 104.871 171.91 105.351 172.93C105.668 172.473 106.078 172.103 106.582 171.822C107.091 171.541 107.692 171.4 108.383 171.4C110.469 171.4 111.53 172.505 111.565 174.714V181.086H109.939V174.81C109.939 174.131 109.784 173.624 109.473 173.29C109.163 172.95 108.641 172.78 107.909 172.78C107.305 172.78 106.804 172.962 106.406 173.325C106.007 173.682 105.776 174.166 105.712 174.775V181.086H104.077V174.854C104.077 173.472 103.4 172.78 102.047 172.78C100.98 172.78 100.251 173.234 99.8581 174.142V181.086H98.2321V171.576H99.7702ZM116.873 181.086H115.247V171.576H116.873V181.086ZM115.115 169.054C115.115 168.79 115.194 168.567 115.352 168.386C115.516 168.204 115.756 168.113 116.073 168.113C116.389 168.113 116.629 168.204 116.794 168.386C116.958 168.567 117.04 168.79 117.04 169.054C117.04 169.317 116.958 169.537 116.794 169.713C116.629 169.889 116.389 169.976 116.073 169.976C115.756 169.976 115.516 169.889 115.352 169.713C115.194 169.537 115.115 169.317 115.115 169.054ZM120.176 176.252C120.176 174.769 120.519 173.592 121.205 172.719C121.89 171.84 122.798 171.4 123.929 171.4C125.089 171.4 125.995 171.81 126.645 172.631L126.724 171.576H128.209V180.857C128.209 182.088 127.843 183.057 127.111 183.766C126.384 184.475 125.406 184.83 124.175 184.83C123.49 184.83 122.819 184.683 122.163 184.391C121.506 184.098 121.005 183.696 120.66 183.186L121.503 182.211C122.201 183.072 123.053 183.503 124.061 183.503C124.852 183.503 125.467 183.28 125.907 182.835C126.352 182.39 126.575 181.763 126.575 180.954V180.137C125.924 180.887 125.037 181.262 123.912 181.262C122.798 181.262 121.896 180.813 121.205 179.917C120.519 179.02 120.176 177.799 120.176 176.252ZM121.811 176.436C121.811 177.509 122.031 178.352 122.47 178.968C122.91 179.577 123.525 179.882 124.316 179.882C125.341 179.882 126.094 179.416 126.575 178.484V174.142C126.077 173.234 125.33 172.78 124.334 172.78C123.543 172.78 122.924 173.088 122.479 173.703C122.034 174.318 121.811 175.229 121.811 176.436ZM133.376 172.727C134.097 171.843 135.035 171.4 136.189 171.4C138.199 171.4 139.212 172.534 139.23 174.802V181.086H137.604V174.793C137.598 174.107 137.44 173.6 137.129 173.272C136.825 172.944 136.347 172.78 135.697 172.78C135.169 172.78 134.706 172.921 134.308 173.202C133.91 173.483 133.599 173.852 133.376 174.309V181.086H131.75V167.586H133.376V172.727ZM144.951 169.273V171.576H146.726V172.833H144.951V178.73C144.951 179.111 145.03 179.398 145.188 179.592C145.346 179.779 145.616 179.873 145.996 179.873C146.184 179.873 146.442 179.838 146.77 179.767V181.086C146.342 181.203 145.926 181.262 145.522 181.262C144.795 181.262 144.247 181.042 143.878 180.602C143.509 180.163 143.325 179.539 143.325 178.73V172.833H141.593V171.576H143.325V169.273H144.951ZM163.678 178.845L165.506 171.576H167.132L164.363 181.086H163.045L160.734 173.879L158.484 181.086H157.165L154.405 171.576H156.023L157.895 178.695L160.11 171.576H161.419L163.678 178.845ZM173.819 181.262C172.53 181.262 171.482 180.84 170.673 179.996C169.864 179.146 169.46 178.013 169.46 176.595V176.296C169.46 175.352 169.639 174.512 169.996 173.773C170.359 173.029 170.863 172.449 171.508 172.033C172.158 171.611 172.861 171.4 173.617 171.4C174.854 171.4 175.815 171.807 176.5 172.622C177.186 173.436 177.528 174.602 177.528 176.12V176.797H171.086C171.109 177.734 171.382 178.493 171.903 179.073C172.431 179.647 173.099 179.934 173.907 179.934C174.482 179.934 174.968 179.817 175.366 179.583C175.765 179.349 176.113 179.038 176.412 178.651L177.405 179.425C176.609 180.649 175.413 181.262 173.819 181.262ZM173.617 172.736C172.961 172.736 172.41 172.976 171.965 173.457C171.52 173.932 171.244 174.599 171.139 175.461H175.902V175.338C175.856 174.512 175.633 173.873 175.234 173.422C174.836 172.965 174.297 172.736 173.617 172.736ZM187.669 172.727C188.39 171.843 189.327 171.4 190.481 171.4C192.491 171.4 193.505 172.534 193.522 174.802V181.086H191.896V174.793C191.891 174.107 191.732 173.6 191.422 173.272C191.117 172.944 190.64 172.78 189.989 172.78C189.462 172.78 188.999 172.921 188.601 173.202C188.202 173.483 187.892 173.852 187.669 174.309V181.086H186.043V167.586H187.669V172.727ZM200.983 181.262C199.694 181.262 198.645 180.84 197.837 179.996C197.028 179.146 196.624 178.013 196.624 176.595V176.296C196.624 175.352 196.803 174.512 197.16 173.773C197.523 173.029 198.027 172.449 198.672 172.033C199.322 171.611 200.025 171.4 200.781 171.4C202.017 171.4 202.978 171.807 203.664 172.622C204.349 173.436 204.692 174.602 204.692 176.12V176.797H198.25C198.273 177.734 198.546 178.493 199.067 179.073C199.595 179.647 200.263 179.934 201.071 179.934C201.645 179.934 202.132 179.817 202.53 179.583C202.929 179.349 203.277 179.038 203.576 178.651L204.569 179.425C203.772 180.649 202.577 181.262 200.983 181.262ZM200.781 172.736C200.125 172.736 199.574 172.976 199.129 173.457C198.683 173.932 198.408 174.599 198.303 175.461H203.066V175.338C203.019 174.512 202.797 173.873 202.398 173.422C202 172.965 201.461 172.736 200.781 172.736ZM209.429 181.086H207.803V167.586H209.429V181.086ZM221.152 176.436C221.152 177.884 220.821 179.05 220.159 179.934C219.497 180.819 218.6 181.262 217.469 181.262C216.315 181.262 215.407 180.895 214.745 180.163V184.742H213.119V171.576H214.604L214.683 172.631C215.345 171.81 216.265 171.4 217.443 171.4C218.586 171.4 219.488 171.831 220.15 172.692C220.818 173.554 221.152 174.752 221.152 176.287V176.436ZM219.526 176.252C219.526 175.18 219.298 174.333 218.841 173.712C218.384 173.091 217.757 172.78 216.96 172.78C215.975 172.78 215.237 173.217 214.745 174.09V178.634C215.231 179.501 215.975 179.934 216.977 179.934C217.757 179.934 218.375 179.627 218.832 179.012C219.295 178.391 219.526 177.471 219.526 176.252ZM237.902 176.436C237.902 177.89 237.568 179.058 236.9 179.943C236.232 180.822 235.336 181.262 234.211 181.262C233.009 181.262 232.081 180.837 231.424 179.987L231.345 181.086H229.851V167.586H231.477V172.622C232.133 171.807 233.039 171.4 234.193 171.4C235.347 171.4 236.253 171.837 236.909 172.71C237.571 173.583 237.902 174.778 237.902 176.296V176.436ZM236.276 176.252C236.276 175.144 236.062 174.289 235.634 173.685C235.207 173.082 234.591 172.78 233.789 172.78C232.716 172.78 231.946 173.278 231.477 174.274V178.388C231.975 179.384 232.752 179.882 233.806 179.882C234.586 179.882 235.192 179.58 235.626 178.976C236.059 178.373 236.276 177.465 236.276 176.252ZM246.91 180.145C246.277 180.89 245.348 181.262 244.124 181.262C243.11 181.262 242.336 180.969 241.803 180.383C241.276 179.791 241.009 178.918 241.003 177.764V171.576H242.629V177.72C242.629 179.161 243.215 179.882 244.387 179.882C245.629 179.882 246.456 179.419 246.866 178.493V171.576H248.492V181.086H246.945L246.91 180.145ZM257.587 178.563C257.587 178.124 257.42 177.784 257.086 177.544C256.758 177.298 256.181 177.087 255.355 176.911C254.535 176.735 253.881 176.524 253.395 176.278C252.914 176.032 252.557 175.739 252.323 175.399C252.094 175.059 251.98 174.655 251.98 174.186C251.98 173.407 252.308 172.748 252.964 172.209C253.626 171.67 254.47 171.4 255.496 171.4C256.574 171.4 257.447 171.679 258.115 172.235C258.788 172.792 259.125 173.504 259.125 174.371H257.491C257.491 173.926 257.3 173.542 256.919 173.22C256.544 172.897 256.07 172.736 255.496 172.736C254.904 172.736 254.441 172.865 254.107 173.123C253.773 173.381 253.606 173.718 253.606 174.134C253.606 174.526 253.761 174.822 254.072 175.021C254.382 175.221 254.942 175.411 255.75 175.593C256.565 175.774 257.224 175.991 257.728 176.243C258.232 176.495 258.604 176.8 258.844 177.157C259.09 177.509 259.213 177.939 259.213 178.449C259.213 179.299 258.873 179.981 258.194 180.497C257.514 181.007 256.632 181.262 255.548 181.262C254.787 181.262 254.113 181.127 253.527 180.857C252.941 180.588 252.481 180.213 252.147 179.732C251.819 179.246 251.655 178.722 251.655 178.159H253.281C253.31 178.704 253.527 179.138 253.931 179.46C254.341 179.776 254.88 179.934 255.548 179.934C256.163 179.934 256.656 179.811 257.025 179.565C257.4 179.313 257.587 178.979 257.587 178.563ZM264.178 181.086H262.552V171.576H264.178V181.086ZM262.42 169.054C262.42 168.79 262.499 168.567 262.658 168.386C262.822 168.204 263.062 168.113 263.378 168.113C263.695 168.113 263.935 168.204 264.099 168.386C264.263 168.567 264.345 168.79 264.345 169.054C264.345 169.317 264.263 169.537 264.099 169.713C263.935 169.889 263.695 169.976 263.378 169.976C263.062 169.976 262.822 169.889 262.658 169.713C262.499 169.537 262.42 169.317 262.42 169.054ZM269.406 171.576L269.459 172.771C270.186 171.857 271.135 171.4 272.307 171.4C274.317 171.4 275.33 172.534 275.348 174.802V181.086H273.722V174.793C273.716 174.107 273.558 173.6 273.247 173.272C272.943 172.944 272.465 172.78 271.815 172.78C271.287 172.78 270.824 172.921 270.426 173.202C270.028 173.483 269.717 173.852 269.494 174.309V181.086H267.868V171.576H269.406ZM282.826 181.262C281.537 181.262 280.488 180.84 279.68 179.996C278.871 179.146 278.467 178.013 278.467 176.595V176.296C278.467 175.352 278.646 174.512 279.003 173.773C279.366 173.029 279.87 172.449 280.515 172.033C281.165 171.611 281.868 171.4 282.624 171.4C283.861 171.4 284.821 171.807 285.507 172.622C286.193 173.436 286.535 174.602 286.535 176.12V176.797H280.093C280.116 177.734 280.389 178.493 280.91 179.073C281.438 179.647 282.106 179.934 282.914 179.934C283.488 179.934 283.975 179.817 284.373 179.583C284.772 179.349 285.12 179.038 285.419 178.651L286.412 179.425C285.615 180.649 284.42 181.262 282.826 181.262ZM282.624 172.736C281.968 172.736 281.417 172.976 280.972 173.457C280.527 173.932 280.251 174.599 280.146 175.461H284.909V175.338C284.862 174.512 284.64 173.873 284.241 173.422C283.843 172.965 283.304 172.736 282.624 172.736ZM295.042 178.563C295.042 178.124 294.875 177.784 294.541 177.544C294.213 177.298 293.636 177.087 292.81 176.911C291.989 176.735 291.336 176.524 290.85 176.278C290.369 176.032 290.012 175.739 289.777 175.399C289.549 175.059 289.435 174.655 289.435 174.186C289.435 173.407 289.763 172.748 290.419 172.209C291.081 171.67 291.925 171.4 292.95 171.4C294.028 171.4 294.901 171.679 295.569 172.235C296.243 172.792 296.58 173.504 296.58 174.371H294.945C294.945 173.926 294.755 173.542 294.374 173.22C293.999 172.897 293.524 172.736 292.95 172.736C292.358 172.736 291.896 172.865 291.562 173.123C291.228 173.381 291.061 173.718 291.061 174.134C291.061 174.526 291.216 174.822 291.526 175.021C291.837 175.221 292.397 175.411 293.205 175.593C294.02 175.774 294.679 175.991 295.183 176.243C295.687 176.495 296.059 176.8 296.299 177.157C296.545 177.509 296.668 177.939 296.668 178.449C296.668 179.299 296.328 179.981 295.649 180.497C294.969 181.007 294.087 181.262 293.003 181.262C292.241 181.262 291.567 181.127 290.982 180.857C290.396 180.588 289.936 180.213 289.602 179.732C289.274 179.246 289.109 178.722 289.109 178.159H290.735C290.765 178.704 290.982 179.138 291.386 179.46C291.796 179.776 292.335 179.934 293.003 179.934C293.618 179.934 294.11 179.811 294.48 179.565C294.855 179.313 295.042 178.979 295.042 178.563ZM305.403 178.563C305.403 178.124 305.236 177.784 304.902 177.544C304.574 177.298 303.997 177.087 303.171 176.911C302.351 176.735 301.697 176.524 301.211 176.278C300.73 176.032 300.373 175.739 300.139 175.399C299.91 175.059 299.796 174.655 299.796 174.186C299.796 173.407 300.124 172.748 300.78 172.209C301.442 171.67 302.286 171.4 303.312 171.4C304.39 171.4 305.263 171.679 305.931 172.235C306.604 172.792 306.941 173.504 306.941 174.371H305.307C305.307 173.926 305.116 173.542 304.735 173.22C304.36 172.897 303.886 172.736 303.312 172.736C302.72 172.736 302.257 172.865 301.923 173.123C301.589 173.381 301.422 173.718 301.422 174.134C301.422 174.526 301.577 174.822 301.888 175.021C302.198 175.221 302.758 175.411 303.566 175.593C304.381 175.774 305.04 175.991 305.544 176.243C306.048 176.495 306.42 176.8 306.66 177.157C306.906 177.509 307.029 177.939 307.029 178.449C307.029 179.299 306.689 179.981 306.01 180.497C305.33 181.007 304.448 181.262 303.364 181.262C302.603 181.262 301.929 181.127 301.343 180.857C300.757 180.588 300.297 180.213 299.963 179.732C299.635 179.246 299.471 178.722 299.471 178.159H301.097C301.126 178.704 301.343 179.138 301.747 179.46C302.157 179.776 302.696 179.934 303.364 179.934C303.979 179.934 304.472 179.811 304.841 179.565C305.216 179.313 305.403 178.979 305.403 178.563ZM314.174 181.262C312.885 181.262 311.836 180.84 311.027 179.996C310.219 179.146 309.814 178.013 309.814 176.595V176.296C309.814 175.352 309.993 174.512 310.35 173.773C310.714 173.029 311.218 172.449 311.862 172.033C312.513 171.611 313.216 171.4 313.972 171.4C315.208 171.4 316.169 171.807 316.854 172.622C317.54 173.436 317.883 174.602 317.883 176.12V176.797H311.44C311.464 177.734 311.736 178.493 312.258 179.073C312.785 179.647 313.453 179.934 314.262 179.934C314.836 179.934 315.322 179.817 315.721 179.583C316.119 179.349 316.468 179.038 316.767 178.651L317.76 179.425C316.963 180.649 315.767 181.262 314.174 181.262ZM313.972 172.736C313.315 172.736 312.765 172.976 312.319 173.457C311.874 173.932 311.599 174.599 311.493 175.461H316.257V175.338C316.21 174.512 315.987 173.873 315.589 173.422C315.19 172.965 314.651 172.736 313.972 172.736ZM326.389 178.563C326.389 178.124 326.223 177.784 325.889 177.544C325.56 177.298 324.983 177.087 324.157 176.911C323.337 176.735 322.683 176.524 322.197 176.278C321.717 176.032 321.359 175.739 321.125 175.399C320.896 175.059 320.782 174.655 320.782 174.186C320.782 173.407 321.11 172.748 321.766 172.209C322.429 171.67 323.272 171.4 324.298 171.4C325.376 171.4 326.249 171.679 326.917 172.235C327.591 172.792 327.928 173.504 327.928 174.371H326.293C326.293 173.926 326.102 173.542 325.722 173.22C325.347 172.897 324.872 172.736 324.298 172.736C323.706 172.736 323.243 172.865 322.909 173.123C322.575 173.381 322.408 173.718 322.408 174.134C322.408 174.526 322.563 174.822 322.874 175.021C323.184 175.221 323.744 175.411 324.553 175.593C325.367 175.774 326.026 175.991 326.53 176.243C327.034 176.495 327.406 176.8 327.646 177.157C327.892 177.509 328.015 177.939 328.015 178.449C328.015 179.299 327.676 179.981 326.996 180.497C326.316 181.007 325.434 181.262 324.35 181.262C323.589 181.262 322.915 181.127 322.329 180.857C321.743 180.588 321.283 180.213 320.949 179.732C320.621 179.246 320.457 178.722 320.457 178.159H322.083C322.112 178.704 322.329 179.138 322.733 179.46C323.143 179.776 323.682 179.934 324.35 179.934C324.966 179.934 325.458 179.811 325.827 179.565C326.202 179.313 326.389 178.979 326.389 178.563ZM338.525 181.086H336.899V171.576H338.525V181.086ZM336.767 169.054C336.767 168.79 336.846 168.567 337.005 168.386C337.169 168.204 337.409 168.113 337.725 168.113C338.042 168.113 338.282 168.204 338.446 168.386C338.61 168.567 338.692 168.79 338.692 169.054C338.692 169.317 338.61 169.537 338.446 169.713C338.282 169.889 338.042 169.976 337.725 169.976C337.409 169.976 337.169 169.889 337.005 169.713C336.846 169.537 336.767 169.317 336.767 169.054ZM343.754 171.576L343.806 172.771C344.533 171.857 345.482 171.4 346.654 171.4C348.664 171.4 349.677 172.534 349.695 174.802V181.086H348.069V174.793C348.063 174.107 347.905 173.6 347.594 173.272C347.29 172.944 346.812 172.78 346.162 172.78C345.634 172.78 345.171 172.921 344.773 173.202C344.375 173.483 344.064 173.852 343.841 174.309V181.086H342.215V171.576H343.754ZM357.042 179.934C357.622 179.934 358.128 179.759 358.562 179.407C358.996 179.056 359.236 178.616 359.283 178.089H360.821C360.792 178.634 360.604 179.152 360.258 179.644C359.913 180.137 359.45 180.529 358.87 180.822C358.295 181.115 357.686 181.262 357.042 181.262C355.747 181.262 354.715 180.831 353.948 179.97C353.186 179.102 352.805 177.919 352.805 176.419V176.146C352.805 175.221 352.975 174.397 353.315 173.677C353.655 172.956 354.141 172.396 354.774 171.998C355.413 171.599 356.166 171.4 357.033 171.4C358.099 171.4 358.984 171.72 359.687 172.358C360.396 172.997 360.774 173.826 360.821 174.846H359.283C359.236 174.23 359.001 173.726 358.58 173.334C358.164 172.935 357.648 172.736 357.033 172.736C356.207 172.736 355.565 173.035 355.108 173.633C354.657 174.224 354.431 175.083 354.431 176.208V176.516C354.431 177.611 354.657 178.455 355.108 179.047C355.559 179.639 356.204 179.934 357.042 179.934ZM368.326 173.035C368.08 172.994 367.813 172.974 367.526 172.974C366.459 172.974 365.736 173.428 365.355 174.336V181.086H363.729V171.576H365.311L365.337 172.675C365.871 171.825 366.626 171.4 367.605 171.4C367.921 171.4 368.162 171.441 368.326 171.523V173.035ZM374.679 181.262C373.39 181.262 372.341 180.84 371.533 179.996C370.724 179.146 370.32 178.013 370.32 176.595V176.296C370.32 175.352 370.498 174.512 370.856 173.773C371.219 173.029 371.723 172.449 372.368 172.033C373.018 171.611 373.721 171.4 374.477 171.4C375.713 171.4 376.674 171.807 377.36 172.622C378.045 173.436 378.388 174.602 378.388 176.12V176.797H371.946C371.969 177.734 372.242 178.493 372.763 179.073C373.29 179.647 373.958 179.934 374.767 179.934C375.341 179.934 375.828 179.817 376.226 179.583C376.624 179.349 376.973 179.038 377.272 178.651L378.265 179.425C377.468 180.649 376.273 181.262 374.679 181.262ZM374.477 172.736C373.821 172.736 373.27 172.976 372.825 173.457C372.379 173.932 372.104 174.599 371.998 175.461H376.762V175.338C376.715 174.512 376.493 173.873 376.094 173.422C375.696 172.965 375.157 172.736 374.477 172.736ZM387.229 181.086C387.135 180.898 387.059 180.564 387 180.084C386.244 180.869 385.342 181.262 384.293 181.262C383.356 181.262 382.585 180.998 381.982 180.471C381.384 179.937 381.085 179.264 381.085 178.449C381.085 177.459 381.46 176.691 382.21 176.146C382.966 175.596 384.027 175.32 385.392 175.32H386.974V174.573C386.974 174.005 386.804 173.554 386.464 173.22C386.124 172.88 385.623 172.71 384.961 172.71C384.381 172.71 383.895 172.856 383.502 173.149C383.11 173.442 382.913 173.797 382.913 174.213H381.279C381.279 173.738 381.446 173.281 381.78 172.842C382.119 172.396 382.576 172.045 383.151 171.787C383.731 171.529 384.366 171.4 385.058 171.4C386.154 171.4 387.012 171.676 387.633 172.226C388.254 172.771 388.576 173.524 388.6 174.485V178.862C388.6 179.735 388.711 180.43 388.934 180.945V181.086H387.229ZM384.531 179.847C385.04 179.847 385.524 179.715 385.981 179.451C386.438 179.187 386.769 178.845 386.974 178.423V176.472H385.699C383.707 176.472 382.711 177.055 382.711 178.221C382.711 178.73 382.881 179.129 383.221 179.416C383.561 179.703 383.997 179.847 384.531 179.847ZM397.766 178.563C397.766 178.124 397.599 177.784 397.265 177.544C396.937 177.298 396.36 177.087 395.533 176.911C394.713 176.735 394.06 176.524 393.573 176.278C393.093 176.032 392.736 175.739 392.501 175.399C392.273 175.059 392.158 174.655 392.158 174.186C392.158 173.407 392.487 172.748 393.143 172.209C393.805 171.67 394.649 171.4 395.674 171.4C396.752 171.4 397.625 171.679 398.293 172.235C398.967 172.792 399.304 173.504 399.304 174.371H397.669C397.669 173.926 397.479 173.542 397.098 173.22C396.723 172.897 396.248 172.736 395.674 172.736C395.082 172.736 394.619 172.865 394.285 173.123C393.951 173.381 393.784 173.718 393.784 174.134C393.784 174.526 393.94 174.822 394.25 175.021C394.561 175.221 395.12 175.411 395.929 175.593C396.743 175.774 397.403 175.991 397.906 176.243C398.41 176.495 398.782 176.8 399.023 177.157C399.269 177.509 399.392 177.939 399.392 178.449C399.392 179.299 399.052 179.981 398.372 180.497C397.693 181.007 396.811 181.262 395.727 181.262C394.965 181.262 394.291 181.127 393.705 180.857C393.119 180.588 392.659 180.213 392.325 179.732C391.997 179.246 391.833 178.722 391.833 178.159H393.459C393.488 178.704 393.705 179.138 394.11 179.46C394.52 179.776 395.059 179.934 395.727 179.934C396.342 179.934 396.834 179.811 397.203 179.565C397.578 179.313 397.766 178.979 397.766 178.563ZM406.536 181.262C405.247 181.262 404.198 180.84 403.39 179.996C402.581 179.146 402.177 178.013 402.177 176.595V176.296C402.177 175.352 402.356 174.512 402.713 173.773C403.076 173.029 403.58 172.449 404.225 172.033C404.875 171.611 405.578 171.4 406.334 171.4C407.57 171.4 408.531 171.807 409.217 172.622C409.902 173.436 410.245 174.602 410.245 176.12V176.797H403.803C403.826 177.734 404.099 178.493 404.62 179.073C405.148 179.647 405.816 179.934 406.624 179.934C407.198 179.934 407.685 179.817 408.083 179.583C408.482 179.349 408.83 179.038 409.129 178.651L410.122 179.425C409.325 180.649 408.13 181.262 406.536 181.262ZM406.334 172.736C405.678 172.736 405.127 172.976 404.682 173.457C404.236 173.932 403.961 174.599 403.856 175.461H408.619V175.338C408.572 174.512 408.35 173.873 407.951 173.422C407.553 172.965 407.014 172.736 406.334 172.736ZM426.793 176.436C426.793 177.884 426.462 179.05 425.8 179.934C425.138 180.819 424.241 181.262 423.11 181.262C421.956 181.262 421.048 180.895 420.386 180.163V184.742H418.76V171.576H420.245L420.324 172.631C420.986 171.81 421.906 171.4 423.084 171.4C424.227 171.4 425.129 171.831 425.791 172.692C426.459 173.554 426.793 174.752 426.793 176.287V176.436ZM425.167 176.252C425.167 175.18 424.938 174.333 424.481 173.712C424.024 173.091 423.397 172.78 422.601 172.78C421.616 172.78 420.878 173.217 420.386 174.09V178.634C420.872 179.501 421.616 179.934 422.618 179.934C423.397 179.934 424.016 179.627 424.473 179.012C424.936 178.391 425.167 177.471 425.167 176.252ZM433.893 181.262C432.604 181.262 431.556 180.84 430.747 179.996C429.938 179.146 429.534 178.013 429.534 176.595V176.296C429.534 175.352 429.713 174.512 430.07 173.773C430.433 173.029 430.937 172.449 431.582 172.033C432.232 171.611 432.935 171.4 433.691 171.4C434.928 171.4 435.889 171.807 436.574 172.622C437.26 173.436 437.602 174.602 437.602 176.12V176.797H431.16C431.183 177.734 431.456 178.493 431.977 179.073C432.505 179.647 433.173 179.934 433.981 179.934C434.556 179.934 435.042 179.817 435.44 179.583C435.839 179.349 436.187 179.038 436.486 178.651L437.479 179.425C436.682 180.649 435.487 181.262 433.893 181.262ZM433.691 172.736C433.035 172.736 432.484 172.976 432.039 173.457C431.594 173.932 431.318 174.599 431.213 175.461H435.976V175.338C435.93 174.512 435.707 173.873 435.308 173.422C434.91 172.965 434.371 172.736 433.691 172.736ZM442.778 169.273V171.576H444.554V172.833H442.778V178.73C442.778 179.111 442.857 179.398 443.015 179.592C443.174 179.779 443.443 179.873 443.824 179.873C444.012 179.873 444.269 179.838 444.597 179.767V181.086C444.17 181.203 443.754 181.262 443.349 181.262C442.623 181.262 442.075 181.042 441.706 180.602C441.337 180.163 441.152 179.539 441.152 178.73V172.833H439.421V171.576H441.152V169.273H442.778ZM58.6943 209.086C58.6006 208.898 58.5244 208.564 58.4658 208.084C57.71 208.869 56.8076 209.262 55.7588 209.262C54.8213 209.262 54.0508 208.998 53.4473 208.471C52.8496 207.937 52.5508 207.264 52.5508 206.449C52.5508 205.459 52.9258 204.691 53.6758 204.146C54.4316 203.596 55.4922 203.32 56.8574 203.32H58.4395V202.573C58.4395 202.005 58.2695 201.554 57.9297 201.22C57.5898 200.88 57.0889 200.71 56.4268 200.71C55.8467 200.71 55.3604 200.856 54.9678 201.149C54.5752 201.442 54.3789 201.797 54.3789 202.213H52.7441C52.7441 201.738 52.9111 201.281 53.2451 200.842C53.585 200.396 54.042 200.045 54.6162 199.787C55.1963 199.529 55.832 199.4 56.5234 199.4C57.6191 199.4 58.4775 199.676 59.0986 200.226C59.7197 200.771 60.042 201.524 60.0654 202.485V206.862C60.0654 207.735 60.1768 208.43 60.3994 208.945V209.086H58.6943ZM55.9961 207.847C56.5059 207.847 56.9893 207.715 57.4463 207.451C57.9033 207.187 58.2344 206.845 58.4395 206.423V204.472H57.165C55.1729 204.472 54.1768 205.055 54.1768 206.221C54.1768 206.73 54.3467 207.129 54.6865 207.416C55.0264 207.703 55.4629 207.847 55.9961 207.847ZM63.2987 204.252C63.2987 202.793 63.6445 201.621 64.3359 200.736C65.0273 199.846 65.9325 199.4 67.0517 199.4C68.165 199.4 69.0468 199.781 69.6972 200.543V195.586H71.3232V209.086H69.829L69.7499 208.066C69.0995 208.863 68.1943 209.262 67.0341 209.262C65.9325 209.262 65.0331 208.81 64.3359 207.908C63.6445 207.006 63.2987 205.828 63.2987 204.375V204.252ZM64.9247 204.436C64.9247 205.515 65.1474 206.358 65.5927 206.968C66.038 207.577 66.6532 207.882 67.4384 207.882C68.4696 207.882 69.2226 207.419 69.6972 206.493V202.125C69.2109 201.228 68.4638 200.78 67.456 200.78C66.6591 200.78 66.038 201.088 65.5927 201.703C65.1474 202.318 64.9247 203.229 64.9247 204.436ZM74.5037 204.243C74.5037 203.311 74.6854 202.474 75.0487 201.729C75.4178 200.985 75.9276 200.411 76.578 200.007C77.2342 199.602 77.9813 199.4 78.8192 199.4C80.1141 199.4 81.16 199.849 81.9569 200.745C82.7596 201.641 83.161 202.834 83.161 204.322V204.436C83.161 205.362 82.9823 206.194 82.6248 206.932C82.2733 207.665 81.7664 208.236 81.1043 208.646C80.4481 209.057 79.6922 209.262 78.8368 209.262C77.5477 209.262 76.5018 208.813 75.6991 207.917C74.9022 207.02 74.5037 205.834 74.5037 204.357V204.243ZM76.1385 204.436C76.1385 205.491 76.3817 206.338 76.868 206.976C77.3602 207.615 78.0164 207.934 78.8368 207.934C79.6629 207.934 80.3192 207.612 80.8055 206.968C81.2918 206.317 81.535 205.409 81.535 204.243C81.535 203.2 81.286 202.356 80.7879 201.712C80.2957 201.061 79.6395 200.736 78.8192 200.736C78.0164 200.736 77.369 201.056 76.8768 201.694C76.3846 202.333 76.1385 203.247 76.1385 204.436ZM94.3132 204.436C94.3132 205.884 93.9822 207.05 93.3201 207.934C92.658 208.819 91.7615 209.262 90.6306 209.262C89.4763 209.262 88.5681 208.895 87.906 208.163V212.742H86.28V199.576H87.7654L87.8445 200.631C88.5066 199.81 89.4265 199.4 90.6043 199.4C91.7468 199.4 92.6492 199.831 93.3113 200.692C93.9793 201.554 94.3132 202.752 94.3132 204.287V204.436ZM92.6873 204.252C92.6873 203.18 92.4588 202.333 92.0017 201.712C91.5447 201.091 90.9177 200.78 90.1209 200.78C89.1365 200.78 88.3982 201.217 87.906 202.09V206.634C88.3923 207.501 89.1365 207.934 90.1384 207.934C90.9177 207.934 91.5359 207.627 91.9929 207.012C92.4558 206.391 92.6873 205.471 92.6873 204.252ZM99.6735 197.273V199.576H101.449V200.833H99.6735V206.73C99.6735 207.111 99.7526 207.398 99.9108 207.592C100.069 207.779 100.339 207.873 100.719 207.873C100.907 207.873 101.165 207.838 101.493 207.767V209.086C101.065 209.203 100.649 209.262 100.245 209.262C99.5182 209.262 98.9704 209.042 98.6012 208.602C98.2321 208.163 98.0475 207.539 98.0475 206.73V200.833H96.3161V199.576H98.0475V197.273H99.6735ZM106.203 209.086H104.577V199.576H106.203V209.086ZM104.445 197.054C104.445 196.79 104.524 196.567 104.682 196.386C104.846 196.204 105.087 196.113 105.403 196.113C105.719 196.113 105.96 196.204 106.124 196.386C106.288 196.567 106.37 196.79 106.37 197.054C106.37 197.317 106.288 197.537 106.124 197.713C105.96 197.889 105.719 197.976 105.403 197.976C105.087 197.976 104.846 197.889 104.682 197.713C104.524 197.537 104.445 197.317 104.445 197.054ZM109.462 204.243C109.462 203.311 109.644 202.474 110.007 201.729C110.376 200.985 110.886 200.411 111.537 200.007C112.193 199.602 112.94 199.4 113.778 199.4C115.073 199.4 116.119 199.849 116.916 200.745C117.718 201.641 118.12 202.834 118.12 204.322V204.436C118.12 205.362 117.941 206.194 117.584 206.932C117.232 207.665 116.725 208.236 116.063 208.646C115.407 209.057 114.651 209.262 113.795 209.262C112.506 209.262 111.46 208.813 110.658 207.917C109.861 207.02 109.462 205.834 109.462 204.357V204.243ZM111.097 204.436C111.097 205.491 111.34 206.338 111.827 206.976C112.319 207.615 112.975 207.934 113.795 207.934C114.622 207.934 115.278 207.612 115.764 206.968C116.251 206.317 116.494 205.409 116.494 204.243C116.494 203.2 116.245 202.356 115.747 201.712C115.254 201.061 114.598 200.736 113.778 200.736C112.975 200.736 112.328 201.056 111.835 201.694C111.343 202.333 111.097 203.247 111.097 204.436ZM122.777 199.576L122.83 200.771C123.556 199.857 124.505 199.4 125.677 199.4C127.687 199.4 128.701 200.534 128.718 202.802V209.086H127.092V202.793C127.086 202.107 126.928 201.6 126.618 201.272C126.313 200.944 125.835 200.78 125.185 200.78C124.658 200.78 124.195 200.921 123.796 201.202C123.398 201.483 123.087 201.852 122.865 202.309V209.086H121.239V199.576H122.777ZM137.452 205.649C137.452 205.034 137.622 204.469 137.962 203.953C138.308 203.437 138.964 202.837 139.931 202.151C139.363 201.46 138.982 200.903 138.788 200.481C138.595 200.059 138.498 199.641 138.498 199.224C138.498 198.252 138.785 197.49 139.36 196.939C139.934 196.389 140.713 196.113 141.698 196.113C142.576 196.113 143.303 196.371 143.877 196.887C144.451 197.396 144.739 198.041 144.739 198.82C144.739 199.336 144.607 199.813 144.343 200.253C144.085 200.686 143.631 201.143 142.981 201.624L142.04 202.318L144.888 205.72C145.286 204.958 145.486 204.111 145.486 203.18H146.953C146.953 204.674 146.593 205.913 145.872 206.897L147.7 209.086H145.749L144.897 208.075C144.463 208.462 143.953 208.758 143.367 208.963C142.787 209.162 142.196 209.262 141.592 209.262C140.344 209.262 139.342 208.931 138.586 208.268C137.83 207.606 137.452 206.733 137.452 205.649ZM141.592 207.934C142.453 207.934 143.241 207.606 143.956 206.95L140.836 203.215L140.546 203.426C139.568 204.146 139.078 204.888 139.078 205.649C139.078 206.341 139.301 206.894 139.746 207.31C140.198 207.726 140.813 207.934 141.592 207.934ZM140.124 199.172C140.124 199.734 140.47 200.437 141.161 201.281L142.199 200.552C142.597 200.27 142.869 200.004 143.016 199.752C143.162 199.494 143.236 199.183 143.236 198.82C143.236 198.428 143.089 198.102 142.796 197.845C142.503 197.581 142.134 197.449 141.689 197.449C141.208 197.449 140.827 197.613 140.546 197.941C140.265 198.264 140.124 198.674 140.124 199.172ZM163.668 204.436C163.668 205.89 163.334 207.058 162.666 207.943C161.998 208.822 161.102 209.262 159.977 209.262C158.776 209.262 157.847 208.837 157.191 207.987L157.111 209.086H155.617V195.586H157.243V200.622C157.9 199.807 158.805 199.4 159.959 199.4C161.113 199.4 162.019 199.837 162.675 200.71C163.337 201.583 163.668 202.778 163.668 204.296V204.436ZM162.042 204.252C162.042 203.144 161.828 202.289 161.401 201.685C160.973 201.082 160.358 200.78 159.555 200.78C158.483 200.78 157.712 201.278 157.243 202.274V206.388C157.741 207.384 158.518 207.882 159.572 207.882C160.352 207.882 160.958 207.58 161.392 206.976C161.825 206.373 162.042 205.465 162.042 204.252ZM170.751 209.262C169.462 209.262 168.413 208.84 167.605 207.996C166.796 207.146 166.392 206.013 166.392 204.595V204.296C166.392 203.352 166.57 202.512 166.928 201.773C167.291 201.029 167.795 200.449 168.439 200.033C169.09 199.611 169.793 199.4 170.549 199.4C171.785 199.4 172.746 199.807 173.432 200.622C174.117 201.436 174.46 202.602 174.46 204.12V204.797H168.018C168.041 205.734 168.314 206.493 168.835 207.073C169.362 207.647 170.03 207.934 170.839 207.934C171.413 207.934 171.899 207.817 172.298 207.583C172.696 207.349 173.045 207.038 173.344 206.651L174.337 207.425C173.54 208.649 172.345 209.262 170.751 209.262ZM170.549 200.736C169.893 200.736 169.342 200.976 168.897 201.457C168.451 201.932 168.176 202.599 168.07 203.461H172.834V203.338C172.787 202.512 172.564 201.873 172.166 201.422C171.768 200.965 171.229 200.736 170.549 200.736ZM179.636 197.273V199.576H181.411V200.833H179.636V206.73C179.636 207.111 179.715 207.398 179.873 207.592C180.031 207.779 180.301 207.873 180.682 207.873C180.869 207.873 181.127 207.838 181.455 207.767V209.086C181.027 209.203 180.611 209.262 180.207 209.262C179.48 209.262 178.933 209.042 178.563 208.602C178.194 208.163 178.01 207.539 178.01 206.73V200.833H176.278V199.576H178.01V197.273H179.636ZM186.604 197.273V199.576H188.38V200.833H186.604V206.73C186.604 207.111 186.683 207.398 186.842 207.592C187 207.779 187.269 207.873 187.65 207.873C187.838 207.873 188.096 207.838 188.424 207.767V209.086C187.996 209.203 187.58 209.262 187.176 209.262C186.449 209.262 185.901 209.042 185.532 208.602C185.163 208.163 184.978 207.539 184.978 206.73V200.833H183.247V199.576H184.978V197.273H186.604ZM195.313 209.262C194.024 209.262 192.975 208.84 192.167 207.996C191.358 207.146 190.954 206.013 190.954 204.595V204.296C190.954 203.352 191.133 202.512 191.49 201.773C191.853 201.029 192.357 200.449 193.002 200.033C193.652 199.611 194.355 199.4 195.111 199.4C196.347 199.4 197.308 199.807 197.994 200.622C198.679 201.436 199.022 202.602 199.022 204.12V204.797H192.58C192.603 205.734 192.876 206.493 193.397 207.073C193.925 207.647 194.593 207.934 195.401 207.934C195.975 207.934 196.462 207.817 196.86 207.583C197.259 207.349 197.607 207.038 197.906 206.651L198.899 207.425C198.102 208.649 196.907 209.262 195.313 209.262ZM195.111 200.736C194.455 200.736 193.904 200.976 193.459 201.457C193.013 201.932 192.738 202.599 192.633 203.461H197.396V203.338C197.349 202.512 197.127 201.873 196.728 201.422C196.33 200.965 195.791 200.736 195.111 200.736ZM206.589 201.035C206.342 200.994 206.076 200.974 205.789 200.974C204.722 200.974 203.999 201.428 203.618 202.336V209.086H201.992V199.576H203.574L203.6 200.675C204.134 199.825 204.889 199.4 205.868 199.4C206.184 199.4 206.425 199.441 206.589 199.523V201.035ZM218.531 207.934C219.111 207.934 219.618 207.759 220.051 207.407C220.485 207.056 220.725 206.616 220.772 206.089H222.31C222.281 206.634 222.093 207.152 221.748 207.644C221.402 208.137 220.939 208.529 220.359 208.822C219.785 209.115 219.175 209.262 218.531 209.262C217.236 209.262 216.205 208.831 215.437 207.97C214.675 207.102 214.294 205.919 214.294 204.419V204.146C214.294 203.221 214.464 202.397 214.804 201.677C215.144 200.956 215.63 200.396 216.263 199.998C216.902 199.599 217.655 199.4 218.522 199.4C219.588 199.4 220.473 199.72 221.176 200.358C221.885 200.997 222.263 201.826 222.31 202.846H220.772C220.725 202.23 220.491 201.726 220.069 201.334C219.653 200.935 219.137 200.736 218.522 200.736C217.696 200.736 217.054 201.035 216.597 201.633C216.146 202.224 215.92 203.083 215.92 204.208V204.516C215.92 205.611 216.146 206.455 216.597 207.047C217.048 207.639 217.693 207.934 218.531 207.934ZM224.788 204.243C224.788 203.311 224.969 202.474 225.333 201.729C225.702 200.985 226.211 200.411 226.862 200.007C227.518 199.602 228.265 199.4 229.103 199.4C230.398 199.4 231.444 199.849 232.241 200.745C233.043 201.641 233.445 202.834 233.445 204.322V204.436C233.445 205.362 233.266 206.194 232.909 206.932C232.557 207.665 232.05 208.236 231.388 208.646C230.732 209.057 229.976 209.262 229.121 209.262C227.832 209.262 226.786 208.813 225.983 207.917C225.186 207.02 224.788 205.834 224.788 204.357V204.243ZM226.422 204.436C226.422 205.491 226.666 206.338 227.152 206.976C227.644 207.615 228.3 207.934 229.121 207.934C229.947 207.934 230.603 207.612 231.089 206.968C231.576 206.317 231.819 205.409 231.819 204.243C231.819 203.2 231.57 202.356 231.072 201.712C230.58 201.061 229.923 200.736 229.103 200.736C228.3 200.736 227.653 201.056 227.161 201.694C226.668 202.333 226.422 203.247 226.422 204.436ZM238.102 199.576L238.155 200.771C238.881 199.857 239.83 199.4 241.002 199.4C243.012 199.4 244.026 200.534 244.043 202.802V209.086H242.417V202.793C242.412 202.107 242.253 201.6 241.943 201.272C241.638 200.944 241.161 200.78 240.51 200.78C239.983 200.78 239.52 200.921 239.121 201.202C238.723 201.483 238.413 201.852 238.19 202.309V209.086H236.564V199.576H238.102ZM249.114 199.576L249.166 200.771C249.893 199.857 250.842 199.4 252.014 199.4C254.024 199.4 255.037 200.534 255.055 202.802V209.086H253.429V202.793C253.423 202.107 253.265 201.6 252.954 201.272C252.65 200.944 252.172 200.78 251.522 200.78C250.994 200.78 250.532 200.921 250.133 201.202C249.735 201.483 249.424 201.852 249.201 202.309V209.086H247.576V199.576H249.114ZM262.533 209.262C261.244 209.262 260.196 208.84 259.387 207.996C258.578 207.146 258.174 206.013 258.174 204.595V204.296C258.174 203.352 258.353 202.512 258.71 201.773C259.073 201.029 259.577 200.449 260.222 200.033C260.872 199.611 261.575 199.4 262.331 199.4C263.568 199.4 264.529 199.807 265.214 200.622C265.9 201.436 266.242 202.602 266.242 204.12V204.797H259.8C259.823 205.734 260.096 206.493 260.617 207.073C261.145 207.647 261.813 207.934 262.621 207.934C263.196 207.934 263.682 207.817 264.08 207.583C264.479 207.349 264.827 207.038 265.126 206.651L266.119 207.425C265.322 208.649 264.127 209.262 262.533 209.262ZM262.331 200.736C261.675 200.736 261.124 200.976 260.679 201.457C260.234 201.932 259.958 202.599 259.853 203.461H264.616V203.338C264.57 202.512 264.347 201.873 263.948 201.422C263.55 200.965 263.011 200.736 262.331 200.736ZM273.027 207.934C273.607 207.934 274.113 207.759 274.547 207.407C274.981 207.056 275.221 206.616 275.268 206.089H276.806C276.777 206.634 276.589 207.152 276.243 207.644C275.898 208.137 275.435 208.529 274.855 208.822C274.28 209.115 273.671 209.262 273.027 209.262C271.732 209.262 270.7 208.831 269.933 207.97C269.171 207.102 268.79 205.919 268.79 204.419V204.146C268.79 203.221 268.96 202.397 269.3 201.677C269.64 200.956 270.126 200.396 270.759 199.998C271.398 199.599 272.151 199.4 273.018 199.4C274.084 199.4 274.969 199.72 275.672 200.358C276.381 200.997 276.759 201.826 276.806 202.846H275.268C275.221 202.23 274.986 201.726 274.565 201.334C274.149 200.935 273.633 200.736 273.018 200.736C272.192 200.736 271.55 201.035 271.093 201.633C270.642 202.224 270.416 203.083 270.416 204.208V204.516C270.416 205.611 270.642 206.455 271.093 207.047C271.544 207.639 272.189 207.934 273.027 207.934ZM281.92 197.273V199.576H283.695V200.833H281.92V206.73C281.92 207.111 281.999 207.398 282.157 207.592C282.316 207.779 282.585 207.873 282.966 207.873C283.153 207.873 283.411 207.838 283.739 207.767V209.086C283.312 209.203 282.896 209.262 282.491 209.262C281.765 209.262 281.217 209.042 280.848 208.602C280.479 208.163 280.294 207.539 280.294 206.73V200.833H278.563V199.576H280.294V197.273H281.92ZM300.261 204.436C300.261 205.884 299.93 207.05 299.268 207.934C298.605 208.819 297.709 209.262 296.578 209.262C295.424 209.262 294.516 208.895 293.853 208.163V212.742H292.227V199.576H293.713L293.792 200.631C294.454 199.81 295.374 199.4 296.552 199.4C297.694 199.4 298.597 199.831 299.259 200.692C299.927 201.554 300.261 202.752 300.261 204.287V204.436ZM298.635 204.252C298.635 203.18 298.406 202.333 297.949 201.712C297.492 201.091 296.865 200.78 296.068 200.78C295.084 200.78 294.346 201.217 293.853 202.09V206.634C294.34 207.501 295.084 207.934 296.086 207.934C296.865 207.934 297.483 207.627 297.94 207.012C298.403 206.391 298.635 205.471 298.635 204.252ZM307.361 209.262C306.072 209.262 305.023 208.84 304.215 207.996C303.406 207.146 303.002 206.013 303.002 204.595V204.296C303.002 203.352 303.181 202.512 303.538 201.773C303.901 201.029 304.405 200.449 305.05 200.033C305.7 199.611 306.403 199.4 307.159 199.4C308.395 199.4 309.356 199.807 310.042 200.622C310.727 201.436 311.07 202.602 311.07 204.12V204.797H304.628C304.651 205.734 304.924 206.493 305.445 207.073C305.973 207.647 306.64 207.934 307.449 207.934C308.023 207.934 308.51 207.817 308.908 207.583C309.306 207.349 309.655 207.038 309.954 206.651L310.947 207.425C310.15 208.649 308.955 209.262 307.361 209.262ZM307.159 200.736C306.503 200.736 305.952 200.976 305.507 201.457C305.061 201.932 304.786 202.599 304.681 203.461H309.444V203.338C309.397 202.512 309.175 201.873 308.776 201.422C308.378 200.965 307.839 200.736 307.159 200.736ZM316.246 197.273V199.576H318.021V200.833H316.246V206.73C316.246 207.111 316.325 207.398 316.483 207.592C316.641 207.779 316.911 207.873 317.292 207.873C317.479 207.873 317.737 207.838 318.065 207.767V209.086C317.637 209.203 317.221 209.262 316.817 209.262C316.091 209.262 315.543 209.042 315.174 208.602C314.804 208.163 314.62 207.539 314.62 206.73V200.833H312.888V199.576H314.62V197.273H316.246ZM332.424 209.086C332.331 208.898 332.254 208.564 332.196 208.084C331.44 208.869 330.538 209.262 329.489 209.262C328.551 209.262 327.781 208.998 327.177 208.471C326.58 207.937 326.281 207.264 326.281 206.449C326.281 205.459 326.656 204.691 327.406 204.146C328.162 203.596 329.222 203.32 330.587 203.32H332.17V202.573C332.17 202.005 332 201.554 331.66 201.22C331.32 200.88 330.819 200.71 330.157 200.71C329.577 200.71 329.09 200.856 328.698 201.149C328.305 201.442 328.109 201.797 328.109 202.213H326.474C326.474 201.738 326.641 201.281 326.975 200.842C327.315 200.396 327.772 200.045 328.346 199.787C328.926 199.529 329.562 199.4 330.254 199.4C331.349 199.4 332.208 199.676 332.829 200.226C333.45 200.771 333.772 201.524 333.796 202.485V206.862C333.796 207.735 333.907 208.43 334.129 208.945V209.086H332.424ZM329.726 207.847C330.236 207.847 330.719 207.715 331.176 207.451C331.633 207.187 331.964 206.845 332.17 206.423V204.472H330.895C328.903 204.472 327.907 205.055 327.907 206.221C327.907 206.73 328.077 207.129 328.417 207.416C328.756 207.703 329.193 207.847 329.726 207.847ZM337.029 204.252C337.029 202.793 337.375 201.621 338.066 200.736C338.757 199.846 339.663 199.4 340.782 199.4C341.895 199.4 342.777 199.781 343.427 200.543V195.586H345.053V209.086H343.559L343.48 208.066C342.83 208.863 341.924 209.262 340.764 209.262C339.663 209.262 338.763 208.81 338.066 207.908C337.375 207.006 337.029 205.828 337.029 204.375V204.252ZM338.655 204.436C338.655 205.515 338.877 206.358 339.323 206.968C339.768 207.577 340.383 207.882 341.168 207.882C342.2 207.882 342.953 207.419 343.427 206.493V202.125C342.941 201.228 342.194 200.78 341.186 200.78C340.389 200.78 339.768 201.088 339.323 201.703C338.877 202.318 338.655 203.229 338.655 204.436ZM348.234 204.243C348.234 203.311 348.415 202.474 348.779 201.729C349.148 200.985 349.658 200.411 350.308 200.007C350.964 199.602 351.711 199.4 352.549 199.4C353.844 199.4 354.89 199.849 355.687 200.745C356.49 201.641 356.891 202.834 356.891 204.322V204.436C356.891 205.362 356.712 206.194 356.355 206.932C356.003 207.665 355.497 208.236 354.834 208.646C354.178 209.057 353.422 209.262 352.567 209.262C351.278 209.262 350.232 208.813 349.429 207.917C348.632 207.02 348.234 205.834 348.234 204.357V204.243ZM349.869 204.436C349.869 205.491 350.112 206.338 350.598 206.976C351.09 207.615 351.747 207.934 352.567 207.934C353.393 207.934 354.049 207.612 354.536 206.968C355.022 206.317 355.265 205.409 355.265 204.243C355.265 203.2 355.016 202.356 354.518 201.712C354.026 201.061 353.37 200.736 352.549 200.736C351.747 200.736 351.099 201.056 350.607 201.694C350.115 202.333 349.869 203.247 349.869 204.436ZM368.043 204.436C368.043 205.884 367.712 207.05 367.05 207.934C366.388 208.819 365.492 209.262 364.361 209.262C363.206 209.262 362.298 208.895 361.636 208.163V212.742H360.01V199.576H361.495L361.575 200.631C362.237 199.81 363.157 199.4 364.334 199.4C365.477 199.4 366.379 199.831 367.041 200.692C367.709 201.554 368.043 202.752 368.043 204.287V204.436ZM366.417 204.252C366.417 203.18 366.189 202.333 365.732 201.712C365.275 201.091 364.648 200.78 363.851 200.78C362.867 200.78 362.128 201.217 361.636 202.09V206.634C362.122 207.501 362.867 207.934 363.869 207.934C364.648 207.934 365.266 207.627 365.723 207.012C366.186 206.391 366.417 205.471 366.417 204.252ZM373.404 197.273V199.576H375.179V200.833H373.404V206.73C373.404 207.111 373.483 207.398 373.641 207.592C373.799 207.779 374.069 207.873 374.449 207.873C374.637 207.873 374.895 207.838 375.223 207.767V209.086C374.795 209.203 374.379 209.262 373.975 209.262C373.248 209.262 372.7 209.042 372.331 208.602C371.962 208.163 371.778 207.539 371.778 206.73V200.833H370.046V199.576H371.778V197.273H373.404ZM382.112 209.262C380.823 209.262 379.775 208.84 378.966 207.996C378.157 207.146 377.753 206.013 377.753 204.595V204.296C377.753 203.352 377.932 202.512 378.289 201.773C378.653 201.029 379.156 200.449 379.801 200.033C380.451 199.611 381.154 199.4 381.91 199.4C383.147 199.4 384.108 199.807 384.793 200.622C385.479 201.436 385.821 202.602 385.821 204.12V204.797H379.379C379.403 205.734 379.675 206.493 380.196 207.073C380.724 207.647 381.392 207.934 382.2 207.934C382.775 207.934 383.261 207.817 383.659 207.583C384.058 207.349 384.406 207.038 384.705 206.651L385.698 207.425C384.902 208.649 383.706 209.262 382.112 209.262ZM381.91 200.736C381.254 200.736 380.703 200.976 380.258 201.457C379.813 201.932 379.537 202.599 379.432 203.461H384.195V203.338C384.149 202.512 383.926 201.873 383.528 201.422C383.129 200.965 382.59 200.736 381.91 200.736ZM393.388 201.035C393.142 200.994 392.875 200.974 392.588 200.974C391.522 200.974 390.798 201.428 390.417 202.336V209.086H388.791V199.576H390.373L390.4 200.675C390.933 199.825 391.689 199.4 392.667 199.4C392.984 199.4 393.224 199.441 393.388 199.523V201.035ZM401.508 206.563C401.508 206.124 401.341 205.784 401.007 205.544C400.679 205.298 400.102 205.087 399.275 204.911C398.455 204.735 397.802 204.524 397.315 204.278C396.835 204.032 396.478 203.739 396.243 203.399C396.015 203.059 395.9 202.655 395.9 202.186C395.9 201.407 396.229 200.748 396.885 200.209C397.547 199.67 398.391 199.4 399.416 199.4C400.494 199.4 401.367 199.679 402.035 200.235C402.709 200.792 403.046 201.504 403.046 202.371H401.411C401.411 201.926 401.221 201.542 400.84 201.22C400.465 200.897 399.99 200.736 399.416 200.736C398.824 200.736 398.361 200.865 398.027 201.123C397.693 201.381 397.526 201.718 397.526 202.134C397.526 202.526 397.682 202.822 397.992 203.021C398.303 203.221 398.862 203.411 399.671 203.593C400.485 203.774 401.145 203.991 401.648 204.243C402.152 204.495 402.524 204.8 402.765 205.157C403.011 205.509 403.134 205.939 403.134 206.449C403.134 207.299 402.794 207.981 402.114 208.497C401.435 209.007 400.553 209.262 399.469 209.262C398.707 209.262 398.033 209.127 397.447 208.857C396.861 208.588 396.401 208.213 396.067 207.732C395.739 207.246 395.575 206.722 395.575 206.159H397.201C397.23 206.704 397.447 207.138 397.852 207.46C398.262 207.776 398.801 207.934 399.469 207.934C400.084 207.934 400.576 207.811 400.945 207.565C401.32 207.313 401.508 206.979 401.508 206.563ZM420.297 206.845L422.125 199.576H423.751L420.982 209.086H419.664L417.352 201.879L415.102 209.086H413.784L411.024 199.576H412.641L414.514 206.695L416.728 199.576H418.038L420.297 206.845ZM428.259 209.086H426.633V199.576H428.259V209.086ZM426.501 197.054C426.501 196.79 426.58 196.567 426.738 196.386C426.902 196.204 427.142 196.113 427.459 196.113C427.775 196.113 428.015 196.204 428.18 196.386C428.344 196.567 428.426 196.79 428.426 197.054C428.426 197.317 428.344 197.537 428.18 197.713C428.015 197.889 427.775 197.976 427.459 197.976C427.142 197.976 426.902 197.889 426.738 197.713C426.58 197.537 426.501 197.317 426.501 197.054ZM434.155 197.273V199.576H435.93V200.833H434.155V206.73C434.155 207.111 434.234 207.398 434.392 207.592C434.551 207.779 434.82 207.873 435.201 207.873C435.388 207.873 435.646 207.838 435.974 207.767V209.086C435.547 209.203 435.131 209.262 434.726 209.262C434 209.262 433.452 209.042 433.083 208.602C432.714 208.163 432.529 207.539 432.529 206.73V200.833H430.798V199.576H432.529V197.273H434.155ZM440.544 200.727C441.264 199.843 442.202 199.4 443.356 199.4C445.366 199.4 446.38 200.534 446.397 202.802V209.086H444.771V202.793C444.765 202.107 444.607 201.6 444.297 201.272C443.992 200.944 443.514 200.78 442.864 200.78C442.337 200.78 441.874 200.921 441.475 201.202C441.077 201.483 440.766 201.852 440.544 202.309V209.086H438.918V195.586H440.544V200.727ZM60.8564 232.436C60.8564 233.884 60.5254 235.05 59.8633 235.934C59.2012 236.819 58.3047 237.262 57.1738 237.262C56.0195 237.262 55.1113 236.895 54.4492 236.163V240.742H52.8232V227.576H54.3086L54.3877 228.631C55.0498 227.81 55.9697 227.4 57.1475 227.4C58.29 227.4 59.1924 227.831 59.8545 228.692C60.5225 229.554 60.8564 230.752 60.8564 232.287V232.436ZM59.2305 232.252C59.2305 231.18 59.002 230.333 58.5449 229.712C58.0879 229.091 57.4609 228.78 56.6641 228.78C55.6797 228.78 54.9414 229.217 54.4492 230.09V234.634C54.9355 235.501 55.6797 235.934 56.6816 235.934C57.4609 235.934 58.0791 235.627 58.5361 235.012C58.999 234.391 59.2305 233.471 59.2305 232.252ZM63.58 232.243C63.58 231.311 63.7616 230.474 64.1249 229.729C64.4941 228.985 65.0038 228.411 65.6542 228.007C66.3105 227.602 67.0575 227.4 67.8954 227.4C69.1904 227.4 70.2362 227.849 71.0331 228.745C71.8359 229.641 72.2372 230.834 72.2372 232.322V232.436C72.2372 233.362 72.0585 234.194 71.7011 234.932C71.3495 235.665 70.8427 236.236 70.1806 236.646C69.5243 237.057 68.7685 237.262 67.913 237.262C66.6239 237.262 65.578 236.813 64.7753 235.917C63.9784 235.02 63.58 233.834 63.58 232.357V232.243ZM65.2148 232.436C65.2148 233.491 65.4579 234.338 65.9443 234.976C66.4364 235.615 67.0927 235.934 67.913 235.934C68.7392 235.934 69.3954 235.612 69.8818 234.968C70.3681 234.317 70.6112 233.409 70.6112 232.243C70.6112 231.2 70.3622 230.356 69.8642 229.712C69.372 229.061 68.7157 228.736 67.8954 228.736C67.0927 228.736 66.4452 229.056 65.953 229.694C65.4609 230.333 65.2148 231.247 65.2148 232.436ZM77.5623 225.273V227.576H79.3377V228.833H77.5623V234.73C77.5623 235.111 77.6414 235.398 77.7996 235.592C77.9579 235.779 78.2274 235.873 78.6082 235.873C78.7957 235.873 79.0536 235.838 79.3817 235.767V237.086C78.9539 237.203 78.5379 237.262 78.1336 237.262C77.4071 237.262 76.8592 237.042 76.4901 236.602C76.1209 236.163 75.9364 235.539 75.9364 234.73V228.833H74.2049V227.576H75.9364V225.273H77.5623ZM86.2712 237.262C84.9822 237.262 83.9334 236.84 83.1248 235.996C82.3162 235.146 81.9119 234.013 81.9119 232.595V232.296C81.9119 231.352 82.0906 230.512 82.448 229.773C82.8113 229.029 83.3152 228.449 83.9597 228.033C84.6101 227.611 85.3132 227.4 86.0691 227.4C87.3054 227.4 88.2664 227.807 88.9519 228.622C89.6375 229.436 89.9802 230.602 89.9802 232.12V232.797H83.5379C83.5613 233.734 83.8337 234.493 84.3552 235.073C84.8826 235.647 85.5505 235.934 86.3591 235.934C86.9334 235.934 87.4197 235.817 87.8181 235.583C88.2166 235.349 88.5652 235.038 88.864 234.651L89.8572 235.425C89.0603 236.649 87.865 237.262 86.2712 237.262ZM86.0691 228.736C85.4129 228.736 84.8621 228.976 84.4168 229.457C83.9714 229.932 83.6961 230.599 83.5906 231.461H88.3543V231.338C88.3074 230.512 88.0847 229.873 87.6863 229.422C87.2879 228.965 86.7488 228.736 86.0691 228.736ZM94.488 227.576L94.5407 228.771C95.2673 227.857 96.2165 227.4 97.3884 227.4C99.3981 227.4 100.412 228.534 100.429 230.802V237.086H98.8034V230.793C98.7975 230.107 98.6393 229.6 98.3288 229.272C98.0241 228.944 97.5466 228.78 96.8962 228.78C96.3688 228.78 95.9059 228.921 95.5075 229.202C95.1091 229.483 94.7985 229.852 94.5759 230.309V237.086H92.9499V227.576H94.488ZM106.168 225.273V227.576H107.943V228.833H106.168V234.73C106.168 235.111 106.247 235.398 106.405 235.592C106.563 235.779 106.833 235.873 107.213 235.873C107.401 235.873 107.659 235.838 107.987 235.767V237.086C107.559 237.203 107.143 237.262 106.739 237.262C106.012 237.262 105.464 237.042 105.095 236.602C104.726 236.163 104.542 235.539 104.542 234.73V228.833H102.81V227.576H104.542V225.273H106.168ZM112.697 237.086H111.071V227.576H112.697V237.086ZM110.939 225.054C110.939 224.79 111.018 224.567 111.176 224.386C111.34 224.204 111.581 224.113 111.897 224.113C112.213 224.113 112.454 224.204 112.618 224.386C112.782 224.567 112.864 224.79 112.864 225.054C112.864 225.317 112.782 225.537 112.618 225.713C112.454 225.889 112.213 225.976 111.897 225.976C111.581 225.976 111.34 225.889 111.176 225.713C111.018 225.537 110.939 225.317 110.939 225.054ZM122.258 237.086C122.164 236.898 122.088 236.564 122.03 236.084C121.274 236.869 120.372 237.262 119.323 237.262C118.385 237.262 117.615 236.998 117.011 236.471C116.414 235.937 116.115 235.264 116.115 234.449C116.115 233.459 116.49 232.691 117.24 232.146C117.996 231.596 119.056 231.32 120.421 231.32H122.003V230.573C122.003 230.005 121.833 229.554 121.494 229.22C121.154 228.88 120.653 228.71 119.991 228.71C119.411 228.71 118.924 228.856 118.532 229.149C118.139 229.442 117.943 229.797 117.943 230.213H116.308C116.308 229.738 116.475 229.281 116.809 228.842C117.149 228.396 117.606 228.045 118.18 227.787C118.76 227.529 119.396 227.4 120.087 227.4C121.183 227.4 122.041 227.676 122.663 228.226C123.284 228.771 123.606 229.524 123.629 230.485V234.862C123.629 235.735 123.741 236.43 123.963 236.945V237.086H122.258ZM119.56 235.847C120.07 235.847 120.553 235.715 121.01 235.451C121.467 235.187 121.798 234.845 122.003 234.423V232.472H120.729C118.737 232.472 117.741 233.055 117.741 234.221C117.741 234.73 117.911 235.129 118.25 235.416C118.59 235.703 119.027 235.847 119.56 235.847ZM129.025 237.086H127.399V223.586H129.025V237.086ZM146.293 232.436C146.293 233.884 145.962 235.05 145.3 235.934C144.638 236.819 143.741 237.262 142.611 237.262C141.456 237.262 140.548 236.895 139.886 236.163V240.742H138.26V227.576H139.745L139.824 228.631C140.487 227.81 141.406 227.4 142.584 227.4C143.727 227.4 144.629 227.831 145.291 228.692C145.959 229.554 146.293 230.752 146.293 232.287V232.436ZM144.667 232.252C144.667 231.18 144.439 230.333 143.982 229.712C143.525 229.091 142.898 228.78 142.101 228.78C141.116 228.78 140.378 229.217 139.886 230.09V234.634C140.372 235.501 141.116 235.934 142.118 235.934C142.898 235.934 143.516 235.627 143.973 235.012C144.436 234.391 144.667 233.471 144.667 232.252ZM153.394 237.262C152.105 237.262 151.056 236.84 150.247 235.996C149.439 235.146 149.034 234.013 149.034 232.595V232.296C149.034 231.352 149.213 230.512 149.57 229.773C149.934 229.029 150.438 228.449 151.082 228.033C151.733 227.611 152.436 227.4 153.192 227.4C154.428 227.4 155.389 227.807 156.074 228.622C156.76 229.436 157.103 230.602 157.103 232.12V232.797H150.66C150.684 233.734 150.956 234.493 151.478 235.073C152.005 235.647 152.673 235.934 153.482 235.934C154.056 235.934 154.542 235.817 154.941 235.583C155.339 235.349 155.688 235.038 155.986 234.651L156.98 235.425C156.183 236.649 154.987 237.262 153.394 237.262ZM153.192 228.736C152.535 228.736 151.984 228.976 151.539 229.457C151.094 229.932 150.818 230.599 150.713 231.461H155.477V231.338C155.43 230.512 155.207 229.873 154.809 229.422C154.41 228.965 153.871 228.736 153.192 228.736ZM162.278 225.273V227.576H164.054V228.833H162.278V234.73C162.278 235.111 162.357 235.398 162.516 235.592C162.674 235.779 162.943 235.873 163.324 235.873C163.512 235.873 163.77 235.838 164.098 235.767V237.086C163.67 237.203 163.254 237.262 162.85 237.262C162.123 237.262 161.575 237.042 161.206 236.602C160.837 236.163 160.652 235.539 160.652 234.73V228.833H158.921V227.576H160.652V225.273H162.278ZM172.578 234.563C172.578 234.124 172.411 233.784 172.077 233.544C171.749 233.298 171.172 233.087 170.346 232.911C169.525 232.735 168.872 232.524 168.386 232.278C167.905 232.032 167.548 231.739 167.313 231.399C167.085 231.059 166.971 230.655 166.971 230.186C166.971 229.407 167.299 228.748 167.955 228.209C168.617 227.67 169.461 227.4 170.486 227.4C171.564 227.4 172.437 227.679 173.105 228.235C173.779 228.792 174.116 229.504 174.116 230.371H172.481C172.481 229.926 172.291 229.542 171.91 229.22C171.535 228.897 171.061 228.736 170.486 228.736C169.894 228.736 169.432 228.865 169.098 229.123C168.764 229.381 168.597 229.718 168.597 230.134C168.597 230.526 168.752 230.822 169.062 231.021C169.373 231.221 169.933 231.411 170.741 231.593C171.556 231.774 172.215 231.991 172.719 232.243C173.223 232.495 173.595 232.8 173.835 233.157C174.081 233.509 174.204 233.939 174.204 234.449C174.204 235.299 173.864 235.981 173.185 236.497C172.505 237.007 171.623 237.262 170.539 237.262C169.777 237.262 169.103 237.127 168.518 236.857C167.932 236.588 167.472 236.213 167.138 235.732C166.81 235.246 166.645 234.722 166.645 234.159H168.271C168.301 234.704 168.518 235.138 168.922 235.46C169.332 235.776 169.871 235.934 170.539 235.934C171.154 235.934 171.646 235.811 172.016 235.565C172.391 235.313 172.578 234.979 172.578 234.563ZM179.309 233.482C179.321 232.785 179.4 232.234 179.547 231.83C179.693 231.426 179.992 230.977 180.443 230.485L181.595 229.299C182.087 228.742 182.333 228.144 182.333 227.506C182.333 226.891 182.172 226.41 181.849 226.064C181.527 225.713 181.058 225.537 180.443 225.537C179.846 225.537 179.365 225.695 179.002 226.012C178.639 226.328 178.457 226.753 178.457 227.286H176.831C176.843 226.337 177.18 225.572 177.842 224.992C178.51 224.406 179.377 224.113 180.443 224.113C181.551 224.113 182.412 224.412 183.027 225.01C183.648 225.601 183.959 226.416 183.959 227.453C183.959 228.478 183.484 229.489 182.535 230.485L181.577 231.434C181.149 231.909 180.935 232.592 180.935 233.482H179.309ZM179.239 236.268C179.239 236.005 179.318 235.785 179.476 235.609C179.641 235.428 179.881 235.337 180.197 235.337C180.514 235.337 180.754 235.428 180.918 235.609C181.082 235.785 181.164 236.005 181.164 236.268C181.164 236.532 181.082 236.752 180.918 236.928C180.754 237.098 180.514 237.182 180.197 237.182C179.881 237.182 179.641 237.098 179.476 236.928C179.318 236.752 179.239 236.532 179.239 236.268Z" fill="black"/>
<path d="M56.5088 402.882H54.9619L54.4932 405.284H53.6553L54.124 402.882H52.7236V402.079H54.2764L54.6807 400.005H53.1689V399.191H54.8389L55.3193 396.753H56.1572L55.6768 399.191H57.2236L57.7041 396.753H58.5479L58.0674 399.191H59.2627V400.005H57.9092L57.5049 402.079H58.8232V402.882H57.3525L56.8838 405.284H56.04L56.5088 402.882ZM55.1143 402.079H56.6611L57.0654 400.005H55.5186L55.1143 402.079ZM64.0257 399.917C63.8616 399.89 63.6839 399.876 63.4925 399.876C62.7815 399.876 62.2991 400.179 62.0452 400.784V405.284H60.9612V398.944H62.0159L62.0335 399.677C62.3889 399.11 62.8929 398.827 63.5452 398.827C63.7561 398.827 63.9163 398.855 64.0257 398.909V399.917ZM68.2613 405.401C67.4019 405.401 66.7027 405.12 66.1636 404.558C65.6246 403.991 65.355 403.235 65.355 402.29V402.091C65.355 401.462 65.4742 400.901 65.7125 400.409C65.9546 399.913 66.2906 399.526 66.7203 399.249C67.1539 398.968 67.6226 398.827 68.1265 398.827C68.9507 398.827 69.5914 399.099 70.0484 399.642C70.5054 400.185 70.7339 400.962 70.7339 401.974V402.425H66.439C66.4546 403.05 66.6363 403.556 66.9839 403.943C67.3355 404.325 67.7808 404.517 68.3199 404.517C68.7027 404.517 69.0269 404.439 69.2925 404.282C69.5582 404.126 69.7906 403.919 69.9898 403.661L70.6519 404.177C70.1207 404.993 69.3238 405.401 68.2613 405.401ZM68.1265 399.718C67.689 399.718 67.3218 399.878 67.025 400.198C66.7281 400.515 66.5445 400.96 66.4742 401.534H69.65V401.452C69.6187 400.901 69.4703 400.476 69.2046 400.175C68.939 399.87 68.5796 399.718 68.1265 399.718ZM76.4051 403.603C76.4051 403.31 76.2938 403.083 76.0711 402.923C75.8524 402.759 75.4676 402.618 74.9168 402.501C74.37 402.384 73.9344 402.243 73.6102 402.079C73.2899 401.915 73.0516 401.72 72.8954 401.493C72.743 401.267 72.6668 400.997 72.6668 400.685C72.6668 400.165 72.8856 399.726 73.3231 399.366C73.7645 399.007 74.327 398.827 75.0106 398.827C75.7293 398.827 76.3114 399.013 76.7567 399.384C77.2059 399.755 77.4305 400.23 77.4305 400.808H76.3407C76.3407 400.511 76.2137 400.255 75.9598 400.04C75.7098 399.825 75.3934 399.718 75.0106 399.718C74.6161 399.718 74.3075 399.804 74.0848 399.976C73.8621 400.148 73.7508 400.372 73.7508 400.65C73.7508 400.911 73.8543 401.109 74.0614 401.241C74.2684 401.374 74.6414 401.501 75.1805 401.622C75.7235 401.743 76.1629 401.888 76.4989 402.056C76.8348 402.224 77.0829 402.427 77.243 402.665C77.4071 402.9 77.4891 403.187 77.4891 403.526C77.4891 404.093 77.2625 404.548 76.8094 404.892C76.3563 405.232 75.7684 405.401 75.0457 405.401C74.5379 405.401 74.0887 405.312 73.6981 405.132C73.3075 404.952 73.0008 404.702 72.7782 404.382C72.5594 404.058 72.45 403.708 72.45 403.333H73.534C73.5536 403.696 73.6981 403.985 73.9676 404.2C74.2411 404.411 74.6004 404.517 75.0457 404.517C75.4559 404.517 75.784 404.435 76.0301 404.271C76.2801 404.103 76.4051 403.88 76.4051 403.603ZM84.9767 402.185C84.9767 403.15 84.756 403.927 84.3146 404.517C83.8732 405.107 83.2755 405.401 82.5216 405.401C81.7521 405.401 81.1466 405.157 80.7052 404.669V407.722H79.6212V398.944H80.6114L80.6642 399.648C81.1056 399.101 81.7189 398.827 82.504 398.827C83.2657 398.827 83.8673 399.114 84.3087 399.689C84.754 400.263 84.9767 401.062 84.9767 402.085V402.185ZM83.8927 402.062C83.8927 401.347 83.7404 400.782 83.4357 400.368C83.131 399.954 82.713 399.747 82.1818 399.747C81.5255 399.747 81.0333 400.038 80.7052 400.62V403.65C81.0294 404.228 81.5255 404.517 82.1935 404.517C82.713 404.517 83.1251 404.312 83.4298 403.901C83.7384 403.487 83.8927 402.874 83.8927 402.062ZM86.7924 402.056C86.7924 401.435 86.9135 400.876 87.1557 400.38C87.4018 399.884 87.7416 399.501 88.1752 399.232C88.6127 398.962 89.1107 398.827 89.6693 398.827C90.5326 398.827 91.2299 399.126 91.7611 399.724C92.2963 400.321 92.5639 401.116 92.5639 402.109V402.185C92.5639 402.802 92.4447 403.357 92.2064 403.849C91.9721 404.337 91.6342 404.718 91.1928 404.991C90.7553 405.265 90.2514 405.401 89.6811 405.401C88.8217 405.401 88.1244 405.103 87.5893 404.505C87.058 403.907 86.7924 403.116 86.7924 402.132V402.056ZM87.8822 402.185C87.8822 402.888 88.0443 403.452 88.3686 403.878C88.6967 404.304 89.1342 404.517 89.6811 404.517C90.2318 404.517 90.6693 404.302 90.9936 403.872C91.3178 403.439 91.4799 402.833 91.4799 402.056C91.4799 401.36 91.3139 400.798 90.9818 400.368C90.6537 399.935 90.2162 399.718 89.6693 399.718C89.1342 399.718 88.7025 399.931 88.3744 400.357C88.0463 400.782 87.8822 401.392 87.8822 402.185ZM95.6686 398.944L95.7038 399.741C96.1882 399.132 96.821 398.827 97.6022 398.827C98.9421 398.827 99.6179 399.583 99.6296 401.095V405.284H98.5456V401.089C98.5417 400.632 98.4362 400.294 98.2292 400.075C98.0261 399.857 97.7077 399.747 97.2741 399.747C96.9225 399.747 96.6139 399.841 96.3483 400.028C96.0827 400.216 95.8757 400.462 95.7272 400.767V405.284H94.6432V398.944H95.6686ZM105.676 403.603C105.676 403.31 105.564 403.083 105.342 402.923C105.123 402.759 104.738 402.618 104.187 402.501C103.641 402.384 103.205 402.243 102.881 402.079C102.561 401.915 102.322 401.72 102.166 401.493C102.014 401.267 101.937 400.997 101.937 400.685C101.937 400.165 102.156 399.726 102.594 399.366C103.035 399.007 103.598 398.827 104.281 398.827C105 398.827 105.582 399.013 106.027 399.384C106.477 399.755 106.701 400.23 106.701 400.808H105.611C105.611 400.511 105.484 400.255 105.23 400.04C104.98 399.825 104.664 399.718 104.281 399.718C103.887 399.718 103.578 399.804 103.355 399.976C103.133 400.148 103.021 400.372 103.021 400.65C103.021 400.911 103.125 401.109 103.332 401.241C103.539 401.374 103.912 401.501 104.451 401.622C104.994 401.743 105.434 401.888 105.769 402.056C106.105 402.224 106.353 402.427 106.514 402.665C106.678 402.9 106.76 403.187 106.76 403.526C106.76 404.093 106.533 404.548 106.08 404.892C105.627 405.232 105.039 405.401 104.316 405.401C103.809 405.401 103.359 405.312 102.969 405.132C102.578 404.952 102.271 404.702 102.049 404.382C101.83 404.058 101.721 403.708 101.721 403.333H102.805C102.824 403.696 102.969 403.985 103.238 404.2C103.512 404.411 103.871 404.517 104.316 404.517C104.727 404.517 105.055 404.435 105.301 404.271C105.551 404.103 105.676 403.88 105.676 403.603ZM110.07 405.284H108.986V398.944H110.07V405.284ZM108.898 397.263C108.898 397.087 108.95 396.939 109.056 396.818C109.165 396.696 109.325 396.636 109.536 396.636C109.747 396.636 109.907 396.696 110.017 396.818C110.126 396.939 110.181 397.087 110.181 397.263C110.181 397.439 110.126 397.585 110.017 397.702C109.907 397.819 109.747 397.878 109.536 397.878C109.325 397.878 109.165 397.819 109.056 397.702C108.95 397.585 108.898 397.439 108.898 397.263ZM114.622 403.814L116.192 398.944H117.299L115.026 405.284H114.2L111.903 398.944H113.01L114.622 403.814ZM121.611 405.401C120.752 405.401 120.053 405.12 119.513 404.558C118.974 403.991 118.705 403.235 118.705 402.29V402.091C118.705 401.462 118.824 400.901 119.062 400.409C119.304 399.913 119.64 399.526 120.07 399.249C120.504 398.968 120.972 398.827 121.476 398.827C122.301 398.827 122.941 399.099 123.398 399.642C123.855 400.185 124.084 400.962 124.084 401.974V402.425H119.789C119.804 403.05 119.986 403.556 120.334 403.943C120.685 404.325 121.131 404.517 121.67 404.517C122.053 404.517 122.377 404.439 122.642 404.282C122.908 404.126 123.14 403.919 123.34 403.661L124.002 404.177C123.471 404.993 122.674 405.401 121.611 405.401ZM121.476 399.718C121.039 399.718 120.672 399.878 120.375 400.198C120.078 400.515 119.894 400.96 119.824 401.534H123V401.452C122.969 400.901 122.82 400.476 122.554 400.175C122.289 399.87 121.929 399.718 121.476 399.718ZM128.073 402.595L128.237 403.72L128.478 402.706L130.165 396.753H131.114L132.761 402.706L132.995 403.737L133.177 402.589L134.501 396.753H135.632L133.564 405.284H132.538L130.78 399.068L130.646 398.417L130.511 399.068L128.689 405.284H127.663L125.601 396.753H126.726L128.073 402.595ZM139.879 405.401C139.02 405.401 138.321 405.12 137.782 404.558C137.243 403.991 136.973 403.235 136.973 402.29V402.091C136.973 401.462 137.092 400.901 137.33 400.409C137.573 399.913 137.909 399.526 138.338 399.249C138.772 398.968 139.241 398.827 139.744 398.827C140.569 398.827 141.209 399.099 141.666 399.642C142.123 400.185 142.352 400.962 142.352 401.974V402.425H138.057C138.073 403.05 138.254 403.556 138.602 403.943C138.953 404.325 139.399 404.517 139.938 404.517C140.321 404.517 140.645 404.439 140.911 404.282C141.176 404.126 141.409 403.919 141.608 403.661L142.27 404.177C141.739 404.993 140.942 405.401 139.879 405.401ZM139.744 399.718C139.307 399.718 138.94 399.878 138.643 400.198C138.346 400.515 138.162 400.96 138.092 401.534H141.268V401.452C141.237 400.901 141.088 400.476 140.823 400.175C140.557 399.87 140.198 399.718 139.744 399.718ZM149.699 402.185C149.699 403.153 149.476 403.933 149.031 404.523C148.586 405.109 147.988 405.401 147.238 405.401C146.437 405.401 145.818 405.118 145.381 404.552L145.328 405.284H144.332V396.284H145.416V399.642C145.853 399.099 146.457 398.827 147.226 398.827C147.996 398.827 148.599 399.118 149.037 399.7C149.478 400.282 149.699 401.079 149.699 402.091V402.185ZM148.615 402.062C148.615 401.323 148.472 400.753 148.187 400.351C147.902 399.948 147.492 399.747 146.957 399.747C146.242 399.747 145.728 400.079 145.416 400.743V403.485C145.748 404.15 146.265 404.482 146.968 404.482C147.488 404.482 147.892 404.28 148.181 403.878C148.47 403.476 148.615 402.87 148.615 402.062ZM151.96 405.284V396.753H154.368C155.11 396.753 155.767 396.917 156.337 397.245C156.907 397.573 157.347 398.04 157.655 398.646C157.968 399.251 158.126 399.946 158.13 400.732V401.276C158.13 402.081 157.974 402.786 157.661 403.392C157.352 403.997 156.909 404.462 156.331 404.786C155.757 405.11 155.087 405.276 154.321 405.284H151.96ZM153.085 397.679V404.364H154.268C155.136 404.364 155.809 404.095 156.29 403.556C156.774 403.017 157.017 402.249 157.017 401.253V400.755C157.017 399.786 156.788 399.034 156.331 398.499C155.878 397.96 155.233 397.687 154.397 397.679H153.085ZM163.016 405.401C162.156 405.401 161.457 405.12 160.918 404.558C160.379 403.991 160.11 403.235 160.11 402.29V402.091C160.11 401.462 160.229 400.901 160.467 400.409C160.709 399.913 161.045 399.526 161.475 399.249C161.908 398.968 162.377 398.827 162.881 398.827C163.705 398.827 164.346 399.099 164.803 399.642C165.26 400.185 165.488 400.962 165.488 401.974V402.425H161.194C161.209 403.05 161.391 403.556 161.738 403.943C162.09 404.325 162.535 404.517 163.074 404.517C163.457 404.517 163.781 404.439 164.047 404.282C164.313 404.126 164.545 403.919 164.744 403.661L165.406 404.177C164.875 404.993 164.078 405.401 163.016 405.401ZM162.881 399.718C162.444 399.718 162.076 399.878 161.779 400.198C161.483 400.515 161.299 400.96 161.229 401.534H164.404V401.452C164.373 400.901 164.225 400.476 163.959 400.175C163.694 399.87 163.334 399.718 162.881 399.718ZM171.16 403.603C171.16 403.31 171.048 403.083 170.826 402.923C170.607 402.759 170.222 402.618 169.671 402.501C169.124 402.384 168.689 402.243 168.365 402.079C168.044 401.915 167.806 401.72 167.65 401.493C167.498 401.267 167.421 400.997 167.421 400.685C167.421 400.165 167.64 399.726 168.078 399.366C168.519 399.007 169.082 398.827 169.765 398.827C170.484 398.827 171.066 399.013 171.511 399.384C171.96 399.755 172.185 400.23 172.185 400.808H171.095C171.095 400.511 170.968 400.255 170.714 400.04C170.464 399.825 170.148 399.718 169.765 399.718C169.371 399.718 169.062 399.804 168.839 399.976C168.617 400.148 168.505 400.372 168.505 400.65C168.505 400.911 168.609 401.109 168.816 401.241C169.023 401.374 169.396 401.501 169.935 401.622C170.478 401.743 170.917 401.888 171.253 402.056C171.589 402.224 171.837 402.427 171.998 402.665C172.162 402.9 172.244 403.187 172.244 403.526C172.244 404.093 172.017 404.548 171.564 404.892C171.111 405.232 170.523 405.401 169.8 405.401C169.292 405.401 168.843 405.312 168.453 405.132C168.062 404.952 167.755 404.702 167.533 404.382C167.314 404.058 167.205 403.708 167.205 403.333H168.289C168.308 403.696 168.453 403.985 168.722 404.2C168.996 404.411 169.355 404.517 169.8 404.517C170.21 404.517 170.539 404.435 170.785 404.271C171.035 404.103 171.16 403.88 171.16 403.603ZM175.553 405.284H174.469V398.944H175.553V405.284ZM174.382 397.263C174.382 397.087 174.434 396.939 174.54 396.818C174.649 396.696 174.809 396.636 175.02 396.636C175.231 396.636 175.391 396.696 175.501 396.818C175.61 396.939 175.665 397.087 175.665 397.263C175.665 397.439 175.61 397.585 175.501 397.702C175.391 397.819 175.231 397.878 175.02 397.878C174.809 397.878 174.649 397.819 174.54 397.702C174.434 397.585 174.382 397.439 174.382 397.263ZM177.756 402.062C177.756 401.073 177.984 400.288 178.441 399.706C178.898 399.12 179.504 398.827 180.258 398.827C181.031 398.827 181.635 399.101 182.068 399.648L182.121 398.944H183.111V405.132C183.111 405.952 182.867 406.599 182.379 407.071C181.895 407.544 181.242 407.78 180.422 407.78C179.965 407.78 179.518 407.683 179.08 407.487C178.643 407.292 178.309 407.025 178.078 406.685L178.641 406.034C179.106 406.609 179.674 406.896 180.346 406.896C180.873 406.896 181.283 406.747 181.576 406.45C181.873 406.153 182.022 405.735 182.022 405.196V404.651C181.588 405.151 180.996 405.401 180.246 405.401C179.504 405.401 178.902 405.103 178.441 404.505C177.984 403.907 177.756 403.093 177.756 402.062ZM178.846 402.185C178.846 402.9 178.992 403.462 179.285 403.872C179.578 404.278 179.988 404.482 180.516 404.482C181.199 404.482 181.701 404.171 182.022 403.55V400.655C181.689 400.05 181.191 399.747 180.527 399.747C180 399.747 179.588 399.952 179.291 400.362C178.994 400.773 178.846 401.38 178.846 402.185ZM186.497 398.944L186.533 399.741C187.017 399.132 187.65 398.827 188.431 398.827C189.771 398.827 190.447 399.583 190.458 401.095V405.284H189.374V401.089C189.37 400.632 189.265 400.294 189.058 400.075C188.855 399.857 188.536 399.747 188.103 399.747C187.751 399.747 187.443 399.841 187.177 400.028C186.911 400.216 186.704 400.462 186.556 400.767V405.284H185.472V398.944H186.497Z" fill="#696969"/>
<path d="M217.009 402.882H215.462L214.993 405.284H214.155L214.624 402.882H213.224V402.079H214.776L215.181 400.005H213.669V399.191H215.339L215.819 396.753H216.657L216.177 399.191H217.724L218.204 396.753H219.048L218.567 399.191H219.763V400.005H218.409L218.005 402.079H219.323V402.882H217.853L217.384 405.284H216.54L217.009 402.882ZM215.614 402.079H217.161L217.565 400.005H216.019L215.614 402.079ZM226.828 402.185C226.828 403.153 226.606 403.933 226.16 404.523C225.715 405.109 225.117 405.401 224.367 405.401C223.567 405.401 222.948 405.118 222.51 404.552L222.457 405.284H221.461V396.284H222.545V399.642C222.983 399.099 223.586 398.827 224.356 398.827C225.125 398.827 225.729 399.118 226.166 399.7C226.608 400.282 226.828 401.079 226.828 402.091V402.185ZM225.744 402.062C225.744 401.323 225.602 400.753 225.317 400.351C225.032 399.948 224.621 399.747 224.086 399.747C223.371 399.747 222.858 400.079 222.545 400.743V403.485C222.877 404.15 223.395 404.482 224.098 404.482C224.617 404.482 225.022 404.28 225.311 403.878C225.6 403.476 225.744 402.87 225.744 402.062ZM231.984 399.917C231.82 399.89 231.642 399.876 231.451 399.876C230.74 399.876 230.257 400.179 230.003 400.784V405.284H228.919V398.944H229.974L229.992 399.677C230.347 399.11 230.851 398.827 231.503 398.827C231.714 398.827 231.875 398.855 231.984 398.909V399.917ZM237.386 405.284C237.323 405.159 237.272 404.937 237.233 404.616C236.729 405.14 236.128 405.401 235.429 405.401C234.804 405.401 234.29 405.226 233.888 404.874C233.489 404.519 233.29 404.069 233.29 403.526C233.29 402.866 233.54 402.355 234.04 401.991C234.544 401.624 235.251 401.441 236.161 401.441H237.216V400.943C237.216 400.564 237.102 400.263 236.876 400.04C236.649 399.814 236.315 399.7 235.874 399.7C235.487 399.7 235.163 399.798 234.901 399.993C234.639 400.189 234.509 400.425 234.509 400.702H233.419C233.419 400.386 233.53 400.081 233.753 399.788C233.979 399.491 234.284 399.257 234.667 399.085C235.054 398.913 235.477 398.827 235.938 398.827C236.669 398.827 237.241 399.011 237.655 399.378C238.069 399.741 238.284 400.243 238.3 400.884V403.802C238.3 404.384 238.374 404.847 238.522 405.191V405.284H237.386ZM235.587 404.458C235.927 404.458 236.249 404.37 236.554 404.194C236.858 404.019 237.079 403.79 237.216 403.509V402.208H236.366C235.038 402.208 234.374 402.597 234.374 403.374C234.374 403.714 234.487 403.98 234.714 404.171C234.94 404.362 235.231 404.458 235.587 404.458ZM241.744 398.944L241.779 399.741C242.264 399.132 242.897 398.827 243.678 398.827C245.018 398.827 245.693 399.583 245.705 401.095V405.284H244.621V401.089C244.617 400.632 244.512 400.294 244.305 400.075C244.102 399.857 243.783 399.747 243.35 399.747C242.998 399.747 242.69 399.841 242.424 400.028C242.158 400.216 241.951 400.462 241.803 400.767V405.284H240.719V398.944H241.744ZM247.796 402.062C247.796 401.089 248.027 400.308 248.488 399.718C248.949 399.124 249.552 398.827 250.298 398.827C251.04 398.827 251.628 399.081 252.062 399.589V396.284H253.146V405.284H252.15L252.097 404.605C251.663 405.136 251.06 405.401 250.287 405.401C249.552 405.401 248.953 405.101 248.488 404.499C248.027 403.898 247.796 403.112 247.796 402.144V402.062ZM248.88 402.185C248.88 402.903 249.029 403.466 249.326 403.872C249.622 404.278 250.033 404.482 250.556 404.482C251.244 404.482 251.746 404.173 252.062 403.556V400.644C251.738 400.046 251.24 399.747 250.568 399.747C250.037 399.747 249.622 399.952 249.326 400.362C249.029 400.773 248.88 401.38 248.88 402.185ZM256.731 405.284H255.647V398.944H256.731V405.284ZM255.559 397.263C255.559 397.087 255.612 396.939 255.717 396.818C255.827 396.696 255.987 396.636 256.198 396.636C256.409 396.636 256.569 396.696 256.678 396.818C256.788 396.939 256.842 397.087 256.842 397.263C256.842 397.439 256.788 397.585 256.678 397.702C256.569 397.819 256.409 397.878 256.198 397.878C255.987 397.878 255.827 397.819 255.717 397.702C255.612 397.585 255.559 397.439 255.559 397.263ZM260.217 398.944L260.252 399.741C260.736 399.132 261.369 398.827 262.15 398.827C263.49 398.827 264.166 399.583 264.178 401.095V405.284H263.094V401.089C263.09 400.632 262.984 400.294 262.777 400.075C262.574 399.857 262.256 399.747 261.822 399.747C261.471 399.747 261.162 399.841 260.896 400.028C260.631 400.216 260.424 400.462 260.275 400.767V405.284H259.191V398.944H260.217ZM266.275 402.062C266.275 401.073 266.503 400.288 266.96 399.706C267.417 399.12 268.023 398.827 268.777 398.827C269.55 398.827 270.154 399.101 270.587 399.648L270.64 398.944H271.63V405.132C271.63 405.952 271.386 406.599 270.898 407.071C270.413 407.544 269.761 407.78 268.941 407.78C268.484 407.78 268.036 407.683 267.599 407.487C267.161 407.292 266.827 407.025 266.597 406.685L267.159 406.034C267.624 406.609 268.193 406.896 268.864 406.896C269.392 406.896 269.802 406.747 270.095 406.45C270.392 406.153 270.54 405.735 270.54 405.196V404.651C270.107 405.151 269.515 405.401 268.765 405.401C268.023 405.401 267.421 405.103 266.96 404.505C266.503 403.907 266.275 403.093 266.275 402.062ZM267.364 402.185C267.364 402.9 267.511 403.462 267.804 403.872C268.097 404.278 268.507 404.482 269.034 404.482C269.718 404.482 270.22 404.171 270.54 403.55V400.655C270.208 400.05 269.71 399.747 269.046 399.747C268.519 399.747 268.107 399.952 267.81 400.362C267.513 400.773 267.364 401.38 267.364 402.185Z" fill="#696969"/>
<rect x="52.1826" y="294.086" width="246.168" height="59.5495" stroke="#767676"/>
<path d="M129.603 326.869L132.853 317.486H134.494L130.275 328.861H128.947L124.736 317.486H126.369L129.603 326.869ZM138.77 328.861H137.325V320.408H138.77V328.861ZM137.207 318.166C137.207 317.931 137.278 317.733 137.418 317.572C137.564 317.41 137.778 317.33 138.059 317.33C138.34 317.33 138.554 317.41 138.7 317.572C138.845 317.733 138.918 317.931 138.918 318.166C138.918 318.4 138.845 318.595 138.7 318.751C138.554 318.908 138.34 318.986 138.059 318.986C137.778 318.986 137.564 318.908 137.418 318.751C137.278 318.595 137.207 318.4 137.207 318.166ZM145.718 329.017C144.572 329.017 143.64 328.642 142.921 327.892C142.202 327.137 141.843 326.129 141.843 324.869V324.603C141.843 323.764 142.002 323.017 142.32 322.361C142.643 321.699 143.09 321.184 143.663 320.814C144.241 320.439 144.866 320.251 145.538 320.251C146.637 320.251 147.491 320.613 148.101 321.337C148.71 322.061 149.015 323.098 149.015 324.447V325.048H143.288C143.309 325.882 143.551 326.556 144.015 327.072C144.484 327.582 145.077 327.837 145.796 327.837C146.307 327.837 146.739 327.733 147.093 327.525C147.447 327.317 147.757 327.041 148.023 326.697L148.906 327.384C148.197 328.473 147.135 329.017 145.718 329.017ZM145.538 321.439C144.955 321.439 144.465 321.653 144.07 322.08C143.674 322.501 143.429 323.095 143.335 323.861H147.57V323.751C147.528 323.017 147.33 322.449 146.976 322.048C146.622 321.642 146.143 321.439 145.538 321.439ZM159.299 326.869L160.924 320.408H162.369L159.908 328.861H158.736L156.682 322.455L154.682 328.861H153.51L151.057 320.408H152.494L154.158 326.736L156.127 320.408H157.291L159.299 326.869ZM172.062 324.408V328.861H170.562V317.486H174.758C176.003 317.486 176.976 317.804 177.68 318.439C178.388 319.074 178.742 319.916 178.742 320.962C178.742 322.067 178.396 322.918 177.703 323.517C177.016 324.111 176.029 324.408 174.742 324.408H172.062ZM172.062 323.181H174.758C175.56 323.181 176.174 322.994 176.601 322.619C177.029 322.238 177.242 321.692 177.242 320.978C177.242 320.301 177.029 319.759 176.601 319.353C176.174 318.947 175.588 318.736 174.844 318.72H172.062V323.181ZM185.917 321.705C185.698 321.668 185.461 321.65 185.206 321.65C184.258 321.65 183.615 322.054 183.276 322.861V328.861H181.831V320.408H183.237L183.261 321.384C183.734 320.629 184.406 320.251 185.276 320.251C185.557 320.251 185.771 320.288 185.917 320.361V321.705ZM187.834 324.556C187.834 323.728 187.995 322.983 188.318 322.322C188.646 321.66 189.099 321.15 189.677 320.791C190.261 320.431 190.925 320.251 191.67 320.251C192.821 320.251 193.75 320.65 194.459 321.447C195.172 322.244 195.529 323.304 195.529 324.626V324.728C195.529 325.551 195.37 326.291 195.052 326.947C194.74 327.598 194.289 328.106 193.701 328.47C193.118 328.835 192.446 329.017 191.685 329.017C190.539 329.017 189.61 328.619 188.896 327.822C188.188 327.025 187.834 325.97 187.834 324.658V324.556ZM189.287 324.728C189.287 325.666 189.503 326.418 189.935 326.986C190.373 327.554 190.956 327.837 191.685 327.837C192.42 327.837 193.003 327.551 193.435 326.978C193.868 326.4 194.084 325.593 194.084 324.556C194.084 323.629 193.862 322.879 193.42 322.306C192.982 321.728 192.399 321.439 191.67 321.439C190.956 321.439 190.381 321.723 189.943 322.291C189.506 322.858 189.287 323.671 189.287 324.728ZM199.954 320.408V329.837C199.954 331.462 199.217 332.275 197.743 332.275C197.425 332.275 197.131 332.228 196.86 332.134V330.978C197.027 331.02 197.245 331.041 197.516 331.041C197.839 331.041 198.084 330.952 198.251 330.775C198.422 330.603 198.508 330.301 198.508 329.869V320.408H199.954ZM198.36 318.166C198.36 317.936 198.43 317.741 198.571 317.58C198.717 317.413 198.928 317.33 199.204 317.33C199.485 317.33 199.698 317.41 199.844 317.572C199.99 317.733 200.063 317.931 200.063 318.166C200.063 318.4 199.99 318.595 199.844 318.751C199.698 318.908 199.485 318.986 199.204 318.986C198.922 318.986 198.711 318.908 198.571 318.751C198.43 318.595 198.36 318.4 198.36 318.166ZM206.917 329.017C205.772 329.017 204.839 328.642 204.121 327.892C203.402 327.137 203.042 326.129 203.042 324.869V324.603C203.042 323.764 203.201 323.017 203.519 322.361C203.842 321.699 204.29 321.184 204.863 320.814C205.441 320.439 206.066 320.251 206.738 320.251C207.837 320.251 208.691 320.613 209.3 321.337C209.91 322.061 210.214 323.098 210.214 324.447V325.048H204.488C204.509 325.882 204.751 326.556 205.214 327.072C205.683 327.582 206.277 327.837 206.996 327.837C207.506 327.837 207.938 327.733 208.292 327.525C208.647 327.317 208.956 327.041 209.222 326.697L210.105 327.384C209.397 328.473 208.334 329.017 206.917 329.017ZM206.738 321.439C206.154 321.439 205.665 321.653 205.269 322.08C204.873 322.501 204.628 323.095 204.535 323.861H208.769V323.751C208.727 323.017 208.529 322.449 208.175 322.048C207.821 321.642 207.342 321.439 206.738 321.439ZM216.405 327.837C216.92 327.837 217.371 327.681 217.756 327.369C218.142 327.056 218.355 326.666 218.397 326.197H219.764C219.738 326.681 219.571 327.142 219.264 327.58C218.957 328.017 218.545 328.366 218.03 328.626C217.519 328.887 216.978 329.017 216.405 329.017C215.254 329.017 214.337 328.634 213.655 327.869C212.978 327.098 212.639 326.046 212.639 324.712V324.47C212.639 323.647 212.79 322.916 213.092 322.275C213.394 321.634 213.826 321.137 214.389 320.783C214.957 320.429 215.626 320.251 216.397 320.251C217.345 320.251 218.131 320.535 218.756 321.103C219.386 321.671 219.722 322.408 219.764 323.314H218.397C218.355 322.767 218.147 322.319 217.772 321.97C217.402 321.616 216.944 321.439 216.397 321.439C215.662 321.439 215.092 321.705 214.686 322.236C214.285 322.762 214.084 323.525 214.084 324.525V324.798C214.084 325.772 214.285 326.522 214.686 327.048C215.087 327.574 215.66 327.837 216.405 327.837ZM224.47 318.361V320.408H226.048V321.525H224.47V326.767C224.47 327.106 224.54 327.361 224.681 327.533C224.821 327.699 225.061 327.783 225.4 327.783C225.566 327.783 225.795 327.751 226.087 327.689V328.861C225.707 328.965 225.337 329.017 224.978 329.017C224.332 329.017 223.845 328.822 223.517 328.431C223.189 328.041 223.025 327.486 223.025 326.767V321.525H221.486V320.408H223.025V318.361H224.47Z" fill="#4F4F4F"/>
</svg>
