<svg width="484" height="425" viewBox="0 0 484 425" fill="none" xmlns="http://www.w3.org/2000/svg">
<rect x="0.657227" y="49.101" width="482.281" height="374.534" fill="white" stroke="black"/>
<path d="M55.0898 375.293H53.543L53.0742 377.695H52.2363L52.7051 375.293H51.3047V374.49H52.8574L53.2617 372.416H51.75V371.601H53.4199L53.9004 369.164H54.7383L54.2578 371.601H55.8047L56.2852 369.164H57.1289L56.6484 371.601H57.8438V372.416H56.4902L56.0859 374.49H57.4043V375.293H55.9336L55.4648 377.695H54.6211L55.0898 375.293ZM53.6953 374.49H55.2422L55.6465 372.416H54.0996L53.6953 374.49ZM60.72 377.695H59.636V371.355H60.72V377.695ZM59.5481 369.673C59.5481 369.498 59.6009 369.349 59.7063 369.228C59.8157 369.107 59.9759 369.047 60.1868 369.047C60.3977 369.047 60.5579 369.107 60.6673 369.228C60.7766 369.349 60.8313 369.498 60.8313 369.673C60.8313 369.849 60.7766 369.996 60.6673 370.113C60.5579 370.23 60.3977 370.289 60.1868 370.289C59.9759 370.289 59.8157 370.23 59.7063 370.113C59.6009 369.996 59.5481 369.849 59.5481 369.673ZM64.358 377.695H63.274V368.695H64.358V377.695ZM67.9959 377.695H66.912V368.695H67.9959V377.695ZM74.3702 377.068C73.9484 377.564 73.3292 377.812 72.5128 377.812C71.837 377.812 71.3214 377.617 70.9659 377.226C70.6144 376.832 70.4366 376.25 70.4327 375.48V371.355H71.5167V375.451C71.5167 376.412 71.9073 376.892 72.6886 376.892C73.5167 376.892 74.0675 376.584 74.3409 375.966V371.355H75.4249V377.695H74.3937L74.3702 377.068ZM81.4887 376.013C81.4887 375.72 81.3773 375.494 81.1547 375.334C80.9359 375.17 80.5512 375.029 80.0004 374.912C79.4535 374.795 79.018 374.654 78.6938 374.49C78.3734 374.326 78.1352 374.13 77.9789 373.904C77.8266 373.677 77.7504 373.408 77.7504 373.095C77.7504 372.576 77.9691 372.136 78.4066 371.777C78.848 371.418 79.4105 371.238 80.0941 371.238C80.8129 371.238 81.3949 371.423 81.8402 371.795C82.2895 372.166 82.5141 372.64 82.5141 373.218H81.4242C81.4242 372.922 81.2973 372.666 81.0434 372.451C80.7934 372.236 80.477 372.129 80.0941 372.129C79.6996 372.129 79.391 372.214 79.1684 372.386C78.9457 372.558 78.8344 372.783 78.8344 373.06C78.8344 373.322 78.9379 373.519 79.1449 373.652C79.352 373.785 79.725 373.912 80.2641 374.033C80.807 374.154 81.2465 374.298 81.5824 374.466C81.9184 374.634 82.1664 374.838 82.3266 375.076C82.4906 375.31 82.5727 375.597 82.5727 375.937C82.5727 376.504 82.3461 376.959 81.893 377.302C81.4398 377.642 80.852 377.812 80.1293 377.812C79.6215 377.812 79.1723 377.722 78.7816 377.543C78.391 377.363 78.0844 377.113 77.8617 376.793C77.643 376.468 77.5336 376.119 77.5336 375.744H78.6176C78.6371 376.107 78.7816 376.396 79.0512 376.611C79.3246 376.822 79.684 376.927 80.1293 376.927C80.5395 376.927 80.8676 376.845 81.1137 376.681C81.3637 376.513 81.4887 376.291 81.4887 376.013ZM86.1755 369.82V371.355H87.3591V372.193H86.1755V376.125C86.1755 376.379 86.2282 376.57 86.3337 376.699C86.4391 376.824 86.6188 376.886 86.8727 376.886C86.9977 376.886 87.1696 376.863 87.3884 376.816V377.695C87.1032 377.773 86.8259 377.812 86.5563 377.812C86.072 377.812 85.7067 377.666 85.4606 377.373C85.2145 377.08 85.0915 376.664 85.0915 376.125V372.193H83.9372V371.355H85.0915V369.82H86.1755ZM92.415 372.328C92.2509 372.3 92.0732 372.287 91.8818 372.287C91.1709 372.287 90.6884 372.589 90.4345 373.195V377.695H89.3505V371.355H90.4052L90.4228 372.088C90.7783 371.521 91.2822 371.238 91.9345 371.238C92.1455 371.238 92.3056 371.265 92.415 371.32V372.328ZM97.8166 377.695C97.7541 377.57 97.7034 377.347 97.6643 377.027C97.1604 377.55 96.5588 377.812 95.8596 377.812C95.2346 377.812 94.7209 377.636 94.3186 377.285C93.9202 376.929 93.7209 376.48 93.7209 375.937C93.7209 375.277 93.9709 374.765 94.4709 374.402C94.9748 374.035 95.6819 373.851 96.592 373.851H97.6467V373.353C97.6467 372.974 97.5334 372.673 97.3069 372.451C97.0803 372.224 96.7463 372.111 96.3049 372.111C95.9182 372.111 95.594 372.209 95.3323 372.404C95.0705 372.599 94.9397 372.836 94.9397 373.113H93.8498C93.8498 372.797 93.9612 372.492 94.1838 372.199C94.4104 371.902 94.7151 371.668 95.0979 371.496C95.4846 371.324 95.9084 371.238 96.3694 371.238C97.0998 371.238 97.6721 371.422 98.0862 371.789C98.5002 372.152 98.7151 372.654 98.7307 373.295V376.213C98.7307 376.795 98.8049 377.257 98.9534 377.601V377.695H97.8166ZM96.0178 376.869C96.3577 376.869 96.6799 376.781 96.9846 376.605C97.2893 376.429 97.51 376.201 97.6467 375.92V374.619H96.7971C95.469 374.619 94.8049 375.007 94.8049 375.785C94.8049 376.125 94.9182 376.39 95.1448 376.582C95.3713 376.773 95.6623 376.869 96.0178 376.869ZM102.621 369.82V371.355H103.804V372.193H102.621V376.125C102.621 376.379 102.673 376.57 102.779 376.699C102.884 376.824 103.064 376.886 103.318 376.886C103.443 376.886 103.615 376.863 103.834 376.816V377.695C103.548 377.773 103.271 377.812 103.001 377.812C102.517 377.812 102.152 377.666 101.906 377.373C101.66 377.08 101.537 376.664 101.537 376.125V372.193H100.382V371.355H101.537V369.82H102.621ZM106.973 377.695H105.889V371.355H106.973V377.695ZM105.802 369.673C105.802 369.498 105.854 369.349 105.96 369.228C106.069 369.107 106.229 369.047 106.44 369.047C106.651 369.047 106.811 369.107 106.921 369.228C107.03 369.349 107.085 369.498 107.085 369.673C107.085 369.849 107.03 369.996 106.921 370.113C106.811 370.23 106.651 370.289 106.44 370.289C106.229 370.289 106.069 370.23 105.96 370.113C105.854 369.996 105.802 369.849 105.802 369.673ZM109.147 374.466C109.147 373.845 109.268 373.287 109.51 372.791C109.756 372.295 110.096 371.912 110.529 371.642C110.967 371.373 111.465 371.238 112.024 371.238C112.887 371.238 113.584 371.537 114.115 372.134C114.65 372.732 114.918 373.527 114.918 374.519V374.595C114.918 375.213 114.799 375.767 114.561 376.259C114.326 376.748 113.988 377.129 113.547 377.402C113.109 377.675 112.606 377.812 112.035 377.812C111.176 377.812 110.479 377.513 109.943 376.916C109.412 376.318 109.147 375.527 109.147 374.543V374.466ZM110.236 374.595C110.236 375.298 110.399 375.863 110.723 376.289C111.051 376.714 111.488 376.927 112.035 376.927C112.586 376.927 113.024 376.713 113.348 376.283C113.672 375.849 113.834 375.244 113.834 374.466C113.834 373.771 113.668 373.209 113.336 372.779C113.008 372.345 112.57 372.129 112.024 372.129C111.488 372.129 111.057 372.341 110.729 372.767C110.4 373.193 110.236 373.802 110.236 374.595ZM118.023 371.355L118.058 372.152C118.542 371.543 119.175 371.238 119.956 371.238C121.296 371.238 121.972 371.994 121.984 373.505V377.695H120.9V373.5C120.896 373.043 120.79 372.705 120.583 372.486C120.38 372.267 120.062 372.158 119.628 372.158C119.277 372.158 118.968 372.252 118.702 372.439C118.437 372.627 118.23 372.873 118.081 373.177V377.695H116.997V371.355H118.023Z" fill="#696969"/>
<path d="M148.215 375.293H146.668L146.199 377.695H145.361L145.83 375.293H144.43V374.49H145.982L146.387 372.416H144.875V371.601H146.545L147.025 369.164H147.863L147.383 371.601H148.93L149.41 369.164H150.254L149.773 371.601H150.969V372.416H149.615L149.211 374.49H150.529V375.293H149.059L148.59 377.695H147.746L148.215 375.293ZM146.82 374.49H148.367L148.771 372.416H147.225L146.82 374.49ZM153.2 377.695V372.193H152.199V371.355H153.2V370.705C153.2 370.025 153.382 369.5 153.745 369.129C154.109 368.757 154.622 368.572 155.286 368.572C155.536 368.572 155.784 368.605 156.031 368.672L155.972 369.55C155.788 369.515 155.593 369.498 155.386 369.498C155.034 369.498 154.763 369.601 154.572 369.808C154.38 370.011 154.284 370.304 154.284 370.687V371.355H155.638V372.193H154.284V377.695H153.2ZM160.624 372.328C160.46 372.3 160.282 372.287 160.09 372.287C159.379 372.287 158.897 372.589 158.643 373.195V377.695H157.559V371.355H158.614L158.631 372.088C158.987 371.521 159.491 371.238 160.143 371.238C160.354 371.238 160.514 371.265 160.624 371.32V372.328ZM161.941 374.466C161.941 373.845 162.062 373.287 162.305 372.791C162.551 372.295 162.89 371.912 163.324 371.642C163.762 371.373 164.26 371.238 164.818 371.238C165.681 371.238 166.379 371.537 166.91 372.134C167.445 372.732 167.713 373.527 167.713 374.519V374.595C167.713 375.213 167.594 375.767 167.355 376.259C167.121 376.748 166.783 377.129 166.342 377.402C165.904 377.675 165.4 377.812 164.83 377.812C163.971 377.812 163.273 377.513 162.738 376.916C162.207 376.318 161.941 375.527 161.941 374.543V374.466ZM163.031 374.595C163.031 375.298 163.193 375.863 163.517 376.289C163.846 376.714 164.283 376.927 164.83 376.927C165.381 376.927 165.818 376.713 166.142 376.283C166.467 375.849 166.629 375.244 166.629 374.466C166.629 373.771 166.463 373.209 166.131 372.779C165.803 372.345 165.365 372.129 164.818 372.129C164.283 372.129 163.851 372.341 163.523 372.767C163.195 373.193 163.031 373.802 163.031 374.595ZM170.818 371.355L170.853 372.152C171.337 371.543 171.97 371.238 172.751 371.238C174.091 371.238 174.767 371.994 174.778 373.505V377.695H173.694V373.5C173.691 373.043 173.585 372.705 173.378 372.486C173.175 372.267 172.857 372.158 172.423 372.158C172.071 372.158 171.763 372.252 171.497 372.439C171.232 372.627 171.025 372.873 170.876 373.177V377.695H169.792V371.355H170.818ZM178.604 369.82V371.355H179.787V372.193H178.604V376.125C178.604 376.379 178.657 376.57 178.762 376.699C178.868 376.824 179.047 376.886 179.301 376.886C179.426 376.886 179.598 376.863 179.817 376.816V377.695C179.532 377.773 179.254 377.812 178.985 377.812C178.5 377.812 178.135 377.666 177.889 377.373C177.643 377.08 177.52 376.664 177.52 376.125V372.193H176.366V371.355H177.52V369.82H178.604ZM184.035 374.513H181.175V373.629H184.035V374.513ZM188.446 377.812C187.587 377.812 186.888 377.531 186.349 376.968C185.81 376.402 185.54 375.646 185.54 374.701V374.502C185.54 373.873 185.659 373.312 185.897 372.82C186.14 372.324 186.476 371.937 186.905 371.66C187.339 371.379 187.808 371.238 188.311 371.238C189.136 371.238 189.776 371.509 190.233 372.052C190.69 372.595 190.919 373.373 190.919 374.384V374.836H186.624C186.64 375.461 186.821 375.966 187.169 376.353C187.52 376.736 187.966 376.927 188.505 376.927C188.888 376.927 189.212 376.849 189.478 376.693C189.743 376.537 189.976 376.33 190.175 376.072L190.837 376.588C190.306 377.404 189.509 377.812 188.446 377.812ZM188.311 372.129C187.874 372.129 187.507 372.289 187.21 372.609C186.913 372.925 186.729 373.371 186.659 373.945H189.835V373.863C189.804 373.312 189.655 372.886 189.39 372.586C189.124 372.281 188.765 372.129 188.311 372.129ZM193.924 371.355L193.959 372.152C194.444 371.543 195.076 371.238 195.858 371.238C197.198 371.238 197.873 371.994 197.885 373.505V377.695H196.801V373.5C196.797 373.043 196.692 372.705 196.485 372.486C196.281 372.267 195.963 372.158 195.53 372.158C195.178 372.158 194.869 372.252 194.604 372.439C194.338 372.627 194.131 372.873 193.983 373.177V377.695H192.899V371.355H193.924ZM199.976 374.472C199.976 373.5 200.207 372.718 200.667 372.129C201.128 371.535 201.732 371.238 202.478 371.238C203.22 371.238 203.808 371.492 204.242 372V368.695H205.326V377.695H204.33L204.277 377.015C203.843 377.547 203.24 377.812 202.466 377.812C201.732 377.812 201.132 377.511 200.667 376.91C200.207 376.308 199.976 375.523 199.976 374.554V374.472ZM201.06 374.595C201.06 375.314 201.209 375.877 201.505 376.283C201.802 376.689 202.212 376.892 202.736 376.892C203.423 376.892 203.925 376.584 204.242 375.966V373.054C203.917 372.457 203.419 372.158 202.748 372.158C202.216 372.158 201.802 372.363 201.505 372.773C201.209 373.183 201.06 373.791 201.06 374.595ZM209.989 374.513H207.13V373.629H209.989V374.513ZM211.506 374.472C211.506 373.5 211.736 372.718 212.197 372.129C212.658 371.535 213.262 371.238 214.008 371.238C214.75 371.238 215.338 371.492 215.772 372V368.695H216.856V377.695H215.859L215.807 377.015C215.373 377.547 214.77 377.812 213.996 377.812C213.262 377.812 212.662 377.511 212.197 376.91C211.736 376.308 211.506 375.523 211.506 374.554V374.472ZM212.59 374.595C212.59 375.314 212.738 375.877 213.035 376.283C213.332 376.689 213.742 376.892 214.266 376.892C214.953 376.892 215.455 376.584 215.772 375.966V373.054C215.447 372.457 214.949 372.158 214.277 372.158C213.746 372.158 213.332 372.363 213.035 372.773C212.738 373.183 212.59 373.791 212.59 374.595ZM221.894 377.812C221.035 377.812 220.335 377.531 219.796 376.968C219.257 376.402 218.988 375.646 218.988 374.701V374.502C218.988 373.873 219.107 373.312 219.345 372.82C219.587 372.324 219.923 371.937 220.353 371.66C220.786 371.379 221.255 371.238 221.759 371.238C222.583 371.238 223.224 371.509 223.681 372.052C224.138 372.595 224.367 373.373 224.367 374.384V374.836H220.072C220.087 375.461 220.269 375.966 220.617 376.353C220.968 376.736 221.413 376.927 221.952 376.927C222.335 376.927 222.66 376.849 222.925 376.693C223.191 376.537 223.423 376.33 223.622 376.072L224.285 376.588C223.753 377.404 222.956 377.812 221.894 377.812ZM221.759 372.129C221.322 372.129 220.954 372.289 220.658 372.609C220.361 372.925 220.177 373.371 220.107 373.945H223.283V373.863C223.251 373.312 223.103 372.886 222.837 372.586C222.572 372.281 222.212 372.129 221.759 372.129ZM228.356 376.224L229.926 371.355H231.034L228.76 377.695H227.934L225.637 371.355H226.745L228.356 376.224ZM235.346 377.812C234.486 377.812 233.787 377.531 233.248 376.968C232.709 376.402 232.439 375.646 232.439 374.701V374.502C232.439 373.873 232.559 373.312 232.797 372.82C233.039 372.324 233.375 371.937 233.805 371.66C234.238 371.379 234.707 371.238 235.211 371.238C236.035 371.238 236.676 371.509 237.133 372.052C237.59 372.595 237.818 373.373 237.818 374.384V374.836H233.523C233.539 375.461 233.721 375.966 234.068 376.353C234.42 376.736 234.865 376.927 235.404 376.927C235.787 376.927 236.111 376.849 236.377 376.693C236.643 376.537 236.875 376.33 237.074 376.072L237.736 376.588C237.205 377.404 236.408 377.812 235.346 377.812ZM235.211 372.129C234.773 372.129 234.406 372.289 234.109 372.609C233.812 372.925 233.629 373.371 233.559 373.945H236.734V373.863C236.703 373.312 236.555 372.886 236.289 372.586C236.023 372.281 235.664 372.129 235.211 372.129ZM240.976 377.695H239.892V368.695H240.976V377.695ZM243.149 374.466C243.149 373.845 243.27 373.287 243.512 372.791C243.758 372.295 244.098 371.912 244.532 371.642C244.969 371.373 245.467 371.238 246.026 371.238C246.889 371.238 247.586 371.537 248.118 372.134C248.653 372.732 248.92 373.527 248.92 374.519V374.595C248.92 375.213 248.801 375.767 248.563 376.259C248.329 376.748 247.991 377.129 247.549 377.402C247.112 377.675 246.608 377.812 246.038 377.812C245.178 377.812 244.481 377.513 243.946 376.916C243.415 376.318 243.149 375.527 243.149 374.543V374.466ZM244.239 374.595C244.239 375.298 244.401 375.863 244.725 376.289C245.053 376.714 245.491 376.927 246.038 376.927C246.588 376.927 247.026 376.713 247.35 376.283C247.674 375.849 247.836 375.244 247.836 374.466C247.836 373.771 247.67 373.209 247.338 372.779C247.01 372.345 246.573 372.129 246.026 372.129C245.491 372.129 245.059 372.341 244.731 372.767C244.403 373.193 244.239 373.802 244.239 374.595ZM256.355 374.595C256.355 375.56 256.135 376.338 255.693 376.927C255.252 377.517 254.654 377.812 253.9 377.812C253.131 377.812 252.525 377.568 252.084 377.08V380.132H251V371.355H251.99L252.043 372.058C252.484 371.511 253.097 371.238 253.883 371.238C254.644 371.238 255.246 371.525 255.687 372.099C256.133 372.673 256.355 373.472 256.355 374.496V374.595ZM255.271 374.472C255.271 373.757 255.119 373.193 254.814 372.779C254.51 372.365 254.092 372.158 253.56 372.158C252.904 372.158 252.412 372.449 252.084 373.031V376.06C252.408 376.638 252.904 376.927 253.572 376.927C254.092 376.927 254.504 376.722 254.808 376.312C255.117 375.898 255.271 375.285 255.271 374.472ZM259.478 371.355L259.507 372.058C259.972 371.511 260.599 371.238 261.388 371.238C262.274 371.238 262.878 371.578 263.198 372.257C263.409 371.953 263.683 371.707 264.019 371.519C264.358 371.332 264.759 371.238 265.22 371.238C266.61 371.238 267.317 371.974 267.341 373.447V377.695H266.257V373.511C266.257 373.058 266.153 372.72 265.946 372.498C265.739 372.271 265.392 372.158 264.903 372.158C264.501 372.158 264.167 372.279 263.901 372.521C263.636 372.759 263.481 373.082 263.439 373.488V377.695H262.349V373.541C262.349 372.619 261.897 372.158 260.995 372.158C260.284 372.158 259.798 372.461 259.536 373.066V377.695H258.452V371.355H259.478ZM272.332 377.812C271.473 377.812 270.774 377.531 270.235 376.968C269.696 376.402 269.426 375.646 269.426 374.701V374.502C269.426 373.873 269.545 373.312 269.784 372.82C270.026 372.324 270.362 371.937 270.791 371.66C271.225 371.379 271.694 371.238 272.198 371.238C273.022 371.238 273.662 371.509 274.119 372.052C274.576 372.595 274.805 373.373 274.805 374.384V374.836H270.51C270.526 375.461 270.707 375.966 271.055 376.353C271.407 376.736 271.852 376.927 272.391 376.927C272.774 376.927 273.098 376.849 273.364 376.693C273.629 376.537 273.862 376.33 274.061 376.072L274.723 376.588C274.192 377.404 273.395 377.812 272.332 377.812ZM272.198 372.129C271.76 372.129 271.393 372.289 271.096 372.609C270.799 372.925 270.616 373.371 270.545 373.945H273.721V373.863C273.69 373.312 273.541 372.886 273.276 372.586C273.01 372.281 272.651 372.129 272.198 372.129ZM277.81 371.355L277.845 372.152C278.33 371.543 278.962 371.238 279.744 371.238C281.084 371.238 281.759 371.994 281.771 373.505V377.695H280.687V373.5C280.683 373.043 280.578 372.705 280.371 372.486C280.168 372.267 279.849 372.158 279.416 372.158C279.064 372.158 278.755 372.252 278.49 372.439C278.224 372.627 278.017 372.873 277.869 373.177V377.695H276.785V371.355H277.81ZM285.597 369.82V371.355H286.78V372.193H285.597V376.125C285.597 376.379 285.649 376.57 285.755 376.699C285.86 376.824 286.04 376.886 286.294 376.886C286.419 376.886 286.591 376.863 286.809 376.816V377.695C286.524 377.773 286.247 377.812 285.977 377.812C285.493 377.812 285.128 377.666 284.882 377.373C284.636 377.08 284.513 376.664 284.513 376.125V372.193H283.358V371.355H284.513V369.82H285.597Z" fill="#696969"/>
<path d="M56.123 42.3608C57.6855 42.3608 58.9551 41.9312 59.9316 41.0718C60.9082 40.2124 61.416 39.0698 61.4551 37.644H69.3945C69.375 39.7925 68.7891 41.7651 67.6367 43.562C66.4844 45.3394 64.9023 46.7261 62.8906 47.7222C60.8984 48.6987 58.6914 49.187 56.2695 49.187C51.7383 49.187 48.1641 47.7515 45.5469 44.8804C42.9297 41.9897 41.6211 38.0054 41.6211 32.9272V32.3706C41.6211 27.4878 42.9199 23.5913 45.5176 20.6812C48.1152 17.771 51.6797 16.3159 56.2109 16.3159C60.1758 16.3159 63.3496 17.4487 65.7324 19.7144C68.1348 21.9604 69.3555 24.9585 69.3945 28.7085H61.4551C61.416 27.0679 60.9082 25.7397 59.9316 24.7241C58.9551 23.689 57.666 23.1714 56.0645 23.1714C54.0918 23.1714 52.5977 23.894 51.582 25.3394C50.5859 26.7651 50.0879 29.0894 50.0879 32.312V33.1909C50.0879 36.4526 50.5859 38.7964 51.582 40.2222C52.5781 41.6479 54.0918 42.3608 56.123 42.3608ZM85.8641 48.6011H77.368V16.9019H85.8641V48.6011ZM76.8699 8.69873C76.8699 7.4292 77.2898 6.38428 78.1297 5.56396C78.9891 4.74365 80.1512 4.3335 81.616 4.3335C83.0613 4.3335 84.2137 4.74365 85.073 5.56396C85.9324 6.38428 86.3621 7.4292 86.3621 8.69873C86.3621 9.98779 85.9227 11.0425 85.0438 11.8628C84.1844 12.6831 83.0418 13.0933 81.616 13.0933C80.1902 13.0933 79.0379 12.6831 78.159 11.8628C77.2996 11.0425 76.8699 9.98779 76.8699 8.69873ZM103.359 16.9019L103.623 20.564C105.888 17.7319 108.925 16.3159 112.734 16.3159C116.093 16.3159 118.593 17.3022 120.234 19.2749C121.875 21.2476 122.714 24.1968 122.754 28.1226V48.6011H114.287V28.3276C114.287 26.5308 113.896 25.2319 113.115 24.4312C112.334 23.6108 111.035 23.2007 109.218 23.2007C106.836 23.2007 105.048 24.2163 103.857 26.2476V48.6011H95.3902V16.9019H103.359ZM139.692 16.9019L139.955 20.564C142.221 17.7319 145.258 16.3159 149.067 16.3159C152.426 16.3159 154.926 17.3022 156.567 19.2749C158.207 21.2476 159.047 24.1968 159.086 28.1226V48.6011H150.62V28.3276C150.62 26.5308 150.229 25.2319 149.448 24.4312C148.666 23.6108 147.368 23.2007 145.551 23.2007C143.168 23.2007 141.381 24.2163 140.19 26.2476V48.6011H131.723V16.9019H139.692ZM186.601 48.6011C186.21 47.8394 185.927 46.8921 185.751 45.7593C183.7 48.0444 181.034 49.187 177.753 49.187C174.648 49.187 172.07 48.2886 170.019 46.4917C167.988 44.6948 166.972 42.4292 166.972 39.6948C166.972 36.3354 168.212 33.7573 170.693 31.9604C173.193 30.1636 176.796 29.2554 181.503 29.2358H185.4V27.4194C185.4 25.9546 185.019 24.7827 184.257 23.9038C183.515 23.0249 182.333 22.5854 180.712 22.5854C179.286 22.5854 178.163 22.9272 177.343 23.6108C176.542 24.2944 176.142 25.2319 176.142 26.4233H167.675C167.675 24.5874 168.241 22.8882 169.374 21.3257C170.507 19.7632 172.109 18.5425 174.179 17.6636C176.249 16.7651 178.573 16.3159 181.152 16.3159C185.058 16.3159 188.154 17.3022 190.439 19.2749C192.743 21.228 193.896 23.9819 193.896 27.5366V41.2769C193.915 44.2847 194.335 46.5601 195.155 48.103V48.6011H186.601ZM179.599 42.7124C180.849 42.7124 182.001 42.439 183.056 41.8921C184.111 41.3257 184.892 40.5737 185.4 39.6362V34.187H182.236C177.997 34.187 175.741 35.6519 175.468 38.5815L175.439 39.0796C175.439 40.1343 175.81 41.0034 176.552 41.687C177.294 42.3706 178.31 42.7124 179.599 42.7124ZM231.664 33.0444C231.664 38.1226 230.58 42.0874 228.412 44.939C226.244 47.771 223.217 49.187 219.33 49.187C215.893 49.187 213.148 47.8687 211.098 45.2319L210.717 48.6011H203.1V3.60107H211.566V19.7437C213.52 17.4585 216.088 16.3159 219.271 16.3159C223.139 16.3159 226.166 17.7417 228.354 20.5933C230.561 23.4253 231.664 27.4194 231.664 32.5757V33.0444ZM223.197 32.4292C223.197 29.2261 222.689 26.8921 221.674 25.4272C220.658 23.9429 219.145 23.2007 217.133 23.2007C214.438 23.2007 212.582 24.3042 211.566 26.5112V39.021C212.602 41.2476 214.477 42.3608 217.191 42.3608C219.926 42.3608 221.723 41.0132 222.582 38.3179C222.992 37.0288 223.197 35.0659 223.197 32.4292ZM238.29 32.4585C238.29 29.314 238.895 26.5112 240.106 24.0503C241.317 21.5894 243.055 19.6851 245.321 18.3374C247.606 16.9897 250.253 16.3159 253.261 16.3159C257.538 16.3159 261.024 17.6245 263.72 20.2417C266.434 22.8589 267.948 26.4136 268.261 30.9058L268.319 33.0737C268.319 37.937 266.962 41.8433 264.247 44.7925C261.532 47.7222 257.889 49.187 253.319 49.187C248.749 49.187 245.096 47.7222 242.362 44.7925C239.647 41.8628 238.29 37.8784 238.29 32.8394V32.4585ZM246.757 33.0737C246.757 36.0815 247.323 38.3862 248.456 39.9878C249.589 41.5698 251.21 42.3608 253.319 42.3608C255.37 42.3608 256.971 41.5796 258.124 40.0171C259.276 38.4351 259.852 35.9155 259.852 32.4585C259.852 29.5093 259.276 27.2241 258.124 25.603C256.971 23.9819 255.35 23.1714 253.261 23.1714C251.19 23.1714 249.589 23.9819 248.456 25.603C247.323 27.2046 246.757 29.6948 246.757 33.0737ZM284.027 16.9019L284.291 20.564C286.556 17.7319 289.593 16.3159 293.402 16.3159C296.761 16.3159 299.261 17.3022 300.902 19.2749C302.543 21.2476 303.382 24.1968 303.421 28.1226V48.6011H294.955V28.3276C294.955 26.5308 294.564 25.2319 293.783 24.4312C293.002 23.6108 291.703 23.2007 289.886 23.2007C287.504 23.2007 285.716 24.2163 284.525 26.2476V48.6011H276.058V16.9019H284.027Z" fill="black"/>
<path d="M59.0713 104.213H54.1143L53.0771 107.192H50.7656L55.5996 94.3954H57.5947L62.4375 107.192H60.1172L59.0713 104.213ZM54.7383 102.42H58.4473L56.5928 97.1112L54.7383 102.42ZM70.4257 106.261C69.7987 106.999 68.9081 107.368 67.7538 107.368C66.7226 107.368 65.9404 107.066 65.4071 106.463C64.8798 105.859 64.6161 104.986 64.6161 103.844V97.6825H66.7519V103.817C66.7519 105.024 67.2529 105.628 68.2548 105.628C69.2919 105.628 69.9921 105.256 70.3554 104.512V97.6825H72.4911V107.192H70.4784L70.4257 106.261ZM75.3729 102.367C75.3729 100.891 75.7186 99.7128 76.41 98.8339C77.1073 97.9491 78.0301 97.5067 79.1786 97.5067C80.2625 97.5067 81.1151 97.8846 81.7362 98.6405L81.8329 97.6825H83.7577V106.902C83.7577 108.15 83.368 109.135 82.5887 109.855C81.8153 110.576 80.7694 110.936 79.451 110.936C78.7537 110.936 78.0711 110.79 77.4032 110.497C76.7411 110.21 76.2371 109.832 75.8914 109.363L76.9022 108.08C77.5584 108.859 78.367 109.249 79.328 109.249C80.037 109.249 80.5965 109.056 81.0067 108.669C81.4168 108.288 81.6219 107.725 81.6219 106.981V106.34C81.0067 107.025 80.1864 107.368 79.161 107.368C78.0477 107.368 77.1366 106.926 76.4276 106.041C75.7245 105.156 75.3729 103.932 75.3729 102.367ZM77.4998 102.552C77.4998 103.507 77.6932 104.26 78.0799 104.81C78.4725 105.355 79.0145 105.628 79.7059 105.628C80.5672 105.628 81.2059 105.259 81.6219 104.52V100.337C81.2176 99.6161 80.5848 99.2557 79.7235 99.2557C79.0204 99.2557 78.4725 99.5341 78.0799 100.091C77.6932 100.647 77.4998 101.468 77.4998 102.552ZM96.7458 102.613H92.1315V100.891H96.7458V102.613ZM115.57 101.128C115.57 102.382 115.353 103.483 114.919 104.432C114.486 105.376 113.865 106.102 113.056 106.612C112.253 107.116 111.328 107.368 110.279 107.368C109.242 107.368 108.316 107.116 107.501 106.612C106.693 106.102 106.066 105.379 105.621 104.441C105.181 103.504 104.959 102.423 104.953 101.198V100.477C104.953 99.2294 105.172 98.1278 105.612 97.1727C106.057 96.2177 106.681 95.4882 107.484 94.9843C108.292 94.4745 109.218 94.2196 110.261 94.2196C111.304 94.2196 112.227 94.4716 113.03 94.9755C113.838 95.4735 114.462 96.1942 114.902 97.1376C115.341 98.0751 115.564 99.1678 115.57 100.416V101.128ZM113.346 100.46C113.346 99.0419 113.077 97.955 112.538 97.1991C112.004 96.4432 111.246 96.0653 110.261 96.0653C109.3 96.0653 108.547 96.4432 108.002 97.1991C107.463 97.9491 107.188 99.0126 107.176 100.39V101.128C107.176 102.534 107.449 103.621 107.994 104.389C108.544 105.156 109.306 105.54 110.279 105.54C111.263 105.54 112.019 105.165 112.546 104.415C113.08 103.665 113.346 102.569 113.346 101.128V100.46ZM122.565 105.663C123.098 105.663 123.54 105.508 123.892 105.197C124.244 104.887 124.431 104.503 124.455 104.046H126.467C126.444 104.638 126.259 105.191 125.914 105.707C125.568 106.217 125.099 106.621 124.507 106.92C123.915 107.219 123.277 107.368 122.591 107.368C121.261 107.368 120.206 106.937 119.427 106.076C118.648 105.215 118.258 104.025 118.258 102.508V102.288C118.258 100.841 118.645 99.6835 119.418 98.8163C120.192 97.9432 121.247 97.5067 122.582 97.5067C123.713 97.5067 124.633 97.8378 125.342 98.4999C126.057 99.1561 126.432 100.02 126.467 101.093H124.455C124.431 100.548 124.244 100.099 123.892 99.7479C123.546 99.3964 123.104 99.2206 122.565 99.2206C121.873 99.2206 121.34 99.4725 120.965 99.9764C120.59 100.474 120.4 101.233 120.394 102.253V102.596C120.394 103.627 120.579 104.397 120.948 104.907C121.323 105.411 121.862 105.663 122.565 105.663ZM131.836 95.371V97.6825H133.515V99.2645H131.836V104.573C131.836 104.936 131.907 105.2 132.047 105.364C132.194 105.522 132.452 105.601 132.821 105.601C133.067 105.601 133.316 105.572 133.568 105.514V107.166C133.081 107.301 132.613 107.368 132.161 107.368C130.521 107.368 129.701 106.463 129.701 104.652V99.2645H128.136V97.6825H129.701V95.371H131.836ZM150.265 107.192H141.66V105.724L145.923 101.075C146.538 100.39 146.975 99.8182 147.233 99.3612C147.496 98.8983 147.628 98.4354 147.628 97.9725C147.628 97.3632 147.455 96.871 147.11 96.496C146.77 96.121 146.31 95.9335 145.73 95.9335C145.038 95.9335 144.502 96.1444 144.121 96.5663C143.74 96.9882 143.55 97.5653 143.55 98.2977H141.414C141.414 97.5184 141.59 96.8182 141.942 96.1971C142.299 95.5702 142.806 95.0839 143.462 94.7382C144.124 94.3925 144.886 94.2196 145.747 94.2196C146.989 94.2196 147.968 94.5331 148.683 95.16C149.404 95.7811 149.764 96.6425 149.764 97.744C149.764 98.3827 149.582 99.0536 149.219 99.7567C148.862 100.454 148.273 101.248 147.452 102.139L144.323 105.487H150.265V107.192ZM161.312 101.805C161.312 103.644 160.966 105.033 160.275 105.971C159.589 106.902 158.543 107.368 157.137 107.368C155.754 107.368 154.711 106.914 154.008 106.006C153.311 105.092 152.953 103.741 152.936 101.954V99.7391C152.936 97.8993 153.278 96.5194 153.964 95.5995C154.655 94.6796 155.707 94.2196 157.119 94.2196C158.52 94.2196 159.563 94.6678 160.248 95.5643C160.94 96.4608 161.294 97.8026 161.312 99.5897V101.805ZM159.176 99.4139C159.176 98.2128 159.012 97.3339 158.684 96.7772C158.356 96.2147 157.834 95.9335 157.119 95.9335C156.422 95.9335 155.909 96.2001 155.581 96.7333C155.253 97.2606 155.08 98.0868 155.063 99.2118V102.112C155.063 103.307 155.23 104.198 155.564 104.784C155.898 105.37 156.422 105.663 157.137 105.663C157.822 105.663 158.329 105.393 158.657 104.854C158.985 104.309 159.158 103.46 159.176 102.306V99.4139ZM170.064 107.192H167.938V96.9178L164.8 97.9901V96.1884L169.792 94.3514H170.064V107.192ZM181.647 101.84C180.933 102.596 180.098 102.974 179.143 102.974C178.018 102.974 177.121 102.581 176.453 101.796C175.785 101.005 175.451 99.9677 175.451 98.6844C175.451 97.8407 175.621 97.076 175.961 96.3905C176.301 95.705 176.784 95.1718 177.411 94.7909C178.038 94.41 178.765 94.2196 179.591 94.2196C180.88 94.2196 181.902 94.7001 182.658 95.661C183.414 96.6219 183.792 97.9081 183.792 99.5194V100.117C183.792 102.426 183.27 104.186 182.228 105.399C181.185 106.612 179.629 107.227 177.561 107.245H177.306V105.478H177.613C178.873 105.461 179.84 105.159 180.514 104.573C181.187 103.981 181.565 103.07 181.647 101.84ZM179.591 101.304C180.019 101.304 180.42 101.181 180.795 100.934C181.17 100.688 181.46 100.349 181.665 99.9149V99.08C181.665 98.1366 181.472 97.3778 181.085 96.8036C180.698 96.2294 180.197 95.9423 179.582 95.9423C178.967 95.9423 178.475 96.1971 178.105 96.7069C177.742 97.2108 177.561 97.8495 177.561 98.6229C177.561 99.4257 177.745 100.073 178.114 100.565C178.483 101.057 178.976 101.304 179.591 101.304Z" fill="black"/>
<path d="M51.0928 178.526V165.729H54.7051C55.8184 165.729 56.8027 165.975 57.6582 166.467C58.5137 166.96 59.1729 167.66 59.6357 168.568C60.1045 169.476 60.3418 170.519 60.3477 171.697V172.514C60.3477 173.721 60.1133 174.779 59.6445 175.687C59.1816 176.595 58.5166 177.293 57.6494 177.779C56.7881 178.265 55.7832 178.514 54.6348 178.526H51.0928ZM52.7803 167.118V177.146H54.5557C55.8564 177.146 56.8672 176.742 57.5879 175.933C58.3145 175.125 58.6777 173.973 58.6777 172.479V171.732C58.6777 170.279 58.335 169.151 57.6494 168.348C56.9697 167.54 56.0029 167.13 54.749 167.118H52.7803ZM67.6767 178.702C66.3876 178.702 65.3388 178.28 64.5302 177.436C63.7216 176.587 63.3173 175.453 63.3173 174.035V173.736C63.3173 172.793 63.496 171.952 63.8534 171.214C64.2167 170.469 64.7206 169.889 65.3652 169.473C66.0155 169.051 66.7187 168.84 67.4745 168.84C68.7109 168.84 69.6718 169.248 70.3573 170.062C71.0429 170.877 71.3857 172.043 71.3857 173.56V174.237H64.9433C64.9667 175.174 65.2392 175.933 65.7607 176.513C66.288 177.088 66.956 177.375 67.7646 177.375C68.3388 177.375 68.8251 177.257 69.2236 177.023C69.622 176.789 69.9706 176.478 70.2695 176.091L71.2626 176.865C70.4657 178.089 69.2704 178.702 67.6767 178.702ZM67.4745 170.176C66.8183 170.176 66.2675 170.417 65.8222 170.897C65.3769 171.372 65.1015 172.04 64.996 172.901H69.7597V172.778C69.7128 171.952 69.4902 171.313 69.0917 170.862C68.6933 170.405 68.1542 170.176 67.4745 170.176ZM79.8924 176.004C79.8924 175.564 79.7254 175.224 79.3914 174.984C79.0633 174.738 78.4862 174.527 77.66 174.351C76.8397 174.175 76.1864 173.964 75.7 173.718C75.2196 173.472 74.8621 173.179 74.6278 172.839C74.3993 172.5 74.285 172.095 74.285 171.627C74.285 170.847 74.6131 170.188 75.2694 169.649C75.9315 169.11 76.7752 168.84 77.8006 168.84C78.8787 168.84 79.7518 169.119 80.4198 169.675C81.0936 170.232 81.4305 170.944 81.4305 171.811H79.7957C79.7957 171.366 79.6053 170.982 79.2245 170.66C78.8495 170.338 78.3748 170.176 77.8006 170.176C77.2088 170.176 76.7459 170.305 76.412 170.563C76.078 170.821 75.911 171.158 75.911 171.574C75.911 171.966 76.0662 172.262 76.3768 172.462C76.6873 172.661 77.2469 172.851 78.0555 173.033C78.87 173.214 79.5291 173.431 80.033 173.683C80.537 173.935 80.909 174.24 81.1493 174.597C81.3954 174.949 81.5184 175.38 81.5184 175.889C81.5184 176.739 81.1786 177.422 80.4989 177.937C79.8192 178.447 78.9373 178.702 77.8534 178.702C77.0916 178.702 76.4178 178.567 75.8319 178.297C75.2459 178.028 74.786 177.653 74.452 177.172C74.1239 176.686 73.9598 176.162 73.9598 175.599H75.5858C75.6151 176.144 75.8319 176.578 76.2362 176.9C76.6463 177.216 77.1854 177.375 77.8534 177.375C78.4686 177.375 78.9608 177.252 79.3299 177.005C79.7049 176.754 79.8924 176.42 79.8924 176.004ZM86.4832 178.526H84.8572V169.016H86.4832V178.526ZM84.7254 166.494C84.7254 166.23 84.8045 166.007 84.9627 165.826C85.1267 165.644 85.367 165.553 85.6834 165.553C85.9998 165.553 86.24 165.644 86.4041 165.826C86.5681 166.007 86.6502 166.23 86.6502 166.494C86.6502 166.757 86.5681 166.977 86.4041 167.153C86.24 167.329 85.9998 167.417 85.6834 167.417C85.367 167.417 85.1267 167.329 84.9627 167.153C84.8045 166.977 84.7254 166.757 84.7254 166.494ZM89.7868 173.692C89.7868 172.21 90.1296 171.032 90.8151 170.159C91.5007 169.28 92.4089 168.84 93.5397 168.84C94.6999 168.84 95.6052 169.251 96.2555 170.071L96.3346 169.016H97.82V178.297C97.82 179.528 97.4538 180.498 96.7214 181.207C95.9948 181.916 95.0163 182.27 93.7858 182.27C93.1003 182.27 92.4294 182.124 91.7731 181.831C91.1169 181.538 90.6159 181.136 90.2702 180.627L91.1139 179.651C91.8112 180.512 92.6637 180.943 93.6716 180.943C94.4626 180.943 95.0778 180.72 95.5173 180.275C95.9626 179.83 96.1852 179.203 96.1852 178.394V177.577C95.5348 178.327 94.6471 178.702 93.5221 178.702C92.4089 178.702 91.5065 178.254 90.8151 177.357C90.1296 176.461 89.7868 175.239 89.7868 173.692ZM91.4216 173.877C91.4216 174.949 91.6413 175.793 92.0807 176.408C92.5202 177.017 93.1354 177.322 93.9264 177.322C94.9518 177.322 95.7048 176.856 96.1852 175.924V171.583C95.6872 170.674 94.9401 170.22 93.944 170.22C93.153 170.22 92.5348 170.528 92.0895 171.143C91.6442 171.758 91.4216 172.67 91.4216 173.877ZM102.899 169.016L102.952 170.212C103.678 169.297 104.628 168.84 105.799 168.84C107.809 168.84 108.823 169.974 108.84 172.242V178.526H107.214V172.233C107.209 171.547 107.05 171.041 106.74 170.713C106.435 170.384 105.958 170.22 105.307 170.22C104.78 170.22 104.317 170.361 103.919 170.642C103.52 170.923 103.21 171.293 102.987 171.75V178.526H101.361V169.016H102.899ZM123.789 178.526C123.695 178.339 123.619 178.005 123.56 177.524C122.804 178.309 121.902 178.702 120.853 178.702C119.915 178.702 119.145 178.438 118.541 177.911C117.944 177.378 117.645 176.704 117.645 175.889C117.645 174.899 118.02 174.131 118.77 173.587C119.526 173.036 120.586 172.76 121.952 172.76H123.534V172.013C123.534 171.445 123.364 170.994 123.024 170.66C122.684 170.32 122.183 170.15 121.521 170.15C120.941 170.15 120.455 170.297 120.062 170.589C119.669 170.882 119.473 171.237 119.473 171.653H117.838C117.838 171.178 118.005 170.721 118.339 170.282C118.679 169.837 119.136 169.485 119.71 169.227C120.29 168.969 120.926 168.84 121.618 168.84C122.713 168.84 123.572 169.116 124.193 169.667C124.814 170.212 125.136 170.964 125.16 171.925V176.302C125.16 177.175 125.271 177.87 125.494 178.385V178.526H123.789ZM121.09 177.287C121.6 177.287 122.083 177.155 122.54 176.891C122.997 176.628 123.329 176.285 123.534 175.863V173.912H122.259C120.267 173.912 119.271 174.495 119.271 175.661C119.271 176.171 119.441 176.569 119.781 176.856C120.121 177.143 120.557 177.287 121.09 177.287ZM130.327 169.016L130.379 170.212C131.106 169.297 132.055 168.84 133.227 168.84C135.237 168.84 136.25 169.974 136.268 172.242V178.526H134.642V172.233C134.636 171.547 134.478 171.041 134.167 170.713C133.863 170.384 133.385 170.22 132.735 170.22C132.207 170.22 131.744 170.361 131.346 170.642C130.948 170.923 130.637 171.293 130.414 171.75V178.526H128.788V169.016H130.327ZM139.405 173.692C139.405 172.233 139.75 171.061 140.442 170.176C141.133 169.286 142.038 168.84 143.158 168.84C144.271 168.84 145.153 169.221 145.803 169.983V165.026H147.429V178.526H145.935L145.856 177.506C145.205 178.303 144.3 178.702 143.14 178.702C142.038 178.702 141.139 178.251 140.442 177.348C139.75 176.446 139.405 175.268 139.405 173.815V173.692ZM141.031 173.877C141.031 174.955 141.253 175.798 141.699 176.408C142.144 177.017 142.759 177.322 143.544 177.322C144.575 177.322 145.328 176.859 145.803 175.933V171.565C145.317 170.669 144.57 170.22 143.562 170.22C142.765 170.22 142.144 170.528 141.699 171.143C141.253 171.758 141.031 172.67 141.031 173.877ZM158.352 178.526H156.726V169.016H158.352V178.526ZM156.594 166.494C156.594 166.23 156.673 166.007 156.831 165.826C156.995 165.644 157.235 165.553 157.552 165.553C157.868 165.553 158.109 165.644 158.273 165.826C158.437 166.007 158.519 166.23 158.519 166.494C158.519 166.757 158.437 166.977 158.273 167.153C158.109 167.329 157.868 167.417 157.552 167.417C157.235 167.417 156.995 167.329 156.831 167.153C156.673 166.977 156.594 166.757 156.594 166.494ZM163.571 169.016L163.615 170.071C164.313 169.251 165.253 168.84 166.437 168.84C167.767 168.84 168.672 169.35 169.152 170.37C169.469 169.913 169.879 169.544 170.383 169.262C170.893 168.981 171.493 168.84 172.185 168.84C174.271 168.84 175.331 169.945 175.366 172.154V178.526H173.74V172.251C173.74 171.571 173.585 171.064 173.274 170.73C172.964 170.39 172.442 170.22 171.71 170.22C171.106 170.22 170.606 170.402 170.207 170.765C169.809 171.123 169.577 171.606 169.513 172.215V178.526H167.878V172.295C167.878 170.912 167.201 170.22 165.848 170.22C164.781 170.22 164.052 170.674 163.659 171.583V178.526H162.033V169.016H163.571ZM186.94 173.877C186.94 175.324 186.609 176.49 185.947 177.375C185.285 178.259 184.389 178.702 183.258 178.702C182.103 178.702 181.195 178.336 180.533 177.603V182.182H178.907V169.016H180.393L180.472 170.071C181.134 169.251 182.054 168.84 183.231 168.84C184.374 168.84 185.276 169.271 185.938 170.132C186.606 170.994 186.94 172.192 186.94 173.727V173.877ZM185.314 173.692C185.314 172.62 185.086 171.773 184.629 171.152C184.172 170.531 183.545 170.22 182.748 170.22C181.764 170.22 181.025 170.657 180.533 171.53V176.074C181.019 176.941 181.764 177.375 182.766 177.375C183.545 177.375 184.163 177.067 184.62 176.452C185.083 175.831 185.314 174.911 185.314 173.692ZM191.861 178.526H190.235V165.026H191.861V178.526ZM199.498 178.702C198.209 178.702 197.16 178.28 196.351 177.436C195.543 176.587 195.138 175.453 195.138 174.035V173.736C195.138 172.793 195.317 171.952 195.675 171.214C196.038 170.469 196.542 169.889 197.186 169.473C197.837 169.051 198.54 168.84 199.296 168.84C200.532 168.84 201.493 169.248 202.179 170.062C202.864 170.877 203.207 172.043 203.207 173.56V174.237H196.764C196.788 175.174 197.06 175.933 197.582 176.513C198.109 177.088 198.777 177.375 199.586 177.375C200.16 177.375 200.646 177.257 201.045 177.023C201.443 176.789 201.792 176.478 202.091 176.091L203.084 176.865C202.287 178.089 201.092 178.702 199.498 178.702ZM199.296 170.176C198.639 170.176 198.089 170.417 197.643 170.897C197.198 171.372 196.923 172.04 196.817 172.901H201.581V172.778C201.534 171.952 201.311 171.313 200.913 170.862C200.514 170.405 199.975 170.176 199.296 170.176ZM207.706 169.016L207.75 170.071C208.447 169.251 209.387 168.84 210.571 168.84C211.901 168.84 212.806 169.35 213.287 170.37C213.603 169.913 214.013 169.544 214.517 169.262C215.027 168.981 215.628 168.84 216.319 168.84C218.405 168.84 219.466 169.945 219.501 172.154V178.526H217.875V172.251C217.875 171.571 217.719 171.064 217.409 170.73C217.098 170.39 216.577 170.22 215.844 170.22C215.241 170.22 214.74 170.402 214.342 170.765C213.943 171.123 213.712 171.606 213.647 172.215V178.526H212.012V172.295C212.012 170.912 211.336 170.22 209.982 170.22C208.916 170.22 208.186 170.674 207.794 171.583V178.526H206.168V169.016H207.706ZM226.988 178.702C225.699 178.702 224.65 178.28 223.841 177.436C223.033 176.587 222.629 175.453 222.629 174.035V173.736C222.629 172.793 222.807 171.952 223.165 171.214C223.528 170.469 224.032 169.889 224.676 169.473C225.327 169.051 226.03 168.84 226.786 168.84C228.022 168.84 228.983 169.248 229.669 170.062C230.354 170.877 230.697 172.043 230.697 173.56V174.237H224.255C224.278 175.174 224.55 175.933 225.072 176.513C225.599 177.088 226.267 177.375 227.076 177.375C227.65 177.375 228.136 177.257 228.535 177.023C228.933 176.789 229.282 176.478 229.581 176.091L230.574 176.865C229.777 178.089 228.582 178.702 226.988 178.702ZM226.786 170.176C226.13 170.176 225.579 170.417 225.133 170.897C224.688 171.372 224.413 172.04 224.307 172.901H229.071V172.778C229.024 171.952 228.801 171.313 228.403 170.862C228.005 170.405 227.465 170.176 226.786 170.176ZM235.205 169.016L235.257 170.212C235.984 169.297 236.933 168.84 238.105 168.84C240.115 168.84 241.128 169.974 241.146 172.242V178.526H239.52V172.233C239.514 171.547 239.356 171.041 239.045 170.713C238.741 170.384 238.263 170.22 237.613 170.22C237.086 170.22 236.623 170.361 236.224 170.642C235.826 170.923 235.515 171.293 235.293 171.75V178.526H233.667V169.016H235.205ZM246.884 166.714V169.016H248.66V170.273H246.884V176.171C246.884 176.551 246.963 176.839 247.122 177.032C247.28 177.219 247.549 177.313 247.93 177.313C248.118 177.313 248.375 177.278 248.704 177.208V178.526C248.276 178.643 247.86 178.702 247.456 178.702C246.729 178.702 246.181 178.482 245.812 178.043C245.443 177.603 245.258 176.979 245.258 176.171V170.273H243.527V169.016H245.258V166.714H246.884ZM257.518 178.526C257.424 178.339 257.348 178.005 257.289 177.524C256.534 178.309 255.631 178.702 254.582 178.702C253.645 178.702 252.874 178.438 252.271 177.911C251.673 177.378 251.374 176.704 251.374 175.889C251.374 174.899 251.749 174.131 252.499 173.587C253.255 173.036 254.316 172.76 255.681 172.76H257.263V172.013C257.263 171.445 257.093 170.994 256.753 170.66C256.413 170.32 255.913 170.15 255.25 170.15C254.67 170.15 254.184 170.297 253.791 170.589C253.399 170.882 253.203 171.237 253.203 171.653H251.568C251.568 171.178 251.735 170.721 252.069 170.282C252.409 169.837 252.866 169.485 253.44 169.227C254.02 168.969 254.656 168.84 255.347 168.84C256.443 168.84 257.301 169.116 257.922 169.667C258.543 170.212 258.866 170.964 258.889 171.925V176.302C258.889 177.175 259 177.87 259.223 178.385V178.526H257.518ZM254.82 177.287C255.329 177.287 255.813 177.155 256.27 176.891C256.727 176.628 257.058 176.285 257.263 175.863V173.912H255.989C253.996 173.912 253 174.495 253 175.661C253 176.171 253.17 176.569 253.51 176.856C253.85 177.143 254.287 177.287 254.82 177.287ZM264.724 166.714V169.016H266.499V170.273H264.724V176.171C264.724 176.551 264.803 176.839 264.961 177.032C265.119 177.219 265.389 177.313 265.77 177.313C265.957 177.313 266.215 177.278 266.543 177.208V178.526C266.116 178.643 265.7 178.702 265.295 178.702C264.569 178.702 264.021 178.482 263.652 178.043C263.283 177.603 263.098 176.979 263.098 176.171V170.273H261.367V169.016H263.098V166.714H264.724ZM271.253 178.526H269.627V169.016H271.253V178.526ZM269.495 166.494C269.495 166.23 269.574 166.007 269.733 165.826C269.897 165.644 270.137 165.553 270.453 165.553C270.77 165.553 271.01 165.644 271.174 165.826C271.338 166.007 271.42 166.23 271.42 166.494C271.42 166.757 271.338 166.977 271.174 167.153C271.01 167.329 270.77 167.417 270.453 167.417C270.137 167.417 269.897 167.329 269.733 167.153C269.574 166.977 269.495 166.757 269.495 166.494ZM274.513 173.683C274.513 172.752 274.694 171.914 275.058 171.17C275.427 170.425 275.937 169.851 276.587 169.447C277.243 169.043 277.99 168.84 278.828 168.84C280.123 168.84 281.169 169.289 281.966 170.185C282.769 171.082 283.17 172.274 283.17 173.762V173.877C283.17 174.802 282.991 175.634 282.634 176.373C282.282 177.105 281.776 177.676 281.113 178.087C280.457 178.497 279.701 178.702 278.846 178.702C277.557 178.702 276.511 178.254 275.708 177.357C274.911 176.461 274.513 175.274 274.513 173.797V173.683ZM276.148 173.877C276.148 174.931 276.391 175.778 276.877 176.417C277.369 177.055 278.026 177.375 278.846 177.375C279.672 177.375 280.328 177.052 280.815 176.408C281.301 175.757 281.544 174.849 281.544 173.683C281.544 172.64 281.295 171.797 280.797 171.152C280.305 170.502 279.649 170.176 278.828 170.176C278.026 170.176 277.378 170.496 276.886 171.134C276.394 171.773 276.148 172.687 276.148 173.877ZM287.827 169.016L287.88 170.212C288.607 169.297 289.556 168.84 290.728 168.84C292.737 168.84 293.751 169.974 293.769 172.242V178.526H292.143V172.233C292.137 171.547 291.979 171.041 291.668 170.713C291.363 170.384 290.886 170.22 290.235 170.22C289.708 170.22 289.245 170.361 288.847 170.642C288.448 170.923 288.138 171.293 287.915 171.75V178.526H286.289V169.016H287.827ZM302.415 173.683C302.415 172.752 302.597 171.914 302.96 171.17C303.329 170.425 303.839 169.851 304.489 169.447C305.145 169.043 305.893 168.84 306.73 168.84C308.025 168.84 309.071 169.289 309.868 170.185C310.671 171.082 311.072 172.274 311.072 173.762V173.877C311.072 174.802 310.893 175.634 310.536 176.373C310.184 177.105 309.678 177.676 309.016 178.087C308.359 178.497 307.603 178.702 306.748 178.702C305.459 178.702 304.413 178.254 303.61 177.357C302.813 176.461 302.415 175.274 302.415 173.797V173.683ZM304.05 173.877C304.05 174.931 304.293 175.778 304.779 176.417C305.271 177.055 305.928 177.375 306.748 177.375C307.574 177.375 308.23 177.052 308.717 176.408C309.203 175.757 309.446 174.849 309.446 173.683C309.446 172.64 309.197 171.797 308.699 171.152C308.207 170.502 307.551 170.176 306.73 170.176C305.928 170.176 305.28 170.496 304.788 171.134C304.296 171.773 304.05 172.687 304.05 173.877ZM314.991 178.526V170.273H313.488V169.016H314.991V168.041C314.991 167.021 315.264 166.233 315.808 165.676C316.353 165.12 317.124 164.841 318.12 164.841C318.495 164.841 318.867 164.891 319.236 164.991L319.148 166.309C318.873 166.256 318.58 166.23 318.269 166.23C317.742 166.23 317.335 166.385 317.048 166.696C316.761 167.001 316.617 167.44 316.617 168.014V169.016H318.647V170.273H316.617V178.526H314.991ZM332.945 178.526C332.851 178.339 332.775 178.005 332.716 177.524C331.961 178.309 331.058 178.702 330.009 178.702C329.072 178.702 328.301 178.438 327.698 177.911C327.1 177.378 326.801 176.704 326.801 175.889C326.801 174.899 327.176 174.131 327.926 173.587C328.682 173.036 329.743 172.76 331.108 172.76H332.69V172.013C332.69 171.445 332.52 170.994 332.18 170.66C331.841 170.32 331.34 170.15 330.677 170.15C330.097 170.15 329.611 170.297 329.218 170.589C328.826 170.882 328.63 171.237 328.63 171.653H326.995C326.995 171.178 327.162 170.721 327.496 170.282C327.836 169.837 328.293 169.485 328.867 169.227C329.447 168.969 330.083 168.84 330.774 168.84C331.87 168.84 332.728 169.116 333.349 169.667C333.97 170.212 334.293 170.964 334.316 171.925V176.302C334.316 177.175 334.427 177.87 334.65 178.385V178.526H332.945ZM330.247 177.287C330.757 177.287 331.24 177.155 331.697 176.891C332.154 176.628 332.485 176.285 332.69 175.863V173.912H331.416C329.424 173.912 328.427 174.495 328.427 175.661C328.427 176.171 328.597 176.569 328.937 176.856C329.277 177.143 329.714 177.287 330.247 177.287ZM347.304 177.375C347.884 177.375 348.391 177.199 348.825 176.847C349.258 176.496 349.499 176.056 349.545 175.529H351.084C351.054 176.074 350.867 176.592 350.521 177.085C350.175 177.577 349.712 177.969 349.132 178.262C348.558 178.555 347.949 178.702 347.304 178.702C346.009 178.702 344.978 178.271 344.21 177.41C343.449 176.543 343.068 175.359 343.068 173.859V173.587C343.068 172.661 343.238 171.838 343.578 171.117C343.918 170.396 344.404 169.837 345.037 169.438C345.675 169.04 346.428 168.84 347.295 168.84C348.362 168.84 349.247 169.16 349.95 169.798C350.659 170.437 351.037 171.266 351.084 172.286H349.545C349.499 171.671 349.264 171.167 348.842 170.774C348.426 170.376 347.911 170.176 347.295 170.176C346.469 170.176 345.828 170.475 345.371 171.073C344.919 171.665 344.694 172.523 344.694 173.648V173.956C344.694 175.051 344.919 175.895 345.371 176.487C345.822 177.079 346.466 177.375 347.304 177.375ZM355.758 178.526H354.132V169.016H355.758V178.526ZM354 166.494C354 166.23 354.08 166.007 354.238 165.826C354.402 165.644 354.642 165.553 354.958 165.553C355.275 165.553 355.515 165.644 355.679 165.826C355.843 166.007 355.925 166.23 355.925 166.494C355.925 166.757 355.843 166.977 355.679 167.153C355.515 167.329 355.275 167.417 354.958 167.417C354.642 167.417 354.402 167.329 354.238 167.153C354.08 166.977 354 166.757 354 166.494ZM360.987 169.016L361.039 170.212C361.766 169.297 362.715 168.84 363.887 168.84C365.897 168.84 366.911 169.974 366.928 172.242V178.526H365.302V172.233C365.296 171.547 365.138 171.041 364.828 170.713C364.523 170.384 364.045 170.22 363.395 170.22C362.868 170.22 362.405 170.361 362.006 170.642C361.608 170.923 361.297 171.293 361.075 171.75V178.526H359.449V169.016H360.987ZM371.998 169.016L372.051 170.212C372.778 169.297 373.727 168.84 374.899 168.84C376.908 168.84 377.922 169.974 377.94 172.242V178.526H376.314V172.233C376.308 171.547 376.15 171.041 375.839 170.713C375.534 170.384 375.057 170.22 374.407 170.22C373.879 170.22 373.416 170.361 373.018 170.642C372.619 170.923 372.309 171.293 372.086 171.75V178.526H370.46V169.016H371.998ZM387.343 178.526C387.249 178.339 387.173 178.005 387.114 177.524C386.359 178.309 385.456 178.702 384.407 178.702C383.47 178.702 382.699 178.438 382.096 177.911C381.498 177.378 381.199 176.704 381.199 175.889C381.199 174.899 381.574 174.131 382.324 173.587C383.08 173.036 384.141 172.76 385.506 172.76H387.088V172.013C387.088 171.445 386.918 170.994 386.578 170.66C386.238 170.32 385.737 170.15 385.075 170.15C384.495 170.15 384.009 170.297 383.616 170.589C383.224 170.882 383.028 171.237 383.028 171.653H381.393C381.393 171.178 381.56 170.721 381.894 170.282C382.234 169.837 382.691 169.485 383.265 169.227C383.845 168.969 384.481 168.84 385.172 168.84C386.268 168.84 387.126 169.116 387.747 169.667C388.368 170.212 388.691 170.964 388.714 171.925V176.302C388.714 177.175 388.825 177.87 389.048 178.385V178.526H387.343ZM384.645 177.287C385.154 177.287 385.638 177.155 386.095 176.891C386.552 176.628 386.883 176.285 387.088 175.863V173.912H385.814C383.821 173.912 382.825 174.495 382.825 175.661C382.825 176.171 382.995 176.569 383.335 176.856C383.675 177.143 384.112 177.287 384.645 177.287ZM400.394 173.877C400.394 175.33 400.06 176.499 399.392 177.383C398.724 178.262 397.827 178.702 396.702 178.702C395.501 178.702 394.572 178.277 393.916 177.427L393.837 178.526H392.343V165.026H393.969V170.062C394.625 169.248 395.53 168.84 396.685 168.84C397.839 168.84 398.744 169.277 399.401 170.15C400.063 171.023 400.394 172.218 400.394 173.736V173.877ZM398.768 173.692C398.768 172.585 398.554 171.729 398.126 171.126C397.698 170.522 397.083 170.22 396.28 170.22C395.208 170.22 394.438 170.718 393.969 171.714V175.828C394.467 176.824 395.243 177.322 396.298 177.322C397.077 177.322 397.684 177.02 398.117 176.417C398.551 175.813 398.768 174.905 398.768 173.692ZM403.1 173.683C403.1 172.752 403.281 171.914 403.645 171.17C404.014 170.425 404.523 169.851 405.174 169.447C405.83 169.043 406.577 168.84 407.415 168.84C408.71 168.84 409.756 169.289 410.553 170.185C411.355 171.082 411.757 172.274 411.757 173.762V173.877C411.757 174.802 411.578 175.634 411.221 176.373C410.869 177.105 410.362 177.676 409.7 178.087C409.044 178.497 408.288 178.702 407.433 178.702C406.144 178.702 405.098 178.254 404.295 177.357C403.498 176.461 403.1 175.274 403.1 173.797V173.683ZM404.734 173.877C404.734 174.931 404.978 175.778 405.464 176.417C405.956 177.055 406.612 177.375 407.433 177.375C408.259 177.375 408.915 177.052 409.401 176.408C409.888 175.757 410.131 174.849 410.131 173.683C410.131 172.64 409.882 171.797 409.384 171.152C408.892 170.502 408.235 170.176 407.415 170.176C406.612 170.176 405.965 170.496 405.473 171.134C404.98 171.773 404.734 172.687 404.734 173.877ZM416.414 169.016L416.467 170.212C417.193 169.297 418.143 168.84 419.314 168.84C421.324 168.84 422.338 169.974 422.355 172.242V178.526H420.729V172.233C420.724 171.547 420.565 171.041 420.255 170.713C419.95 170.384 419.473 170.22 418.822 170.22C418.295 170.22 417.832 170.361 417.434 170.642C417.035 170.923 416.725 171.293 416.502 171.75V178.526H414.876V169.016H416.414ZM58.8887 201.877C58.8887 203.33 58.5547 204.499 57.8867 205.383C57.2188 206.262 56.3223 206.702 55.1973 206.702C53.9961 206.702 53.0674 206.277 52.4111 205.427L52.332 206.526H50.8379V193.026H52.4639V198.062C53.1201 197.248 54.0254 196.84 55.1797 196.84C56.334 196.84 57.2393 197.277 57.8955 198.15C58.5576 199.023 58.8887 200.218 58.8887 201.736V201.877ZM57.2627 201.692C57.2627 200.585 57.0488 199.729 56.6211 199.126C56.1934 198.522 55.5781 198.22 54.7754 198.22C53.7031 198.22 52.9326 198.718 52.4639 199.714V203.828C52.9619 204.824 53.7383 205.322 54.793 205.322C55.5723 205.322 56.1787 205.02 56.6123 204.417C57.0459 203.813 57.2627 202.905 57.2627 201.692ZM67.8964 206.526C67.8027 206.339 67.7265 206.005 67.6679 205.524C66.912 206.309 66.0097 206.702 64.9609 206.702C64.0234 206.702 63.2529 206.438 62.6493 205.911C62.0517 205.378 61.7529 204.704 61.7529 203.889C61.7529 202.899 62.1279 202.131 62.8779 201.587C63.6337 201.036 64.6943 200.76 66.0595 200.76H67.6415V200.013C67.6415 199.445 67.4716 198.994 67.1318 198.66C66.7919 198.32 66.2909 198.15 65.6288 198.15C65.0487 198.15 64.5624 198.297 64.1698 198.589C63.7773 198.882 63.581 199.237 63.581 199.653H61.9462C61.9462 199.178 62.1132 198.721 62.4472 198.282C62.787 197.837 63.2441 197.485 63.8183 197.227C64.3984 196.969 65.0341 196.84 65.7255 196.84C66.8212 196.84 67.6796 197.116 68.3007 197.667C68.9218 198.212 69.2441 198.964 69.2675 199.925V204.302C69.2675 205.175 69.3788 205.87 69.6015 206.385V206.526H67.8964ZM65.1982 205.287C65.7079 205.287 66.1913 205.155 66.6484 204.891C67.1054 204.628 67.4364 204.285 67.6415 203.863V201.912H66.3671C64.3749 201.912 63.3788 202.495 63.3788 203.661C63.3788 204.171 63.5487 204.569 63.8886 204.856C64.2284 205.143 64.665 205.287 65.1982 205.287ZM75.5506 202.123L74.5311 203.186V206.526H72.9051V193.026H74.5311V201.191L75.4012 200.145L78.3631 197.016H80.3407L76.6405 200.989L80.7713 206.526H78.8641L75.5506 202.123ZM86.8699 206.702C85.5808 206.702 84.532 206.28 83.7234 205.436C82.9148 204.587 82.5105 203.453 82.5105 202.035V201.736C82.5105 200.793 82.6892 199.952 83.0466 199.214C83.4099 198.469 83.9138 197.889 84.5584 197.473C85.2088 197.051 85.9119 196.84 86.6677 196.84C87.9041 196.84 88.865 197.248 89.5505 198.062C90.2361 198.877 90.5789 200.043 90.5789 201.56V202.237H84.1365C84.1599 203.174 84.4324 203.933 84.9539 204.513C85.4812 205.088 86.1492 205.375 86.9578 205.375C87.532 205.375 88.0183 205.257 88.4168 205.023C88.8152 204.789 89.1638 204.478 89.4627 204.091L90.4558 204.865C89.6589 206.089 88.4636 206.702 86.8699 206.702ZM86.6677 198.176C86.0115 198.176 85.4607 198.417 85.0154 198.897C84.5701 199.372 84.2947 200.04 84.1892 200.901H88.9529V200.778C88.906 199.952 88.6834 199.313 88.2849 198.862C87.8865 198.405 87.3474 198.176 86.6677 198.176ZM99.0856 204.004C99.0856 203.564 98.9186 203.224 98.5846 202.984C98.2565 202.738 97.6794 202.527 96.8532 202.351C96.0329 202.175 95.3796 201.964 94.8932 201.718C94.4128 201.472 94.0554 201.179 93.821 200.839C93.5925 200.5 93.4782 200.095 93.4782 199.627C93.4782 198.847 93.8063 198.188 94.4626 197.649C95.1247 197.11 95.9684 196.84 96.9938 196.84C98.072 196.84 98.945 197.119 99.613 197.675C100.287 198.232 100.624 198.944 100.624 199.811H98.9889C98.9889 199.366 98.7985 198.982 98.4177 198.66C98.0427 198.338 97.568 198.176 96.9938 198.176C96.402 198.176 95.9391 198.305 95.6052 198.563C95.2712 198.821 95.1042 199.158 95.1042 199.574C95.1042 199.966 95.2595 200.262 95.57 200.462C95.8805 200.661 96.4401 200.851 97.2487 201.033C98.0632 201.214 98.7223 201.431 99.2262 201.683C99.7302 201.935 100.102 202.24 100.342 202.597C100.589 202.949 100.712 203.38 100.712 203.889C100.712 204.739 100.372 205.422 99.6921 205.937C99.0124 206.447 98.1305 206.702 97.0466 206.702C96.2848 206.702 95.611 206.567 95.0251 206.297C94.4391 206.028 93.9792 205.653 93.6452 205.172C93.3171 204.686 93.153 204.162 93.153 203.599H94.779C94.8083 204.144 95.0251 204.578 95.4294 204.9C95.8395 205.216 96.3786 205.375 97.0466 205.375C97.6618 205.375 98.154 205.252 98.5231 205.005C98.8981 204.754 99.0856 204.42 99.0856 204.004ZM105.536 198.168C106.256 197.283 107.194 196.84 108.348 196.84C110.358 196.84 111.372 197.974 111.389 200.242V206.526H109.763V200.233C109.757 199.547 109.599 199.041 109.289 198.713C108.984 198.384 108.506 198.22 107.856 198.22C107.329 198.22 106.866 198.361 106.467 198.642C106.069 198.923 105.758 199.293 105.536 199.75V206.526H103.91V193.026H105.536V198.168ZM114.473 201.683C114.473 200.752 114.655 199.914 115.018 199.17C115.387 198.425 115.897 197.851 116.547 197.447C117.204 197.043 117.951 196.84 118.789 196.84C120.084 196.84 121.129 197.289 121.926 198.185C122.729 199.082 123.13 200.274 123.13 201.762V201.877C123.13 202.802 122.952 203.634 122.594 204.373C122.243 205.105 121.736 205.676 121.074 206.087C120.418 206.497 119.662 206.702 118.806 206.702C117.517 206.702 116.471 206.254 115.668 205.357C114.872 204.461 114.473 203.274 114.473 201.797V201.683ZM116.108 201.877C116.108 202.931 116.351 203.778 116.837 204.417C117.33 205.055 117.986 205.375 118.806 205.375C119.632 205.375 120.289 205.052 120.775 204.408C121.261 203.757 121.504 202.849 121.504 201.683C121.504 200.64 121.255 199.797 120.757 199.152C120.265 198.502 119.609 198.176 118.789 198.176C117.986 198.176 117.338 198.496 116.846 199.134C116.354 199.773 116.108 200.687 116.108 201.877ZM134.283 201.877C134.283 203.324 133.952 204.49 133.289 205.375C132.627 206.259 131.731 206.702 130.6 206.702C129.446 206.702 128.538 206.336 127.875 205.603V210.182H126.249V197.016H127.735L127.814 198.071C128.476 197.251 129.396 196.84 130.574 196.84C131.716 196.84 132.619 197.271 133.281 198.132C133.949 198.994 134.283 200.192 134.283 201.727V201.877ZM132.657 201.692C132.657 200.62 132.428 199.773 131.971 199.152C131.514 198.531 130.887 198.22 130.09 198.22C129.106 198.22 128.368 198.657 127.875 199.53V204.074C128.362 204.941 129.106 205.375 130.108 205.375C130.887 205.375 131.505 205.067 131.962 204.452C132.425 203.831 132.657 202.911 132.657 201.692ZM148.853 205.586C148.22 206.33 147.291 206.702 146.067 206.702C145.053 206.702 144.28 206.409 143.746 205.823C143.219 205.231 142.952 204.358 142.947 203.204V197.016H144.573V203.16C144.573 204.601 145.158 205.322 146.33 205.322C147.573 205.322 148.399 204.859 148.809 203.933V197.016H150.435V206.526H148.888L148.853 205.586ZM159.53 204.004C159.53 203.564 159.363 203.224 159.029 202.984C158.701 202.738 158.124 202.527 157.298 202.351C156.478 202.175 155.824 201.964 155.338 201.718C154.858 201.472 154.5 201.179 154.266 200.839C154.037 200.5 153.923 200.095 153.923 199.627C153.923 198.847 154.251 198.188 154.907 197.649C155.57 197.11 156.413 196.84 157.439 196.84C158.517 196.84 159.39 197.119 160.058 197.675C160.732 198.232 161.069 198.944 161.069 199.811H159.434C159.434 199.366 159.243 198.982 158.863 198.66C158.488 198.338 158.013 198.176 157.439 198.176C156.847 198.176 156.384 198.305 156.05 198.563C155.716 198.821 155.549 199.158 155.549 199.574C155.549 199.966 155.704 200.262 156.015 200.462C156.325 200.661 156.885 200.851 157.694 201.033C158.508 201.214 159.167 201.431 159.671 201.683C160.175 201.935 160.547 202.24 160.787 202.597C161.033 202.949 161.156 203.38 161.156 203.889C161.156 204.739 160.817 205.422 160.137 205.937C159.457 206.447 158.575 206.702 157.491 206.702C156.73 206.702 156.056 206.567 155.47 206.297C154.884 206.028 154.424 205.653 154.09 205.172C153.762 204.686 153.598 204.162 153.598 203.599H155.224C155.253 204.144 155.47 204.578 155.874 204.9C156.284 205.216 156.823 205.375 157.491 205.375C158.107 205.375 158.599 205.252 158.968 205.005C159.343 204.754 159.53 204.42 159.53 204.004ZM166.121 206.526H164.495V197.016H166.121V206.526ZM164.363 194.494C164.363 194.23 164.442 194.007 164.601 193.826C164.765 193.644 165.005 193.553 165.321 193.553C165.638 193.553 165.878 193.644 166.042 193.826C166.206 194.007 166.288 194.23 166.288 194.494C166.288 194.757 166.206 194.977 166.042 195.153C165.878 195.329 165.638 195.417 165.321 195.417C165.005 195.417 164.765 195.329 164.601 195.153C164.442 194.977 164.363 194.757 164.363 194.494ZM171.35 197.016L171.402 198.212C172.129 197.297 173.078 196.84 174.25 196.84C176.26 196.84 177.273 197.974 177.291 200.242V206.526H175.665V200.233C175.659 199.547 175.501 199.041 175.19 198.713C174.886 198.384 174.408 198.22 173.758 198.22C173.231 198.22 172.768 198.361 172.369 198.642C171.971 198.923 171.66 199.293 171.438 199.75V206.526H169.812V197.016H171.35ZM180.436 201.692C180.436 200.21 180.779 199.032 181.465 198.159C182.15 197.28 183.059 196.84 184.189 196.84C185.35 196.84 186.255 197.251 186.905 198.071L186.984 197.016H188.47V206.297C188.47 207.528 188.103 208.498 187.371 209.207C186.644 209.916 185.666 210.27 184.436 210.27C183.75 210.27 183.079 210.124 182.423 209.831C181.767 209.538 181.266 209.136 180.92 208.627L181.764 207.651C182.461 208.512 183.313 208.943 184.321 208.943C185.112 208.943 185.727 208.72 186.167 208.275C186.612 207.83 186.835 207.203 186.835 206.394V205.577C186.185 206.327 185.297 206.702 184.172 206.702C183.059 206.702 182.156 206.254 181.465 205.357C180.779 204.461 180.436 203.239 180.436 201.692ZM182.071 201.877C182.071 202.949 182.291 203.793 182.73 204.408C183.17 205.017 183.785 205.322 184.576 205.322C185.602 205.322 186.354 204.856 186.835 203.924V199.583C186.337 198.674 185.59 198.22 184.594 198.22C183.803 198.22 183.185 198.528 182.739 199.143C182.294 199.758 182.071 200.67 182.071 201.877ZM207.645 206.526H205.949V200.611H199.498V206.526H197.81V193.729H199.498V199.231H205.949V193.729H207.645V206.526ZM220.301 195.118H216.187V206.526H214.509V195.118H210.404V193.729H220.301V195.118ZM225.459 193.729L229.642 204.171L233.826 193.729H236.014V206.526H234.327V201.543L234.485 196.164L230.284 206.526H228.992L224.799 196.19L224.966 201.543V206.526H223.279V193.729H225.459ZM241.77 205.146H247.835V206.526H240.074V193.729H241.77V205.146ZM250.532 209.075L249.609 208.442C250.16 207.674 250.447 206.883 250.47 206.069V204.601H252.061V205.876C252.061 206.467 251.915 207.059 251.622 207.651C251.334 208.243 250.971 208.717 250.532 209.075ZM270.41 202.465C270.252 203.819 269.751 204.865 268.908 205.603C268.07 206.336 266.953 206.702 265.559 206.702C264.047 206.702 262.834 206.16 261.92 205.076C261.012 203.992 260.558 202.542 260.558 200.725V199.495C260.558 198.305 260.769 197.259 261.191 196.357C261.618 195.455 262.222 194.763 263.001 194.283C263.781 193.797 264.683 193.553 265.708 193.553C267.068 193.553 268.158 193.934 268.978 194.696C269.798 195.452 270.276 196.501 270.41 197.842H268.714C268.568 196.823 268.248 196.085 267.756 195.628C267.27 195.171 266.587 194.942 265.708 194.942C264.63 194.942 263.784 195.34 263.168 196.137C262.559 196.934 262.254 198.068 262.254 199.539V200.778C262.254 202.167 262.544 203.271 263.124 204.091C263.704 204.912 264.516 205.322 265.559 205.322C266.496 205.322 267.214 205.111 267.712 204.689C268.216 204.261 268.55 203.52 268.714 202.465H270.41ZM277.572 200.822C276.125 200.406 275.071 199.896 274.408 199.293C273.752 198.683 273.424 197.933 273.424 197.043C273.424 196.035 273.825 195.203 274.628 194.547C275.437 193.884 276.486 193.553 277.775 193.553C278.654 193.553 279.436 193.723 280.121 194.063C280.813 194.403 281.346 194.872 281.721 195.469C282.102 196.067 282.292 196.72 282.292 197.429H280.596C280.596 196.656 280.35 196.049 279.858 195.61C279.365 195.165 278.671 194.942 277.775 194.942C276.943 194.942 276.292 195.127 275.823 195.496C275.361 195.859 275.129 196.366 275.129 197.016C275.129 197.538 275.349 197.98 275.788 198.343C276.234 198.701 276.987 199.029 278.047 199.328C279.114 199.627 279.946 199.958 280.543 200.321C281.147 200.678 281.592 201.097 281.879 201.578C282.172 202.058 282.319 202.624 282.319 203.274C282.319 204.311 281.914 205.143 281.106 205.77C280.297 206.391 279.216 206.702 277.863 206.702C276.984 206.702 276.163 206.535 275.402 206.201C274.64 205.861 274.051 205.398 273.635 204.812C273.225 204.226 273.02 203.561 273.02 202.817H274.716C274.716 203.59 275 204.203 275.569 204.654C276.143 205.099 276.907 205.322 277.863 205.322C278.753 205.322 279.436 205.14 279.91 204.777C280.385 204.414 280.622 203.919 280.622 203.292C280.622 202.665 280.403 202.181 279.963 201.841C279.524 201.496 278.727 201.156 277.572 200.822ZM289.34 200.822C287.893 200.406 286.838 199.896 286.176 199.293C285.52 198.683 285.192 197.933 285.192 197.043C285.192 196.035 285.593 195.203 286.396 194.547C287.204 193.884 288.253 193.553 289.542 193.553C290.421 193.553 291.203 193.723 291.889 194.063C292.58 194.403 293.113 194.872 293.488 195.469C293.869 196.067 294.06 196.72 294.06 197.429H292.363C292.363 196.656 292.117 196.049 291.625 195.61C291.133 195.165 290.439 194.942 289.542 194.942C288.71 194.942 288.06 195.127 287.591 195.496C287.128 195.859 286.897 196.366 286.897 197.016C286.897 197.538 287.116 197.98 287.556 198.343C288.001 198.701 288.754 199.029 289.815 199.328C290.881 199.627 291.713 199.958 292.311 200.321C292.914 200.678 293.36 201.097 293.647 201.578C293.94 202.058 294.086 202.624 294.086 203.274C294.086 204.311 293.682 205.143 292.873 205.77C292.065 206.391 290.984 206.702 289.63 206.702C288.751 206.702 287.931 206.535 287.169 206.201C286.407 205.861 285.819 205.398 285.402 204.812C284.992 204.226 284.787 203.561 284.787 202.817H286.484C286.484 203.59 286.768 204.203 287.336 204.654C287.91 205.099 288.675 205.322 289.63 205.322C290.521 205.322 291.203 205.14 291.678 204.777C292.152 204.414 292.39 203.919 292.39 203.292C292.39 202.665 292.17 202.181 291.731 201.841C291.291 201.496 290.494 201.156 289.34 200.822ZM302.284 203.089C302.284 202.474 302.454 201.909 302.794 201.393C303.14 200.878 303.796 200.277 304.763 199.591C304.194 198.9 303.813 198.343 303.62 197.922C303.427 197.5 303.33 197.081 303.33 196.665C303.33 195.692 303.617 194.93 304.191 194.38C304.766 193.829 305.545 193.553 306.529 193.553C307.408 193.553 308.135 193.811 308.709 194.327C309.283 194.837 309.57 195.481 309.57 196.26C309.57 196.776 309.438 197.254 309.175 197.693C308.917 198.127 308.463 198.584 307.812 199.064L306.872 199.758L309.72 203.16C310.118 202.398 310.317 201.551 310.317 200.62H311.785C311.785 202.114 311.425 203.353 310.704 204.338L312.532 206.526H310.581L309.729 205.515C309.295 205.902 308.785 206.198 308.199 206.403C307.619 206.602 307.027 206.702 306.424 206.702C305.176 206.702 304.174 206.371 303.418 205.709C302.662 205.047 302.284 204.173 302.284 203.089ZM306.424 205.375C307.285 205.375 308.073 205.047 308.788 204.39L305.668 200.655L305.378 200.866C304.399 201.587 303.91 202.328 303.91 203.089C303.91 203.781 304.133 204.335 304.578 204.751C305.029 205.167 305.645 205.375 306.424 205.375ZM304.956 196.612C304.956 197.174 305.302 197.878 305.993 198.721L307.03 197.992C307.429 197.711 307.701 197.444 307.848 197.192C307.994 196.934 308.067 196.624 308.067 196.26C308.067 195.868 307.921 195.543 307.628 195.285C307.335 195.021 306.966 194.889 306.521 194.889C306.04 194.889 305.659 195.053 305.378 195.381C305.097 195.704 304.956 196.114 304.956 196.612ZM326.065 193.729H327.762V202.791C327.762 204.015 327.392 204.973 326.654 205.665C325.922 206.356 324.943 206.702 323.719 206.702C322.447 206.702 321.457 206.377 320.748 205.726C320.039 205.076 319.684 204.165 319.684 202.993H321.372C321.372 203.725 321.571 204.297 321.97 204.707C322.374 205.117 322.957 205.322 323.719 205.322C324.416 205.322 324.978 205.102 325.406 204.663C325.84 204.223 326.059 203.608 326.065 202.817V193.729ZM337.332 206.526C337.238 206.339 337.162 206.005 337.103 205.524C336.347 206.309 335.445 206.702 334.396 206.702C333.459 206.702 332.688 206.438 332.085 205.911C331.487 205.378 331.188 204.704 331.188 203.889C331.188 202.899 331.563 202.131 332.313 201.587C333.069 201.036 334.13 200.76 335.495 200.76H337.077V200.013C337.077 199.445 336.907 198.994 336.567 198.66C336.227 198.32 335.726 198.15 335.064 198.15C334.484 198.15 333.998 198.297 333.605 198.589C333.213 198.882 333.016 199.237 333.016 199.653H331.382C331.382 199.178 331.549 198.721 331.883 198.282C332.222 197.837 332.679 197.485 333.254 197.227C333.834 196.969 334.469 196.84 335.161 196.84C336.257 196.84 337.115 197.116 337.736 197.667C338.357 198.212 338.679 198.964 338.703 199.925V204.302C338.703 205.175 338.814 205.87 339.037 206.385V206.526H337.332ZM334.634 205.287C335.143 205.287 335.627 205.155 336.084 204.891C336.541 204.628 336.872 204.285 337.077 203.863V201.912H335.802C333.81 201.912 332.814 202.495 332.814 203.661C332.814 204.171 332.984 204.569 333.324 204.856C333.664 205.143 334.1 205.287 334.634 205.287ZM345.329 204.32L347.684 197.016H349.345L345.935 206.526H344.696L341.251 197.016H342.912L345.329 204.32ZM357.72 206.526C357.627 206.339 357.55 206.005 357.492 205.524C356.736 206.309 355.834 206.702 354.785 206.702C353.847 206.702 353.077 206.438 352.473 205.911C351.876 205.378 351.577 204.704 351.577 203.889C351.577 202.899 351.952 202.131 352.702 201.587C353.458 201.036 354.518 200.76 355.883 200.76H357.465V200.013C357.465 199.445 357.296 198.994 356.956 198.66C356.616 198.32 356.115 198.15 355.453 198.15C354.873 198.15 354.386 198.297 353.994 198.589C353.601 198.882 353.405 199.237 353.405 199.653H351.77C351.77 199.178 351.937 198.721 352.271 198.282C352.611 197.837 353.068 197.485 353.642 197.227C354.222 196.969 354.858 196.84 355.549 196.84C356.645 196.84 357.504 197.116 358.125 197.667C358.746 198.212 359.068 198.964 359.091 199.925V204.302C359.091 205.175 359.203 205.87 359.425 206.385V206.526H357.72ZM355.022 205.287C355.532 205.287 356.015 205.155 356.472 204.891C356.929 204.628 357.26 204.285 357.465 203.863V201.912H356.191C354.199 201.912 353.203 202.495 353.203 203.661C353.203 204.171 353.373 204.569 353.712 204.856C354.052 205.143 354.489 205.287 355.022 205.287ZM366.746 200.822C365.298 200.406 364.244 199.896 363.582 199.293C362.925 198.683 362.597 197.933 362.597 197.043C362.597 196.035 362.999 195.203 363.801 194.547C364.61 193.884 365.659 193.553 366.948 193.553C367.827 193.553 368.609 193.723 369.294 194.063C369.986 194.403 370.519 194.872 370.894 195.469C371.275 196.067 371.465 196.72 371.465 197.429H369.769C369.769 196.656 369.523 196.049 369.031 195.61C368.539 195.165 367.844 194.942 366.948 194.942C366.116 194.942 365.465 195.127 364.997 195.496C364.534 195.859 364.302 196.366 364.302 197.016C364.302 197.538 364.522 197.98 364.961 198.343C365.407 198.701 366.16 199.029 367.22 199.328C368.287 199.627 369.119 199.958 369.716 200.321C370.32 200.678 370.765 201.097 371.052 201.578C371.345 202.058 371.492 202.624 371.492 203.274C371.492 204.311 371.087 205.143 370.279 205.77C369.47 206.391 368.389 206.702 367.036 206.702C366.157 206.702 365.336 206.535 364.575 206.201C363.813 205.861 363.224 205.398 362.808 204.812C362.398 204.226 362.193 203.561 362.193 202.817H363.889C363.889 203.59 364.173 204.203 364.742 204.654C365.316 205.099 366.081 205.322 367.036 205.322C367.926 205.322 368.609 205.14 369.084 204.777C369.558 204.414 369.795 203.919 369.795 203.292C369.795 202.665 369.576 202.181 369.136 201.841C368.697 201.496 367.9 201.156 366.746 200.822ZM378.302 205.375C378.882 205.375 379.389 205.199 379.823 204.847C380.256 204.496 380.497 204.056 380.543 203.529H382.081C382.052 204.074 381.865 204.592 381.519 205.085C381.173 205.577 380.71 205.969 380.13 206.262C379.556 206.555 378.947 206.702 378.302 206.702C377.007 206.702 375.976 206.271 375.208 205.41C374.447 204.543 374.066 203.359 374.066 201.859V201.587C374.066 200.661 374.236 199.838 374.576 199.117C374.915 198.396 375.402 197.837 376.035 197.438C376.673 197.04 377.426 196.84 378.293 196.84C379.36 196.84 380.245 197.16 380.948 197.798C381.657 198.437 382.035 199.266 382.081 200.286H380.543C380.497 199.671 380.262 199.167 379.84 198.774C379.424 198.376 378.909 198.176 378.293 198.176C377.467 198.176 376.826 198.475 376.369 199.073C375.917 199.665 375.692 200.523 375.692 201.648V201.956C375.692 203.051 375.917 203.895 376.369 204.487C376.82 205.079 377.464 205.375 378.302 205.375ZM389.586 198.475C389.34 198.434 389.074 198.414 388.786 198.414C387.72 198.414 386.996 198.868 386.616 199.776V206.526H384.99V197.016H386.572L386.598 198.115C387.131 197.265 387.887 196.84 388.866 196.84C389.182 196.84 389.422 196.881 389.586 196.964V198.475ZM393.936 206.526H392.31V197.016H393.936V206.526ZM392.178 194.494C392.178 194.23 392.257 194.007 392.415 193.826C392.579 193.644 392.82 193.553 393.136 193.553C393.452 193.553 393.693 193.644 393.857 193.826C394.021 194.007 394.103 194.23 394.103 194.494C394.103 194.757 394.021 194.977 393.857 195.153C393.693 195.329 393.452 195.417 393.136 195.417C392.82 195.417 392.579 195.329 392.415 195.153C392.257 194.977 392.178 194.757 392.178 194.494ZM405.659 201.877C405.659 203.324 405.328 204.49 404.666 205.375C404.004 206.259 403.108 206.702 401.977 206.702C400.822 206.702 399.914 206.336 399.252 205.603V210.182H397.626V197.016H399.112L399.191 198.071C399.853 197.251 400.773 196.84 401.95 196.84C403.093 196.84 403.995 197.271 404.657 198.132C405.325 198.994 405.659 200.192 405.659 201.727V201.877ZM404.033 201.692C404.033 200.62 403.805 199.773 403.348 199.152C402.891 198.531 402.264 198.22 401.467 198.22C400.483 198.22 399.744 198.657 399.252 199.53V204.074C399.738 204.941 400.483 205.375 401.485 205.375C402.264 205.375 402.882 205.067 403.339 204.452C403.802 203.831 404.033 202.911 404.033 201.692ZM411.02 194.714V197.016H412.795V198.273H411.02V204.171C411.02 204.551 411.099 204.839 411.257 205.032C411.415 205.219 411.685 205.313 412.066 205.313C412.253 205.313 412.511 205.278 412.839 205.208V206.526C412.411 206.643 411.995 206.702 411.591 206.702C410.864 206.702 410.317 206.482 409.947 206.043C409.578 205.603 409.394 204.979 409.394 204.171V198.273H407.662V197.016H409.394V194.714H411.02Z" fill="black"/>
<rect x="51.1074" y="275.254" width="246.168" height="59.5495" stroke="#767676"/>
<path d="M128.528 308.037L131.778 298.654H133.418L129.2 310.029H127.872L123.661 298.654H125.293L128.528 308.037ZM137.695 310.029H136.249V301.576H137.695V310.029ZM136.132 299.334C136.132 299.099 136.203 298.901 136.343 298.74C136.489 298.579 136.703 298.498 136.984 298.498C137.265 298.498 137.479 298.579 137.624 298.74C137.77 298.901 137.843 299.099 137.843 299.334C137.843 299.568 137.77 299.763 137.624 299.92C137.479 300.076 137.265 300.154 136.984 300.154C136.703 300.154 136.489 300.076 136.343 299.92C136.203 299.763 136.132 299.568 136.132 299.334ZM144.643 310.185C143.497 310.185 142.565 309.81 141.846 309.06C141.127 308.305 140.768 307.297 140.768 306.037V305.771C140.768 304.933 140.927 304.185 141.244 303.529C141.567 302.868 142.015 302.352 142.588 301.982C143.166 301.607 143.791 301.42 144.463 301.42C145.562 301.42 146.416 301.782 147.026 302.506C147.635 303.23 147.94 304.266 147.94 305.615V306.217H142.213C142.234 307.05 142.476 307.724 142.94 308.24C143.408 308.75 144.002 309.006 144.721 309.006C145.231 309.006 145.664 308.901 146.018 308.693C146.372 308.485 146.682 308.209 146.948 307.865L147.83 308.552C147.122 309.641 146.06 310.185 144.643 310.185ZM144.463 302.607C143.88 302.607 143.39 302.821 142.994 303.248C142.599 303.67 142.354 304.263 142.26 305.029H146.494V304.92C146.453 304.185 146.255 303.618 145.901 303.217C145.546 302.81 145.067 302.607 144.463 302.607ZM158.224 308.037L159.849 301.576H161.294L158.833 310.029H157.661L155.607 303.623L153.607 310.029H152.435L149.982 301.576H151.419L153.083 307.904L155.052 301.576H156.216L158.224 308.037ZM170.987 305.576V310.029H169.487V298.654H173.683C174.927 298.654 175.901 298.972 176.604 299.607C177.313 300.243 177.667 301.084 177.667 302.131C177.667 303.235 177.321 304.086 176.628 304.685C175.94 305.279 174.953 305.576 173.667 305.576H170.987ZM170.987 304.349H173.683C174.485 304.349 175.099 304.162 175.526 303.787C175.953 303.407 176.167 302.86 176.167 302.146C176.167 301.469 175.953 300.927 175.526 300.521C175.099 300.115 174.513 299.904 173.768 299.888H170.987V304.349ZM184.842 302.873C184.623 302.836 184.386 302.818 184.131 302.818C183.183 302.818 182.54 303.222 182.201 304.029V310.029H180.756V301.576H182.162L182.185 302.552C182.659 301.797 183.331 301.42 184.201 301.42C184.482 301.42 184.696 301.456 184.842 301.529V302.873ZM186.758 305.724C186.758 304.896 186.92 304.151 187.243 303.49C187.571 302.829 188.024 302.318 188.602 301.959C189.186 301.599 189.85 301.42 190.594 301.42C191.745 301.42 192.675 301.818 193.383 302.615C194.097 303.412 194.454 304.472 194.454 305.795V305.896C194.454 306.719 194.295 307.459 193.977 308.115C193.665 308.766 193.214 309.274 192.626 309.638C192.042 310.003 191.37 310.185 190.61 310.185C189.464 310.185 188.535 309.787 187.821 308.99C187.113 308.193 186.758 307.138 186.758 305.826V305.724ZM188.212 305.896C188.212 306.834 188.428 307.586 188.86 308.154C189.298 308.722 189.881 309.006 190.61 309.006C191.344 309.006 191.928 308.719 192.36 308.146C192.792 307.568 193.008 306.761 193.008 305.724C193.008 304.797 192.787 304.047 192.344 303.474C191.907 302.896 191.324 302.607 190.594 302.607C189.881 302.607 189.305 302.891 188.868 303.459C188.43 304.026 188.212 304.839 188.212 305.896ZM198.878 301.576V311.006C198.878 312.631 198.141 313.443 196.668 313.443C196.35 313.443 196.056 313.396 195.785 313.302V312.146C195.951 312.188 196.17 312.209 196.441 312.209C196.764 312.209 197.009 312.12 197.175 311.943C197.347 311.771 197.433 311.469 197.433 311.037V301.576H198.878ZM197.285 299.334C197.285 299.105 197.355 298.909 197.496 298.748C197.641 298.581 197.852 298.498 198.128 298.498C198.41 298.498 198.623 298.579 198.769 298.74C198.915 298.901 198.988 299.099 198.988 299.334C198.988 299.568 198.915 299.763 198.769 299.92C198.623 300.076 198.41 300.154 198.128 300.154C197.847 300.154 197.636 300.076 197.496 299.92C197.355 299.763 197.285 299.568 197.285 299.334ZM205.842 310.185C204.696 310.185 203.764 309.81 203.045 309.06C202.327 308.305 201.967 307.297 201.967 306.037V305.771C201.967 304.933 202.126 304.185 202.444 303.529C202.767 302.868 203.215 302.352 203.788 301.982C204.366 301.607 204.991 301.42 205.663 301.42C206.761 301.42 207.616 301.782 208.225 302.506C208.834 303.23 209.139 304.266 209.139 305.615V306.217H203.413C203.433 307.05 203.676 307.724 204.139 308.24C204.608 308.75 205.202 309.006 205.92 309.006C206.431 309.006 206.863 308.901 207.217 308.693C207.571 308.485 207.881 308.209 208.147 307.865L209.03 308.552C208.321 309.641 207.259 310.185 205.842 310.185ZM205.663 302.607C205.079 302.607 204.59 302.821 204.194 303.248C203.798 303.67 203.553 304.263 203.459 305.029H207.694V304.92C207.652 304.185 207.454 303.618 207.1 303.217C206.746 302.81 206.267 302.607 205.663 302.607ZM215.329 309.006C215.845 309.006 216.296 308.849 216.681 308.537C217.066 308.224 217.28 307.834 217.322 307.365H218.689C218.663 307.849 218.496 308.31 218.189 308.748C217.881 309.185 217.47 309.534 216.954 309.795C216.444 310.055 215.902 310.185 215.329 310.185C214.178 310.185 213.262 309.802 212.579 309.037C211.902 308.266 211.564 307.214 211.564 305.881V305.638C211.564 304.816 211.715 304.084 212.017 303.443C212.319 302.802 212.751 302.305 213.314 301.951C213.881 301.597 214.551 301.42 215.322 301.42C216.27 301.42 217.056 301.704 217.681 302.271C218.311 302.839 218.647 303.576 218.689 304.482H217.322C217.28 303.935 217.072 303.487 216.697 303.138C216.327 302.784 215.868 302.607 215.322 302.607C214.587 302.607 214.017 302.873 213.611 303.404C213.21 303.93 213.009 304.693 213.009 305.693V305.967C213.009 306.941 213.21 307.691 213.611 308.217C214.012 308.743 214.585 309.006 215.329 309.006ZM223.395 299.529V301.576H224.973V302.693H223.395V307.935C223.395 308.274 223.465 308.529 223.606 308.701C223.746 308.868 223.986 308.951 224.324 308.951C224.491 308.951 224.72 308.92 225.012 308.857V310.029C224.632 310.133 224.262 310.185 223.903 310.185C223.257 310.185 222.77 309.99 222.442 309.599C222.113 309.209 221.949 308.654 221.949 307.935V302.693H220.41V301.576H221.949V299.529H223.395Z" fill="#4F4F4F"/>
</svg>
