<svg width="79" height="40" viewBox="0 0 79 40" fill="none" xmlns="http://www.w3.org/2000/svg">
<path d="M1.26953 20V5.78125H5.64453C6.89453 5.78125 8.01107 6.06445 8.99414 6.63086C9.98372 7.19076 10.7552 7.99154 11.3086 9.0332C11.862 10.0684 12.1387 11.2467 12.1387 12.5684V13.2227C12.1387 14.5443 11.8652 15.7194 11.3184 16.748C10.778 17.7767 10.013 18.5742 9.02344 19.1406C8.03385 19.707 6.91732 19.9935 5.67383 20H1.26953ZM4.19922 8.1543V17.6465H5.61523C6.76107 17.6465 7.63672 17.2721 8.24219 16.5234C8.84766 15.7747 9.1569 14.7038 9.16992 13.3105V12.5586C9.16992 11.1133 8.87044 10.0195 8.27148 9.27734C7.67253 8.52865 6.79688 8.1543 5.64453 8.1543H4.19922ZM24.332 13.8379H18.707V17.6465H25.3086V20H15.7773V5.78125H25.2891V8.1543H18.707V11.543H24.332V13.8379ZM35.9004 16.2695C35.9004 15.7161 35.7051 15.293 35.3145 15C34.9238 14.7005 34.2207 14.388 33.2051 14.0625C32.1895 13.7305 31.3854 13.4049 30.793 13.0859C29.1784 12.2135 28.3711 11.0384 28.3711 9.56055C28.3711 8.79232 28.5859 8.10872 29.0156 7.50977C29.4518 6.9043 30.0736 6.43229 30.8809 6.09375C31.6947 5.75521 32.6061 5.58594 33.6152 5.58594C34.6309 5.58594 35.5358 5.77148 36.3301 6.14258C37.1243 6.50716 37.7396 7.02474 38.1758 7.69531C38.6185 8.36589 38.8398 9.1276 38.8398 9.98047H35.9102C35.9102 9.32943 35.7051 8.82487 35.2949 8.4668C34.8848 8.10221 34.3086 7.91992 33.5664 7.91992C32.8503 7.91992 32.2936 8.07292 31.8965 8.37891C31.4993 8.67839 31.3008 9.07552 31.3008 9.57031C31.3008 10.0326 31.5319 10.4199 31.9941 10.7324C32.4629 11.0449 33.1497 11.3379 34.0547 11.6113C35.7214 12.1126 36.9355 12.7344 37.6973 13.4766C38.459 14.2188 38.8398 15.1432 38.8398 16.25C38.8398 17.4805 38.3743 18.4473 37.4434 19.1504C36.5124 19.847 35.2591 20.1953 33.6836 20.1953C32.5898 20.1953 31.5938 19.9967 30.6953 19.5996C29.7969 19.196 29.11 18.6458 28.6348 17.9492C28.166 17.2526 27.9316 16.4453 27.9316 15.5273H30.8711C30.8711 17.0964 31.8086 17.8809 33.6836 17.8809C34.3802 17.8809 34.9238 17.7409 35.3145 17.4609C35.7051 17.1745 35.9004 16.7773 35.9004 16.2695ZM45.4473 20H42.5176V5.78125H45.4473V20ZM60.9219 18.2031C60.3945 18.8346 59.6491 19.3262 58.6855 19.6777C57.722 20.0228 56.6543 20.1953 55.4824 20.1953C54.252 20.1953 53.1712 19.9284 52.2402 19.3945C51.3158 18.8542 50.5996 18.0729 50.0918 17.0508C49.5905 16.0286 49.3333 14.8275 49.3203 13.4473V12.4805C49.3203 11.0612 49.5579 9.83398 50.0332 8.79883C50.515 7.75716 51.2051 6.96289 52.1035 6.41602C53.0085 5.86263 54.0664 5.58594 55.2773 5.58594C56.9635 5.58594 58.2819 5.98958 59.2324 6.79688C60.1829 7.59766 60.7461 8.76628 60.9219 10.3027H58.0703C57.9401 9.48893 57.6504 8.89323 57.2012 8.51562C56.7585 8.13802 56.1465 7.94922 55.3652 7.94922C54.3691 7.94922 53.6107 8.32357 53.0898 9.07227C52.569 9.82096 52.3053 10.9342 52.2988 12.4121V13.3203C52.2988 14.8112 52.582 15.9375 53.1484 16.6992C53.7148 17.4609 54.5449 17.8418 55.6387 17.8418C56.7389 17.8418 57.5234 17.6074 57.9922 17.1387V14.6875H55.3262V12.5293H60.9219V18.2031ZM76.3672 20H73.4375L67.7344 10.6445V20H64.8047V5.78125H67.7344L73.4473 15.1562V5.78125H76.3672V20Z" fill="#2D9CDB"/>
<rect x="1" y="34" width="76" height="6" fill="#2D9CDB"/>
</svg>
