<svg width="38" height="38" viewBox="0 0 38 38" fill="none" xmlns="http://www.w3.org/2000/svg">
<g filter="url(#filter0_d_109114_4400)">
<g clip-path="url(#clip0_109114_4400)">
<rect x="3" y="3" width="32" height="32" rx="16" fill="black" fill-opacity="0.01" shape-rendering="crispEdges"/>
<path d="M24.1382 14.8051C24.3985 14.5447 24.3985 14.1226 24.1382 13.8623C23.8778 13.6019 23.4557 13.6019 23.1953 13.8623L19.0001 18.0575L14.8048 13.8623C14.5445 13.6019 14.1224 13.6019 13.862 13.8623C13.6017 14.1226 13.6017 14.5447 13.862 14.8051L18.0573 19.0003L13.862 23.1956C13.6017 23.4559 13.6017 23.878 13.862 24.1384C14.1224 24.3987 14.5445 24.3987 14.8048 24.1384L19.0001 19.9431L23.1953 24.1384C23.4557 24.3987 23.8778 24.3987 24.1382 24.1384C24.3985 23.878 24.3985 23.4559 24.1382 23.1956L19.9429 19.0003L24.1382 14.8051Z" fill="#4D4D4C"/>
</g>
<rect x="2.5" y="2.5" width="33" height="33" rx="16.5" stroke="black" stroke-opacity="0.01" shape-rendering="crispEdges"/>
</g>
<defs>
<filter id="filter0_d_109114_4400" x="0" y="0" width="38" height="38" filterUnits="userSpaceOnUse" color-interpolation-filters="sRGB">
<feFlood flood-opacity="0" result="BackgroundImageFix"/>
<feColorMatrix in="SourceAlpha" type="matrix" values="0 0 0 0 0 0 0 0 0 0 0 0 0 0 0 0 0 0 127 0" result="hardAlpha"/>
<feMorphology radius="2" operator="dilate" in="SourceAlpha" result="effect1_dropShadow_109114_4400"/>
<feOffset/>
<feComposite in2="hardAlpha" operator="out"/>
<feColorMatrix type="matrix" values="0 0 0 0 0.643137 0 0 0 0 0.67451 0 0 0 0 0.992157 0 0 0 1 0"/>
<feBlend mode="normal" in2="BackgroundImageFix" result="effect1_dropShadow_109114_4400"/>
<feBlend mode="normal" in="SourceGraphic" in2="effect1_dropShadow_109114_4400" result="shape"/>
</filter>
<clipPath id="clip0_109114_4400">
<rect x="3" y="3" width="32" height="32" rx="16" fill="white"/>
</clipPath>
</defs>
</svg>
