<svg width="32" height="32" viewBox="0 0 32 32" fill="none" xmlns="http://www.w3.org/2000/svg">
<rect width="32" height="32" rx="16" fill="#F0F0F0"/>
<path d="M21.1382 11.8051C21.3985 11.5447 21.3985 11.1226 21.1382 10.8623C20.8778 10.6019 20.4557 10.6019 20.1953 10.8623L16.0001 15.0575L11.8048 10.8623C11.5445 10.6019 11.1224 10.6019 10.862 10.8623C10.6017 11.1226 10.6017 11.5447 10.862 11.8051L15.0573 16.0003L10.862 20.1956C10.6017 20.4559 10.6017 20.878 10.862 21.1384C11.1224 21.3987 11.5445 21.3987 11.8048 21.1384L16.0001 16.9431L20.1953 21.1384C20.4557 21.3987 20.8778 21.3987 21.1382 21.1384C21.3985 20.878 21.3985 20.4559 21.1382 20.1956L16.9429 16.0003L21.1382 11.8051Z" fill="#4D4D4C"/>
</svg>
