<svg width="667" height="319" viewBox="0 0 667 319" fill="none" xmlns="http://www.w3.org/2000/svg">
<rect x="0.510742" y="0.0341797" width="193.462" height="76.668" fill="#081133"/>
<path d="M91.041 75.9346L91.041 110.1L573.316 110.1L573.316 75.9346" stroke="#BB8AFF" stroke-opacity="0.6" stroke-width="2"/>
<path d="M327.271 154.742C326.887 155.409 325.924 155.409 325.539 154.742L319.416 144.136C319.031 143.469 319.512 142.636 320.282 142.636L332.529 142.636C333.299 142.636 333.78 143.469 333.395 144.136L327.271 154.742Z" fill="#D1AFFF"/>
<path d="M65.478 54.8682H72.138C78.258 54.8682 80.454 51.5202 80.454 45.3282V34.6002C80.454 28.6962 78.294 25.7082 71.814 25.7082H65.478V54.8682ZM69.546 51.9522V28.7322H71.742C75.918 28.7322 76.35 30.6042 76.35 35.1042V44.5722C76.35 49.2882 76.278 51.9522 71.85 51.9522H69.546ZM82.8783 54.8682H86.6943L88.0983 47.5242H94.0383L95.3703 54.8682H99.2223L92.9943 25.7082H89.0703L82.8783 54.8682ZM88.6383 44.6082L91.0503 31.4682L93.4983 44.6082H88.6383ZM104.225 54.8682H108.293V28.7322H113.081V25.7082H99.2929V28.7322H104.225V54.8682ZM114.238 54.8682H118.054L119.458 47.5242H125.398L126.73 54.8682H130.582L124.354 25.7082H120.43L114.238 54.8682ZM119.998 44.6082L122.41 31.4682L124.858 44.6082H119.998Z" fill="white"/>
<rect x="472.551" y="0.0341797" width="193.462" height="76.668" fill="#0A9E98"/>
<path d="M326.405 70.9424V188.026" stroke="#BB8AFF" stroke-opacity="0.6" stroke-width="2"/>
<path d="M513.911 54.8682H517.979V41.1882H521.147L524.963 54.8682H528.887L524.747 40.2522C527.339 39.3882 528.347 36.8682 528.347 33.4482C528.347 27.9042 525.611 25.7082 519.779 25.7082H513.911V54.8682ZM517.979 38.2722V28.6242H519.779C523.487 28.6242 524.423 30.0282 524.423 33.4482C524.423 37.1922 522.947 38.2722 519.527 38.2722H517.979ZM532.579 54.8682H543.955V51.9522H536.647V41.2602H542.515V38.3802H536.647V28.7322H543.883V25.7082H532.579V54.8682ZM554.115 55.1922C558.183 55.1922 561.099 52.5642 561.099 48.2442C561.099 44.6082 559.119 42.0162 556.923 40.0722L551.991 35.7522C550.623 34.5642 550.083 33.5562 550.083 31.7922C550.083 29.6682 551.271 28.5882 553.287 28.5882C556.311 28.5882 556.959 31.0362 557.175 33.9162L560.631 32.9802C560.163 27.8682 557.931 25.4562 553.287 25.4562C549.075 25.4562 546.447 27.9042 546.447 32.1882C546.447 35.1042 547.311 36.9402 549.255 38.6322L554.151 42.9522C555.987 44.5722 557.319 45.9402 557.319 48.5682C557.319 50.8002 556.203 51.9882 554.115 51.9882C550.983 51.9882 550.191 48.8562 549.975 45.7242L546.375 46.6962C546.663 51.7362 549.039 55.1922 554.115 55.1922ZM571.778 55.1922C578.114 55.1922 579.518 51.1602 579.518 45.0402V25.7082H575.666V45.2202C575.666 49.0002 575.198 51.9882 571.778 51.9882C568.358 51.9882 567.89 49.0002 567.89 45.2202V25.7082H564.002V45.0402C564.002 51.1602 565.406 55.1922 571.778 55.1922ZM583.801 54.8682H595.321V51.9522H587.869V25.7082H583.801V54.8682ZM600.505 54.8682H604.573V28.7322H609.361V25.7082H595.573V28.7322H600.505V54.8682ZM619.048 55.1922C623.116 55.1922 626.032 52.5642 626.032 48.2442C626.032 44.6082 624.052 42.0162 621.856 40.0722L616.924 35.7522C615.556 34.5642 615.016 33.5562 615.016 31.7922C615.016 29.6682 616.204 28.5882 618.22 28.5882C621.244 28.5882 621.892 31.0362 622.108 33.9162L625.564 32.9802C625.096 27.8682 622.864 25.4562 618.22 25.4562C614.008 25.4562 611.38 27.9042 611.38 32.1882C611.38 35.1042 612.244 36.9402 614.188 38.6322L619.084 42.9522C620.92 44.5722 622.252 45.9402 622.252 48.5682C622.252 50.8002 621.136 51.9882 619.048 51.9882C615.916 51.9882 615.124 48.8562 614.908 45.7242L611.308 46.6962C611.596 51.7362 613.972 55.1922 619.048 55.1922Z" fill="white"/>
<rect x="229.675" y="0.0341797" width="193.462" height="76.668" fill="#FFC8F6"/>
<path d="M300.192 55.1922C305.916 55.1922 307.536 51.5562 307.536 46.1922V44.0322H303.684V46.1922C303.684 49.6482 303.504 51.9882 300.228 51.9882C297.42 51.9882 296.448 50.5482 296.448 46.1562V34.6002C296.448 31.0002 296.772 28.6242 300.228 28.6242C303.612 28.6242 303.684 30.8562 303.684 34.0962V36.1482H307.536V33.8442C307.536 28.5882 305.628 25.4562 300.192 25.4562C294 25.4562 292.344 29.3082 292.344 35.2122V45.5082C292.344 50.9442 294 55.1922 300.192 55.1922ZM318.864 55.1922C324.732 55.1922 326.82 51.4842 326.82 45.7602V34.6722C326.82 28.9482 324.732 25.4562 318.864 25.4562C312.96 25.4562 310.872 28.9122 310.872 34.6722V45.7242C310.872 51.5202 312.924 55.1922 318.864 55.1922ZM318.864 51.9882C315.588 51.9882 314.976 49.8642 314.976 46.6242V33.8442C314.976 30.6042 315.588 28.6242 318.864 28.6242C322.104 28.6242 322.716 30.6042 322.716 33.8442V46.6242C322.716 49.8642 322.104 51.9882 318.864 51.9882ZM330.818 54.8682H337.478C343.598 54.8682 345.794 51.5202 345.794 45.3282V34.6002C345.794 28.6962 343.634 25.7082 337.154 25.7082H330.818V54.8682ZM334.886 51.9522V28.7322H337.082C341.258 28.7322 341.69 30.6042 341.69 35.1042V44.5722C341.69 49.2882 341.618 51.9522 337.19 51.9522H334.886ZM349.802 54.8682H361.178V51.9522H353.87V41.2602H359.738V38.3802H353.87V28.7322H361.106V25.7082H349.802V54.8682Z" fill="black"/>
<g filter="url(#filter0_d)">
<rect x="209.242" y="194.1" width="225.538" height="74.449" rx="6" fill="white"/>
<rect x="204.242" y="189.1" width="235.538" height="84.449" rx="11" stroke="#BB8AFF" stroke-opacity="0.6" stroke-width="10"/>
</g>
<path d="M270.071 245.324H273.461V223.544H277.451V221.024H265.961V223.544H270.071V245.324ZM279.793 245.324H283.183V233.924H285.823L289.003 245.324H292.273L288.823 233.144C290.983 232.424 291.823 230.324 291.823 227.474C291.823 222.854 289.543 221.024 284.683 221.024H279.793V245.324ZM283.183 231.494V223.454H284.683C287.773 223.454 288.553 224.624 288.553 227.474C288.553 230.594 287.323 231.494 284.473 231.494H283.183ZM294.03 245.324H297.21L298.38 239.204H303.33L304.44 245.324H307.65L302.46 221.024H299.19L294.03 245.324ZM298.83 236.774L300.84 225.824L302.88 236.774H298.83ZM316.088 245.594C320.858 245.594 322.208 242.564 322.208 238.094V236.294H318.998V238.094C318.998 240.974 318.848 242.924 316.118 242.924C313.778 242.924 312.968 241.724 312.968 238.064V228.434C312.968 225.434 313.238 223.454 316.118 223.454C318.938 223.454 318.998 225.314 318.998 228.014V229.724H322.208V227.804C322.208 223.424 320.618 220.814 316.088 220.814C310.928 220.814 309.548 224.024 309.548 228.944V237.524C309.548 242.054 310.928 245.594 316.088 245.594ZM325.438 245.324H328.828V236.744L330.388 233.924L335.038 245.324H338.338L332.758 231.734L337.558 221.024H334.408L328.828 232.484V221.024H325.438V245.324ZM340.471 245.324H343.801V221.024H340.471V245.324ZM347.733 245.324H350.613V228.734L357.603 245.324H359.763V221.024H356.943V237.164L350.043 221.024H347.733V245.324ZM369.372 245.624C371.772 245.624 373.032 244.334 373.692 242.534L374.022 245.324H376.152V233.294H370.002V235.694H373.092V237.374C373.092 241.034 372.432 242.924 369.792 242.924C367.122 242.924 366.522 241.214 366.522 237.704V228.704C366.522 225.704 366.702 223.454 369.702 223.454C372.432 223.454 372.792 224.894 372.792 228.044V228.794H375.972V227.894C375.972 223.094 374.202 220.814 369.642 220.814C364.512 220.814 363.132 223.904 363.132 229.214V237.344C363.132 242.594 364.812 245.624 369.372 245.624Z" fill="#9B6BDF"/>
<defs>
<filter id="filter0_d" x="169.242" y="164.1" width="305.538" height="154.449" filterUnits="userSpaceOnUse" color-interpolation-filters="sRGB">
<feFlood flood-opacity="0" result="BackgroundImageFix"/>
<feColorMatrix in="SourceAlpha" type="matrix" values="0 0 0 0 0 0 0 0 0 0 0 0 0 0 0 0 0 0 127 0"/>
<feOffset dy="10"/>
<feGaussianBlur stdDeviation="15"/>
<feColorMatrix type="matrix" values="0 0 0 0 0 0 0 0 0 0 0 0 0 0 0 0 0 0 0.25 0"/>
<feBlend mode="normal" in2="BackgroundImageFix" result="effect1_dropShadow"/>
<feBlend mode="normal" in="SourceGraphic" in2="effect1_dropShadow" result="shape"/>
</filter>
</defs>
</svg>
