<svg width="429" height="395" viewBox="0 0 429 395" fill="none" xmlns="http://www.w3.org/2000/svg">
<g clip-path="url(#clip0)">
<path d="M214.224 80.377V287.671" stroke="#BB8AFF" stroke-opacity="0.6" stroke-width="2"/>
<path d="M214.967 266.93C214.637 267.501 213.811 267.501 213.481 266.93L208.229 257.845C207.898 257.274 208.311 256.561 208.971 256.561H219.476C220.136 256.561 220.549 257.274 220.219 257.845L214.967 266.93Z" fill="#D1AFFF"/>
<path d="M214.966 144.53C214.636 145.101 213.811 145.101 213.481 144.53L208.228 135.445C207.899 134.874 208.311 134.16 208.971 134.16H219.476C220.137 134.16 220.549 134.874 220.219 135.445L214.966 144.53Z" fill="#D1AFFF"/>
<g filter="url(#filter0_d)">
<path d="M340.69 165.271H82.3348C79.4926 165.271 77.1885 167.572 77.1885 170.411V232.742C77.1885 235.58 79.4926 237.881 82.3348 237.881H340.69C343.532 237.881 345.836 235.58 345.836 232.742V170.411C345.836 167.572 343.532 165.271 340.69 165.271Z" fill="white"/>
<path d="M340.69 165.7H82.3346C79.7293 165.7 77.6172 167.809 77.6172 170.411V232.742C77.6172 235.344 79.7293 237.453 82.3346 237.453H340.69C343.295 237.453 345.407 235.344 345.407 232.742V170.411C345.407 167.809 343.295 165.7 340.69 165.7Z" stroke="#FFFAFA" stroke-opacity="0.1"/>
</g>
<path d="M115.894 215.709H121.606C126.855 215.709 128.739 212.841 128.739 207.537V198.349C128.739 193.292 126.886 190.732 121.328 190.732H115.894V215.709ZM119.383 213.211V193.323H121.266C124.848 193.323 125.219 194.926 125.219 198.78V206.89C125.219 210.929 125.157 213.211 121.359 213.211H119.383ZM138.569 215.986C143.602 215.986 145.393 212.81 145.393 207.907V198.41C145.393 193.508 143.602 190.517 138.569 190.517C133.505 190.517 131.714 193.477 131.714 198.41V207.877C131.714 212.841 133.474 215.986 138.569 215.986ZM138.569 213.242C135.759 213.242 135.234 211.423 135.234 208.647V197.701C135.234 194.926 135.759 193.23 138.569 193.23C141.348 193.23 141.873 194.926 141.873 197.701V208.647C141.873 211.423 141.348 213.242 138.569 213.242ZM155.09 215.986C160 215.986 161.389 212.872 161.389 208.277V206.427H158.085V208.277C158.085 211.238 157.931 213.242 155.121 213.242C152.713 213.242 151.879 212.008 151.879 208.247V198.349C151.879 195.265 152.157 193.23 155.121 193.23C158.024 193.23 158.085 195.142 158.085 197.917V199.675H161.389V197.701C161.389 193.199 159.753 190.517 155.09 190.517C149.779 190.517 148.359 193.816 148.359 198.873V207.692C148.359 212.348 149.779 215.986 155.09 215.986ZM171.166 215.986C176.601 215.986 177.805 212.533 177.805 207.291V190.732H174.501V207.445C174.501 210.683 174.1 213.242 171.166 213.242C168.233 213.242 167.832 210.683 167.832 207.445V190.732H164.497V207.291C164.497 212.533 165.701 215.986 171.166 215.986ZM181.417 215.709H184.258L184.536 197.578L188.735 215.709H190.711L194.941 197.578L195.219 215.709H198.029L197.566 190.732H194.17L189.723 210.991L185.308 190.732H181.88L181.417 215.709ZM201.863 215.709H211.621V213.211H205.352V204.053H210.385V201.586H205.352V193.323H211.559V190.732H201.863V215.709ZM214.437 215.709H217.402V198.657L224.596 215.709H226.819V190.732H223.917V207.322L216.815 190.732H214.437V215.709ZM233.498 215.709H236.988V193.323H241.094V190.732H229.268V193.323H233.498V215.709ZM242.087 215.709H245.36L246.564 209.418H251.659L252.801 215.709H256.105L250.763 190.732H247.398L242.087 215.709ZM247.027 206.921L249.096 195.666L251.196 206.921H247.027ZM260.396 215.709H263.885V193.323H267.992V190.732H256.166V193.323H260.396V215.709ZM270.589 215.709H274.016V190.732H270.589V215.709ZM284.454 215.986C289.487 215.986 291.278 212.81 291.278 207.907V198.41C291.278 193.508 289.487 190.517 284.454 190.517C279.39 190.517 277.599 193.477 277.599 198.41V207.877C277.599 212.841 279.36 215.986 284.454 215.986ZM284.454 213.242C281.644 213.242 281.12 211.423 281.12 208.647V197.701C281.12 194.926 281.644 193.23 284.454 193.23C287.233 193.23 287.758 194.926 287.758 197.701V208.647C287.758 211.423 287.233 213.242 284.454 213.242ZM294.707 215.709H297.672V198.657L304.866 215.709H307.089V190.732H304.187V207.322L297.085 190.732H294.707V215.709Z" fill="black"/>
<g filter="url(#filter1_d)">
<path d="M340.401 287.671H82.0457C79.2035 287.671 76.8994 289.972 76.8994 292.81V355.141C76.8994 357.98 79.2035 360.28 82.0457 360.28H340.401C343.243 360.28 345.547 357.98 345.547 355.141V292.81C345.547 289.972 343.243 287.671 340.401 287.671Z" fill="white"/>
<path d="M340.401 288.1H82.0456C79.4402 288.1 77.3281 290.209 77.3281 292.81V355.142C77.3281 357.743 79.4402 359.853 82.0456 359.853H340.401C343.006 359.853 345.118 357.743 345.118 355.142V292.81C345.118 290.209 343.006 288.1 340.401 288.1Z" stroke="#F6F6F6" stroke-opacity="0.1"/>
</g>
<path d="M112.242 338.108H117.955C123.204 338.108 125.087 335.24 125.087 329.937V320.748C125.087 315.691 123.235 313.132 117.677 313.132H112.242V338.108ZM115.731 335.61V315.722H117.615C121.197 315.722 121.567 317.325 121.567 321.18V329.289C121.567 333.329 121.506 335.61 117.708 335.61H115.731ZM128.71 338.108H132.138V313.132H128.71V338.108ZM142.082 338.386C145.571 338.386 148.072 336.135 148.072 332.434C148.072 329.32 146.374 327.1 144.491 325.435L140.26 321.735C139.087 320.717 138.624 319.854 138.624 318.343C138.624 316.524 139.643 315.599 141.372 315.599C143.966 315.599 144.521 317.695 144.707 320.162L147.671 319.36C147.27 314.982 145.355 312.916 141.372 312.916C137.759 312.916 135.505 315.013 135.505 318.682C135.505 321.18 136.246 322.752 137.914 324.202L142.113 327.902C143.688 329.289 144.83 330.461 144.83 332.712C144.83 334.624 143.873 335.641 142.082 335.641C139.396 335.641 138.716 332.959 138.531 330.276L135.443 331.109C135.69 335.425 137.728 338.386 142.082 338.386ZM157.048 338.386C161.957 338.386 163.347 335.271 163.347 330.677V328.827H160.043V330.677C160.043 333.637 159.888 335.641 157.078 335.641C154.67 335.641 153.836 334.408 153.836 330.646V320.748C153.836 317.665 154.114 315.629 157.078 315.629C159.981 315.629 160.043 317.541 160.043 320.316V322.074H163.347V320.101C163.347 315.599 161.71 312.916 157.048 312.916C151.737 312.916 150.316 316.215 150.316 321.272V330.091C150.316 334.747 151.737 338.386 157.048 338.386ZM173.062 338.386C178.095 338.386 179.886 335.21 179.886 330.307V320.81C179.886 315.907 178.095 312.916 173.062 312.916C167.998 312.916 166.207 315.876 166.207 320.81V330.276C166.207 335.24 167.967 338.386 173.062 338.386ZM173.062 335.641C170.252 335.641 169.727 333.822 169.727 331.047V320.101C169.727 317.325 170.252 315.629 173.062 315.629C175.841 315.629 176.366 317.325 176.366 320.101V331.047C176.366 333.822 175.841 335.641 173.062 335.641ZM187.669 338.108H190.726L196.253 313.132H193.072L189.305 331.54L185.353 313.132H182.08L187.669 338.108ZM198.905 338.108H208.662V335.61H202.394V326.452H207.427V323.986H202.394V315.722H208.601V313.132H198.905V338.108ZM211.479 338.108H214.968V326.391H217.685L220.958 338.108H224.324L220.773 325.589C222.996 324.849 223.861 322.691 223.861 319.761C223.861 315.013 221.514 313.132 216.512 313.132H211.479V338.108ZM214.968 323.893V315.629H216.512C219.692 315.629 220.495 316.832 220.495 319.761C220.495 322.968 219.229 323.893 216.296 323.893H214.968ZM226.132 338.108H229.405L230.61 331.818H235.704L236.847 338.108H240.151L234.809 313.132H231.443L226.132 338.108ZM231.073 329.32L233.141 318.065L235.241 329.32H231.073ZM242.689 338.108H249.358C253.836 338.108 255.781 335.302 255.781 330.985C255.781 327.439 254.515 325.373 251.52 324.664C253.959 324.325 255.102 322.475 255.102 319.391C255.102 315.105 252.94 313.132 248.432 313.132H242.689V338.108ZM246.178 323.554V315.722H247.012C250.563 315.722 252.076 315.969 252.076 319.391C252.076 322.351 251.18 323.554 248.247 323.554H246.178ZM246.178 335.61V326.206H248.247C251.304 326.206 252.446 327.871 252.446 330.985C252.446 334.223 251.643 335.61 248.525 335.61H246.178ZM259.067 338.108H262.494V313.132H259.067V338.108ZM266.541 338.108H276.422V335.61H270.03V313.132H266.541V338.108ZM278.998 338.108H282.426V313.132H278.998V338.108ZM289.221 338.108H292.71V315.722H296.817V313.132H284.99V315.722H289.221V338.108ZM303.056 338.108H306.391V329.289L311.764 313.132H308.491L304.724 325.188L300.895 313.132H297.653L303.056 329.289V338.108Z" fill="black"/>
<g filter="url(#filter2_d)">
<path d="M388.283 26.709H40.1648C37.3226 26.709 35.0186 29.0098 35.0186 31.8481V101.314C35.0186 104.153 37.3226 106.453 40.1648 106.453H388.283C391.125 106.453 393.43 104.153 393.43 101.314V31.8481C393.43 29.0098 391.125 26.709 388.283 26.709Z" fill="white"/>
<path d="M388.283 22.4268H40.1644C34.9536 22.4268 30.7295 26.645 30.7295 31.8485V101.315C30.7295 106.518 34.9536 110.737 40.1644 110.737H388.283C393.493 110.737 397.718 106.518 397.718 101.315V31.8485C397.718 26.645 393.493 22.4268 388.283 22.4268Z" stroke="#BB8AFF" stroke-opacity="0.6" stroke-width="10"/>
</g>
<path d="M161.021 80.7145H164.51V58.3284H168.617V55.7383H156.791V58.3284H161.021V80.7145ZM171.029 80.7145H174.518V68.9973H177.236L180.509 80.7145H183.874L180.323 68.1956C182.546 67.4555 183.411 65.2971 183.411 62.3678C183.411 57.6192 181.064 55.7383 176.062 55.7383H171.029V80.7145ZM174.518 66.4996V58.2359H176.062C179.243 58.2359 180.045 59.4385 180.045 62.3678C180.045 65.5746 178.779 66.4996 175.846 66.4996H174.518ZM185.682 80.7145H188.955L190.16 74.4242H195.254L196.397 80.7145H199.701L194.359 55.7383H190.993L185.682 80.7145ZM190.623 71.9266L192.692 60.6719L194.791 71.9266H190.623ZM208.386 80.992C213.296 80.992 214.685 77.8777 214.685 73.2833V71.4332H211.381V73.2833C211.381 76.2434 211.227 78.2477 208.417 78.2477C206.008 78.2477 205.175 77.0143 205.175 73.2525V63.3545C205.175 60.271 205.453 58.2359 208.417 58.2359C211.319 58.2359 211.381 60.1477 211.381 62.9228V64.6804H214.685V62.707C214.685 58.2051 213.049 55.5225 208.386 55.5225C203.075 55.5225 201.655 58.8218 201.655 63.8787V72.6974C201.655 77.3535 203.075 80.992 208.386 80.992ZM218.009 80.7145H221.498V71.8957L223.104 68.9973L227.89 80.7145H231.286L225.543 66.7463L230.483 55.7383H227.241L221.498 67.5172V55.7383H218.009V80.7145ZM233.482 80.7145H236.909V55.7383H233.482V80.7145ZM240.956 80.7145H243.92V63.6628L251.115 80.7145H253.338V55.7383H250.436V72.3274L243.334 55.7383H240.956V80.7145ZM263.228 81.0228C265.699 81.0228 266.995 79.6969 267.675 77.8468L268.014 80.7145H270.207V68.3497H263.877V70.8165H267.057V72.5433C267.057 76.3051 266.378 78.2477 263.661 78.2477C260.913 78.2477 260.295 76.4901 260.295 72.8824V63.632C260.295 60.5485 260.48 58.2359 263.568 58.2359C266.378 58.2359 266.748 59.716 266.748 62.9536V63.7245H270.021V62.7995C270.021 57.8659 268.2 55.5225 263.506 55.5225C258.226 55.5225 256.806 58.6984 256.806 64.1562V72.5124C256.806 77.9085 258.535 81.0228 263.228 81.0228Z" fill="#9B6BDF"/>
</g>
<defs>
<filter id="filter0_d" x="47.1172" y="145.2" width="328.79" height="132.753" filterUnits="userSpaceOnUse" color-interpolation-filters="sRGB">
<feFlood flood-opacity="0" result="BackgroundImageFix"/>
<feColorMatrix in="SourceAlpha" type="matrix" values="0 0 0 0 0 0 0 0 0 0 0 0 0 0 0 0 0 0 127 0"/>
<feOffset dy="10"/>
<feGaussianBlur stdDeviation="15"/>
<feColorMatrix type="matrix" values="0 0 0 0 0 0 0 0 0 0 0 0 0 0 0 0 0 0 0.25 0"/>
<feBlend mode="normal" in2="BackgroundImageFix" result="effect1_dropShadow"/>
<feBlend mode="normal" in="SourceGraphic" in2="effect1_dropShadow" result="shape"/>
</filter>
<filter id="filter1_d" x="46.8281" y="267.6" width="328.79" height="132.753" filterUnits="userSpaceOnUse" color-interpolation-filters="sRGB">
<feFlood flood-opacity="0" result="BackgroundImageFix"/>
<feColorMatrix in="SourceAlpha" type="matrix" values="0 0 0 0 0 0 0 0 0 0 0 0 0 0 0 0 0 0 127 0"/>
<feOffset dy="10"/>
<feGaussianBlur stdDeviation="15"/>
<feColorMatrix type="matrix" values="0 0 0 0 0 0 0 0 0 0 0 0 0 0 0 0 0 0 0.25 0"/>
<feBlend mode="normal" in2="BackgroundImageFix" result="effect1_dropShadow"/>
<feBlend mode="normal" in="SourceGraphic" in2="effect1_dropShadow" result="shape"/>
</filter>
<filter id="filter2_d" x="-4.27051" y="-2.57324" width="436.988" height="158.31" filterUnits="userSpaceOnUse" color-interpolation-filters="sRGB">
<feFlood flood-opacity="0" result="BackgroundImageFix"/>
<feColorMatrix in="SourceAlpha" type="matrix" values="0 0 0 0 0 0 0 0 0 0 0 0 0 0 0 0 0 0 127 0"/>
<feOffset dy="10"/>
<feGaussianBlur stdDeviation="15"/>
<feColorMatrix type="matrix" values="0 0 0 0 0 0 0 0 0 0 0 0 0 0 0 0 0 0 0.25 0"/>
<feBlend mode="normal" in2="BackgroundImageFix" result="effect1_dropShadow"/>
<feBlend mode="normal" in="SourceGraphic" in2="effect1_dropShadow" result="shape"/>
</filter>
<clipPath id="clip0">
<rect x="0.241211" y="0.573242" width="428" height="394" fill="white"/>
</clipPath>
</defs>
</svg>
