<svg width="217" height="71" viewBox="0 0 217 71" fill="none" xmlns="http://www.w3.org/2000/svg">
<g filter="url(#filter0_d)">
<rect x="4" width="209" height="63" fill="white"/>
</g>
<path d="M45.8672 32.1562L44.0391 34.125V39H40.5234V21.9375H44.0391V29.6719L45.5859 27.5508L49.9336 21.9375H54.2578L48.1992 29.5195L54.4336 39H50.25L45.8672 32.1562ZM62.1464 39.2344C60.287 39.2344 58.7714 38.6641 57.5995 37.5234C56.4355 36.3828 55.8534 34.8633 55.8534 32.9648V32.6367C55.8534 31.3633 56.0995 30.2266 56.5917 29.2266C57.0839 28.2188 57.7792 27.4453 58.6777 26.9062C59.5839 26.3594 60.6152 26.0859 61.7714 26.0859C63.5058 26.0859 64.8691 26.6328 65.8612 27.7266C66.8612 28.8203 67.3612 30.3711 67.3612 32.3789V33.7617H59.287C59.3964 34.5898 59.7245 35.2539 60.2714 35.7539C60.8261 36.2539 61.5253 36.5039 62.3691 36.5039C63.6737 36.5039 64.6933 36.0312 65.4277 35.0859L67.0917 36.9492C66.5839 37.668 65.8964 38.2305 65.0292 38.6367C64.162 39.0352 63.2011 39.2344 62.1464 39.2344ZM61.7597 28.8281C61.0878 28.8281 60.5409 29.0547 60.1191 29.5078C59.705 29.9609 59.4394 30.6094 59.3222 31.4531H64.0331V31.1836C64.0175 30.4336 63.8144 29.8555 63.4237 29.4492C63.0331 29.0352 62.4784 28.8281 61.7597 28.8281ZM74.9452 34.207L77.2889 26.3203H80.9217L75.8241 40.9688L75.5428 41.6367C74.785 43.293 73.535 44.1211 71.7928 44.1211C71.3006 44.1211 70.8006 44.0469 70.2928 43.8984V41.332L70.8084 41.3438C71.4491 41.3438 71.9256 41.2461 72.2381 41.0508C72.5584 40.8555 72.8084 40.5312 72.9881 40.0781L73.3866 39.0352L68.9452 26.3203H72.5897L74.9452 34.207ZM94.3552 39H90.8395V21.9375H94.3552V39ZM101.599 26.3203L101.705 27.7852C102.611 26.6523 103.826 26.0859 105.349 26.0859C106.693 26.0859 107.693 26.4805 108.349 27.2695C109.005 28.0586 109.341 29.2383 109.357 30.8086V39H105.97V30.8906C105.97 30.1719 105.814 29.6523 105.502 29.332C105.189 29.0039 104.67 28.8398 103.943 28.8398C102.99 28.8398 102.275 29.2461 101.798 30.0586V39H98.4117V26.3203H101.599ZM119.882 35.4961C119.882 35.082 119.675 34.7578 119.261 34.5234C118.855 34.2812 118.199 34.0664 117.293 33.8789C114.277 33.2461 112.769 31.9648 112.769 30.0352C112.769 28.9102 113.234 27.9727 114.164 27.2227C115.101 26.4648 116.324 26.0859 117.832 26.0859C119.441 26.0859 120.726 26.4648 121.687 27.2227C122.656 27.9805 123.14 28.9648 123.14 30.1758H119.753C119.753 29.6914 119.597 29.293 119.285 28.9805C118.972 28.6602 118.484 28.5 117.82 28.5C117.25 28.5 116.808 28.6289 116.496 28.8867C116.183 29.1445 116.027 29.4727 116.027 29.8711C116.027 30.2461 116.203 30.5508 116.554 30.7852C116.914 31.0117 117.515 31.2109 118.359 31.3828C119.203 31.5469 119.914 31.7344 120.492 31.9453C122.281 32.6016 123.175 33.7383 123.175 35.3555C123.175 36.5117 122.679 37.4492 121.687 38.168C120.695 38.8789 119.414 39.2344 117.843 39.2344C116.781 39.2344 115.835 39.0469 115.007 38.6719C114.187 38.2891 113.543 37.7695 113.074 37.1133C112.605 36.4492 112.371 35.7344 112.371 34.9688H115.582C115.613 35.5703 115.835 36.0312 116.25 36.3516C116.664 36.6719 117.218 36.832 117.914 36.832C118.562 36.832 119.05 36.7109 119.378 36.4688C119.714 36.2188 119.882 35.8945 119.882 35.4961ZM130.021 39H126.622V26.3203H130.021V39ZM126.423 23.0391C126.423 22.5312 126.591 22.1133 126.927 21.7852C127.271 21.457 127.736 21.293 128.322 21.293C128.9 21.293 129.361 21.457 129.705 21.7852C130.048 22.1133 130.22 22.5312 130.22 23.0391C130.22 23.5547 130.044 23.9766 129.693 24.3047C129.349 24.6328 128.892 24.7969 128.322 24.7969C127.751 24.7969 127.29 24.6328 126.939 24.3047C126.595 23.9766 126.423 23.5547 126.423 23.0391ZM133.41 32.5664C133.41 30.6211 133.87 29.0547 134.792 27.8672C135.722 26.6797 136.972 26.0859 138.542 26.0859C139.933 26.0859 141.015 26.5625 141.788 27.5156L141.929 26.3203H144.999V38.5781C144.999 39.6875 144.745 40.6523 144.238 41.4727C143.738 42.293 143.031 42.918 142.117 43.3477C141.202 43.7773 140.132 43.9922 138.906 43.9922C137.976 43.9922 137.07 43.8047 136.187 43.4297C135.304 43.0625 134.636 42.5859 134.183 42L135.683 39.9375C136.527 40.8828 137.55 41.3555 138.753 41.3555C139.652 41.3555 140.351 41.1133 140.851 40.6289C141.351 40.1523 141.601 39.4727 141.601 38.5898V37.9102C140.82 38.793 139.792 39.2344 138.519 39.2344C136.995 39.2344 135.761 38.6406 134.816 37.4531C133.878 36.2578 133.41 34.6758 133.41 32.707V32.5664ZM136.796 32.8125C136.796 33.9609 137.027 34.8633 137.488 35.5195C137.949 36.168 138.581 36.4922 139.386 36.4922C140.417 36.4922 141.156 36.1055 141.601 35.332V30C141.148 29.2266 140.417 28.8398 139.41 28.8398C138.597 28.8398 137.956 29.1719 137.488 29.8359C137.027 30.5 136.796 31.4922 136.796 32.8125ZM151.997 27.7031C152.896 26.625 154.025 26.0859 155.384 26.0859C158.134 26.0859 159.529 27.6836 159.568 30.8789V39H156.181V30.9727C156.181 30.2461 156.025 29.7109 155.712 29.3672C155.4 29.0156 154.88 28.8398 154.154 28.8398C153.161 28.8398 152.443 29.2227 151.997 29.9883V39H148.611V21H151.997V27.7031ZM167.257 23.2031V26.3203H169.425V28.8047H167.257V35.1328C167.257 35.6016 167.347 35.9375 167.527 36.1406C167.706 36.3438 168.05 36.4453 168.558 36.4453C168.933 36.4453 169.265 36.418 169.554 36.3633V38.9297C168.89 39.1328 168.206 39.2344 167.503 39.2344C165.128 39.2344 163.917 38.0352 163.87 35.6367V28.8047H162.019V26.3203H163.87V23.2031H167.257ZM179.259 35.4961C179.259 35.082 179.052 34.7578 178.638 34.5234C178.232 34.2812 177.575 34.0664 176.669 33.8789C173.653 33.2461 172.146 31.9648 172.146 30.0352C172.146 28.9102 172.61 27.9727 173.54 27.2227C174.478 26.4648 175.7 26.0859 177.208 26.0859C178.818 26.0859 180.103 26.4648 181.064 27.2227C182.032 27.9805 182.517 28.9648 182.517 30.1758H179.13C179.13 29.6914 178.974 29.293 178.661 28.9805C178.349 28.6602 177.86 28.5 177.196 28.5C176.626 28.5 176.185 28.6289 175.872 28.8867C175.56 29.1445 175.403 29.4727 175.403 29.8711C175.403 30.2461 175.579 30.5508 175.931 30.7852C176.29 31.0117 176.892 31.2109 177.735 31.3828C178.579 31.5469 179.29 31.7344 179.868 31.9453C181.657 32.6016 182.552 33.7383 182.552 35.3555C182.552 36.5117 182.056 37.4492 181.064 38.168C180.071 38.8789 178.79 39.2344 177.22 39.2344C176.157 39.2344 175.212 39.0469 174.384 38.6719C173.564 38.2891 172.919 37.7695 172.45 37.1133C171.982 36.4492 171.747 35.7344 171.747 34.9688H174.958C174.989 35.5703 175.212 36.0312 175.626 36.3516C176.04 36.6719 176.595 36.832 177.29 36.832C177.939 36.832 178.427 36.7109 178.755 36.4688C179.091 36.2188 179.259 35.8945 179.259 35.4961ZM185.987 37.3359C185.987 36.7969 186.167 36.3594 186.526 36.0234C186.894 35.6875 187.351 35.5195 187.898 35.5195C188.452 35.5195 188.909 35.6875 189.269 36.0234C189.636 36.3594 189.819 36.7969 189.819 37.3359C189.819 37.8672 189.64 38.3008 189.28 38.6367C188.921 38.9648 188.46 39.1289 187.898 39.1289C187.343 39.1289 186.886 38.9648 186.526 38.6367C186.167 38.3008 185.987 37.8672 185.987 37.3359ZM185.987 27.7383C185.987 27.1992 186.167 26.7617 186.526 26.4258C186.894 26.0898 187.351 25.9219 187.898 25.9219C188.452 25.9219 188.909 26.0898 189.269 26.4258C189.636 26.7617 189.819 27.1992 189.819 27.7383C189.819 28.2695 189.64 28.7031 189.28 29.0391C188.921 29.3672 188.46 29.5312 187.898 29.5312C187.343 29.5312 186.886 29.3672 186.526 29.0391C186.167 28.7031 185.987 28.2695 185.987 27.7383Z" fill="#A090CB"/>
<rect x="4" width="10" height="63" fill="#E9E2FD"/>
<defs>
<filter id="filter0_d" x="0" y="0" width="217" height="71" filterUnits="userSpaceOnUse" color-interpolation-filters="sRGB">
<feFlood flood-opacity="0" result="BackgroundImageFix"/>
<feColorMatrix in="SourceAlpha" type="matrix" values="0 0 0 0 0 0 0 0 0 0 0 0 0 0 0 0 0 0 127 0"/>
<feOffset dy="4"/>
<feGaussianBlur stdDeviation="2"/>
<feColorMatrix type="matrix" values="0 0 0 0 0 0 0 0 0 0 0 0 0 0 0 0 0 0 0.25 0"/>
<feBlend mode="normal" in2="BackgroundImageFix" result="effect1_dropShadow"/>
<feBlend mode="normal" in="SourceGraphic" in2="effect1_dropShadow" result="shape"/>
</filter>
</defs>
</svg>
