<svg width="21" height="22" viewBox="0 0 21 22" fill="none" xmlns="http://www.w3.org/2000/svg">
<path d="M20.9174 10.9198V17.6328C20.9174 18.6219 20.5244 19.5706 19.825 20.27C19.1256 20.9694 18.177 21.3623 17.1879 21.3623H3.76171C2.77259 21.3623 1.82398 20.9694 1.12457 20.27C0.425154 19.5706 0.0322266 18.6219 0.0322266 17.6328V4.20667C0.0322266 3.21755 0.425154 2.26894 1.12457 1.56953C1.82398 0.870112 2.77259 0.477185 3.76171 0.477185H10.4748C10.6726 0.477185 10.8623 0.555771 11.0022 0.695654C11.1421 0.835537 11.2207 1.02526 11.2207 1.22308C11.2207 1.42091 11.1421 1.61063 11.0022 1.75051C10.8623 1.89039 10.6726 1.96898 10.4748 1.96898H3.76171C3.16824 1.96898 2.59908 2.20474 2.17943 2.62439C1.75978 3.04403 1.52402 3.6132 1.52402 4.20667V17.6328C1.52402 18.2263 1.75978 18.7955 2.17943 19.2151C2.59908 19.6348 3.16824 19.8705 3.76171 19.8705H17.1879C17.7813 19.8705 18.3505 19.6348 18.7702 19.2151C19.1898 18.7955 19.4256 18.2263 19.4256 17.6328V10.9198C19.4256 10.7219 19.5041 10.5322 19.644 10.3923C19.7839 10.2524 19.9736 10.1739 20.1715 10.1739C20.3693 10.1739 20.559 10.2524 20.6989 10.3923C20.8388 10.5322 20.9174 10.7219 20.9174 10.9198ZM14.9502 1.96898H18.3738L9.9452 10.3902C9.87529 10.4595 9.8198 10.542 9.78193 10.6329C9.74407 10.7238 9.72457 10.8213 9.72457 10.9198C9.72457 11.0182 9.74407 11.1157 9.78193 11.2066C9.8198 11.2975 9.87529 11.38 9.9452 11.4493C10.0145 11.5192 10.097 11.5747 10.1879 11.6126C10.2788 11.6505 10.3763 11.67 10.4748 11.67C10.5733 11.67 10.6708 11.6505 10.7616 11.6126C10.8525 11.5747 10.935 11.5192 11.0044 11.4493L19.4256 3.02815V6.44437C19.4256 6.64219 19.5041 6.83191 19.644 6.97179C19.7839 7.11168 19.9736 7.19026 20.1715 7.19026C20.3693 7.19026 20.559 7.11168 20.6989 6.97179C20.8388 6.83191 20.9174 6.64219 20.9174 6.44437V1.22308C20.9179 1.12492 20.8991 1.02761 20.862 0.936728C20.8249 0.84585 20.7702 0.763192 20.701 0.693496C20.6313 0.624365 20.5487 0.569672 20.4578 0.532552C20.3669 0.495433 20.2696 0.476618 20.1715 0.477185H14.9502C14.7524 0.477185 14.5626 0.555771 14.4227 0.695654C14.2829 0.835537 14.2043 1.02526 14.2043 1.22308C14.2043 1.42091 14.2829 1.61063 14.4227 1.75051C14.5626 1.89039 14.7524 1.96898 14.9502 1.96898Z" fill="black"/>
</svg>
