<svg width="299" height="83" viewBox="0 0 299 83" fill="none" xmlns="http://www.w3.org/2000/svg">
<path d="M24.25 10.9375L25.1484 6.72656H23.8984L23 10.9375H24.25ZM27.1953 10.9375L28.0938 6.72656H26.8438L25.9453 10.9375H27.1953ZM29.9688 18L32.3672 6.72656H30.9297L28.5312 18H29.9688ZM33.2266 18H34.6016L36.1172 10.7031H38.0469L38.2812 9.57812H36.3516L36.5 8.79688C36.6797 7.85156 37.1562 7.44531 37.9297 7.44531C38.2969 7.44531 38.5703 7.48438 38.7422 7.52344L38.9766 6.41406C38.7109 6.35938 38.4609 6.3125 38.0625 6.3125C36.3594 6.3125 35.4609 7.03125 35.1328 8.75781L34.9766 9.57812H33.5781L33.3438 10.7031H34.7422L33.2266 18ZM44.5781 18L46.9766 6.72656H45.5391L43.1406 18H44.5781ZM64.1719 9.57812H62.8203L59.7266 16.3125H59.6016L59.1562 9.57812H57.7891L54.5781 16.2422H54.4531L54.0703 9.57812H52.8438L53.4062 18H54.7656L57.9766 11.5391H58.1016L58.6484 18H60.0156L64.1719 9.57812ZM66.9766 16.9844C66.0234 16.9844 65.3594 16.4375 65.3594 15.6719C65.3594 14.7891 66.1562 14.2188 67.5312 14.1484L69.7734 14.0391L69.5625 15.0078C69.3125 16.1484 68.2422 16.9844 66.9766 16.9844ZM66.5547 18.1484C67.5781 18.1484 68.5156 17.6719 69.1016 16.8984H69.2266L68.9922 18H70.2969L71.4688 12.4766C71.5156 12.2422 71.5391 12.0156 71.5391 11.7891C71.5391 10.3594 70.3281 9.42969 68.4766 9.42969C66.7656 9.42969 65.4531 10.2969 65.0781 11.6875H66.5C66.7656 11.0078 67.4219 10.6328 68.3672 10.6328C69.5 10.6328 70.1719 11.1328 70.1719 11.9844C70.1719 12.1094 70.1562 12.2109 70.125 12.3828L70 12.9531L67.6094 13.0625C65.2734 13.1641 63.9766 14.1641 63.9766 15.8203C63.9766 17.1328 65.0859 18.1484 66.5547 18.1484ZM72.8047 18H74.1797L76.6797 6.23438H75.3047L72.8047 18ZM78.1953 18L78.8984 14.7031L79.9141 13.9688L82.2656 18H83.8359L81 13.2109L85.4141 9.57812H83.6406L79.375 13.0312H79.25L80.6953 6.23438H79.3359L76.8359 18H78.1953ZM86.8906 13.0156C87.2812 11.5781 88.2578 10.6172 89.5547 10.6172C90.8203 10.6172 91.4766 11.5547 91.4766 12.6641C91.4766 12.7969 91.4688 12.9688 91.4609 13.0156H86.8906ZM88.7188 18.1484C90.6797 18.1484 92.0078 17.1484 92.3516 15.8516H90.9219C90.5703 16.5 89.9141 16.9219 88.8047 16.9219C87.7891 16.9219 86.6953 16.2578 86.6953 14.5234C86.6953 14.3828 86.7031 14.2422 86.7109 14.1016H92.7812C92.8359 13.7812 92.8828 13.1641 92.8828 12.8359C92.875 10.6484 91.4141 9.42969 89.6797 9.42969C87.1094 9.42969 85.2969 11.5156 85.2969 14.625C85.2969 16.8984 86.8359 18.1484 88.7188 18.1484ZM97.5156 18.1484C98.5859 18.1484 99.5625 17.6484 100.172 16.8516H100.297L100.055 18H101.352L103.852 6.23438H102.484L101.445 11.1328H101.32C101.023 10.125 100.016 9.42969 98.7969 9.42969C96.3672 9.42969 94.4531 11.6875 94.4531 14.7344C94.4531 16.8203 95.8359 18.1484 97.5156 18.1484ZM97.9453 16.9375C96.7031 16.9375 95.8594 15.9531 95.8594 14.5312C95.8594 12.2656 97.1797 10.6406 98.8984 10.6406C100.203 10.6406 101.016 11.5391 101.016 12.9688C101.016 15.1953 99.6875 16.9375 97.9453 16.9375ZM117.086 9.57812H115.727L114.648 14.6406C114.367 15.9766 113.398 16.9375 112.047 16.9375C110.945 16.9375 110.414 16.4375 110.414 15.3594C110.414 15.1641 110.461 14.7188 110.523 14.4141L111.547 9.57812H110.18L109.125 14.6094C109.055 14.9531 109.008 15.4531 109.008 15.7031C109.008 17.0938 109.992 18.1484 111.523 18.1484C112.789 18.1484 113.664 17.5859 114.133 16.8594H114.258L114 18H115.297L117.086 9.57812ZM122.07 16.9375C120.766 16.9375 119.953 16.0391 119.953 14.6094C119.953 12.3828 121.312 10.6406 123.055 10.6406C124.328 10.6406 125.078 11.4688 125.078 12.8906C125.078 15.2031 123.789 16.9375 122.07 16.9375ZM118.578 20.8125L119.523 16.4453H119.648C119.945 17.4531 120.953 18.1484 122.172 18.1484C124.602 18.1484 126.484 15.7656 126.484 12.6875C126.484 10.8047 125.18 9.42969 123.484 9.42969C122.414 9.42969 121.406 9.92969 120.797 10.7266H120.672L120.914 9.57812H119.617L117.227 20.8125H118.578ZM135.102 18.0625C135.398 18.0625 135.703 18.0469 135.938 17.9922L136.18 16.8516C136 16.875 135.836 16.8828 135.594 16.8828C134.922 16.8828 134.531 16.6172 134.531 15.9766C134.531 15.7656 134.562 15.5156 134.625 15.2188L135.586 10.7031H137.484L137.734 9.57812H135.82L136.281 7.39844H134.914L134.469 9.57812H133.047L132.812 10.7031H134.227L133.172 15.6328C133.117 15.8984 133.086 16.1406 133.086 16.3594C133.086 17.5 133.93 18.0625 135.102 18.0625ZM141.883 16.9375C140.57 16.9375 139.695 15.9609 139.695 14.5C139.695 12.1953 140.875 10.6406 142.609 10.6406C143.93 10.6406 144.727 11.6172 144.727 13.2188C144.727 15.2656 143.453 16.9375 141.883 16.9375ZM142.734 9.42969C140.117 9.42969 138.266 11.6016 138.266 14.6641C138.266 16.7266 139.672 18.1484 141.711 18.1484C144.281 18.1484 146.164 15.9297 146.164 12.8984C146.164 10.8359 144.773 9.42969 142.734 9.42969ZM154.82 18.0625C155.117 18.0625 155.422 18.0469 155.656 17.9922L155.898 16.8516C155.719 16.875 155.555 16.8828 155.312 16.8828C154.641 16.8828 154.25 16.6172 154.25 15.9766C154.25 15.7656 154.281 15.5156 154.344 15.2188L155.305 10.7031H157.203L157.453 9.57812H155.539L156 7.39844H154.633L154.188 9.57812H152.766L152.531 10.7031H153.945L152.891 15.6328C152.836 15.8984 152.805 16.1406 152.805 16.3594C152.805 17.5 153.648 18.0625 154.82 18.0625ZM157.711 18H159.078L160.172 12.8594C160.445 11.5859 161.352 10.6406 162.68 10.6406C163.836 10.6406 164.453 11.3281 164.453 12.3438C164.453 12.5859 164.414 12.8594 164.352 13.1641L163.32 18H164.688L165.766 12.9297C165.836 12.5859 165.875 12.2578 165.875 11.9609C165.875 10.625 164.898 9.42969 163.25 9.42969C161.961 9.42969 161.25 10.0859 160.727 10.8359H160.602L161.594 6.23438H160.227L157.711 18ZM167.227 18H168.57L170.359 9.57812H169.016L167.227 18ZM170.203 7.95312C170.719 7.95312 171.141 7.53125 171.141 7.01562C171.141 6.5 170.719 6.07812 170.203 6.07812C169.688 6.07812 169.266 6.5 169.266 7.01562C169.266 7.53125 169.688 7.95312 170.203 7.95312ZM172.156 11.9453C172.156 13.0625 172.805 13.7266 174.109 14.1484L175.398 14.5625C176.18 14.8125 176.453 15.2109 176.453 15.7031C176.453 16.4688 175.648 17.0156 174.508 17.0156C173.453 17.0156 172.742 16.4844 172.531 15.7422H171.148C171.273 17.1719 172.594 18.1484 174.445 18.1484C176.398 18.1484 177.836 17.0781 177.836 15.6016C177.836 14.4688 177.242 13.7812 175.828 13.3281L174.688 12.9609C173.922 12.7109 173.508 12.3359 173.508 11.8203C173.508 11.0938 174.258 10.5703 175.289 10.5703C176.273 10.5703 176.969 11.0078 177.141 11.7344H178.477C178.25 10.3516 177.102 9.42969 175.312 9.42969C173.508 9.42969 172.156 10.4453 172.156 11.9453ZM186.945 16.9844C185.992 16.9844 185.328 16.4375 185.328 15.6719C185.328 14.7891 186.125 14.2188 187.5 14.1484L189.742 14.0391L189.531 15.0078C189.281 16.1484 188.211 16.9844 186.945 16.9844ZM186.523 18.1484C187.547 18.1484 188.484 17.6719 189.07 16.8984H189.195L188.961 18H190.266L191.438 12.4766C191.484 12.2422 191.508 12.0156 191.508 11.7891C191.508 10.3594 190.297 9.42969 188.445 9.42969C186.734 9.42969 185.422 10.2969 185.047 11.6875H186.469C186.734 11.0078 187.391 10.6328 188.336 10.6328C189.469 10.6328 190.141 11.1328 190.141 11.9844C190.141 12.1094 190.125 12.2109 190.094 12.3828L189.969 12.9531L187.578 13.0625C185.242 13.1641 183.945 14.1641 183.945 15.8203C183.945 17.1328 185.055 18.1484 186.523 18.1484ZM192.695 18H194.062L195.156 12.8594C195.43 11.5859 196.336 10.6406 197.633 10.6406C198.758 10.6406 199.375 11.3281 199.375 12.3438C199.375 12.5859 199.336 12.8594 199.273 13.1641L198.242 18H199.609L200.688 12.9297C200.758 12.5859 200.797 12.2578 200.797 11.9609C200.797 10.625 199.82 9.42969 198.203 9.42969C196.945 9.42969 196.172 10.0859 195.648 10.8359H195.523L195.789 9.57812H194.484L192.695 18ZM205.531 18.1484C206.602 18.1484 207.578 17.6484 208.188 16.8516H208.312L208.07 18H209.367L211.867 6.23438H210.5L209.461 11.1328H209.336C209.039 10.125 208.031 9.42969 206.812 9.42969C204.383 9.42969 202.469 11.6875 202.469 14.7344C202.469 16.8203 203.852 18.1484 205.531 18.1484ZM205.961 16.9375C204.719 16.9375 203.875 15.9531 203.875 14.5312C203.875 12.2656 205.195 10.6406 206.914 10.6406C208.219 10.6406 209.031 11.5391 209.031 12.9688C209.031 15.1953 207.703 16.9375 205.961 16.9375ZM217.453 11.9453C217.453 13.0625 218.102 13.7266 219.406 14.1484L220.695 14.5625C221.477 14.8125 221.75 15.2109 221.75 15.7031C221.75 16.4688 220.945 17.0156 219.805 17.0156C218.75 17.0156 218.039 16.4844 217.828 15.7422H216.445C216.57 17.1719 217.891 18.1484 219.742 18.1484C221.695 18.1484 223.133 17.0781 223.133 15.6016C223.133 14.4688 222.539 13.7812 221.125 13.3281L219.984 12.9609C219.219 12.7109 218.805 12.3359 218.805 11.8203C218.805 11.0938 219.555 10.5703 220.586 10.5703C221.57 10.5703 222.266 11.0078 222.438 11.7344H223.773C223.547 10.3516 222.398 9.42969 220.609 9.42969C218.805 9.42969 217.453 10.4453 217.453 11.9453ZM227.602 18.0625C227.898 18.0625 228.203 18.0469 228.438 17.9922L228.68 16.8516C228.5 16.875 228.336 16.8828 228.094 16.8828C227.422 16.8828 227.031 16.6172 227.031 15.9766C227.031 15.7656 227.062 15.5156 227.125 15.2188L228.086 10.7031H229.984L230.234 9.57812H228.32L228.781 7.39844H227.414L226.969 9.57812H225.547L225.312 10.7031H226.727L225.672 15.6328C225.617 15.8984 225.586 16.1406 225.586 16.3594C225.586 17.5 226.43 18.0625 227.602 18.0625ZM232.375 13.0156C232.766 11.5781 233.742 10.6172 235.039 10.6172C236.305 10.6172 236.961 11.5547 236.961 12.6641C236.961 12.7969 236.953 12.9688 236.945 13.0156H232.375ZM234.203 18.1484C236.164 18.1484 237.492 17.1484 237.836 15.8516H236.406C236.055 16.5 235.398 16.9219 234.289 16.9219C233.273 16.9219 232.18 16.2578 232.18 14.5234C232.18 14.3828 232.188 14.2422 232.195 14.1016H238.266C238.32 13.7812 238.367 13.1641 238.367 12.8359C238.359 10.6484 236.898 9.42969 235.164 9.42969C232.594 9.42969 230.781 11.5156 230.781 14.625C230.781 16.8984 232.32 18.1484 234.203 18.1484ZM243.805 16.9375C242.5 16.9375 241.688 16.0391 241.688 14.6094C241.688 12.3828 243.047 10.6406 244.789 10.6406C246.062 10.6406 246.812 11.4688 246.812 12.8906C246.812 15.2031 245.523 16.9375 243.805 16.9375ZM240.312 20.8125L241.258 16.4453H241.383C241.68 17.4531 242.688 18.1484 243.906 18.1484C246.336 18.1484 248.219 15.7656 248.219 12.6875C248.219 10.8047 246.914 9.42969 245.219 9.42969C244.148 9.42969 243.141 9.92969 242.531 10.7266H242.406L242.648 9.57812H241.352L238.961 20.8125H240.312ZM253.602 16.9375C252.297 16.9375 251.484 16.0391 251.484 14.6094C251.484 12.3828 252.844 10.6406 254.586 10.6406C255.859 10.6406 256.609 11.4688 256.609 12.8906C256.609 15.2031 255.32 16.9375 253.602 16.9375ZM250.109 20.8125L251.055 16.4453H251.18C251.477 17.4531 252.484 18.1484 253.703 18.1484C256.133 18.1484 258.016 15.7656 258.016 12.6875C258.016 10.8047 256.711 9.42969 255.016 9.42969C253.945 9.42969 252.938 9.92969 252.328 10.7266H252.203L252.445 9.57812H251.148L248.758 20.8125H250.109ZM261.156 13.0156C261.547 11.5781 262.523 10.6172 263.82 10.6172C265.086 10.6172 265.742 11.5547 265.742 12.6641C265.742 12.7969 265.734 12.9688 265.727 13.0156H261.156ZM262.984 18.1484C264.945 18.1484 266.273 17.1484 266.617 15.8516H265.188C264.836 16.5 264.18 16.9219 263.07 16.9219C262.055 16.9219 260.961 16.2578 260.961 14.5234C260.961 14.3828 260.969 14.2422 260.977 14.1016H267.047C267.102 13.7812 267.148 13.1641 267.148 12.8359C267.141 10.6484 265.68 9.42969 263.945 9.42969C261.375 9.42969 259.562 11.5156 259.562 14.625C259.562 16.8984 261.102 18.1484 262.984 18.1484ZM271.781 18.1484C272.852 18.1484 273.828 17.6484 274.438 16.8516H274.562L274.32 18H275.617L278.117 6.23438H276.75L275.711 11.1328H275.586C275.289 10.125 274.281 9.42969 273.062 9.42969C270.633 9.42969 268.719 11.6875 268.719 14.7344C268.719 16.8203 270.102 18.1484 271.781 18.1484ZM272.211 16.9375C270.969 16.9375 270.125 15.9531 270.125 14.5312C270.125 12.2656 271.445 10.6406 273.164 10.6406C274.469 10.6406 275.281 11.5391 275.281 12.9688C275.281 15.1953 273.953 16.9375 272.211 16.9375ZM25.3984 41.9375C24.0859 41.9375 23.2109 40.9609 23.2109 39.5C23.2109 37.1953 24.3906 35.6406 26.125 35.6406C27.4453 35.6406 28.2422 36.6172 28.2422 38.2188C28.2422 40.2656 26.9688 41.9375 25.3984 41.9375ZM26.25 34.4297C23.6328 34.4297 21.7812 36.6016 21.7812 39.6641C21.7812 41.7266 23.1875 43.1484 25.2266 43.1484C27.7969 43.1484 29.6797 40.9297 29.6797 37.8984C29.6797 35.8359 28.2891 34.4297 26.25 34.4297ZM30.8203 43H32.1875L33.2812 37.8594C33.5547 36.5859 34.4609 35.6406 35.7578 35.6406C36.8828 35.6406 37.5 36.3281 37.5 37.3438C37.5 37.5859 37.4609 37.8594 37.3984 38.1641L36.3672 43H37.7344L38.8125 37.9297C38.8828 37.5859 38.9219 37.2578 38.9219 36.9609C38.9219 35.625 37.9453 34.4297 36.3281 34.4297C35.0703 34.4297 34.2969 35.0859 33.7734 35.8359H33.6484L33.9141 34.5781H32.6094L30.8203 43ZM44.7891 43H46.1328L47.9219 34.5781H46.5781L44.7891 43ZM47.7656 32.9531C48.2812 32.9531 48.7031 32.5312 48.7031 32.0156C48.7031 31.5 48.2812 31.0781 47.7656 31.0781C47.25 31.0781 46.8281 31.5 46.8281 32.0156C46.8281 32.5312 47.25 32.9531 47.7656 32.9531ZM51.7266 43.0625C52.0234 43.0625 52.3281 43.0469 52.5625 42.9922L52.8047 41.8516C52.625 41.875 52.4609 41.8828 52.2188 41.8828C51.5469 41.8828 51.1562 41.6172 51.1562 40.9766C51.1562 40.7656 51.1875 40.5156 51.25 40.2188L52.2109 35.7031H54.1094L54.3594 34.5781H52.4453L52.9062 32.3984H51.5391L51.0938 34.5781H49.6719L49.4375 35.7031H50.8516L49.7969 40.6328C49.7422 40.8984 49.7109 41.1406 49.7109 41.3594C49.7109 42.5 50.5547 43.0625 51.7266 43.0625ZM62.1016 41.9844C61.1484 41.9844 60.4844 41.4375 60.4844 40.6719C60.4844 39.7891 61.2812 39.2188 62.6562 39.1484L64.8984 39.0391L64.6875 40.0078C64.4375 41.1484 63.3672 41.9844 62.1016 41.9844ZM61.6797 43.1484C62.7031 43.1484 63.6406 42.6719 64.2266 41.8984H64.3516L64.1172 43H65.4219L66.5938 37.4766C66.6406 37.2422 66.6641 37.0156 66.6641 36.7891C66.6641 35.3594 65.4531 34.4297 63.6016 34.4297C61.8906 34.4297 60.5781 35.2969 60.2031 36.6875H61.625C61.8906 36.0078 62.5469 35.6328 63.4922 35.6328C64.625 35.6328 65.2969 36.1328 65.2969 36.9844C65.2969 37.1094 65.2812 37.2109 65.25 37.3828L65.125 37.9531L62.7344 38.0625C60.3984 38.1641 59.1016 39.1641 59.1016 40.8203C59.1016 42.1328 60.2109 43.1484 61.6797 43.1484ZM67.8516 43H69.2188L70.3125 37.8594C70.5859 36.5859 71.4922 35.6406 72.7891 35.6406C73.9141 35.6406 74.5312 36.3281 74.5312 37.3438C74.5312 37.5859 74.4922 37.8594 74.4297 38.1641L73.3984 43H74.7656L75.8438 37.9297C75.9141 37.5859 75.9531 37.2578 75.9531 36.9609C75.9531 35.625 74.9766 34.4297 73.3594 34.4297C72.1016 34.4297 71.3281 35.0859 70.8047 35.8359H70.6797L70.9453 34.5781H69.6406L67.8516 43ZM80.6875 43.1484C81.7578 43.1484 82.7344 42.6484 83.3438 41.8516H83.4688L83.2266 43H84.5234L87.0234 31.2344H85.6562L84.6172 36.1328H84.4922C84.1953 35.125 83.1875 34.4297 81.9688 34.4297C79.5391 34.4297 77.625 36.6875 77.625 39.7344C77.625 41.8203 79.0078 43.1484 80.6875 43.1484ZM81.1172 41.9375C79.875 41.9375 79.0312 40.9531 79.0312 39.5312C79.0312 37.2656 80.3516 35.6406 82.0703 35.6406C83.375 35.6406 84.1875 36.5391 84.1875 37.9688C84.1875 40.1953 82.8594 41.9375 81.1172 41.9375ZM91.7109 43H93.0547L94.8438 34.5781H93.5L91.7109 43ZM94.6875 32.9531C95.2031 32.9531 95.625 32.5312 95.625 32.0156C95.625 31.5 95.2031 31.0781 94.6875 31.0781C94.1719 31.0781 93.75 31.5 93.75 32.0156C93.75 32.5312 94.1719 32.9531 94.6875 32.9531ZM98.6484 43.0625C98.9453 43.0625 99.25 43.0469 99.4844 42.9922L99.7266 41.8516C99.5469 41.875 99.3828 41.8828 99.1406 41.8828C98.4688 41.8828 98.0781 41.6172 98.0781 40.9766C98.0781 40.7656 98.1094 40.5156 98.1719 40.2188L99.1328 35.7031H101.031L101.281 34.5781H99.3672L99.8281 32.3984H98.4609L98.0156 34.5781H96.5938L96.3594 35.7031H97.7734L96.7188 40.6328C96.6641 40.8984 96.6328 41.1406 96.6328 41.3594C96.6328 42.5 97.4766 43.0625 98.6484 43.0625ZM106.055 43H107.43L109.93 31.2344H108.555L106.055 43ZM110.102 43H111.445L113.234 34.5781H111.891L110.102 43ZM113.078 32.9531C113.594 32.9531 114.016 32.5312 114.016 32.0156C114.016 31.5 113.594 31.0781 113.078 31.0781C112.562 31.0781 112.141 31.5 112.141 32.0156C112.141 32.5312 112.562 32.9531 113.078 32.9531ZM117.039 43.0625C117.336 43.0625 117.641 43.0469 117.875 42.9922L118.117 41.8516C117.938 41.875 117.773 41.8828 117.531 41.8828C116.859 41.8828 116.469 41.6172 116.469 40.9766C116.469 40.7656 116.5 40.5156 116.562 40.2188L117.523 35.7031H119.422L119.672 34.5781H117.758L118.219 32.3984H116.852L116.406 34.5781H114.984L114.75 35.7031H116.164L115.109 40.6328C115.055 40.8984 115.023 41.1406 115.023 41.3594C115.023 42.5 115.867 43.0625 117.039 43.0625ZM133.008 34.5781H131.648L130.57 39.6406C130.289 40.9766 129.32 41.9375 127.969 41.9375C126.867 41.9375 126.336 41.4375 126.336 40.3594C126.336 40.1641 126.383 39.7188 126.445 39.4141L127.469 34.5781H126.102L125.047 39.6094C124.977 39.9531 124.93 40.4531 124.93 40.7031C124.93 42.0938 125.914 43.1484 127.445 43.1484C128.711 43.1484 129.586 42.5859 130.055 41.8594H130.18L129.922 43H131.219L133.008 34.5781ZM137.992 41.9375C136.688 41.9375 135.875 41.0391 135.875 39.6094C135.875 37.3828 137.234 35.6406 138.977 35.6406C140.25 35.6406 141 36.4688 141 37.8906C141 40.2031 139.711 41.9375 137.992 41.9375ZM134.5 45.8125L135.445 41.4453H135.57C135.867 42.4531 136.875 43.1484 138.094 43.1484C140.523 43.1484 142.406 40.7656 142.406 37.6875C142.406 35.8047 141.102 34.4297 139.406 34.4297C138.336 34.4297 137.328 34.9297 136.719 35.7266H136.594L136.836 34.5781H135.539L133.148 45.8125H134.5ZM143.555 45.8672L145.727 41.4219H144.234L142.547 45.8672H143.555ZM155.617 43.0625C155.914 43.0625 156.219 43.0469 156.453 42.9922L156.695 41.8516C156.516 41.875 156.352 41.8828 156.109 41.8828C155.438 41.8828 155.047 41.6172 155.047 40.9766C155.047 40.7656 155.078 40.5156 155.141 40.2188L156.102 35.7031H158L158.25 34.5781H156.336L156.797 32.3984H155.43L154.984 34.5781H153.562L153.328 35.7031H154.742L153.688 40.6328C153.633 40.8984 153.602 41.1406 153.602 41.3594C153.602 42.5 154.445 43.0625 155.617 43.0625ZM158.508 43H159.875L160.969 37.8594C161.242 36.5859 162.148 35.6406 163.477 35.6406C164.633 35.6406 165.25 36.3281 165.25 37.3438C165.25 37.5859 165.211 37.8594 165.148 38.1641L164.117 43H165.484L166.562 37.9297C166.633 37.5859 166.672 37.2578 166.672 36.9609C166.672 35.625 165.695 34.4297 164.047 34.4297C162.758 34.4297 162.047 35.0859 161.523 35.8359H161.398L162.391 31.2344H161.023L158.508 43ZM170.977 41.9844C170.023 41.9844 169.359 41.4375 169.359 40.6719C169.359 39.7891 170.156 39.2188 171.531 39.1484L173.773 39.0391L173.562 40.0078C173.312 41.1484 172.242 41.9844 170.977 41.9844ZM170.555 43.1484C171.578 43.1484 172.516 42.6719 173.102 41.8984H173.227L172.992 43H174.297L175.469 37.4766C175.516 37.2422 175.539 37.0156 175.539 36.7891C175.539 35.3594 174.328 34.4297 172.477 34.4297C170.766 34.4297 169.453 35.2969 169.078 36.6875H170.5C170.766 36.0078 171.422 35.6328 172.367 35.6328C173.5 35.6328 174.172 36.1328 174.172 36.9844C174.172 37.1094 174.156 37.2109 174.125 37.3828L174 37.9531L171.609 38.0625C169.273 38.1641 167.977 39.1641 167.977 40.8203C167.977 42.1328 169.086 43.1484 170.555 43.1484ZM179.727 43.0625C180.023 43.0625 180.328 43.0469 180.562 42.9922L180.805 41.8516C180.625 41.875 180.461 41.8828 180.219 41.8828C179.547 41.8828 179.156 41.6172 179.156 40.9766C179.156 40.7656 179.188 40.5156 179.25 40.2188L180.211 35.7031H182.109L182.359 34.5781H180.445L180.906 32.3984H179.539L179.094 34.5781H177.672L177.438 35.7031H178.852L177.797 40.6328C177.742 40.8984 177.711 41.1406 177.711 41.3594C177.711 42.5 178.555 43.0625 179.727 43.0625ZM199.453 34.5781H198.102L195.008 41.3125H194.883L194.438 34.5781H193.07L189.859 41.2422H189.734L189.352 34.5781H188.125L188.688 43H190.047L193.258 36.5391H193.383L193.93 43H195.297L199.453 34.5781ZM203.414 41.9375C202.102 41.9375 201.227 40.9609 201.227 39.5C201.227 37.1953 202.406 35.6406 204.141 35.6406C205.461 35.6406 206.258 36.6172 206.258 38.2188C206.258 40.2656 204.984 41.9375 203.414 41.9375ZM204.266 34.4297C201.648 34.4297 199.797 36.6016 199.797 39.6641C199.797 41.7266 201.203 43.1484 203.242 43.1484C205.812 43.1484 207.695 40.9297 207.695 37.8984C207.695 35.8359 206.305 34.4297 204.266 34.4297ZM217.477 34.5781H216.117L215.039 39.6406C214.758 40.9766 213.789 41.9375 212.438 41.9375C211.336 41.9375 210.805 41.4375 210.805 40.3594C210.805 40.1641 210.852 39.7188 210.914 39.4141L211.938 34.5781H210.57L209.516 39.6094C209.445 39.9531 209.398 40.4531 209.398 40.7031C209.398 42.0938 210.383 43.1484 211.914 43.1484C213.18 43.1484 214.055 42.5859 214.523 41.8594H214.648L214.391 43H215.688L217.477 34.5781ZM218.258 43H219.633L222.133 31.2344H220.758L218.258 43ZM225.688 43.1484C226.758 43.1484 227.734 42.6484 228.344 41.8516H228.469L228.227 43H229.523L232.023 31.2344H230.656L229.617 36.1328H229.492C229.195 35.125 228.188 34.4297 226.969 34.4297C224.539 34.4297 222.625 36.6875 222.625 39.7344C222.625 41.8203 224.008 43.1484 225.688 43.1484ZM226.117 41.9375C224.875 41.9375 224.031 40.9531 224.031 39.5312C224.031 37.2656 225.352 35.6406 227.07 35.6406C228.375 35.6406 229.188 36.5391 229.188 37.9688C229.188 40.1953 227.859 41.9375 226.117 41.9375ZM241.039 43.1484C243.469 43.1484 245.352 40.7656 245.352 37.6875C245.352 35.8047 244.062 34.4297 242.367 34.4297C241.258 34.4297 240.359 34.875 239.727 35.7266H239.602L240.539 31.2344H239.195L236.695 43H237.984L238.328 41.4453H238.453C238.789 42.4375 239.867 43.1484 241.039 43.1484ZM240.938 41.9375C239.633 41.9375 238.82 41.0391 238.82 39.6094C238.82 37.3828 240.18 35.6406 241.922 35.6406C243.195 35.6406 243.945 36.4688 243.945 37.8906C243.945 40.2031 242.656 41.9375 240.938 41.9375ZM248.5 38.0156C248.891 36.5781 249.867 35.6172 251.164 35.6172C252.43 35.6172 253.086 36.5547 253.086 37.6641C253.086 37.7969 253.078 37.9688 253.07 38.0156H248.5ZM250.328 43.1484C252.289 43.1484 253.617 42.1484 253.961 40.8516H252.531C252.18 41.5 251.523 41.9219 250.414 41.9219C249.398 41.9219 248.305 41.2578 248.305 39.5234C248.305 39.3828 248.312 39.2422 248.32 39.1016H254.391C254.445 38.7812 254.492 38.1641 254.492 37.8359C254.484 35.6484 253.023 34.4297 251.289 34.4297C248.719 34.4297 246.906 36.5156 246.906 39.625C246.906 41.8984 248.445 43.1484 250.328 43.1484ZM25.6328 66.9375C24.3281 66.9375 23.5156 66.0391 23.5156 64.6094C23.5156 62.3828 24.875 60.6406 26.6172 60.6406C27.8906 60.6406 28.6406 61.4688 28.6406 62.8906C28.6406 65.2031 27.3516 66.9375 25.6328 66.9375ZM22.1406 70.8125L23.0859 66.4453H23.2109C23.5078 67.4531 24.5156 68.1484 25.7344 68.1484C28.1641 68.1484 30.0469 65.7656 30.0469 62.6875C30.0469 60.8047 28.7422 59.4297 27.0469 59.4297C25.9766 59.4297 24.9688 59.9297 24.3594 60.7266H24.2344L24.4766 59.5781H23.1797L20.7891 70.8125H22.1406ZM31.0859 68H32.4453L33.5 63.0234C33.8359 61.4531 34.6094 60.7344 35.9609 60.7344C36.2422 60.7344 36.7812 60.7812 37.0234 60.8359L37.3125 59.5469C37.1484 59.4844 36.6953 59.4297 36.3281 59.4297C35.3438 59.4297 34.625 59.8125 34.0703 60.6484H33.9453L34.1719 59.5781H32.875L31.0859 68ZM39.1406 63.0156C39.5312 61.5781 40.5078 60.6172 41.8047 60.6172C43.0703 60.6172 43.7266 61.5547 43.7266 62.6641C43.7266 62.7969 43.7188 62.9688 43.7109 63.0156H39.1406ZM40.9688 68.1484C42.9297 68.1484 44.2578 67.1484 44.6016 65.8516H43.1719C42.8203 66.5 42.1641 66.9219 41.0547 66.9219C40.0391 66.9219 38.9453 66.2578 38.9453 64.5234C38.9453 64.3828 38.9531 64.2422 38.9609 64.1016H45.0312C45.0859 63.7812 45.1328 63.1641 45.1328 62.8359C45.125 60.6484 43.6641 59.4297 41.9297 59.4297C39.3594 59.4297 37.5469 61.5156 37.5469 64.625C37.5469 66.8984 39.0859 68.1484 40.9688 68.1484ZM49.2891 68.0625C49.5859 68.0625 49.8906 68.0469 50.125 67.9922L50.3672 66.8516C50.1875 66.875 50.0234 66.8828 49.7812 66.8828C49.1094 66.8828 48.7188 66.6172 48.7188 65.9766C48.7188 65.7656 48.75 65.5156 48.8125 65.2188L49.7734 60.7031H51.6719L51.9219 59.5781H50.0078L50.4688 57.3984H49.1016L48.6562 59.5781H47.2344L47 60.7031H48.4141L47.3594 65.6328C47.3047 65.8984 47.2734 66.1406 47.2734 66.3594C47.2734 67.5 48.1172 68.0625 49.2891 68.0625ZM55.1016 68.0625C55.3984 68.0625 55.7031 68.0469 55.9375 67.9922L56.1797 66.8516C56 66.875 55.8359 66.8828 55.5938 66.8828C54.9219 66.8828 54.5312 66.6172 54.5312 65.9766C54.5312 65.7656 54.5625 65.5156 54.625 65.2188L55.5859 60.7031H57.4844L57.7344 59.5781H55.8203L56.2812 57.3984H54.9141L54.4688 59.5781H53.0469L52.8125 60.7031H54.2266L53.1719 65.6328C53.1172 65.8984 53.0859 66.1406 53.0859 66.3594C53.0859 67.5 53.9297 68.0625 55.1016 68.0625ZM58.3672 71.0625C59.5156 71.0625 60.2656 70.6406 61.25 68.9219L66.6094 59.5781H65.1328L61.4453 66.2734H61.3203L60.3203 59.5781H58.9844L60.3516 67.9375L60.0469 68.5078C59.4688 69.5859 59.0078 69.9219 58.4453 69.9219C58.0938 69.9219 57.7891 69.8672 57.6328 69.8203L57.3984 70.9375C57.5469 70.9766 57.9688 71.0625 58.3672 71.0625ZM74.5938 68.1484C75.6641 68.1484 76.6406 67.6484 77.25 66.8516H77.375L77.1328 68H78.4297L80.9297 56.2344H79.5625L78.5234 61.1328H78.3984C78.1016 60.125 77.0938 59.4297 75.875 59.4297C73.4453 59.4297 71.5312 61.6875 71.5312 64.7344C71.5312 66.8203 72.9141 68.1484 74.5938 68.1484ZM75.0234 66.9375C73.7812 66.9375 72.9375 65.9531 72.9375 64.5312C72.9375 62.2656 74.2578 60.6406 75.9766 60.6406C77.2812 60.6406 78.0938 61.5391 78.0938 62.9688C78.0938 65.1953 76.7656 66.9375 75.0234 66.9375ZM85.0547 66.9375C83.7422 66.9375 82.8672 65.9609 82.8672 64.5C82.8672 62.1953 84.0469 60.6406 85.7812 60.6406C87.1016 60.6406 87.8984 61.6172 87.8984 63.2188C87.8984 65.2656 86.625 66.9375 85.0547 66.9375ZM85.9062 59.4297C83.2891 59.4297 81.4375 61.6016 81.4375 64.6641C81.4375 66.7266 82.8438 68.1484 84.8828 68.1484C87.4531 68.1484 89.3359 65.9297 89.3359 62.8984C89.3359 60.8359 87.9453 59.4297 85.9062 59.4297ZM94.7578 66.9375C93.4531 66.9375 92.6406 66.0391 92.6406 64.6094C92.6406 62.3828 94 60.6406 95.7422 60.6406C97.0156 60.6406 97.7656 61.4688 97.7656 62.8906C97.7656 65.2031 96.4766 66.9375 94.7578 66.9375ZM91.2656 70.8125L92.2109 66.4453H92.3359C92.6328 67.4531 93.6406 68.1484 94.8594 68.1484C97.2891 68.1484 99.1719 65.7656 99.1719 62.6875C99.1719 60.8047 97.8672 59.4297 96.1719 59.4297C95.1016 59.4297 94.0938 59.9297 93.4844 60.7266H93.3594L93.6016 59.5781H92.3047L89.9141 70.8125H91.2656ZM102.312 63.0156C102.703 61.5781 103.68 60.6172 104.977 60.6172C106.242 60.6172 106.898 61.5547 106.898 62.6641C106.898 62.7969 106.891 62.9688 106.883 63.0156H102.312ZM104.141 68.1484C106.102 68.1484 107.43 67.1484 107.773 65.8516H106.344C105.992 66.5 105.336 66.9219 104.227 66.9219C103.211 66.9219 102.117 66.2578 102.117 64.5234C102.117 64.3828 102.125 64.2422 102.133 64.1016H108.203C108.258 63.7812 108.305 63.1641 108.305 62.8359C108.297 60.6484 106.836 59.4297 105.102 59.4297C102.531 59.4297 100.719 61.5156 100.719 64.625C100.719 66.8984 102.258 68.1484 104.141 68.1484ZM111.969 60.9375L112.867 56.7266H111.617L110.719 60.9375H111.969ZM114.914 60.9375L115.812 56.7266H114.562L113.664 60.9375H114.914Z" fill="#4A4A4A"/>
<rect width="8" height="72" fill="#A090CB"/>
</svg>
