<svg width="328" height="1044" viewBox="0 0 328 1044" fill="none" xmlns="http://www.w3.org/2000/svg">
<path d="M190.811 960.73L157.168 953.797L157.168 940.174L210 953.65L210 965.467L176.748 975.477L210 985.486L210 997.254L157.168 1010.73L157.168 997.107L190.762 990.223L157.168 980.555L157.168 970.35L190.811 960.73ZM183.096 928.34C177.855 928.34 173.184 927.331 169.082 925.312C164.98 923.294 161.807 920.397 159.561 916.621C157.314 912.812 156.191 908.402 156.191 903.389C156.191 896.26 158.372 890.449 162.734 885.957C167.096 881.432 173.021 878.909 180.508 878.389L184.121 878.291C192.227 878.291 198.737 880.553 203.652 885.078C208.535 889.603 210.977 895.674 210.977 903.291C210.977 910.908 208.535 916.995 203.652 921.553C198.77 926.077 192.129 928.34 183.73 928.34L183.096 928.34ZM184.121 914.229C189.134 914.229 192.975 913.284 195.645 911.396C198.281 909.508 199.6 906.807 199.6 903.291C199.6 899.873 198.298 897.204 195.693 895.283C193.057 893.363 188.857 892.402 183.096 892.402C178.18 892.402 174.372 893.363 171.67 895.283C168.968 897.204 167.617 899.906 167.617 903.389C167.617 906.839 168.968 909.508 171.67 911.396C174.339 913.284 178.49 914.229 184.121 914.229ZM170.4 832.912C170.14 834.833 170.01 836.525 170.01 837.99C170.01 843.329 171.816 846.828 175.43 848.488L210 848.488L210 862.6L157.168 862.6L157.168 849.27L163.467 848.879C158.617 846.047 156.191 842.124 156.191 837.111C156.191 835.549 156.403 834.084 156.826 832.717L170.4 832.912ZM188.809 799.887L193.887 804.965L210 804.965L210 819.076L135 819.076L135 804.965L176.553 804.965L173.037 802.23L157.168 788.705L157.168 771.762L179.189 790.854L210 770.102L210 786.312L188.809 799.887Z" fill="black"/>
<path d="M108.4 911.967C106.675 911.967 105.324 912.829 104.348 914.555C103.339 916.247 102.443 918.982 101.662 922.758C99.0254 935.323 93.6868 941.605 85.6465 941.605C80.959 941.605 77.0527 939.669 73.9277 935.795C70.7702 931.889 69.1914 926.794 69.1914 920.512C69.1914 913.806 70.7702 908.451 73.9277 904.447C77.0853 900.411 81.1868 898.393 86.2324 898.393L86.2324 912.504C84.2142 912.504 82.554 913.155 81.252 914.457C79.9173 915.759 79.25 917.794 79.25 920.561C79.25 922.937 79.7871 924.776 80.8613 926.078C81.9355 927.38 83.3027 928.031 84.9629 928.031C86.5254 928.031 87.7949 927.299 88.7715 925.834C89.7155 924.337 90.5456 921.83 91.2617 918.314C91.9453 914.799 92.7266 911.837 93.6055 909.428C96.3398 901.973 101.076 898.246 107.814 898.246C112.632 898.246 116.538 900.313 119.533 904.447C122.495 908.581 123.977 913.92 123.977 920.463C123.977 924.89 123.195 928.829 121.633 932.279C120.038 935.697 117.873 938.383 115.139 940.336C112.372 942.289 109.393 943.266 106.203 943.266L106.203 929.887C108.71 929.757 110.63 928.829 111.965 927.104C113.299 925.378 113.967 923.067 113.967 920.17C113.967 917.468 113.462 915.434 112.453 914.066C111.411 912.667 110.061 911.967 108.4 911.967ZM123.977 857.799C123.977 865.546 121.6 871.861 116.848 876.744C112.095 881.594 105.764 884.02 97.8535 884.02L96.4863 884.02C91.1803 884.02 86.444 882.994 82.2773 880.943C78.0781 878.893 74.8555 875.995 72.6094 872.252C70.3307 868.476 69.1914 864.179 69.1914 859.361C69.1914 852.135 71.47 846.454 76.0273 842.32C80.5846 838.154 87.0462 836.07 95.4121 836.07L101.174 836.07L101.174 869.713C104.624 869.257 107.391 867.89 109.475 865.611C111.558 863.3 112.6 860.387 112.6 856.871C112.6 851.435 110.63 847.187 106.691 844.127L114.455 837.193C117.45 839.309 119.794 842.174 121.486 845.787C123.146 849.4 123.977 853.404 123.977 857.799ZM80.6172 859.41C80.6172 862.21 81.5612 864.488 83.4492 866.246C85.3372 867.971 88.0391 869.078 91.5547 869.566L91.5547 849.937L90.4316 849.937C87.3066 850.003 84.8978 850.849 83.2051 852.477C81.4798 854.104 80.6172 856.415 80.6172 859.41ZM123 806.121L123 820.281L48 820.281L48 806.121L123 806.121ZM123.977 763.135C123.977 770.882 121.6 777.197 116.848 782.08C112.095 786.93 105.764 789.355 97.8535 789.355L96.4863 789.355C91.1803 789.355 86.444 788.33 82.2773 786.279C78.0781 784.229 74.8555 781.331 72.6094 777.588C70.3307 773.812 69.1914 769.515 69.1914 764.697C69.1914 757.471 71.47 751.79 76.0273 747.656C80.5846 743.49 87.0462 741.406 95.4121 741.406L101.174 741.406L101.174 775.049C104.624 774.593 107.391 773.226 109.475 770.947C111.558 768.636 112.6 765.723 112.6 762.207C112.6 756.771 110.63 752.523 106.691 749.463L114.455 742.529C117.45 744.645 119.794 747.51 121.486 751.123C123.146 754.736 123.977 758.74 123.977 763.135ZM80.6172 764.746C80.6172 767.546 81.5612 769.824 83.4492 771.582C85.3372 773.307 88.0391 774.414 91.5547 774.902L91.5547 755.273L90.4316 755.273C87.3066 755.339 84.8978 756.185 83.2051 757.812C81.4798 759.44 80.6172 761.751 80.6172 764.746ZM112.6 704.377C112.6 701.773 111.883 699.657 110.451 698.029C109.019 696.402 107.115 695.555 104.738 695.49L104.738 682.258C108.319 682.29 111.607 683.267 114.602 685.187C117.564 687.108 119.875 689.745 121.535 693.098C123.163 696.418 123.977 700.096 123.977 704.133C123.977 711.685 121.584 717.642 116.799 722.004C111.981 726.366 105.34 728.547 96.8769 728.547L95.9492 728.547C87.8112 728.547 81.317 726.382 76.4668 722.053C71.6165 717.723 69.1914 711.783 69.1914 704.23C69.1914 697.622 71.0794 692.333 74.8555 688.361C78.5989 684.357 83.5957 682.323 89.8457 682.258L89.8457 695.49C87.1113 695.555 84.8978 696.402 83.2051 698.029C81.4798 699.657 80.6172 701.805 80.6172 704.475C80.6172 707.762 81.8216 710.253 84.2305 711.945C86.6068 713.605 90.4805 714.436 95.8516 714.436L97.3164 714.436C102.753 714.436 106.659 713.605 109.035 711.945C111.411 710.285 112.6 707.762 112.6 704.377ZM57.1797 650.307L70.168 650.307L70.168 641.273L80.5195 641.273L80.5195 650.307L106.887 650.307C108.84 650.307 110.24 649.932 111.086 649.184C111.932 648.435 112.355 647.003 112.355 644.887C112.355 643.324 112.242 641.941 112.014 640.736L122.707 640.736C123.553 643.503 123.977 646.352 123.977 649.281C123.977 659.177 118.98 664.223 108.986 664.418L80.5195 664.418L80.5195 672.133L70.168 672.133L70.168 664.418L57.1797 664.418L57.1797 650.307ZM123.977 602.096C123.977 609.843 121.6 616.158 116.848 621.041C112.095 625.891 105.764 628.316 97.8535 628.316L96.4863 628.316C91.1803 628.316 86.444 627.291 82.2773 625.24C78.0781 623.189 74.8555 620.292 72.6094 616.549C70.3307 612.773 69.1914 608.476 69.1914 603.658C69.1914 596.432 71.47 590.751 76.0273 586.617C80.5846 582.451 87.0462 580.367 95.4121 580.367L101.174 580.367L101.174 614.01C104.624 613.554 107.391 612.187 109.475 609.908C111.558 607.597 112.6 604.684 112.6 601.168C112.6 595.732 110.63 591.484 106.691 588.424L114.455 581.49C117.45 583.606 119.794 586.471 121.486 590.084C123.146 593.697 123.977 597.701 123.977 602.096ZM80.6172 603.707C80.6172 606.507 81.5612 608.785 83.4492 610.543C85.3372 612.268 88.039 613.375 91.5547 613.863L91.5547 594.234L90.4316 594.234C87.3066 594.299 84.8978 595.146 83.2051 596.773C81.4798 598.401 80.6172 600.712 80.6172 603.707ZM96.1933 567.508C87.9577 567.508 81.3984 565.669 76.5156 561.99C71.6328 558.279 69.1914 553.217 69.1914 546.805C69.1914 541.661 71.112 537.413 74.9531 534.061L48 534.061L48 519.9L123 519.9L123 532.645L117.385 533.328C121.779 536.844 123.977 541.368 123.977 546.902C123.977 553.12 121.535 558.117 116.652 561.893C111.737 565.636 104.917 567.508 96.1933 567.508ZM97.2187 553.396C102.167 553.396 105.959 552.534 108.596 550.809C111.232 549.083 112.551 546.577 112.551 543.289C112.551 538.927 110.712 535.851 107.033 534.061L86.1836 534.061C82.5052 535.818 80.666 538.862 80.666 543.191C80.666 549.995 86.1836 553.396 97.2187 553.396Z" fill="black"/>
<rect x="123" width="3" height="484" fill="#4A4A4A"/>
</svg>
