<svg width="217" height="71" viewBox="0 0 217 71" fill="none" xmlns="http://www.w3.org/2000/svg">
<g filter="url(#filter0_d)">
<rect x="4" width="209" height="63" fill="white"/>
</g>
<path d="M53.8125 34.0781L56.1094 21.9375H59.6133L55.8281 39H52.2891L49.5117 27.5859L46.7344 39H43.1953L39.4102 21.9375H42.9141L45.2227 34.0547L48.0352 21.9375H51.0117L53.8125 34.0781ZM65.6855 27.7031C66.5839 26.625 67.7128 26.0859 69.0722 26.0859C71.8222 26.0859 73.2167 27.6836 73.2558 30.8789V39H69.8691V30.9727C69.8691 30.2461 69.7128 29.7109 69.4003 29.3672C69.0878 29.0156 68.5683 28.8398 67.8417 28.8398C66.8495 28.8398 66.1308 29.2227 65.6855 29.9883V39H62.2987V21H65.6855V27.7031ZM84.2381 39C84.0819 38.6953 83.9686 38.3164 83.8983 37.8633C83.078 38.7773 82.0116 39.2344 80.6991 39.2344C79.4569 39.2344 78.4256 38.875 77.6053 38.1562C76.7928 37.4375 76.3866 36.5312 76.3866 35.4375C76.3866 34.0938 76.8827 33.0625 77.8748 32.3438C78.8748 31.625 80.3162 31.2617 82.1991 31.2539H83.7577V30.5273C83.7577 29.9414 83.6053 29.4727 83.3006 29.1211C83.0037 28.7695 82.5311 28.5938 81.8827 28.5938C81.3123 28.5938 80.8631 28.7305 80.535 29.0039C80.2147 29.2773 80.0545 29.6523 80.0545 30.1289H76.6678C76.6678 29.3945 76.8944 28.7148 77.3475 28.0898C77.8006 27.4648 78.4412 26.9766 79.2694 26.625C80.0975 26.2656 81.0272 26.0859 82.0584 26.0859C83.6209 26.0859 84.8592 26.4805 85.7733 27.2695C86.6952 28.0508 87.1561 29.1523 87.1561 30.5742V36.0703C87.1639 37.2734 87.3319 38.1836 87.66 38.8008V39H84.2381ZM81.4373 36.6445C81.9373 36.6445 82.3983 36.5352 82.8202 36.3164C83.242 36.0898 83.5545 35.7891 83.7577 35.4141V33.2344H82.492C80.7967 33.2344 79.8944 33.8203 79.785 34.9922L79.7733 35.1914C79.7733 35.6133 79.9217 35.9609 80.2186 36.2344C80.5155 36.5078 80.9217 36.6445 81.4373 36.6445ZM94.8923 23.2031V26.3203H97.0603V28.8047H94.8923V35.1328C94.8923 35.6016 94.9822 35.9375 95.1619 36.1406C95.3416 36.3438 95.6853 36.4453 96.1931 36.4453C96.5681 36.4453 96.9002 36.418 97.1892 36.3633V38.9297C96.5252 39.1328 95.8416 39.2344 95.1384 39.2344C92.7634 39.2344 91.5525 38.0352 91.5056 35.6367V28.8047H89.6541V26.3203H91.5056V23.2031H94.8923ZM111.045 39H107.529V21.9375H111.045V39ZM132.716 32.0273H125.966V39H122.451V21.9375H133.56V24.7852H125.966V29.1914H132.716V32.0273ZM135.671 32.543C135.671 31.2852 135.913 30.1641 136.398 29.1797C136.882 28.1953 137.577 27.4336 138.484 26.8945C139.398 26.3555 140.456 26.0859 141.66 26.0859C143.37 26.0859 144.765 26.6094 145.843 27.6562C146.929 28.7031 147.535 30.125 147.66 31.9219L147.683 32.7891C147.683 34.7344 147.14 36.2969 146.054 37.4766C144.968 38.6484 143.511 39.2344 141.683 39.2344C139.855 39.2344 138.394 38.6484 137.3 37.4766C136.214 36.3047 135.671 34.7109 135.671 32.6953V32.543ZM139.058 32.7891C139.058 33.9922 139.285 34.9141 139.738 35.5547C140.191 36.1875 140.839 36.5039 141.683 36.5039C142.503 36.5039 143.144 36.1914 143.605 35.5664C144.066 34.9336 144.296 33.9258 144.296 32.543C144.296 31.3633 144.066 30.4492 143.605 29.8008C143.144 29.1523 142.495 28.8281 141.66 28.8281C140.831 28.8281 140.191 29.1523 139.738 29.8008C139.285 30.4414 139.058 31.4375 139.058 32.7891ZM158.443 37.7109C157.607 38.7266 156.45 39.2344 154.974 39.2344C153.615 39.2344 152.575 38.8438 151.857 38.0625C151.146 37.2812 150.783 36.1367 150.767 34.6289V26.3203H154.154V34.5117C154.154 35.832 154.755 36.4922 155.958 36.4922C157.107 36.4922 157.896 36.0938 158.325 35.2969V26.3203H161.724V39H158.536L158.443 37.7109ZM168.476 26.3203L168.581 27.7852C169.488 26.6523 170.702 26.0859 172.226 26.0859C173.57 26.0859 174.57 26.4805 175.226 27.2695C175.882 28.0586 176.218 29.2383 176.234 30.8086V39H172.847V30.8906C172.847 30.1719 172.691 29.6523 172.378 29.332C172.066 29.0039 171.546 28.8398 170.82 28.8398C169.866 28.8398 169.152 29.2461 168.675 30.0586V39H165.288V26.3203H168.476ZM179.364 32.5664C179.364 30.5898 179.806 29.0156 180.689 27.8438C181.579 26.6719 182.794 26.0859 184.333 26.0859C185.568 26.0859 186.587 26.5469 187.392 27.4688V21H190.79V39H187.732L187.568 37.6523C186.724 38.707 185.638 39.2344 184.31 39.2344C182.818 39.2344 181.618 38.6484 180.712 37.4766C179.814 36.2969 179.364 34.6602 179.364 32.5664ZM182.751 32.8125C182.751 34 182.958 34.9102 183.372 35.543C183.786 36.1758 184.388 36.4922 185.177 36.4922C186.224 36.4922 186.962 36.0508 187.392 35.168V30.1641C186.97 29.2812 186.239 28.8398 185.2 28.8398C183.568 28.8398 182.751 30.1641 182.751 32.8125ZM194.659 37.3359C194.659 36.7969 194.839 36.3594 195.198 36.0234C195.565 35.6875 196.023 35.5195 196.569 35.5195C197.124 35.5195 197.581 35.6875 197.94 36.0234C198.308 36.3594 198.491 36.7969 198.491 37.3359C198.491 37.8672 198.312 38.3008 197.952 38.6367C197.593 38.9648 197.132 39.1289 196.569 39.1289C196.015 39.1289 195.558 38.9648 195.198 38.6367C194.839 38.3008 194.659 37.8672 194.659 37.3359ZM194.659 27.7383C194.659 27.1992 194.839 26.7617 195.198 26.4258C195.565 26.0898 196.023 25.9219 196.569 25.9219C197.124 25.9219 197.581 26.0898 197.94 26.4258C198.308 26.7617 198.491 27.1992 198.491 27.7383C198.491 28.2695 198.312 28.7031 197.952 29.0391C197.593 29.3672 197.132 29.5312 196.569 29.5312C196.015 29.5312 195.558 29.3672 195.198 29.0391C194.839 28.7031 194.659 28.2695 194.659 27.7383Z" fill="#A090CB"/>
<rect x="4" width="10" height="63" fill="#E9E2FD"/>
<defs>
<filter id="filter0_d" x="0" y="0" width="217" height="71" filterUnits="userSpaceOnUse" color-interpolation-filters="sRGB">
<feFlood flood-opacity="0" result="BackgroundImageFix"/>
<feColorMatrix in="SourceAlpha" type="matrix" values="0 0 0 0 0 0 0 0 0 0 0 0 0 0 0 0 0 0 127 0"/>
<feOffset dy="4"/>
<feGaussianBlur stdDeviation="2"/>
<feColorMatrix type="matrix" values="0 0 0 0 0 0 0 0 0 0 0 0 0 0 0 0 0 0 0.25 0"/>
<feBlend mode="normal" in2="BackgroundImageFix" result="effect1_dropShadow"/>
<feBlend mode="normal" in="SourceGraphic" in2="effect1_dropShadow" result="shape"/>
</filter>
</defs>
</svg>
