<svg width="299" height="56" viewBox="0 0 299 56" fill="none" xmlns="http://www.w3.org/2000/svg">
<path d="M25.0234 6.72656L22.6953 11.1719H24.1875L26.0312 6.72656H25.0234ZM28.0156 6.72656L25.8438 11.1719H27.3359L29.0234 6.72656H28.0156ZM30.8906 18L33.2891 6.72656H31.8516L29.4531 18H30.8906ZM36.5703 18.0625C36.8672 18.0625 37.1719 18.0469 37.4062 17.9922L37.6484 16.8516C37.4688 16.875 37.3047 16.8828 37.0625 16.8828C36.3906 16.8828 36 16.6172 36 15.9766C36 15.7656 36.0312 15.5156 36.0938 15.2188L37.0547 10.7031H38.9531L39.2031 9.57812H37.2891L37.75 7.39844H36.3828L35.9375 9.57812H34.5156L34.2812 10.7031H35.6953L34.6406 15.6328C34.5859 15.8984 34.5547 16.1406 34.5547 16.3594C34.5547 17.5 35.3984 18.0625 36.5703 18.0625ZM41.7344 10.9375L44.0469 6.72656H42.5234L40.7578 10.9375H41.7344ZM44.7188 11.9453C44.7188 13.0625 45.3672 13.7266 46.6719 14.1484L47.9609 14.5625C48.7422 14.8125 49.0156 15.2109 49.0156 15.7031C49.0156 16.4688 48.2109 17.0156 47.0703 17.0156C46.0156 17.0156 45.3047 16.4844 45.0938 15.7422H43.7109C43.8359 17.1719 45.1562 18.1484 47.0078 18.1484C48.9609 18.1484 50.3984 17.0781 50.3984 15.6016C50.3984 14.4688 49.8047 13.7812 48.3906 13.3281L47.25 12.9609C46.4844 12.7109 46.0703 12.3359 46.0703 11.8203C46.0703 11.0938 46.8203 10.5703 47.8516 10.5703C48.8359 10.5703 49.5312 11.0078 49.7031 11.7344H51.0391C50.8125 10.3516 49.6641 9.42969 47.875 9.42969C46.0703 9.42969 44.7188 10.4453 44.7188 11.9453ZM57.4531 11.9453C57.4531 13.0625 58.1016 13.7266 59.4062 14.1484L60.6953 14.5625C61.4766 14.8125 61.75 15.2109 61.75 15.7031C61.75 16.4688 60.9453 17.0156 59.8047 17.0156C58.75 17.0156 58.0391 16.4844 57.8281 15.7422H56.4453C56.5703 17.1719 57.8906 18.1484 59.7422 18.1484C61.6953 18.1484 63.1328 17.0781 63.1328 15.6016C63.1328 14.4688 62.5391 13.7812 61.125 13.3281L59.9844 12.9609C59.2188 12.7109 58.8047 12.3359 58.8047 11.8203C58.8047 11.0938 59.5547 10.5703 60.5859 10.5703C61.5703 10.5703 62.2656 11.0078 62.4375 11.7344H63.7734C63.5469 10.3516 62.3984 9.42969 60.6094 9.42969C58.8047 9.42969 57.4531 10.4453 57.4531 11.9453ZM68.7266 16.9375C67.4141 16.9375 66.5391 15.9609 66.5391 14.5C66.5391 12.1953 67.7188 10.6406 69.4531 10.6406C70.7734 10.6406 71.5703 11.6172 71.5703 13.2188C71.5703 15.2656 70.2969 16.9375 68.7266 16.9375ZM69.5781 9.42969C66.9609 9.42969 65.1094 11.6016 65.1094 14.6641C65.1094 16.7266 66.5156 18.1484 68.5547 18.1484C71.125 18.1484 73.0078 15.9297 73.0078 12.8984C73.0078 10.8359 71.6172 9.42969 69.5781 9.42969ZM83.5469 9.42969C80.9766 9.42969 79.1016 11.625 79.1016 14.5781C79.1016 16.7344 80.4609 18.1484 82.5078 18.1484C84.3594 18.1484 85.8281 17.125 86.1719 15.5938H84.7734C84.4531 16.4375 83.6641 16.9219 82.625 16.9219C81.3281 16.9219 80.5156 15.9688 80.5156 14.3984C80.5156 12.2656 81.7656 10.6406 83.4375 10.6406C84.5078 10.6406 85.3516 11.2812 85.4375 12.1562H86.8125C86.8047 12.0312 86.7969 11.9062 86.7734 11.7891C86.5156 10.4141 85.2109 9.42969 83.5469 9.42969ZM91.5859 16.9375C90.2734 16.9375 89.3984 15.9609 89.3984 14.5C89.3984 12.1953 90.5781 10.6406 92.3125 10.6406C93.6328 10.6406 94.4297 11.6172 94.4297 13.2188C94.4297 15.2656 93.1562 16.9375 91.5859 16.9375ZM92.4375 9.42969C89.8203 9.42969 87.9688 11.6016 87.9688 14.6641C87.9688 16.7266 89.375 18.1484 91.4141 18.1484C93.9844 18.1484 95.8672 15.9297 95.8672 12.8984C95.8672 10.8359 94.4766 9.42969 92.4375 9.42969ZM101.055 16.9375C99.7422 16.9375 98.8672 15.9609 98.8672 14.5C98.8672 12.1953 100.047 10.6406 101.781 10.6406C103.102 10.6406 103.898 11.6172 103.898 13.2188C103.898 15.2656 102.625 16.9375 101.055 16.9375ZM101.906 9.42969C99.2891 9.42969 97.4375 11.6016 97.4375 14.6641C97.4375 16.7266 98.8438 18.1484 100.883 18.1484C103.453 18.1484 105.336 15.9297 105.336 12.8984C105.336 10.8359 103.945 9.42969 101.906 9.42969ZM106.555 18H107.93L110.43 6.23438H109.055L106.555 18ZM118.023 18.0625C118.32 18.0625 118.625 18.0469 118.859 17.9922L119.102 16.8516C118.922 16.875 118.758 16.8828 118.516 16.8828C117.844 16.8828 117.453 16.6172 117.453 15.9766C117.453 15.7656 117.484 15.5156 117.547 15.2188L118.508 10.7031H120.406L120.656 9.57812H118.742L119.203 7.39844H117.836L117.391 9.57812H115.969L115.734 10.7031H117.148L116.094 15.6328C116.039 15.8984 116.008 16.1406 116.008 16.3594C116.008 17.5 116.852 18.0625 118.023 18.0625ZM120.914 18H122.281L123.375 12.8594C123.648 11.5859 124.555 10.6406 125.883 10.6406C127.039 10.6406 127.656 11.3281 127.656 12.3438C127.656 12.5859 127.617 12.8594 127.555 13.1641L126.523 18H127.891L128.969 12.9297C129.039 12.5859 129.078 12.2578 129.078 11.9609C129.078 10.625 128.102 9.42969 126.453 9.42969C125.164 9.42969 124.453 10.0859 123.93 10.8359H123.805L124.797 6.23438H123.43L120.914 18ZM133.383 16.9844C132.43 16.9844 131.766 16.4375 131.766 15.6719C131.766 14.7891 132.562 14.2188 133.938 14.1484L136.18 14.0391L135.969 15.0078C135.719 16.1484 134.648 16.9844 133.383 16.9844ZM132.961 18.1484C133.984 18.1484 134.922 17.6719 135.508 16.8984H135.633L135.398 18H136.703L137.875 12.4766C137.922 12.2422 137.945 12.0156 137.945 11.7891C137.945 10.3594 136.734 9.42969 134.883 9.42969C133.172 9.42969 131.859 10.2969 131.484 11.6875H132.906C133.172 11.0078 133.828 10.6328 134.773 10.6328C135.906 10.6328 136.578 11.1328 136.578 11.9844C136.578 12.1094 136.562 12.2109 136.531 12.3828L136.406 12.9531L134.016 13.0625C131.68 13.1641 130.383 14.1641 130.383 15.8203C130.383 17.1328 131.492 18.1484 132.961 18.1484ZM142.133 18.0625C142.43 18.0625 142.734 18.0469 142.969 17.9922L143.211 16.8516C143.031 16.875 142.867 16.8828 142.625 16.8828C141.953 16.8828 141.562 16.6172 141.562 15.9766C141.562 15.7656 141.594 15.5156 141.656 15.2188L142.617 10.7031H144.516L144.766 9.57812H142.852L143.312 7.39844H141.945L141.5 9.57812H140.078L139.844 10.7031H141.258L140.203 15.6328C140.148 15.8984 140.117 16.1406 140.117 16.3594C140.117 17.5 140.961 18.0625 142.133 18.0625ZM149.555 18H150.898L152.688 9.57812H151.344L149.555 18ZM152.531 7.95312C153.047 7.95312 153.469 7.53125 153.469 7.01562C153.469 6.5 153.047 6.07812 152.531 6.07812C152.016 6.07812 151.594 6.5 151.594 7.01562C151.594 7.53125 152.016 7.95312 152.531 7.95312ZM156.492 18.0625C156.789 18.0625 157.094 18.0469 157.328 17.9922L157.57 16.8516C157.391 16.875 157.227 16.8828 156.984 16.8828C156.312 16.8828 155.922 16.6172 155.922 15.9766C155.922 15.7656 155.953 15.5156 156.016 15.2188L156.977 10.7031H158.875L159.125 9.57812H157.211L157.672 7.39844H156.305L155.859 9.57812H154.438L154.203 10.7031H155.617L154.562 15.6328C154.508 15.8984 154.477 16.1406 154.477 16.3594C154.477 17.5 155.32 18.0625 156.492 18.0625ZM161.656 10.9375L163.969 6.72656H162.445L160.68 10.9375H161.656ZM164.641 11.9453C164.641 13.0625 165.289 13.7266 166.594 14.1484L167.883 14.5625C168.664 14.8125 168.938 15.2109 168.938 15.7031C168.938 16.4688 168.133 17.0156 166.992 17.0156C165.938 17.0156 165.227 16.4844 165.016 15.7422H163.633C163.758 17.1719 165.078 18.1484 166.93 18.1484C168.883 18.1484 170.32 17.0781 170.32 15.6016C170.32 14.4688 169.727 13.7812 168.312 13.3281L167.172 12.9609C166.406 12.7109 165.992 12.3359 165.992 11.8203C165.992 11.0938 166.742 10.5703 167.773 10.5703C168.758 10.5703 169.453 11.0078 169.625 11.7344H170.961C170.734 10.3516 169.586 9.42969 167.797 9.42969C165.992 9.42969 164.641 10.4453 164.641 11.9453ZM179.43 16.9844C178.477 16.9844 177.812 16.4375 177.812 15.6719C177.812 14.7891 178.609 14.2188 179.984 14.1484L182.227 14.0391L182.016 15.0078C181.766 16.1484 180.695 16.9844 179.43 16.9844ZM179.008 18.1484C180.031 18.1484 180.969 17.6719 181.555 16.8984H181.68L181.445 18H182.75L183.922 12.4766C183.969 12.2422 183.992 12.0156 183.992 11.7891C183.992 10.3594 182.781 9.42969 180.93 9.42969C179.219 9.42969 177.906 10.2969 177.531 11.6875H178.953C179.219 11.0078 179.875 10.6328 180.82 10.6328C181.953 10.6328 182.625 11.1328 182.625 11.9844C182.625 12.1094 182.609 12.2109 182.578 12.3828L182.453 12.9531L180.062 13.0625C177.727 13.1641 176.43 14.1641 176.43 15.8203C176.43 17.1328 177.539 18.1484 179.008 18.1484ZM194.578 9.42969C192.008 9.42969 190.133 11.625 190.133 14.5781C190.133 16.7344 191.492 18.1484 193.539 18.1484C195.391 18.1484 196.859 17.125 197.203 15.5938H195.805C195.484 16.4375 194.695 16.9219 193.656 16.9219C192.359 16.9219 191.547 15.9688 191.547 14.3984C191.547 12.2656 192.797 10.6406 194.469 10.6406C195.539 10.6406 196.383 11.2812 196.469 12.1562H197.844C197.836 12.0312 197.828 11.9062 197.805 11.7891C197.547 10.4141 196.242 9.42969 194.578 9.42969ZM202.617 16.9375C201.305 16.9375 200.43 15.9609 200.43 14.5C200.43 12.1953 201.609 10.6406 203.344 10.6406C204.664 10.6406 205.461 11.6172 205.461 13.2188C205.461 15.2656 204.188 16.9375 202.617 16.9375ZM203.469 9.42969C200.852 9.42969 199 11.6016 199 14.6641C199 16.7266 200.406 18.1484 202.445 18.1484C205.016 18.1484 206.898 15.9297 206.898 12.8984C206.898 10.8359 205.508 9.42969 203.469 9.42969ZM208.117 18H209.492L211.992 6.23438H210.617L208.117 18ZM212.148 18H213.523L216.023 6.23438H214.648L212.148 18ZM219.148 16.9844C218.195 16.9844 217.531 16.4375 217.531 15.6719C217.531 14.7891 218.328 14.2188 219.703 14.1484L221.945 14.0391L221.734 15.0078C221.484 16.1484 220.414 16.9844 219.148 16.9844ZM218.727 18.1484C219.75 18.1484 220.688 17.6719 221.273 16.8984H221.398L221.164 18H222.469L223.641 12.4766C223.688 12.2422 223.711 12.0156 223.711 11.7891C223.711 10.3594 222.5 9.42969 220.648 9.42969C218.938 9.42969 217.625 10.2969 217.25 11.6875H218.672C218.938 11.0078 219.594 10.6328 220.539 10.6328C221.672 10.6328 222.344 11.1328 222.344 11.9844C222.344 12.1094 222.328 12.2109 222.297 12.3828L222.172 12.9531L219.781 13.0625C217.445 13.1641 216.148 14.1641 216.148 15.8203C216.148 17.1328 217.258 18.1484 218.727 18.1484ZM229.32 18.1484C231.75 18.1484 233.633 15.7656 233.633 12.6875C233.633 10.8047 232.344 9.42969 230.648 9.42969C229.539 9.42969 228.641 9.875 228.008 10.7266H227.883L228.82 6.23438H227.477L224.977 18H226.266L226.609 16.4453H226.734C227.07 17.4375 228.148 18.1484 229.32 18.1484ZM229.219 16.9375C227.914 16.9375 227.102 16.0391 227.102 14.6094C227.102 12.3828 228.461 10.6406 230.203 10.6406C231.477 10.6406 232.227 11.4688 232.227 12.8906C232.227 15.2031 230.938 16.9375 229.219 16.9375ZM238.789 16.9375C237.477 16.9375 236.602 15.9609 236.602 14.5C236.602 12.1953 237.781 10.6406 239.516 10.6406C240.836 10.6406 241.633 11.6172 241.633 13.2188C241.633 15.2656 240.359 16.9375 238.789 16.9375ZM239.641 9.42969C237.023 9.42969 235.172 11.6016 235.172 14.6641C235.172 16.7266 236.578 18.1484 238.617 18.1484C241.188 18.1484 243.07 15.9297 243.07 12.8984C243.07 10.8359 241.68 9.42969 239.641 9.42969ZM244.148 18H245.508L246.562 13.0234C246.898 11.4531 247.672 10.7344 249.023 10.7344C249.305 10.7344 249.844 10.7812 250.086 10.8359L250.375 9.54688C250.211 9.48438 249.758 9.42969 249.391 9.42969C248.406 9.42969 247.688 9.8125 247.133 10.6484H247.008L247.234 9.57812H245.938L244.148 18ZM253.289 16.9844C252.336 16.9844 251.672 16.4375 251.672 15.6719C251.672 14.7891 252.469 14.2188 253.844 14.1484L256.086 14.0391L255.875 15.0078C255.625 16.1484 254.555 16.9844 253.289 16.9844ZM252.867 18.1484C253.891 18.1484 254.828 17.6719 255.414 16.8984H255.539L255.305 18H256.609L257.781 12.4766C257.828 12.2422 257.852 12.0156 257.852 11.7891C257.852 10.3594 256.641 9.42969 254.789 9.42969C253.078 9.42969 251.766 10.2969 251.391 11.6875H252.812C253.078 11.0078 253.734 10.6328 254.68 10.6328C255.812 10.6328 256.484 11.1328 256.484 11.9844C256.484 12.1094 256.469 12.2109 256.438 12.3828L256.312 12.9531L253.922 13.0625C251.586 13.1641 250.289 14.1641 250.289 15.8203C250.289 17.1328 251.398 18.1484 252.867 18.1484ZM262.039 18.0625C262.336 18.0625 262.641 18.0469 262.875 17.9922L263.117 16.8516C262.938 16.875 262.773 16.8828 262.531 16.8828C261.859 16.8828 261.469 16.6172 261.469 15.9766C261.469 15.7656 261.5 15.5156 261.562 15.2188L262.523 10.7031H264.422L264.672 9.57812H262.758L263.219 7.39844H261.852L261.406 9.57812H259.984L259.75 10.7031H261.164L260.109 15.6328C260.055 15.8984 260.023 16.1406 260.023 16.3594C260.023 17.5 260.867 18.0625 262.039 18.0625ZM264.945 18H266.289L268.078 9.57812H266.734L264.945 18ZM267.922 7.95312C268.438 7.95312 268.859 7.53125 268.859 7.01562C268.859 6.5 268.438 6.07812 267.922 6.07812C267.406 6.07812 266.984 6.5 266.984 7.01562C266.984 7.53125 267.406 7.95312 267.922 7.95312ZM272.93 16.9375C271.617 16.9375 270.742 15.9609 270.742 14.5C270.742 12.1953 271.922 10.6406 273.656 10.6406C274.977 10.6406 275.773 11.6172 275.773 13.2188C275.773 15.2656 274.5 16.9375 272.93 16.9375ZM273.781 9.42969C271.164 9.42969 269.312 11.6016 269.312 14.6641C269.312 16.7266 270.719 18.1484 272.758 18.1484C275.328 18.1484 277.211 15.9297 277.211 12.8984C277.211 10.8359 275.82 9.42969 273.781 9.42969ZM278.352 18H279.719L280.812 12.8594C281.086 11.5859 281.992 10.6406 283.289 10.6406C284.414 10.6406 285.031 11.3281 285.031 12.3438C285.031 12.5859 284.992 12.8594 284.93 13.1641L283.898 18H285.266L286.344 12.9297C286.414 12.5859 286.453 12.2578 286.453 11.9609C286.453 10.625 285.477 9.42969 283.859 9.42969C282.602 9.42969 281.828 10.0859 281.305 10.8359H281.18L281.445 9.57812H280.141L278.352 18ZM21.9297 43H23.3047L24.8203 35.7031H26.75L26.9844 34.5781H25.0547L25.2031 33.7969C25.3828 32.8516 25.8594 32.4453 26.6328 32.4453C27 32.4453 27.2734 32.4844 27.4453 32.5234L27.6797 31.4141C27.4141 31.3594 27.1641 31.3125 26.7656 31.3125C25.0625 31.3125 24.1641 32.0312 23.8359 33.7578L23.6797 34.5781H22.2812L22.0469 35.7031H23.4453L21.9297 43ZM30.8359 41.9375C29.5234 41.9375 28.6484 40.9609 28.6484 39.5C28.6484 37.1953 29.8281 35.6406 31.5625 35.6406C32.8828 35.6406 33.6797 36.6172 33.6797 38.2188C33.6797 40.2656 32.4062 41.9375 30.8359 41.9375ZM31.6875 34.4297C29.0703 34.4297 27.2188 36.6016 27.2188 39.6641C27.2188 41.7266 28.625 43.1484 30.6641 43.1484C33.2344 43.1484 35.1172 40.9297 35.1172 37.8984C35.1172 35.8359 33.7266 34.4297 31.6875 34.4297ZM36.1953 43H37.5547L38.6094 38.0234C38.9453 36.4531 39.7188 35.7344 41.0703 35.7344C41.3516 35.7344 41.8906 35.7812 42.1328 35.8359L42.4219 34.5469C42.2578 34.4844 41.8047 34.4297 41.4375 34.4297C40.4531 34.4297 39.7344 34.8125 39.1797 35.6484H39.0547L39.2812 34.5781H37.9844L36.1953 43ZM49.9609 43.0625C50.2578 43.0625 50.5625 43.0469 50.7969 42.9922L51.0391 41.8516C50.8594 41.875 50.6953 41.8828 50.4531 41.8828C49.7812 41.8828 49.3906 41.6172 49.3906 40.9766C49.3906 40.7656 49.4219 40.5156 49.4844 40.2188L50.4453 35.7031H52.3438L52.5938 34.5781H50.6797L51.1406 32.3984H49.7734L49.3281 34.5781H47.9062L47.6719 35.7031H49.0859L48.0312 40.6328C47.9766 40.8984 47.9453 41.1406 47.9453 41.3594C47.9453 42.5 48.7891 43.0625 49.9609 43.0625ZM65.1719 34.5781H63.8203L60.7266 41.3125H60.6016L60.1562 34.5781H58.7891L55.5781 41.2422H55.4531L55.0703 34.5781H53.8438L54.4062 43H55.7656L58.9766 36.5391H59.1016L59.6484 43H61.0156L65.1719 34.5781ZM69.1328 41.9375C67.8203 41.9375 66.9453 40.9609 66.9453 39.5C66.9453 37.1953 68.125 35.6406 69.8594 35.6406C71.1797 35.6406 71.9766 36.6172 71.9766 38.2188C71.9766 40.2656 70.7031 41.9375 69.1328 41.9375ZM69.9844 34.4297C67.3672 34.4297 65.5156 36.6016 65.5156 39.6641C65.5156 41.7266 66.9219 43.1484 68.9609 43.1484C71.5312 43.1484 73.4141 40.9297 73.4141 37.8984C73.4141 35.8359 72.0234 34.4297 69.9844 34.4297ZM74.6016 45.8672L76.7734 41.4219H75.2812L73.5938 45.8672H74.6016ZM88.0859 43.1484C90.5156 43.1484 92.3984 40.7656 92.3984 37.6875C92.3984 35.8047 91.1094 34.4297 89.4141 34.4297C88.3047 34.4297 87.4062 34.875 86.7734 35.7266H86.6484L87.5859 31.2344H86.2422L83.7422 43H85.0312L85.375 41.4453H85.5C85.8359 42.4375 86.9141 43.1484 88.0859 43.1484ZM87.9844 41.9375C86.6797 41.9375 85.8672 41.0391 85.8672 39.6094C85.8672 37.3828 87.2266 35.6406 88.9688 35.6406C90.2422 35.6406 90.9922 36.4688 90.9922 37.8906C90.9922 40.2031 89.7031 41.9375 87.9844 41.9375ZM102.148 34.5781H100.789L99.7109 39.6406C99.4297 40.9766 98.4609 41.9375 97.1094 41.9375C96.0078 41.9375 95.4766 41.4375 95.4766 40.3594C95.4766 40.1641 95.5234 39.7188 95.5859 39.4141L96.6094 34.5781H95.2422L94.1875 39.6094C94.1172 39.9531 94.0703 40.4531 94.0703 40.7031C94.0703 42.0938 95.0547 43.1484 96.5859 43.1484C97.8516 43.1484 98.7266 42.5859 99.1953 41.8594H99.3203L99.0625 43H100.359L102.148 34.5781ZM105.852 43.0625C106.148 43.0625 106.453 43.0469 106.688 42.9922L106.93 41.8516C106.75 41.875 106.586 41.8828 106.344 41.8828C105.672 41.8828 105.281 41.6172 105.281 40.9766C105.281 40.7656 105.312 40.5156 105.375 40.2188L106.336 35.7031H108.234L108.484 34.5781H106.57L107.031 32.3984H105.664L105.219 34.5781H103.797L103.562 35.7031H104.977L103.922 40.6328C103.867 40.8984 103.836 41.1406 103.836 41.3594C103.836 42.5 104.68 43.0625 105.852 43.0625ZM116.227 41.9844C115.273 41.9844 114.609 41.4375 114.609 40.6719C114.609 39.7891 115.406 39.2188 116.781 39.1484L119.023 39.0391L118.812 40.0078C118.562 41.1484 117.492 41.9844 116.227 41.9844ZM115.805 43.1484C116.828 43.1484 117.766 42.6719 118.352 41.8984H118.477L118.242 43H119.547L120.719 37.4766C120.766 37.2422 120.789 37.0156 120.789 36.7891C120.789 35.3594 119.578 34.4297 117.727 34.4297C116.016 34.4297 114.703 35.2969 114.328 36.6875H115.75C116.016 36.0078 116.672 35.6328 117.617 35.6328C118.75 35.6328 119.422 36.1328 119.422 36.9844C119.422 37.1094 119.406 37.2109 119.375 37.3828L119.25 37.9531L116.859 38.0625C114.523 38.1641 113.227 39.1641 113.227 40.8203C113.227 42.1328 114.336 43.1484 115.805 43.1484ZM130.773 41.9375C129.469 41.9375 128.656 41.0391 128.656 39.6094C128.656 37.3828 130.016 35.6406 131.758 35.6406C133.031 35.6406 133.781 36.4688 133.781 37.8906C133.781 40.2031 132.492 41.9375 130.773 41.9375ZM127.281 45.8125L128.227 41.4453H128.352C128.648 42.4531 129.656 43.1484 130.875 43.1484C133.305 43.1484 135.188 40.7656 135.188 37.6875C135.188 35.8047 133.883 34.4297 132.188 34.4297C131.117 34.4297 130.109 34.9297 129.5 35.7266H129.375L129.617 34.5781H128.32L125.93 45.8125H127.281ZM144.93 34.5781H143.57L142.492 39.6406C142.211 40.9766 141.242 41.9375 139.891 41.9375C138.789 41.9375 138.258 41.4375 138.258 40.3594C138.258 40.1641 138.305 39.7188 138.367 39.4141L139.391 34.5781H138.023L136.969 39.6094C136.898 39.9531 136.852 40.4531 136.852 40.7031C136.852 42.0938 137.836 43.1484 139.367 43.1484C140.633 43.1484 141.508 42.5859 141.977 41.8594H142.102L141.844 43H143.141L144.93 34.5781ZM145.453 43H151.938L152.18 41.875H147.547L147.57 41.75L153.492 35.5859L153.719 34.5781H147.266L147.016 35.7031H151.656L151.633 35.8281L145.664 42.0156L145.453 43ZM154.078 43H160.562L160.805 41.875H156.172L156.195 41.75L162.117 35.5859L162.344 34.5781H155.891L155.641 35.7031H160.281L160.258 35.8281L154.289 42.0156L154.078 43ZM162.961 43H164.336L166.836 31.2344H165.461L162.961 43ZM168.953 38.0156C169.344 36.5781 170.32 35.6172 171.617 35.6172C172.883 35.6172 173.539 36.5547 173.539 37.6641C173.539 37.7969 173.531 37.9688 173.523 38.0156H168.953ZM170.781 43.1484C172.742 43.1484 174.07 42.1484 174.414 40.8516H172.984C172.633 41.5 171.977 41.9219 170.867 41.9219C169.852 41.9219 168.758 41.2578 168.758 39.5234C168.758 39.3828 168.766 39.2422 168.773 39.1016H174.844C174.898 38.7812 174.945 38.1641 174.945 37.8359C174.938 35.6484 173.477 34.4297 171.742 34.4297C169.172 34.4297 167.359 36.5156 167.359 39.625C167.359 41.8984 168.898 43.1484 170.781 43.1484ZM181.195 43H182.57L184.086 35.7031H186.016L186.25 34.5781H184.32L184.469 33.7969C184.648 32.8516 185.125 32.4453 185.898 32.4453C186.266 32.4453 186.539 32.4844 186.711 32.5234L186.945 31.4141C186.68 31.3594 186.43 31.3125 186.031 31.3125C184.328 31.3125 183.43 32.0312 183.102 33.7578L182.945 34.5781H181.547L181.312 35.7031H182.711L181.195 43ZM190.102 41.9375C188.789 41.9375 187.914 40.9609 187.914 39.5C187.914 37.1953 189.094 35.6406 190.828 35.6406C192.148 35.6406 192.945 36.6172 192.945 38.2188C192.945 40.2656 191.672 41.9375 190.102 41.9375ZM190.953 34.4297C188.336 34.4297 186.484 36.6016 186.484 39.6641C186.484 41.7266 187.891 43.1484 189.93 43.1484C192.5 43.1484 194.383 40.9297 194.383 37.8984C194.383 35.8359 192.992 34.4297 190.953 34.4297ZM195.461 43H196.82L197.875 38.0234C198.211 36.4531 198.984 35.7344 200.336 35.7344C200.617 35.7344 201.156 35.7812 201.398 35.8359L201.688 34.5469C201.523 34.4844 201.07 34.4297 200.703 34.4297C199.719 34.4297 199 34.8125 198.445 35.6484H198.32L198.547 34.5781H197.25L195.461 43ZM210.273 41.9375C208.961 41.9375 208.086 40.9609 208.086 39.5C208.086 37.1953 209.266 35.6406 211 35.6406C212.32 35.6406 213.117 36.6172 213.117 38.2188C213.117 40.2656 211.844 41.9375 210.273 41.9375ZM211.125 34.4297C208.508 34.4297 206.656 36.6016 206.656 39.6641C206.656 41.7266 208.062 43.1484 210.102 43.1484C212.672 43.1484 214.555 40.9297 214.555 37.8984C214.555 35.8359 213.164 34.4297 211.125 34.4297ZM215.695 43H217.062L218.156 37.8594C218.43 36.5859 219.336 35.6406 220.633 35.6406C221.758 35.6406 222.375 36.3281 222.375 37.3438C222.375 37.5859 222.336 37.8594 222.273 38.1641L221.242 43H222.609L223.688 37.9297C223.758 37.5859 223.797 37.2578 223.797 36.9609C223.797 35.625 222.82 34.4297 221.203 34.4297C219.945 34.4297 219.172 35.0859 218.648 35.8359H218.523L218.789 34.5781H217.484L215.695 43ZM227.094 38.0156C227.484 36.5781 228.461 35.6172 229.758 35.6172C231.023 35.6172 231.68 36.5547 231.68 37.6641C231.68 37.7969 231.672 37.9688 231.664 38.0156H227.094ZM228.922 43.1484C230.883 43.1484 232.211 42.1484 232.555 40.8516H231.125C230.773 41.5 230.117 41.9219 229.008 41.9219C227.992 41.9219 226.898 41.2578 226.898 39.5234C226.898 39.3828 226.906 39.2422 226.914 39.1016H232.984C233.039 38.7812 233.086 38.1641 233.086 37.8359C233.078 35.6484 231.617 34.4297 229.883 34.4297C227.312 34.4297 225.5 36.5156 225.5 39.625C225.5 41.8984 227.039 43.1484 228.922 43.1484ZM235.367 43.0781C235.93 43.0781 236.383 42.6172 236.383 42.0625C236.383 41.5 235.93 41.0469 235.367 41.0469C234.812 41.0469 234.352 41.5 234.352 42.0625C234.352 42.6172 234.812 43.0781 235.367 43.0781ZM240.422 36.1719L242.594 31.7266H241.102L239.414 36.1719H240.422ZM243.414 36.1719L245.742 31.7266H244.25L242.406 36.1719H243.414Z" fill="#4A4A4A"/>
<rect width="8" height="53" fill="#A090CB"/>
</svg>
